# This file uses centimeters as units for non-parametric coordinates.

mtllib Config_2.mtl
g default1
v 1.000000 0.220886 -1.000000
v 0.999999 0.220886 1.000000
v 0.833334 0.220886 -1.000000
v 0.833333 0.220886 1.000000
v 0.999999 2.220886 1.000000
v 1.000000 2.220886 -1.000000
v 0.833334 2.220886 -1.000000
v 0.833333 2.220886 1.000000
v 0.833333 0.220886 -0.833333
v 1.000000 0.220886 -0.833333
v 1.000000 2.220886 -0.833333
v 0.833333 2.220886 -0.833333
v -1.000000 0.220886 -1.000000
v -1.000000 0.220886 -0.833333
v -1.000000 2.220886 -1.000000
v -1.000000 2.220886 -0.833333
v 1.000000 0.020886 -1.000000
v 1.000000 0.020886 1.000000
v -1.000000 0.020886 1.000000
v -1.000000 0.020886 -1.000000
v -1.000000 0.220886 -1.000000
v 1.000000 0.220886 -0.999999
v -1.000000 0.220886 1.000000
v 0.999999 0.220886 1.000000
vt 0.511644 0.753248
vt 0.511644 0.962021
vt 0.511986 0.510727
vt 0.511986 0.719501
vt 0.303213 0.719501
vt 0.303213 0.510727
vt 0.510709 0.969987
vt 0.510709 0.987385
vt 0.301935 0.987385
vt 0.301935 0.969987
vt 0.510550 0.745088
vt 0.301776 0.745088
vt 0.301776 0.727690
vt 0.510550 0.727691
vt 0.521087 0.964509
vt 0.521087 0.755735
vt 0.538484 0.755735
vt 0.538484 0.964509
vt 0.239093 0.508487
vt 0.239093 0.717261
vt 0.221695 0.717261
vt 0.221695 0.508487
vt 0.319176 0.745065
vt 0.320270 0.753250
vt 0.320613 0.719499
vt 0.319176 0.727714
vt 0.319335 0.987361
vt 0.320613 0.510729
vt 0.320270 0.962019
vt 0.319335 0.970010
vt 0.221695 0.508487
vt 0.221695 0.717257
vt 0.030321 0.717258
vt 0.030321 0.508485
vt 0.221841 0.967179
vt 0.221841 0.984530
vt 0.030467 0.984554
vt 0.030467 0.967156
vt 0.007758 0.959190
vt 0.007758 0.750416
vt 0.025156 0.750416
vt 0.025156 0.959190
vt 0.031837 0.750764
vt 0.223211 0.750765
vt 0.223211 0.959535
vt 0.031837 0.959537
vt 0.030147 0.726415
vt 0.221521 0.726439
vt 0.221521 0.743789
vt 0.030147 0.743813
vt 0.242144 0.494139
vt 0.033370 0.494139
vt 0.033370 0.473262
vt 0.242144 0.473262
vt 0.035608 0.228272
vt 0.244382 0.228272
vt 0.244381 0.249150
vt 0.035608 0.249149
vt 0.035613 0.219065
vt 0.035613 0.010291
vt 0.244387 0.010292
vt 0.244387 0.219065
vt 0.034829 0.257257
vt 0.243604 0.257257
vt 0.243604 0.466031
vt 0.034829 0.466031
vt 0.026817 0.256273
vt 0.026817 0.465047
vt 0.005939 0.465047
vt 0.005939 0.256273
vt 0.272939 0.465496
vt 0.252062 0.465496
vt 0.252062 0.256722
vt 0.272939 0.256722
vn -0.000006 0.000000 1.000000
vn -0.000006 0.000000 1.000000
vn -0.000006 0.000000 1.000000
vn -0.000006 0.000000 1.000000
vn -1.000000 0.000000 -0.000000
vn -1.000000 0.000000 -0.000000
vn -1.000000 0.000000 -0.000000
vn -1.000000 0.000000 -0.000000
vn 0.000000 1.000000 0.000000
vn 0.000000 1.000000 0.000000
vn 0.000000 1.000000 0.000000
vn 0.000000 1.000000 0.000000
vn 1.000000 0.000000 0.000000
vn 1.000000 0.000000 0.000000
vn 1.000000 0.000000 0.000000
vn 1.000000 0.000000 0.000000
vn 0.000006 0.000000 -1.000000
vn 0.000006 0.000000 -1.000000
vn 0.000000 0.000000 -1.000000
vn 0.000000 0.000000 -1.000000
vn 0.000000 -1.000000 0.000000
vn 0.000000 -1.000000 0.000000
vn 0.000000 -1.000000 0.000000
vn 0.000000 -1.000000 0.000000
vn 0.000000 -1.000000 0.000000
vn 0.000000 -1.000000 0.000000
vn 0.000000 -1.000000 0.000000
vn 0.000000 -1.000000 0.000000
vn 1.000000 0.000000 0.000003
vn 1.000000 0.000000 0.000003
vn 1.000000 0.000000 0.000003
vn 1.000000 0.000000 0.000003
vn 0.000000 1.000000 0.000000
vn 0.000000 1.000000 0.000000
vn 0.000000 1.000000 0.000000
vn 0.000000 1.000000 0.000000
vn 0.000000 0.000000 -1.000000
vn 0.000000 0.000000 -1.000000
vn 0.000000 0.000000 -1.000000
vn 0.000000 0.000000 -1.000000
vn 0.000000 1.000000 0.000000
vn 0.000000 1.000000 0.000000
vn 0.000000 1.000000 0.000000
vn 0.000000 1.000000 0.000000
vn -1.000000 0.000000 0.000000
vn -1.000000 0.000000 0.000000
vn -1.000000 0.000000 0.000000
vn -1.000000 0.000000 0.000000
vn 0.000000 0.000000 1.000000
vn 0.000000 0.000000 1.000000
vn 0.000000 0.000000 1.000000
vn 0.000000 0.000000 1.000000
vn 0.000000 -1.000000 0.000000
vn 0.000000 -1.000000 0.000000
vn 0.000000 -1.000000 0.000000
vn 0.000000 -1.000000 0.000000
vn 0.000000 -1.000000 0.000000
vn 0.000000 -1.000000 0.000000
vn 0.000000 -1.000000 0.000000
vn 0.000000 -1.000000 0.000000
vn 0.000000 0.000000 -1.000000
vn 0.000000 0.000000 -1.000000
vn 0.000000 0.000000 -1.000000
vn 0.000000 0.000000 -1.000000
vn 0.000000 1.000000 0.000000
vn 0.000000 1.000000 0.000000
vn 0.000000 1.000000 0.000000
vn 0.000000 1.000000 0.000000
vn 1.000000 0.000000 0.000000
vn 1.000000 0.000000 0.000000
vn 1.000000 0.000000 0.000000
vn 1.000000 0.000000 0.000000
vn 0.000000 0.000000 1.000000
vn 0.000000 0.000000 1.000000
vn 0.000000 0.000000 1.000000
vn 0.000000 0.000000 1.000000
vn -1.000000 0.000000 0.000000
vn -1.000000 0.000000 0.000000
vn -1.000000 0.000000 0.000000
vn -1.000000 0.000000 0.000000
s off
g Config2 walls Config_2
usemtl initialShadingGroup1
f 8/15/1 4/16/2 2/17/3 5/18/4
f 12/29/5 9/24/6 4/1/7 8/2/8
f 8/7/9 5/8/10 11/27/11 12/30/12
f 5/3/13 2/4/14 10/25/15 11/28/16
f 6/19/17 1/20/18 3/21/19 7/22/20
f 4/11/21 9/23/22 10/26/23 2/14/24
f 10/26/25 9/23/26 3/12/27 1/13/28
f 11/28/29 10/25/30 1/5/31 6/6/32
f 12/30/33 11/27/34 6/9/35 7/10/36
f 7/31/37 3/32/38 13/33/39 15/34/40
f 12/35/41 7/36/42 15/37/43 16/38/44
f 15/39/45 13/40/46 14/41/47 16/42/48
f 14/43/49 9/44/50 12/45/51 16/46/52
f 13/47/53 3/48/54 9/49/55 14/50/56
g Config2 floor Config_2
f 20/59/57 17/60/58 18/61/59 19/62/60
f 21/67/61 22/68/62 17/69/63 20/70/64
f 21/63/65 23/64/66 24/65/67 22/66/68
f 18/51/69 17/52/70 22/53/71 24/54/72
f 18/71/73 24/72/74 23/73/75 19/74/76
f 20/55/77 19/56/78 23/57/79 21/58/80
