# File generated by ImageToStl.com - Free Image and 3D model conversion tools

o obj1
v -55 -163.00299072 19.00300598
v -55 -170 22
v -55 -163.00299072 11.9980011
v -55 -170 2
v -55 -138 2
v -55 -138 11.9980011
v -67 -170 2
v -67 -163.00299072 11.9980011
v -67 -138 11.9980011
v -55 -138 19.00300598
v -55 -138 22
v -67 -138 22
v -67 -138 19.00300598
v -67 -163.00299072 19.00300598
v -67 -170 22
v -67 -138 2
vn 1 0 0
vn 0 -1 0
vn 0 0 1
vn -1 0 0
vn 0 1 0
vn 0 0 -1
f 1//1 2//1 3//1
f 4//1 5//1 3//1
f 6//1 3//1 5//1
f 4//2 2//2 7//2
f 8//3 3//3 6//3
f 8//3 6//3 9//3
f 4//1 3//1 2//1
f 10//1 11//1 1//1
f 2//1 1//1 11//1
f 12//4 13//4 14//4
f 12//4 14//4 15//4
f 7//4 15//4 8//4
f 14//4 8//4 15//4
f 9//5 6//5 5//5
f 9//5 5//5 16//5
f 15//2 7//2 2//2
f 11//3 12//3 15//3
f 11//3 15//3 2//3
f 11//5 10//5 13//5
f 11//5 13//5 12//5
f 9//4 16//4 8//4
f 16//4 7//4 8//4
f 10//6 1//6 14//6
f 10//6 14//6 13//6
f 4//6 7//6 16//6
f 4//6 16//6 5//6
f 14//5 1//5 3//5
f 14//5 3//5 8//5
# Vertices: 16, normals: 6, texture coordinates: 0, faces: 28

