# 3ds Max Wavefront OBJ Exporter v0.97b - (c)2007 guruware
# File Created: 04.08.2014 09:31:15

mtllib Rubble264.mtl

#
# object Mesh_0264
#

v  -2.531406 -0.023155 0.326416
v  -2.575912 0.101675 0.464868
v  -2.899514 -0.019712 0.526784
v  -2.554559 0.020014 -0.478998
v  1.886673 -0.018365 -2.037200
v  1.754677 0.446018 -1.195974
v  -2.258307 0.316192 -0.445194
v  -1.950348 0.671651 0.023382
v  0.281676 0.860413 -0.331810
v  -0.367042 0.841345 -0.230549
v  -0.706974 1.172931 0.233444
v  -1.407612 1.276482 0.639069
v  1.347732 0.617674 -0.792512
v  1.115541 0.826636 -0.516600
v  0.583054 0.993470 -0.330425
v  -2.872900 -0.019523 -1.253125
v  -2.381564 0.328171 -1.200064
v  -2.722361 -0.014354 -1.842273
v  -2.222940 0.239559 -1.808471
v  -2.349744 -0.011101 -2.013463
v  -0.598506 0.231713 -2.452975
v  -0.745921 -0.008010 -2.629059
v  -1.992521 0.998837 -0.303311
v  -1.908662 0.910224 -0.911718
v  -1.578389 1.651412 0.296066
v  -0.818618 1.537216 -0.120099
v  -0.493623 1.255138 -0.631649
v  -1.130566 0.952555 -0.810996
v  -1.180405 0.826842 -1.392552
v  0.104585 1.276868 -0.755489
v  -0.520967 0.685802 -1.407966
v  -0.570805 0.560089 -1.989523
v  1.105730 0.383854 -2.761660
v  1.207877 -0.003562 -3.008971
v  0.471164 1.248464 -0.665879
v  0.948374 1.154737 -0.883432
v  1.131129 1.109631 -1.316752
v  0.424127 0.792258 -1.593577
v  0.374289 0.666544 -2.175134
v  1.672375 0.357151 -2.444818
v  1.603462 -0.004196 -2.817521
v  1.539621 0.849725 -1.635811
v  1.951318 0.009123 -2.617798
v  0.759566 0.219788 0.825926
v  0.773039 -0.059361 0.829934
v  0.273664 -0.048851 0.111479
v  0.260429 0.338245 0.086978
v  0.560601 0.455470 0.873156
v  0.125020 0.574267 0.207456
v  -0.534613 0.516488 0.714363
v  0.409104 0.412490 1.346702
v  0.558403 0.207318 1.377068
v  0.547728 -0.078433 1.388753
v  -0.447738 0.597430 0.034976
v  -1.493959 0.625381 0.054073
v  -1.413730 0.499231 0.729949
v  -0.916849 0.447931 1.046052
v  -0.247205 0.359057 1.574696
v  -0.385177 0.367744 -0.125347
v  -1.030945 0.636072 -0.220191
v  -1.580197 0.266038 -0.103510
v  -1.055218 0.340672 -0.432605
v  -1.555110 -0.018441 -0.091950
v  -1.034763 -0.041373 -0.434127
v  -0.362889 -0.016758 -0.113755
v  -1.670547 0.146848 1.732717
v  -1.635814 -0.064865 1.681193
v  -1.007585 -0.054886 1.763639
v  -1.028778 0.162270 1.787643
v  -1.573034 0.306346 1.659381
v  -1.008598 0.325254 1.689073
v  -1.767630 0.386488 1.297011
v  -0.743480 0.122794 2.021920
v  -0.773294 0.292747 1.882112
v  -0.162059 0.200902 1.670922
v  -0.708485 -0.096322 2.009434
v  -0.145489 -0.035271 1.659383
v  -1.903011 0.181311 1.287518
v  -1.886114 -0.026172 1.218898
v  -1.509839 0.212642 0.636266
v  -1.503548 -0.068528 0.617881
v  2.306202 0.991712 0.118677
v  2.771134 0.727695 -0.085599
v  2.864353 0.954530 -0.219238
v  2.360617 1.240645 0.006242
v  2.724390 1.081098 -0.404513
v  2.255723 1.344896 -0.207334
v  1.422226 1.138022 -0.285198
v  1.411812 1.010455 -0.075805
v  1.469122 0.783948 0.034470
v  0.368136 0.796222 0.235595
v  2.750520 0.587944 -0.871133
v  1.340894 0.608147 -0.741404
v  0.321239 1.150296 -0.072424
v  0.253544 1.014270 0.123129
v  2.946671 0.462746 -0.652303
v  2.305992 -0.017571 -1.519687
v  0.993425 -0.016028 -1.403103
v  -0.335666 0.663195 -0.395325
v  -0.436452 0.500744 -0.217562
v  2.825550 0.304472 -0.447099
v  2.531934 -0.022372 -1.120102
v  2.337117 -0.040578 -0.672295
v  -0.288769 0.309121 -0.087306
v  -0.945673 -0.033119 -0.291129
v  -1.126448 -0.037005 -0.681196
v  -1.091787 -0.017606 -1.223960
v  0.584034 -0.034662 -0.502810
v  1.026578 0.254073 -0.226816
v  -0.356907 0.538662 0.634340
v  -0.143212 0.538941 0.247579
v  -0.336419 0.756751 0.337158
v  -0.499062 0.663492 0.665022
v  -0.474189 0.793249 0.494225
v  -0.714485 0.542105 0.415733
v  -0.506183 0.533216 0.162100
v  2.191299 -0.044597 -1.523458
v  2.103180 -0.173256 -1.709696
v  2.127634 -0.069109 -1.916087
v  2.190292 0.128963 -1.666048
v  2.303970 0.224262 -1.540887
v  2.284031 -0.011311 -1.355599
v  2.033873 0.245376 -1.037274
v  2.053813 0.480949 -1.222561
v  1.894689 0.171299 -1.947237
v  1.937803 0.350443 -1.824908
v  2.014752 0.413455 -1.742114
v  1.846541 0.584409 -1.530136
v  1.569801 0.472479 -1.248534
v  1.654385 -0.001103 -1.893391
v  1.700306 0.163743 -1.950931
v  1.717115 0.339629 -1.832726
v  1.659571 -0.074519 -1.705866
v  1.549676 0.296099 -1.101714
v  1.628170 0.576589 -1.537801
v  1.840260 0.606182 -0.769401
v  1.936641 0.298695 -1.070365
v  1.931507 0.539392 -1.105026
v  1.845270 0.721977 -0.804909
v  1.888199 0.739527 -0.995862
v  1.546238 0.686202 -1.136990
v  1.438579 0.626849 -0.956983
v  1.427386 0.485357 -0.886101
v  1.651972 0.494542 -1.224398
v  1.670073 0.216154 -1.144187
v  1.604970 0.733627 -0.621094
v  1.537539 0.822303 -0.635456
v  1.360509 0.717442 -0.638799
v  1.349012 0.673305 -0.684441
v  1.506730 0.807878 -0.757350
v  1.539359 0.709423 -0.825852
v  1.405611 0.581747 -0.767559
v  1.618888 0.551054 -0.804227
v  -0.678869 0.161788 2.917155
v  -0.682711 0.226474 3.139971
v  -0.706009 0.079545 3.268357
v  -0.722383 -0.027279 3.213449
v  -0.701962 -0.032783 2.773030
v  -1.136150 0.126193 3.166494
v  -0.983700 -0.034767 2.710252
v  -1.158083 -0.023725 3.119452
v  -0.973448 0.218861 2.851069
v  -1.042324 0.293910 3.063618
v  1.871065 0.003258 0.298306
v  2.041377 -0.006350 0.125378
v  2.149478 0.196083 0.088267
v  1.884584 0.226185 0.274286
v  1.787772 0.243709 0.441590
v  1.766813 -0.055762 0.451708
v  1.291923 -0.036326 0.389251
v  1.312883 0.263144 0.379133
v  1.949755 0.396814 -0.092972
v  1.781701 0.480627 0.023857
v  1.718393 0.492315 0.136115
v  1.401479 0.505165 0.093049
v  1.902587 0.207456 -0.321636
v  1.876811 0.379253 -0.272490
v  1.702762 0.460843 -0.181712
v  1.804366 0.043007 -0.259254
v  1.321789 0.487939 -0.109828
v  1.138228 0.237294 -0.072354
v  1.114399 0.008234 -0.066459
v  2.022640 0.347555 0.404905
v  2.241884 -0.025539 0.256035
v  1.858715 -0.018639 0.368847
v  2.282394 0.258088 0.323781
v  2.175212 0.368930 0.374170
v  2.190474 0.282680 0.742612
v  2.314492 0.194263 0.749329
v  2.252218 -0.046159 0.708729
v  2.030007 0.264179 0.718874
v  2.060923 0.262134 1.096531
v  2.162135 0.186225 1.154515
v  2.100284 -0.057944 1.137862
v  1.875566 -0.030871 0.667471
v  1.782322 -0.041129 0.952807
v  1.935054 0.264470 1.024936
v  1.311977 0.174456 0.712590
v  1.308135 0.211183 0.941681
v  1.284837 0.049549 1.050977
v  1.268463 -0.049692 0.983319
v  1.288884 -0.000865 0.545581
v  0.854696 0.108398 0.955641
v  1.007146 0.004903 0.483037
v  0.832764 -0.034579 0.890478
v  1.017399 0.239239 0.654043
v  0.948523 0.287517 0.874223
v  0.940978 -0.035026 1.610458
v  0.712881 -0.034747 1.232012
v  0.693855 0.183063 1.444124
v  0.896472 0.089804 1.748909
v  0.760994 0.162895 1.595177
v  0.572869 -0.031582 1.810826
v  0.495820 -0.029764 1.732203
v  0.457368 -0.040472 1.503614
v  -1.803064 0.012465 2.690144
v  -1.983708 0.277917 2.808680
v  -2.345718 0.248656 2.706194
v  -2.106508 -0.096584 2.601031
v  -2.209710 0.297476 2.540274
v  -1.980891 -0.095494 2.406906
v  -1.805283 -0.000618 2.478506
v  -2.010014 0.328593 2.604459
v  -2.462582 0.443661 1.656857
v  -2.157537 -0.034255 1.582372
v  -2.163543 0.240708 1.454683
v  -2.291916 -0.026369 1.705275
v  -2.541719 0.245656 1.827179
v  -2.530622 0.366246 1.758602
v  -2.796774 0.182863 1.490355
v  -2.562773 -0.033378 1.352965
v  -2.739671 0.315803 1.455648
v  -2.853255 0.377819 1.103920
v  -2.976423 0.199373 1.088421
v  -2.790071 -0.027931 0.967154
v  -2.632457 0.409450 1.390881
v  -2.703422 0.416265 1.064915
v  -2.611211 -0.034469 0.902403
v  -2.333154 0.200314 1.212339
v  -2.425823 0.224594 0.923005
v  -2.408226 -0.039990 1.259853
v  -1.906583 0.485870 -0.216851
v  -2.072371 0.384428 -0.365027
v  -2.292193 0.401154 -0.286869
v  -2.070064 0.482112 -0.060840
v  -1.962328 0.605223 0.045800
v  -1.747648 0.588497 -0.166264
v  -1.449680 0.360270 0.136664
v  -1.664361 0.376995 0.348729
v  -2.341655 0.171880 -0.043120
v  -2.243665 0.226166 0.149159
v  -2.172477 0.309361 0.219618
v  -1.973982 0.155747 0.421417
v  -2.239616 0.003798 0.144545
v  -1.970257 -0.064208 0.419735
v  -2.335145 -0.023768 -0.044832
v  -1.666154 -0.067845 0.352760
v  -1.497098 -0.085173 0.195130
v  -1.945659 -0.088309 -0.168196
v  -2.059515 -0.058389 -0.251662
v  -2.255333 -0.071279 -0.200940
v  -2.759503 -0.022876 -0.052029
v  -2.778529 0.194934 0.160083
v  -2.711390 0.231431 0.357928
v  -2.976563 -0.017893 0.448162
v  -3.015015 -0.028601 0.219573
v  -0.896033 0.548338 1.325006
v  -0.899875 0.570955 1.555917
v  -0.923173 0.402925 1.655101
v  -0.939547 0.308018 1.581488
v  -0.919126 0.383582 1.147565
v  -1.353314 0.467507 1.563551
v  -1.200864 0.393173 1.085494
v  -1.375247 0.328793 1.489747
v  -1.190611 0.616588 1.270540
v  -1.259487 0.651279 1.493264
# 276 vertices

vn 0.367080 -0.629090 0.685199
vn 0.189432 -0.433039 0.881245
vn 0.166816 -0.851889 0.496444
vn 0.143325 -0.843820 0.517132
vn 0.184998 -0.292136 0.938313
vn 0.142545 -0.801975 0.580100
vn 0.128650 -0.828968 0.544299
vn 0.158746 -0.710607 0.685447
vn 0.171845 -0.145370 0.974339
vn 0.183738 -0.731091 0.657074
vn 0.218942 -0.785581 0.578728
vn -0.043101 -0.921564 0.385826
vn 0.123815 -0.713911 0.689203
vn 0.180397 -0.417868 0.890417
vn -0.596043 0.802914 -0.007811
vn -0.698307 0.669609 0.252965
vn -0.850851 0.479142 0.215582
vn -0.657047 0.747225 -0.099719
vn -0.494396 0.848209 -0.190039
vn -0.351684 0.787734 -0.505760
vn -0.287618 0.688408 -0.665861
vn -0.306854 0.690721 -0.654786
vn -0.198995 0.726150 -0.658109
vn -0.266605 0.671669 -0.691218
vn -0.749560 0.661509 -0.023777
vn -0.358770 0.890099 -0.281082
vn -0.882396 0.238557 0.405546
vn -0.770609 0.633758 -0.067170
vn 0.342235 0.937579 -0.061819
vn 0.106417 0.979212 -0.172684
vn -0.129060 0.909447 -0.395285
vn -0.070823 0.912611 -0.402648
vn -0.810023 0.149725 0.566961
vn 0.417572 0.709511 0.567650
vn 0.423696 0.703659 0.570391
vn 0.652359 0.621257 0.434129
vn 0.508880 0.679869 0.528034
vn -0.080293 0.995653 0.047199
vn -0.038836 0.930953 -0.363067
vn -0.129985 0.890729 -0.435552
vn 0.089136 0.765772 -0.636906
vn 0.116682 0.564722 -0.816991
vn -0.147615 0.642865 -0.751622
vn -0.108235 0.685980 0.719525
vn 0.105766 0.774247 0.623983
vn 0.122558 0.948669 0.291559
vn 0.450232 0.869094 0.204858
vn 0.334930 0.917222 -0.215701
vn -0.093372 0.901168 -0.423295
vn -0.054598 0.916699 -0.395830
vn 0.412708 0.764287 0.495517
vn 0.552397 0.753210 -0.357117
vn 0.380224 0.609840 -0.695360
vn 0.542853 0.812164 -0.213776
vn 0.790423 0.593240 0.152634
vn 0.903704 0.418731 -0.089353
vn 0.802516 0.585036 0.117051
vn 0.647354 0.684986 -0.334256
vn 0.712572 0.644604 0.276996
vn 0.772049 0.606343 0.190496
vn 0.808530 0.296650 -0.508211
vn 0.820940 0.031435 -0.570149
vn 0.826858 0.000153 -0.562411
vn 0.808066 0.342308 -0.479431
vn 0.525219 0.850549 0.026664
vn 0.334918 0.879076 -0.339198
vn 0.004645 0.987711 0.156221
vn 0.375725 0.784148 0.493905
vn 0.894246 0.297058 0.334783
vn 0.886140 0.310569 0.343952
vn 0.935435 0.030294 0.352198
vn 0.927507 -0.019385 0.373302
vn 0.181345 0.921177 -0.344305
vn -0.620800 0.763646 -0.177347
vn -0.483870 0.873441 0.054510
vn -0.018007 0.982173 0.187113
vn 0.136732 0.865926 0.481120
vn 0.352509 0.313923 -0.881584
vn -0.041963 0.853595 -0.519244
vn -0.523145 0.194642 -0.829719
vn -0.547926 0.248225 -0.798850
vn -0.531384 -0.061753 -0.844877
vn -0.550056 -0.026125 -0.834719
vn 0.322165 0.227060 -0.919050
vn 0.367807 -0.009099 -0.929857
vn 0.400278 0.253503 -0.880632
vn 0.331013 -0.048331 -0.942388
vn 0.429460 0.026589 -0.902694
vn -0.108467 0.071171 0.991549
vn -0.121909 -0.253541 0.959612
vn -0.398459 -0.153063 0.904324
vn -0.356275 0.227402 0.906287
vn -0.255337 0.771304 0.583004
vn -0.140513 0.866877 0.478310
vn -0.577697 0.812914 0.073738
vn -0.854812 0.162372 0.492881
vn -0.094481 0.243810 0.965210
vn -0.102697 0.786142 0.609453
vn 0.389391 0.318270 0.864337
vn 0.365013 0.168315 0.915661
vn -0.640104 -0.145222 0.754439
vn 0.516476 0.025316 0.855927
vn 0.450240 -0.007069 0.892879
vn 0.364877 0.024428 0.930735
vn -0.877433 0.086322 0.471868
vn -0.866385 -0.240461 0.437670
vn -0.865525 -0.219396 0.450258
vn -0.968965 0.176666 -0.172905
vn -0.787795 0.414423 -0.455668
vn -0.976394 -0.006877 -0.215887
vn -0.834905 0.110344 -0.539220
vn -0.994908 0.047487 0.088899
vn -0.994179 -0.084982 0.066222
vn 0.512613 0.260993 0.817992
vn 0.511746 0.270173 0.815550
vn 0.580542 0.566324 0.585020
vn 0.583503 0.638588 0.501727
vn 0.479781 0.779674 -0.402391
vn 0.027573 0.983270 -0.180054
vn -0.117643 0.967593 -0.223438
vn -0.030258 0.673152 0.738885
vn -0.220817 0.651466 0.725832
vn -0.183123 0.430800 0.883673
vn -0.023626 0.432769 0.901195
vn 0.149005 0.507597 0.848612
vn 0.482450 0.513725 -0.709457
vn -0.087613 0.705623 -0.703150
vn -0.233125 0.971673 -0.038783
vn 0.128508 0.665262 0.735467
vn 0.980278 -0.089596 -0.176145
vn 0.204696 0.622362 -0.755490
vn -0.076891 0.757084 -0.648777
vn -0.496325 0.842094 -0.211043
vn -0.656893 0.519874 0.546097
vn -0.650448 0.487603 0.582375
vn 0.984000 0.177571 -0.014608
vn 0.914613 -0.174341 0.364811
vn 0.837115 -0.507215 0.204870
vn 0.825199 -0.480395 -0.297098
vn 0.507930 -0.840903 0.186787
vn -0.527408 0.155006 0.835352
vn -0.480734 0.208462 0.851727
vn -0.684481 0.594797 0.421548
vn -0.646591 0.758339 0.082713
vn -0.375015 0.865165 -0.332947
vn 0.084579 -0.648772 0.756268
vn 0.103724 -0.648306 0.754282
vn 0.056794 -0.717168 0.694583
vn 0.089900 -0.641656 0.761706
vn 0.085889 -0.584101 0.807124
vn 0.116700 -0.539541 0.833833
vn 0.071931 -0.613957 0.786055
vn 0.049731 -0.612128 0.789193
vn -0.037325 -0.651801 0.757471
vn 0.104318 -0.660360 0.743668
vn 0.680292 0.567743 0.463542
vn 0.757903 0.499921 0.419121
vn 0.721554 0.526415 0.449719
vn 0.652723 0.579063 0.488506
vn 0.699824 0.516014 0.493938
vn -0.409859 -0.629089 0.660502
vn -0.716906 -0.133136 0.684340
vn -0.815592 0.574760 -0.066795
vn -0.654817 0.736156 -0.171138
vn -0.265691 0.683267 -0.680114
vn -0.174244 0.685749 -0.706673
vn 0.189193 0.512337 -0.837686
vn 0.897698 -0.321972 -0.300787
vn 0.890108 -0.440522 -0.116830
vn 0.555992 -0.351909 -0.753016
vn 0.834923 0.049311 -0.548154
vn 0.945012 0.245867 -0.215643
vn 0.994699 -0.003355 0.102776
vn 0.851348 0.277906 0.444942
vn 0.473461 0.759696 0.445755
vn 0.226474 0.239186 -0.944192
vn 0.308244 0.561280 -0.768082
vn 0.486314 0.650069 -0.583874
vn 0.180780 0.970422 -0.159999
vn -0.041486 0.806251 0.590117
vn -0.047648 0.626400 0.778044
vn -0.122777 -0.662132 -0.739261
vn 0.016569 0.061658 -0.997960
vn -0.007516 0.679241 -0.733877
vn -0.162867 -0.886576 -0.432963
vn -0.206268 -0.913080 -0.351764
vn -0.034741 0.641716 0.766155
vn -0.031757 0.993542 -0.108929
vn 0.966209 0.042300 0.254267
vn 0.966219 0.056809 0.251382
vn 0.829624 0.181361 -0.528045
vn 0.370701 0.678070 0.634667
vn 0.602623 0.775098 -0.189918
vn -0.491495 0.625266 -0.606197
vn -0.879656 0.466640 0.091935
vn -0.392305 0.410355 0.823229
vn -0.337811 0.289261 0.895663
vn -0.199139 0.009917 -0.979921
vn -0.812078 -0.209471 -0.544657
vn -0.811750 -0.208977 -0.545336
vn 0.367241 -0.186627 -0.911210
vn 0.301704 -0.129581 -0.944555
vn -0.078511 0.100928 0.991791
vn 0.197742 0.870481 0.450734
vn -0.463559 0.795062 -0.391138
vn -0.599004 0.548917 -0.582996
vn 0.000392 0.860730 -0.509062
vn 0.208640 0.367708 -0.906234
vn -0.487523 0.115587 -0.865425
vn 0.448860 0.104221 -0.887503
vn 0.812079 0.489258 -0.318048
vn 0.988069 -0.146780 0.046638
vn 0.992266 -0.113574 0.050083
vn 0.987549 -0.151945 0.040733
vn 0.985537 -0.164766 0.039599
vn 0.987156 -0.152479 0.047677
vn -0.887835 0.254004 -0.383706
vn -0.888399 0.249978 -0.385043
vn -0.888086 0.250803 -0.385229
vn -0.888090 0.253041 -0.383753
vn -0.886766 0.262889 -0.380177
vn -0.239870 -0.287127 0.927373
vn -0.194228 -0.424734 0.884238
vn -0.159902 0.148891 0.975839
vn -0.216094 0.122582 0.968647
vn 0.054200 0.915441 0.398786
vn 0.104907 0.933275 0.343501
vn 0.275356 0.766533 -0.580177
vn 0.250438 0.787251 -0.563487
vn 0.235128 0.507765 -0.828788
vn 0.174453 0.572643 -0.801028
vn 0.761916 -0.038884 0.646507
vn 0.685016 -0.239681 0.687972
vn 0.973471 0.163380 0.160191
vn 0.723170 0.401898 0.561698
vn 0.417289 0.388304 0.821638
vn 0.333254 0.008530 0.942799
vn -0.128569 0.042474 0.990791
vn -0.455815 0.351412 0.817766
vn 0.667206 0.737098 -0.107346
vn 0.399342 0.912366 0.090075
vn 0.288534 0.896193 0.337027
vn 0.002716 0.969236 0.246118
vn 0.849325 -0.148196 -0.506640
vn 0.715119 0.605195 -0.349778
vn 0.182007 0.969616 -0.163455
vn 0.724359 -0.506860 -0.467330
vn 0.660315 -0.576814 -0.480905
vn 0.050951 0.993235 -0.104347
vn -0.763855 0.592058 0.256890
vn -0.763203 0.596186 0.249165
vn -0.763862 0.592013 0.256973
vn -0.764248 0.589350 0.261901
vn -0.926040 0.095738 0.365081
vn -0.923056 0.105548 0.369902
vn -0.929061 0.085369 0.359941
vn -0.538218 0.757772 -0.368921
vn -0.246247 0.230890 -0.941303
vn -0.272321 0.214268 -0.938046
vn 0.663823 0.392495 -0.636622
vn 0.182408 0.868282 -0.461317
vn 0.289817 0.944497 0.154697
vn 0.943140 0.291292 0.160115
vn 0.963471 -0.244626 0.109000
vn 0.990482 -0.134605 -0.028741
vn -0.550941 0.833915 0.032412
vn -0.113353 0.729962 0.674023
vn 0.427101 0.292055 0.855739
vn 0.906805 -0.264460 0.328277
vn -0.899940 0.425105 0.096921
vn -0.875944 0.474068 -0.089337
vn -0.837500 0.481569 -0.258235
vn -0.605007 0.698066 0.382976
vn -0.492253 0.051434 0.868931
vn -0.499194 0.067532 0.863855
vn 0.988069 -0.151410 0.028190
vn 0.992266 -0.118883 0.035701
vn 0.987549 -0.155808 0.021692
vn 0.985537 -0.168391 0.018988
vn 0.987156 -0.157193 0.028519
vn -0.887835 0.299365 -0.349470
vn -0.888399 0.295534 -0.351293
vn -0.888086 0.296374 -0.351376
vn -0.888090 0.298415 -0.349636
vn -0.886766 0.307748 -0.344873
vn -0.239870 -0.399249 0.884908
vn -0.194228 -0.530490 0.825140
vn -0.159902 0.027468 0.986751
vn -0.216093 0.002247 0.976370
vn 0.054201 0.859303 0.508587
vn 0.104906 0.883816 0.455922
vn 0.275356 0.832203 -0.481267
vn 0.250437 0.850706 -0.462148
vn 0.235129 0.606052 -0.759878
vn 0.174454 0.667014 -0.724333
vn 0.741585 0.567742 -0.357379
vn 0.741921 0.499921 -0.446803
vn 0.734232 0.556467 -0.388907
vn 0.725302 0.623759 -0.291311
vn 0.607810 0.776433 -0.166489
vn 0.367081 -0.629091 0.685198
vn 0.161051 -0.040938 0.986097
vn -0.220810 0.840782 0.494296
vn -0.455527 0.840308 0.293899
vn -0.359429 0.816309 0.452162
vn -0.641431 0.754602 -0.138351
vn -0.699142 0.695223 -0.166931
vn -0.630860 0.512337 -0.582689
vn -0.162943 -0.434559 0.885781
vn -0.196346 -0.508098 0.838620
vn -0.762166 -0.626525 0.163000
vn -0.814065 -0.548638 0.190511
vn -0.468820 0.601726 -0.646632
vn -0.302442 0.143688 -0.942275
vn 0.539774 0.566686 -0.622504
vn 0.358047 0.890202 -0.281678
vn 0.842758 0.538291 0.001320
vn 0.816647 0.575448 -0.044135
vn -0.171533 0.966077 0.193061
vn -0.149733 0.954943 0.256250
vn 0.227342 0.910224 0.346134
vn 0.660174 0.315114 0.681816
vn 0.670939 0.324321 0.666826
vn 0.656071 0.309138 0.688480
vn -0.190143 -0.020828 0.981535
vn -0.113337 0.651146 0.750443
vn -0.830174 -0.226069 0.509611
vn -0.517280 -0.763531 0.386577
vn -0.554338 -0.706335 0.440228
vn -0.701796 0.617736 0.354802
vn -0.614508 0.722063 -0.317812
vn -0.960983 0.003705 -0.276584
vn -0.616557 -0.732975 0.287412
vn -0.088766 0.995531 0.032234
vn -0.020988 0.855296 -0.517714
vn -0.295981 0.261032 -0.918835
vn -0.324475 0.224236 -0.918931
vn 0.735525 0.321415 -0.596401
vn 0.850996 0.310053 -0.423877
vn 0.916996 0.193090 -0.349048
vn 0.807743 -0.366008 -0.462157
vn 0.748959 -0.501521 -0.433056
vn 0.765158 -0.257352 -0.590172
vn -0.280892 0.274151 -0.919750
vn -0.301478 0.872497 -0.384525
vn -0.104286 0.871192 -0.479738
vn -0.617810 0.637310 -0.460594
vn -0.589021 0.806923 -0.043937
vn -0.288552 0.938902 0.187618
vn 0.055168 0.998215 -0.022880
vn 0.366888 0.879873 0.302020
vn 0.068018 0.827351 0.557552
vn -0.849994 0.341559 0.401058
vn -0.844531 0.283283 0.454443
vn -0.681171 0.472758 0.559023
vn -0.559493 0.290358 0.776312
vn -0.810041 -0.027138 0.585744
vn -0.716683 -0.017467 0.697180
vn -0.890357 -0.033600 0.454021
vn 0.219652 0.002839 0.975574
vn 0.215039 -0.003826 0.976598
vn 0.477891 0.010114 0.878361
vn 0.537316 0.005477 0.843363
vn 0.696804 0.009677 0.717196
vn 0.683043 0.023104 0.730012
vn 0.593571 -0.165608 -0.787558
vn 0.546700 -0.192734 -0.814845
vn 0.678472 -0.119911 -0.724774
vn 0.487680 -0.106614 -0.866488
vn 0.537316 -0.154835 -0.829046
vn 0.625716 -0.175252 -0.760109
vn 0.621317 -0.166632 -0.765636
vn -0.930876 -0.102959 -0.350527
vn -0.940579 -0.130413 -0.313534
vn -0.922193 -0.082101 -0.377914
vn -0.893244 -0.025796 -0.448831
vn -0.262657 -0.231800 -0.936632
vn -0.313416 -0.207808 -0.926599
vn -0.227625 -0.247696 -0.941718
vn 0.741585 0.567743 -0.357379
vn 0.750246 0.526414 -0.400024
vn 0.749421 0.579063 -0.321021
vn 0.777676 0.516012 -0.359097
vn -0.506901 0.802712 0.314172
vn -0.284281 0.910708 0.299659
vn -0.209264 0.592520 0.777900
vn -0.476587 0.699571 0.532415
vn -0.696646 0.687121 -0.206273
vn -0.699142 0.695222 -0.166931
vn -0.630860 0.512336 -0.582690
vn 0.988069 -0.152852 0.018858
vn 0.992266 -0.120846 0.028348
vn 0.987549 -0.156845 0.012102
vn 0.985537 -0.169238 0.008631
vn 0.987156 -0.158645 0.018831
vn -0.887835 0.320221 -0.330466
vn -0.888399 0.316510 -0.332520
vn -0.888085 0.317354 -0.332552
vn -0.888089 0.319284 -0.330690
vn -0.886766 0.328306 -0.325364
vn -0.239871 -0.452732 0.858775
vn -0.194228 -0.580067 0.791074
vn -0.159903 -0.033061 0.986579
vn -0.216094 -0.057599 0.974672
vn 0.054200 0.826515 0.560299
vn 0.104906 0.854210 0.509234
vn 0.275356 0.860135 -0.429356
vn 0.250438 0.877431 -0.409140
vn 0.235128 0.651486 -0.721305
vn 0.174452 0.710155 -0.682090
# 410 vertex normals

vt -0.809160 0.803366 0.000000
vt -0.693495 0.782929 0.000000
vt -0.790451 0.634476 0.000000
vt 0.113540 0.277966 0.000000
vt 1.262597 0.214023 0.000000
vt 1.179271 0.419370 0.000000
vt 0.181666 0.351913 0.000000
vt 0.225670 0.499401 0.000000
vt 0.779836 0.567833 0.000000
vt 0.616655 0.555289 0.000000
vt 0.507379 0.673533 0.000000
vt 0.316221 0.725380 0.000000
vt 1.054700 0.495963 0.000000
vt 0.983884 0.562158 0.000000
vt 0.851689 0.602776 0.000000
vt 1.100398 0.171357 0.000000
vt 1.201255 0.329763 0.000000
vt 1.126960 0.393087 0.000000
vt 0.996744 0.258382 0.000000
vt 1.025387 0.062871 0.000000
vt 0.911310 0.130271 0.000000
vt 0.926961 0.050708 0.000000
vt 0.489121 0.094882 0.000000
vt 0.511535 0.021265 0.000000
vt 0.959638 0.539274 0.000000
vt 0.898862 0.411387 0.000000
vt 1.094910 0.548587 0.000000
vt 0.906933 0.764292 0.000000
vt 0.709769 0.711153 0.000000
vt 0.579818 0.623171 0.000000
vt 0.724388 0.482098 0.000000
vt 0.696582 0.347193 0.000000
vt 1.016250 0.779295 0.000000
vt 0.880447 0.905638 0.000000
vt 0.692883 0.849113 0.000000
vt 0.539889 0.814070 0.000000
vt 0.427640 0.614671 0.000000
vt 0.541884 0.364962 0.000000
vt 0.514079 0.230057 0.000000
vt 0.071099 0.151228 0.000000
vt 0.030535 0.059525 0.000000
vt 0.369951 0.792459 0.000000
vt 0.294098 0.769462 0.000000
vt 0.341106 0.644284 0.000000
vt 0.205969 0.621246 0.000000
vt 0.161851 0.531729 0.000000
vt 0.309090 0.396068 0.000000
vt 0.281285 0.261163 0.000000
vt 0.148153 0.758421 0.000000
vt -0.038074 0.246045 0.000000
vt -0.062417 0.130628 0.000000
vt 0.042666 0.458383 0.000000
vt -0.110585 0.520983 0.000000
vt -0.193113 0.285441 0.000000
vt -0.176248 0.159474 0.000000
vt 0.006089 0.639653 0.000000
vt 0.085911 0.699274 0.000000
vt 3.884414 0.363279 0.000000
vt 3.790270 0.338166 0.000000
vt 3.936952 0.123788 0.000000
vt 4.058787 0.160380 0.000000
vt 4.007185 0.395510 0.000000
vt 4.159137 0.222508 0.000000
vt 4.314991 0.378271 0.000000
vt 4.039128 0.525335 0.000000
vt 3.894838 0.382380 0.000000
vt 3.939547 0.535776 0.000000
vt 3.794794 0.402217 0.000000
vt 3.840875 0.559661 0.000000
vt 4.312722 0.188923 0.000000
vt 4.594215 0.225670 0.000000
vt 4.558099 0.400943 0.000000
vt 4.409174 0.482080 0.000000
vt 4.209584 0.607917 0.000000
vt 4.279160 0.094952 0.000000
vt 4.479720 0.138067 0.000000
vt 4.674924 0.115462 0.000000
vt 4.537980 0.032343 0.000000
vt 4.744592 0.026953 0.000000
vt 4.622549 -0.076342 0.000000
vt 4.104485 0.147852 0.000000
vt 4.233225 -0.006669 0.000000
vt 4.461111 0.016882 0.000000
vt 4.059675 0.046483 0.000000
vt 4.416714 -0.085670 0.000000
vt 4.584719 0.741175 0.000000
vt 4.592580 0.802234 0.000000
vt 4.437045 0.808366 0.000000
vt 4.428421 0.744820 0.000000
vt 4.564883 0.676567 0.000000
vt 4.419424 0.672360 0.000000
vt 4.631248 0.573214 0.000000
vt 4.626575 0.734810 0.000000
vt 4.340395 0.766922 0.000000
vt 4.349604 0.700744 0.000000
vt 4.169096 0.661155 0.000000
vt 3.975521 0.578480 0.000000
vt 4.344950 0.832083 0.000000
vt 4.298284 0.838794 0.000000
vt 4.138950 0.731660 0.000000
vt 3.948551 0.665125 0.000000
vt 4.722414 0.627611 0.000000
vt 4.702873 0.794494 0.000000
vt 4.802911 0.681967 0.000000
vt 4.686870 0.380841 0.000000
vt 4.755791 0.569330 0.000000
vt 4.821096 0.386946 0.000000
vt 4.883063 0.573900 0.000000
vt 4.719015 0.207621 0.000000
vt 4.845426 0.200519 0.000000
vt 2.236444 0.970542 0.000000
vt 2.092806 0.872070 0.000000
vt 2.129407 0.804562 0.000000
vt 2.273674 0.904374 0.000000
vt 2.214273 0.756527 0.000000
vt 2.339856 0.840830 0.000000
vt 2.588990 0.792065 0.000000
vt 2.606019 0.878422 0.000000
vt 2.329728 0.914954 0.000000
vt 2.359787 0.983231 0.000000
vt 2.602124 0.946938 0.000000
vt 2.907703 0.913952 0.000000
vt 2.240513 0.595233 0.000000
vt 2.598267 0.590294 0.000000
vt 2.884111 0.786192 0.000000
vt 2.926680 0.843301 0.000000
vt 2.145353 0.597655 0.000000
vt 2.332854 0.360931 0.000000
vt 2.664904 0.354792 0.000000
vt 3.029325 0.623791 0.000000
vt 3.090930 0.643405 0.000000
vt 2.930522 0.819568 0.000000
vt 2.120724 0.754528 0.000000
vt 2.041683 0.721411 0.000000
vt 2.065896 0.585434 0.000000
vt 2.216385 0.413412 0.000000
vt 2.091393 0.452102 0.000000
vt 2.974013 0.863072 0.000000
vt 3.126463 0.695625 0.000000
vt 3.257656 0.550060 0.000000
vt 3.246247 0.443306 0.000000
vt 3.192788 0.341667 0.000000
vt 3.179394 0.456348 0.000000
vt 3.390246 0.316067 0.000000
vt 2.881856 0.295937 0.000000
vt 2.743323 0.434362 0.000000
vt 2.971559 0.658399 0.000000
vt 2.604417 0.630821 0.000000
vt 2.146170 0.429953 0.000000
vt 2.331285 0.714768 0.000000
vt 2.173222 0.612404 0.000000
vt 2.301080 0.287195 0.000000
vt -0.338009 0.740953 0.000000
vt -0.162999 0.753737 0.000000
vt -0.237513 0.848770 0.000000
vt -0.381496 0.803817 0.000000
vt -0.320641 0.864882 0.000000
vt -0.116227 0.763837 0.000000
vt -0.171624 0.832129 0.000000
vt -0.240492 0.714760 0.000000
vt -0.245252 0.870143 0.000000
vt -0.377927 0.746087 0.000000
vt -0.327970 0.878933 0.000000
vt -0.458210 0.871709 0.000000
vt -0.736389 -0.333916 0.000000
vt -0.808543 -0.338011 0.000000
vt -0.857402 -0.434638 0.000000
vt -0.739429 -0.425035 0.000000
vt -0.687608 -0.414105 0.000000
vt -0.688469 -0.305914 0.000000
vt -0.578107 -0.314370 0.000000
vt -0.559347 -0.450931 0.000000
vt -0.798838 -0.514407 0.000000
vt -0.735373 -0.508843 0.000000
vt -0.705685 -0.490353 0.000000
vt -0.652414 -0.518833 0.000000
vt -0.547320 -0.578627 0.000000
vt -0.453643 -0.450009 0.000000
vt -0.873192 -0.586536 0.000000
vt -0.800645 -0.588413 0.000000
vt -0.734711 -0.561536 0.000000
vt -0.934903 -0.436533 0.000000
vt -0.958113 -0.570353 0.000000
vt -0.451217 -0.577853 0.000000
vt -0.654236 -0.573102 0.000000
vt -0.296598 -0.101441 0.000000
vt -0.406496 -0.352184 0.000000
vt -0.259019 -0.316166 0.000000
vt -0.221847 -0.098760 0.000000
vt -0.199922 -0.203639 0.000000
vt -0.048845 -0.253087 0.000000
vt 0.036696 -0.183092 0.000000
vt 0.078378 -0.093008 0.000000
vt -0.191999 -0.033104 0.000000
vt -0.064019 -0.377518 0.000000
vt 0.072628 -0.483104 0.000000
vt 0.122252 -0.222984 0.000000
vt -0.125586 -0.580393 0.000000
vt -0.310823 -0.482215 0.000000
vt -1.645059 0.603039 0.000000
vt -1.679007 0.563101 0.000000
vt -1.552481 0.510946 0.000000
vt -1.523811 0.449458 0.000000
vt -1.657496 0.492002 0.000000
vt -1.681064 0.384650 0.000000
vt -1.567425 0.337349 0.000000
vt -1.752944 0.285249 0.000000
vt -1.754674 0.513788 0.000000
vt -1.506776 0.984726 0.000000
vt -1.575966 0.901489 0.000000
vt -1.536721 0.818661 0.000000
vt -1.480273 0.821657 0.000000
vt -1.396001 1.009291 0.000000
vt -1.813996 0.823768 0.000000
vt -1.967996 1.013469 0.000000
vt -1.889775 0.813921 0.000000
vt -1.828845 0.999840 0.000000
vt -1.756979 0.911943 0.000000
vt -1.777096 0.748967 0.000000
vt -1.574829 0.768716 0.000000
vt -1.568825 0.822783 0.000000
vt -1.768899 0.821064 0.000000
vt -1.751290 0.893266 0.000000
vt -1.584799 0.895181 0.000000
vt -1.741877 0.981203 0.000000
vt -1.592859 0.981086 0.000000
vt -1.744160 1.133423 0.000000
vt -1.595603 1.107615 0.000000
vt -0.767562 -0.009052 0.000000
vt -0.842104 -0.019755 0.000000
vt -0.864210 -0.127853 0.000000
vt -0.765988 -0.065855 0.000000
vt -0.717561 -0.042417 0.000000
vt -0.717734 0.042452 0.000000
vt -0.604987 0.042389 0.000000
vt -0.592926 -0.051871 0.000000
vt -0.802817 -0.209338 0.000000
vt -0.738592 -0.189693 0.000000
vt -0.711080 -0.160407 0.000000
vt -0.619938 -0.190654 0.000000
vt -0.858252 -0.266823 0.000000
vt -0.795495 -0.265280 0.000000
vt -0.731533 -0.253540 0.000000
vt -0.966692 -0.153940 0.000000
vt -0.914184 -0.285861 0.000000
vt -0.612269 -0.253936 0.000000
vt -0.617778 -0.194255 0.000000
vt -0.610108 -0.257537 0.000000
vt -0.515373 -0.241102 0.000000
vt -0.545394 -0.088838 0.000000
vt -0.574788 -0.234621 0.000000
vt -0.503572 -0.232478 0.000000
vt -0.500164 -0.080879 0.000000
vt -0.102742 1.147598 0.000000
vt 0.122191 1.100490 0.000000
vt 0.048191 1.294745 0.000000
vt -0.024779 1.047228 0.000000
vt -0.079956 1.101600 0.000000
vt -0.181341 1.057081 0.000000
vt -0.166978 1.007331 0.000000
vt -0.157286 0.923557 0.000000
vt -0.006965 0.928095 0.000000
vt -0.200184 1.105459 0.000000
vt -0.303668 1.039641 0.000000
vt -0.314465 0.982010 0.000000
vt -0.306112 0.908233 0.000000
vt -0.118637 1.249777 0.000000
vt -0.217184 1.221299 0.000000
vt -0.319533 1.210043 0.000000
vt -0.310450 1.099445 0.000000
vt -0.481800 1.153224 0.000000
vt -0.442685 0.970501 0.000000
vt -0.306770 1.668374 0.000000
vt -0.421294 1.730773 0.000000
vt -0.510066 1.665076 0.000000
vt -0.493370 1.599044 0.000000
vt -0.251917 1.543141 0.000000
vt -0.318354 1.650352 0.000000
vt -0.564209 1.495341 0.000000
vt -0.317457 1.559460 0.000000
vt -0.528405 1.657753 0.000000
vt -0.414416 1.730180 0.000000
vt -0.295597 1.756386 0.000000
vt -0.530651 1.750693 0.000000
vt -0.521831 1.663314 0.000000
vt -0.323501 1.657698 0.000000
vt -0.339202 1.563916 0.000000
vt -0.511991 1.568335 0.000000
vt -0.358862 1.457120 0.000000
vt -0.500866 1.462154 0.000000
vt -0.365386 1.370779 0.000000
vt -0.496056 1.380736 0.000000
vt -0.876036 1.138598 0.000000
vt -0.648524 1.155217 0.000000
vt -0.745392 1.278760 0.000000
vt -0.932569 1.220320 0.000000
vt -0.831197 1.268781 0.000000
vt -0.540753 1.290779 0.000000
vt -0.636229 1.278379 0.000000
vt -0.695849 1.102608 0.000000
vt -0.755855 1.096511 0.000000
vt -0.759109 1.294195 0.000000
vt -0.848066 1.290096 0.000000
vt -0.870900 1.107008 0.000000
vt -0.963761 1.342673 0.000000
vt -1.104176 0.643979 0.000000
vt -1.095852 0.791135 0.000000
vt -1.240219 0.802335 0.000000
vt -1.239638 0.641031 0.000000
vt -1.317065 0.798205 0.000000
vt -1.336377 0.615543 0.000000
vt -1.404956 0.636503 0.000000
vt -1.386451 0.789249 0.000000
vt -1.457953 0.796895 0.000000
vt -1.464862 0.661142 0.000000
vt -1.297698 0.871961 0.000000
vt -1.421375 0.852010 0.000000
vt -1.064348 0.306220 0.000000
vt -0.857532 0.348786 0.000000
vt -0.951944 0.407760 0.000000
vt -0.878972 0.285398 0.000000
vt -1.004269 0.217861 0.000000
vt -1.039955 0.262431 0.000000
vt -1.136115 0.171725 0.000000
vt -1.122057 0.057577 0.000000
vt -0.974915 0.064739 0.000000
vt -1.148367 0.218176 0.000000
vt -1.264202 0.212318 0.000000
vt -1.280641 0.144588 0.000000
vt -1.269443 0.039669 0.000000
vt -1.162993 0.268669 0.000000
vt -1.271424 0.257129 0.000000
vt -1.419676 0.205508 0.000000
vt -1.382027 0.157236 0.000000
vt -1.121467 0.405808 0.000000
vt -1.215005 0.389333 0.000000
vt -1.310389 0.362980 0.000000
vt -1.221754 0.474846 0.000000
vt -1.358643 0.458422 0.000000
vt -1.085489 0.479329 0.000000
vt -1.380685 0.300495 0.000000
vt -0.752119 0.329000 0.000000
vt -0.833917 0.329900 0.000000
vt -0.872182 0.238203 0.000000
vt -0.766189 0.252894 0.000000
vt -0.723975 0.285867 0.000000
vt -0.691260 0.356045 0.000000
vt -0.565128 0.322844 0.000000
vt -0.582179 0.221650 0.000000
vt -0.812596 0.123707 0.000000
vt -0.744404 0.136146 0.000000
vt -0.712690 0.162870 0.000000
vt -0.623177 0.129196 0.000000
vt -0.744820 0.069853 0.000000
vt -0.623004 0.053538 0.000000
vt -0.811795 0.065486 0.000000
vt -0.621760 0.129196 0.000000
vt -0.621588 0.053538 0.000000
vt -0.528889 0.067451 0.000000
vt -0.528210 0.212851 0.000000
vt -0.436639 0.216905 0.000000
vt -0.457651 0.079733 0.000000
vt -0.626159 0.335666 0.000000
vt -0.575829 0.346599 0.000000
vt -0.549951 0.507196 0.000000
vt -0.628414 0.541901 0.000000
vt -0.685862 0.580027 0.000000
vt -0.833996 0.495466 0.000000
vt -0.831148 0.334446 0.000000
vt -0.813937 0.124377 0.000000
vt -0.931441 0.223799 0.000000
vt -0.895932 0.053468 0.000000
vt -0.813136 0.066156 0.000000
vt -0.836673 0.067872 0.000000
vt -0.953501 0.215191 0.000000
vt -0.909262 0.054708 0.000000
vt -0.914828 0.675773 0.000000
vt -0.687316 0.692392 0.000000
vt -0.784184 0.815935 0.000000
vt -0.971361 0.757495 0.000000
vt -0.892250 0.836880 0.000000
vt -0.852273 0.634012 0.000000
vt -0.789212 0.832348 0.000000
vt -0.896745 0.843775 0.000000
vt -0.961690 0.671075 0.000000
vt -1.056651 0.821024 0.000000
vt -1.788793 0.094602 0.000000
vt -1.863124 0.136712 0.000000
vt -1.921978 0.094647 0.000000
vt -1.911759 0.051218 0.000000
vt -1.754224 0.011986 0.000000
vt -1.796613 0.088530 0.000000
vt -1.950996 -0.020635 0.000000
vt -1.792901 0.029513 0.000000
vt -1.933327 0.086107 0.000000
vt -1.861767 0.137083 0.000000
vt -1.622339 0.110162 0.000000
vt -1.773475 0.101640 0.000000
vt -1.777956 0.053095 0.000000
vt -1.628088 0.048235 0.000000
vt -1.644313 -0.014738 0.000000
vt -1.769815 -0.015560 0.000000
vt -1.656091 -0.099784 0.000000
vt -1.759265 -0.099442 0.000000
vt -1.658811 -0.214345 0.000000
vt -1.753876 -0.210166 0.000000
# 406 texture coords

g Mesh_0264
usemtl Tex_0264_0_dds
s 1
f 1/1/1 2/2/1 3/3/1 
s 2
f 4/4/2 5/5/3 6/6/4 
s 3
f 6/6/4 7/7/5 4/4/2 
s 4
f 8/8/6 7/7/7 6/6/4 
s 5
f 8/8/6 6/6/4 9/9/8 
s 6
f 8/8/6 9/9/8 10/10/9 
s 7
f 8/8/6 10/10/9 11/11/10 
s 8
f 11/11/11 12/12/11 8/8/11 
s 9
f 6/6/4 13/13/12 9/9/8 
s 10
f 9/9/8 13/13/12 14/14/13 
s 11
f 14/14/13 15/15/14 9/9/8 
s 12
f 16/16/15 4/17/16 7/18/17 
s 13
f 7/18/17 17/19/18 16/16/15 
s 14
f 18/20/19 16/16/15 17/19/18 
s 15
f 17/19/18 19/21/20 18/20/19 
s 16
f 19/21/20 20/22/21 18/20/22 
s 17
f 20/22/21 19/21/20 21/23/23 
s 18
f 21/23/23 22/24/24 20/22/21 
s 19
f 23/25/25 17/19/18 7/18/17 
s 20
f 17/19/18 23/25/25 24/26/26 
s 21
f 24/26/26 19/21/20 17/19/18 
s 22
f 21/23/23 19/21/20 24/26/26 
s 23
f 7/18/17 8/27/27 23/25/25 
s 24
f 25/28/28 23/25/25 8/27/27 
s 25
f 23/25/25 25/28/28 26/29/29 
s 26
f 26/29/29 27/30/30 23/25/25 
s 27
f 28/31/31 23/25/25 27/30/30 
s 28
f 23/25/25 28/31/31 29/32/32 
s 29
f 29/32/32 24/26/26 23/25/25 
s 30
f 21/23/23 24/26/26 29/32/32 
s 31
f 8/27/27 12/33/33 25/28/28 
s 32
f 26/29/29 25/28/34 12/34/35 
s 33
f 12/34/35 11/35/36 26/29/29 
s 34
f 26/29/29 11/35/36 10/36/37 
s 35
f 10/36/37 27/30/30 26/29/29 
s 36
f 30/37/38 27/30/30 10/36/37 
s 37
f 31/38/39 27/30/30 30/37/38 
s 38
f 27/30/30 31/38/39 28/31/31 
s 39
f 28/31/31 31/38/39 32/39/40 
s 40
f 32/39/40 29/32/32 28/31/31 
s 41
f 21/23/23 29/32/32 32/39/40 
s 42
f 33/40/41 21/23/23 32/39/40 
s 43
f 21/23/23 33/40/41 34/41/42 
s 44
f 34/41/42 22/24/43 21/23/23 
s 45
f 10/36/37 9/42/44 30/37/38 
s 46
f 30/37/38 9/42/44 15/43/45 
s 47
f 15/43/45 35/44/46 30/37/38 
s 48
f 30/37/38 35/44/46 36/45/47 
s 49
f 36/45/47 37/46/48 30/37/38 
s 50
f 38/47/49 30/37/38 37/46/48 
s 51
f 30/37/38 38/47/49 31/38/39 
s 52
f 31/38/39 38/47/49 39/48/50 
s 53
f 39/48/50 32/39/40 31/38/39 
s 54
f 32/39/40 39/48/50 33/40/41 
s 55
f 36/45/47 35/44/46 15/43/45 
s 56
f 15/43/45 14/49/51 36/45/47 
s 57
f 33/40/41 39/48/50 38/47/49 
s 58
f 38/47/49 40/50/52 33/40/41 
s 59
f 33/40/41 40/50/52 41/51/53 
s 60
f 41/51/53 34/41/42 33/40/41 
s 61
f 42/52/54 40/50/52 38/47/49 
s 62
f 40/50/52 42/52/54 6/53/55 
s 63
f 6/53/55 5/54/56 40/50/52 
s 64
f 5/54/57 43/55/58 40/50/52 
s 65
f 41/51/53 40/50/52 43/55/58 
s 66
f 37/46/48 42/52/54 38/47/49 
s 67
f 42/52/54 37/46/48 13/56/59 
s 68
f 13/56/59 6/53/55 42/52/54 
s 69
f 13/56/59 37/46/48 36/45/47 
s 70
f 36/45/47 14/57/60 13/56/59 
s 71
f 44/58/61 45/59/62 46/60/63 
s 72
f 46/60/63 47/61/64 44/58/61 
s 73
f 48/62/65 44/58/61 47/61/64 
s 74
f 47/61/64 49/63/66 48/62/65 
s 75
f 48/62/65 49/63/66 50/64/67 
s 76
f 50/64/67 51/65/68 48/62/65 
s 77
f 44/66/69 48/62/65 51/65/68 
s 78
f 51/65/68 52/67/70 44/66/69 
s 79
f 45/68/71 44/66/69 52/67/70 
s 80
f 52/67/70 53/69/72 45/68/71 
s 81
f 49/63/66 54/70/73 50/64/67 
s 82
f 55/71/74 50/64/67 54/70/73 
s 83
f 50/64/67 55/71/74 56/72/75 
s 84
f 56/72/75 57/73/76 50/64/67 
s 85
f 50/64/67 57/73/76 58/74/77 
s 86
f 58/74/77 51/65/68 50/64/67 
s 87
f 59/75/78 54/70/73 49/63/66 
s 88
f 60/76/79 54/70/73 59/75/78 
s 89
f 54/70/73 60/76/79 55/71/74 
s 90
f 61/77/80 55/71/74 60/76/79 
s 91
f 60/76/79 62/78/81 61/77/80 
s 92
f 63/79/82 61/77/80 62/78/81 
s 93
f 62/78/81 64/80/83 63/79/82 
s 94
f 49/63/66 47/81/84 59/75/78 
s 95
f 65/82/85 59/75/78 47/81/84 
s 96
f 62/83/86 59/75/78 65/82/85 
s 97
f 59/75/78 62/83/86 60/76/79 
s 98
f 47/81/84 46/84/87 65/82/85 
s 99
f 65/82/85 64/85/88 62/83/86 
s 100
f 66/86/89 67/87/90 68/88/91 
s 101
f 68/88/91 69/89/92 66/86/89 
s 102
f 70/90/93 66/86/89 69/89/92 
s 103
f 69/89/92 71/91/94 70/90/93 
s 104
f 70/90/93 71/91/94 57/73/76 
s 105
f 72/92/95 70/90/93 57/73/76 
s 106
f 66/93/96 70/90/93 72/92/95 
s 107
f 73/94/97 69/89/92 68/88/91 
s 108
f 69/89/92 73/94/97 74/95/98 
s 109
f 74/95/98 71/91/94 69/89/92 
s 110
f 57/73/76 71/91/94 74/95/98 
s 111
f 74/95/98 58/74/77 57/73/76 
s 112
f 58/74/77 74/95/98 73/94/97 
s 113
f 73/94/97 75/96/99 58/74/77 
s 114
f 51/65/68 58/74/77 75/96/99 
s 115
f 75/96/99 52/97/100 51/65/68 
s 116
f 68/88/91 76/98/101 73/94/97 
s 117
f 75/96/99 73/94/97 76/99/102 
s 118
f 76/99/102 77/100/103 75/96/99 
s 119
f 52/97/100 75/96/99 77/100/103 
s 120
f 77/100/103 53/101/104 52/97/100 
s 121
f 72/92/95 78/102/105 66/93/96 
s 122
f 67/103/106 66/93/96 78/102/105 
s 123
f 78/102/105 79/104/107 67/103/106 
s 124
f 57/73/76 56/72/75 72/92/95 
s 125
f 72/92/95 56/72/75 80/105/108 
s 126
f 80/105/108 78/106/109 72/92/95 
s 127
f 78/106/109 80/105/108 81/107/110 
s 128
f 81/107/110 79/108/111 78/106/111 
s 129
f 80/105/108 56/72/75 55/71/74 
s 130
f 55/71/74 61/109/112 80/105/108 
s 131
f 81/107/110 80/105/108 61/109/112 
s 132
f 61/109/112 63/110/113 81/107/110 
s 133
f 82/111/114 83/112/115 84/113/116 
s 134
f 84/113/116 85/114/117 82/111/114 
s 135
f 85/114/117 84/113/116 86/115/118 
s 136
f 86/115/118 87/116/119 85/114/117 
s 137
f 88/117/120 87/116/119 86/115/118 
s 138
f 87/116/119 88/117/120 89/118/121 
s 139
f 89/118/121 85/119/122 87/116/119 
s 140
f 82/120/123 85/119/122 89/118/121 
s 141
f 89/118/121 90/121/124 82/120/123 
s 142
f 91/122/125 90/121/124 89/118/121 
s 143
f 88/117/120 86/115/118 92/123/126 
s 144
f 88/117/120 92/123/126 93/124/127 
s 145
f 94/125/128 88/117/120 93/124/127 
s 146
f 89/118/121 88/117/120 94/125/128 
s 147
f 94/125/128 95/126/129 89/118/121 
s 148
f 89/118/121 95/126/129 91/122/125 
s 149
f 96/127/130 92/123/126 86/115/118 
s 150
f 97/128/131 92/123/126 96/127/130 
s 151
f 93/124/127 92/123/126 97/128/131 
s 152
f 97/128/131 98/129/132 93/124/127 
s 153
f 99/130/133 93/124/127 98/129/132 
s 154
f 93/124/127 99/130/133 94/125/128 
s 155
f 94/125/128 99/130/133 100/131/134 
s 156
f 100/131/134 95/132/135 94/125/128 
s 157
f 86/115/118 84/133/136 96/127/130 
s 158
f 96/127/130 84/133/136 83/134/137 
s 159
f 83/134/137 101/135/138 96/127/130 
s 160
f 102/136/139 96/127/130 101/135/138 
s 161
f 96/127/130 102/136/139 97/128/131 
s 162
f 101/135/138 103/137/140 102/136/139 
s 163
f 91/138/141 95/132/135 100/131/134 
s 164
f 100/131/134 104/139/142 91/138/141 
s 165
f 105/140/143 104/139/142 100/131/134 
s 166
f 100/131/134 106/141/144 105/140/143 
s 167
f 107/142/145 106/141/144 100/131/134 
s 168
f 100/131/134 99/130/133 107/142/145 
s 169
f 98/129/132 107/142/145 99/130/133 
s 170
f 104/143/146 105/144/147 108/145/148 
s 171
f 108/145/148 109/146/149 104/143/146 
s 172
f 91/147/150 104/143/146 109/146/149 
s 173
f 109/146/149 90/148/151 91/147/150 
s 174
f 101/149/152 90/148/151 109/146/149 
s 175
f 101/149/152 82/150/153 90/148/151 
s 176
f 101/149/152 83/151/154 82/150/153 
s 177
f 109/146/149 108/145/148 103/152/155 
s 178
f 103/152/155 101/149/152 109/146/149 
s 179
f 110/153/156 111/154/157 112/155/158 
s 180
f 112/155/158 113/156/159 110/153/156 
s 181
f 112/155/158 114/157/160 113/156/159 
s 182
f 110/158/161 113/159/162 115/160/163 
s 183
f 115/160/163 113/159/162 114/161/164 
s 184
f 116/162/165 115/160/163 114/161/164 
s 185
f 114/161/164 112/163/166 116/162/165 
s 186
f 112/163/166 111/164/167 116/162/165 
s 187
f 117/165/168 118/166/169 119/167/170 
s 188
f 119/167/170 120/168/171 117/165/168 
s 189
f 117/165/168 120/168/171 121/169/172 
s 190
f 121/169/172 122/170/173 117/165/168 
s 191
f 123/171/174 122/170/173 121/169/172 
s 192
f 121/169/172 124/172/175 123/171/174 
s 193
f 120/168/171 119/167/170 125/173/176 
s 194
f 125/173/176 126/174/177 120/168/171 
s 195
f 121/169/172 120/168/171 126/174/177 
s 196
f 126/174/177 127/175/178 121/169/172 
s 197
f 124/172/175 121/169/172 127/175/178 
s 198
f 127/175/178 128/176/179 124/172/175 
s 199
f 129/177/180 124/172/175 128/176/179 
s 200
f 123/178/181 124/172/175 129/177/180 
s 201
f 125/173/176 119/167/170 130/179/182 
s 202
f 130/179/182 131/180/183 125/173/176 
s 203
f 125/173/176 131/180/183 132/181/184 
s 204
f 132/181/184 126/174/177 125/173/176 
s 205
f 128/176/179 126/174/177 132/181/184 
s 206
f 128/176/179 127/175/178 126/174/177 
s 207
f 130/179/182 119/167/170 118/182/185 
s 208
f 118/182/185 133/183/186 130/179/182 
s 209
f 129/177/180 134/184/187 123/178/181 
s 210
f 128/176/179 132/181/184 135/185/188 
s 211
f 128/176/179 135/185/188 129/177/180 
s 212
f 136/186/189 137/187/190 138/188/191 
s 213
f 138/188/191 139/189/192 136/186/189 
s 214
f 138/188/191 140/190/193 139/189/192 
s 215
f 139/189/192 140/190/193 141/191/194 
s 216
f 141/191/194 142/192/195 139/189/192 
s 217
f 139/189/192 142/192/195 143/193/196 
s 218
f 143/193/196 136/194/197 139/189/192 
s 219
f 140/190/193 138/188/191 144/195/198 
s 220
f 144/195/198 141/191/194 140/190/193 
s 221
f 142/192/195 141/191/194 144/195/198 
s 222
f 142/192/195 144/195/198 145/196/199 
s 223
f 142/192/195 145/196/199 143/197/200 
s 224
f 145/198/201 144/195/198 138/188/191 
s 225
f 138/188/191 137/199/202 145/198/201 
s 226
f 146/200/203 147/201/204 148/202/205 
s 227
f 149/203/206 148/202/205 147/201/204 
s 228
f 147/201/204 150/204/207 149/203/206 
s 229
f 149/203/206 150/204/207 151/205/208 
s 230
f 151/205/208 152/206/209 149/203/206 
s 231
f 151/205/208 153/207/210 152/206/209 
s 232
f 146/208/211 153/207/210 151/205/208 
s 233
f 151/205/208 147/201/204 146/208/211 
s 234
f 151/205/208 150/204/207 147/201/204 
s 235
f 154/209/212 155/210/213 156/211/214 
s 236
f 154/209/212 156/211/214 157/212/215 
s 237
f 157/212/215 158/213/216 154/209/212 
s 238
f 159/214/217 160/215/218 161/216/219 
s 239
f 159/214/217 162/217/220 160/215/218 
s 240
f 159/214/217 163/218/221 162/217/220 
s 241
f 161/219/222 157/220/223 156/221/224 
s 242
f 156/221/224 159/222/225 161/219/222 
s 243
f 163/223/226 159/222/225 156/221/224 
s 244
f 156/221/224 155/224/227 163/223/226 
s 245
f 162/225/228 163/223/226 155/224/227 
s 246
f 155/224/227 154/226/229 162/225/228 
s 247
f 160/227/230 162/225/228 154/226/229 
s 248
f 154/226/229 158/228/231 160/227/230 
s 249
f 164/229/232 165/230/233 166/231/234 
s 250
f 166/231/234 167/232/235 164/229/232 
s 251
f 164/229/232 167/232/235 168/233/236 
s 252
f 168/233/236 169/234/237 164/229/232 
s 253
f 170/235/238 169/234/237 168/233/236 
s 254
f 168/233/236 171/236/239 170/235/238 
s 255
f 167/232/235 166/231/234 172/237/240 
s 256
f 172/237/240 173/238/241 167/232/235 
s 257
f 168/233/236 167/232/235 173/238/241 
s 258
f 173/238/241 174/239/242 168/233/236 
s 259
f 171/236/239 168/233/236 174/239/242 
s 260
f 174/239/242 175/240/243 171/236/239 
s 261
f 172/237/240 166/231/234 176/241/244 
s 262
f 176/241/244 177/242/245 172/237/240 
s 263
f 172/237/240 177/242/245 178/243/246 
s 264
f 178/243/246 173/238/241 172/237/240 
s 265
f 175/240/243 173/238/241 178/243/246 
s 266
f 175/240/243 174/239/242 173/238/241 
s 267
f 176/241/244 166/231/234 165/244/247 
s 268
f 165/244/247 179/245/248 176/241/244 
s 269
f 175/240/243 178/243/246 180/246/249 
s 270
f 175/247/250 180/248/251 181/249/252 
s 271
f 181/249/252 171/250/253 175/247/250 
s 272
f 181/251/254 182/252/255 170/253/256 
s 273
f 170/253/256 171/236/239 181/251/254 
s 274
f 183/254/257 184/255/258 185/256/259 
s 275
f 183/254/257 186/257/260 184/255/258 
s 276
f 183/254/257 187/258/261 186/257/260 
s 277
f 186/257/260 187/258/261 188/259/262 
s 278
f 188/259/262 189/260/263 186/257/260 
s 279
f 186/257/260 189/260/263 190/261/264 
s 280
f 190/261/264 184/262/265 186/257/260 
s 281
f 187/258/261 183/254/257 191/263/266 
s 282
f 191/263/266 188/259/262 187/258/261 
s 283
f 192/264/267 188/259/262 191/263/266 
s 284
f 188/259/262 192/264/267 193/265/268 
s 285
f 193/265/268 189/260/263 188/259/262 
s 286
f 189/260/263 193/265/268 194/266/269 
s 287
f 194/266/269 190/261/264 189/260/263 
s 288
f 191/263/266 183/254/257 185/267/270 
s 289
f 185/267/270 195/268/271 191/263/266 
s 290
f 191/263/266 195/268/271 196/269/272 
s 291
f 196/269/272 197/270/273 191/263/266 
s 292
f 191/263/266 197/270/273 192/264/267 
s 293
f 193/265/268 192/264/267 197/270/273 
s 294
f 193/265/268 197/270/273 196/271/274 
s 295
f 193/265/268 196/271/274 194/272/275 
s 296
f 198/273/276 199/274/277 200/275/278 
s 297
f 198/273/276 200/275/278 201/276/279 
s 298
f 201/276/279 202/277/280 198/273/276 
s 299
f 203/278/281 204/279/282 205/280/283 
s 300
f 203/278/281 206/281/284 204/279/282 
s 301
f 203/278/281 207/282/285 206/281/284 
s 302
f 205/283/286 201/284/287 200/285/288 
s 303
f 200/285/288 203/286/289 205/283/286 
s 304
f 207/287/290 203/286/289 200/285/288 
s 305
f 200/285/288 199/288/291 207/287/290 
s 306
f 206/289/292 207/287/290 199/288/291 
s 307
f 199/288/291 198/290/293 206/289/292 
s 308
f 204/291/294 206/289/292 198/290/293 
s 309
f 198/290/293 202/292/295 204/291/294 
s 310
f 208/293/296 209/294/297 210/295/298 
s 311
f 210/295/298 211/296/299 208/293/296 
s 312
f 210/295/298 212/297/300 211/296/299 
s 313
f 208/298/301 211/299/302 213/300/303 
s 314
f 214/301/304 213/300/303 211/299/302 
s 315
f 211/299/302 212/302/305 214/301/304 
s 316
f 214/301/304 212/302/305 210/303/306 
s 317
f 210/303/306 215/304/307 214/301/304 
s 318
f 210/303/306 209/305/308 215/304/307 
s 319
f 216/306/309 217/307/310 218/308/311 
s 320
f 218/308/311 219/309/312 216/306/309 
s 321
f 219/309/312 218/308/311 220/310/313 
s 322
f 220/310/313 221/311/314 219/309/312 
s 323
f 222/312/315 221/311/314 220/310/313 
s 324
f 220/310/313 223/313/316 222/312/315 
s 325
f 222/312/315 223/313/316 217/314/317 
s 326
f 217/314/317 216/315/318 222/312/315 
s 327
f 218/316/319 223/313/316 220/310/313 
s 328
f 218/316/319 217/317/320 223/313/316 
s 329
f 224/318/321 225/319/322 226/320/323 
s 330
f 224/318/321 227/321/324 225/319/322 
s 331
f 224/318/321 228/322/325 227/321/324 
s 332
f 224/318/321 229/323/326 228/322/325 
s 333
f 230/324/327 228/322/325 229/323/326 
s 334
f 228/322/325 230/324/327 231/325/328 
s 335
f 231/325/328 227/326/329 228/322/325 
s 336
f 232/327/330 229/323/326 224/318/321 
s 337
f 229/323/326 232/327/330 230/324/327 
s 338
f 230/324/327 232/327/330 233/328/331 
s 339
f 233/328/331 234/329/332 230/324/327 
s 340
f 230/324/327 234/329/332 235/330/333 
s 341
f 235/330/333 231/325/328 230/324/327 
s 342
f 224/318/321 236/331/334 232/327/330 
s 343
f 233/328/331 232/327/330 236/331/334 
s 344
f 236/331/334 237/332/335 233/328/331 
s 345
f 237/332/335 234/329/332 233/328/331 
s 346
f 237/332/335 238/333/336 234/329/332 
s 347
f 238/333/336 235/334/337 234/329/332 
s 348
f 236/331/334 224/318/321 226/335/338 
s 349
f 226/335/338 239/336/339 236/331/334 
s 350
f 237/332/335 236/331/334 239/336/339 
s 351
f 239/336/339 240/337/340 237/332/335 
s 352
f 240/337/340 239/336/339 241/338/341 
s 353
f 241/338/341 238/339/342 240/337/340 
s 354
f 241/338/341 239/336/339 226/335/338 
s 355
f 226/335/338 225/340/343 241/338/341 
s 356
f 237/332/335 240/341/344 238/333/336 
s 357
f 242/342/345 243/343/346 244/344/347 
s 358
f 244/344/347 245/345/348 242/342/345 
s 359
f 242/342/345 245/345/348 246/346/349 
s 360
f 246/346/349 247/347/350 242/342/345 
s 361
f 248/348/351 247/347/350 246/346/349 
s 362
f 246/346/349 249/349/352 248/348/351 
s 363
f 245/345/348 244/344/347 250/350/353 
s 364
f 250/350/353 251/351/354 245/345/348 
s 365
f 246/346/349 245/345/348 251/351/354 
s 366
f 251/351/354 252/352/355 246/346/349 
s 367
f 249/349/352 246/346/349 252/352/355 
s 368
f 252/352/355 253/353/356 249/349/352 
s 369
f 253/353/356 252/352/355 251/351/354 
s 370
f 253/353/356 251/351/354 254/354/357 
s 371
f 253/353/356 254/354/357 255/355/358 
s 372
f 254/354/357 251/351/354 250/350/353 
s 373
f 250/350/353 256/356/359 254/354/357 
s 374
f 253/357/360 255/358/361 257/359/362 
s 375
f 257/359/362 249/360/363 253/357/360 
s 376
f 248/361/364 249/360/363 257/359/362 
s 377
f 257/359/362 258/362/365 248/361/364 
s 378
f 259/363/366 260/364/367 243/365/368 
s 379
f 243/365/368 242/366/369 259/363/366 
s 380
f 259/363/366 242/366/369 247/367/370 
s 381
f 259/363/366 247/367/370 248/368/371 
s 382
f 259/363/366 248/368/371 258/369/372 
s 383
f 250/370/373 244/371/374 261/372/375 
s 384
f 261/372/375 256/373/376 250/370/373 
s 385
f 261/374/377 244/344/347 243/375/378 
s 386
f 243/375/378 260/376/379 261/374/377 
s 387
f 1/377/380 262/378/297 263/379/381 
s 388
f 263/379/381 2/380/382 1/377/380 
s 389
f 263/379/381 264/381/383 2/380/382 
s 390
f 265/382/384 3/3/385 2/2/386 
s 391
f 2/2/386 264/383/387 265/382/384 
s 392
f 265/382/384 264/383/387 263/384/388 
s 393
f 263/384/388 266/385/389 265/382/384 
s 394
f 263/384/388 262/386/390 266/385/389 
s 395
f 267/387/391 268/388/392 269/389/393 
s 396
f 267/387/391 269/389/393 270/390/394 
s 397
f 270/390/394 271/391/395 267/387/391 
s 398
f 272/392/396 273/393/397 274/394/398 
s 399
f 272/392/396 275/395/399 273/393/397 
s 400
f 272/392/396 276/396/400 275/395/399 
s 401
f 274/397/401 270/398/402 269/399/403 
s 402
f 269/399/403 272/400/404 274/397/401 
s 403
f 276/401/405 272/400/404 269/399/403 
s 404
f 269/399/403 268/402/406 276/401/405 
s 405
f 275/403/407 276/401/405 268/402/406 
s 406
f 268/402/406 267/404/408 275/403/407 
s 407
f 273/405/409 275/403/407 267/404/408 
s 408
f 267/404/408 271/406/410 273/405/409 
# 0 polygons - 408 triangles