# 3ds Max Wavefront OBJ Exporter v0.97b - (c)2007 guruware
# File Created: 18.06.2015 12:35:03

#
# object Box001
#

v  -0.7000 0.0000 0.7000
v  -0.7000 0.0000 -0.7000
v  0.7000 0.0000 -0.7000
v  0.7000 0.0000 0.7000
v  -0.7000 0.0372 0.7000
v  0.7000 0.0372 0.7000
v  0.7000 0.0372 -0.7000
v  -0.7000 0.0372 -0.7000
# 8 vertices

vn 0.0000 -1.0000 -0.0000
vn 0.0000 1.0000 -0.0000
vn 0.0000 0.0000 1.0000
vn 1.0000 0.0000 -0.0000
vn 0.0000 0.0000 -1.0000
vn -1.0000 0.0000 -0.0000
# 6 vertex normals

vt 0.5995 0.9421 0.0000
vt 0.6000 0.7169 0.0000
vt 0.7456 0.7183 0.0000
vt 0.7447 0.9446 0.0000
vt 0.6002 0.7171 0.0000
vt 0.7454 0.7183 0.0000
vt 0.7447 0.9445 0.0000
vt 0.5995 0.9422 0.0000
vt 0.4889 0.0182 0.0000
vt 0.4897 0.0182 0.0000
vt 0.4897 0.0184 0.0000
vt 0.4889 0.0184 0.0000
vt 0.4897 0.0187 0.0000
vt 0.4889 0.0187 0.0000
vt 0.4889 0.0179 0.0000
vt 0.4897 0.0179 0.0000
vt 0.4897 0.0181 0.0000
vt 0.4889 0.0181 0.0000
vt 0.4889 0.0176 0.0000
vt 0.4897 0.0176 0.0000
vt 0.4897 0.0178 0.0000
vt 0.4889 0.0178 0.0000
# 22 texture coords

g Box001
s 2
f 1/1/1 2/2/1 3/3/1 4/4/1 
s 4
f 5/5/2 6/6/2 7/7/2 8/8/2 
s 8
f 1/9/3 4/10/3 6/11/3 5/12/3 
s 16
f 4/12/4 3/11/4 7/13/4 6/14/4 
s 32
f 3/15/5 2/16/5 8/17/5 7/18/5 
s 64
f 2/19/6 1/20/6 5/21/6 8/22/6 
# 6 polygons

