# Blender v2.79 (sub 0) OBJ File: 'consolecorner2.blend'
# www.blender.org
mtllib consolecorner2.mtl
o Plane
v -1.000000 0.494514 1.000000
v -1.000000 0.869179 1.000000
v -1.000000 0.494514 -1.000000
v -1.000000 0.869179 -1.000000
v -0.380424 0.494514 1.000000
v -0.380424 0.602161 1.000000
v -0.380424 0.494514 -1.000000
v -0.380424 0.602161 -1.000000
v -0.934823 0.599406 0.154523
v -0.934823 0.895244 0.154523
v -0.934823 0.599406 -0.809762
v -0.934823 0.895244 -0.809762
v -0.445601 0.599406 0.154523
v -0.445601 0.684405 0.154523
v -0.445601 0.599406 -0.809762
v -0.445601 0.684405 -0.809762
v -0.158718 0.684405 0.440672
v -0.158718 0.599406 0.440672
v 0.811533 0.684405 0.440672
v 0.811533 0.599406 0.440672
v -0.158718 0.895244 0.929894
v -0.158718 0.599406 0.929894
v 0.811533 0.895244 0.929894
v 0.811533 0.599406 0.929894
v -0.998229 0.602161 0.375495
v -0.998229 0.494514 0.375495
v 1.001771 0.602161 0.375495
v 1.001771 0.494514 0.375495
v -0.998229 0.869179 0.995071
v -0.998229 0.494514 0.995071
v 1.001771 0.869179 0.995071
v 1.001771 0.494514 0.995071
v -1.000000 0.494514 -0.333333
v -1.000000 0.494514 0.333333
v -0.586949 0.494514 -1.000000
v -0.793475 0.494514 -1.000000
v -0.380424 0.494514 0.333333
v -0.380424 0.494514 -0.333333
v -0.793475 0.494514 1.000000
v -0.586949 0.494514 1.000000
v -0.793475 0.494514 -0.333333
v -0.793475 0.494514 0.333333
v -0.586949 0.494514 -0.333333
v -0.586949 0.494514 0.333333
v -0.793475 0.023824 -0.333333
v -0.793475 0.023824 0.333333
v -0.586949 0.023824 -0.333333
v -0.586949 0.023824 0.333333
v -0.331562 0.494514 0.995071
v 0.335104 0.494514 0.995071
v -0.998229 0.494514 0.582020
v -0.998229 0.494514 0.788546
v 0.335104 0.494514 0.375495
v -0.331562 0.494514 0.375495
v 1.001771 0.494514 0.788546
v 1.001771 0.494514 0.582020
v -0.331562 0.494514 0.788546
v 0.335104 0.494514 0.788546
v -0.331562 0.494514 0.582020
v 0.335104 0.494514 0.582020
v -0.331562 0.023824 0.788546
v 0.335104 0.023824 0.788546
v -0.331562 0.023824 0.582020
v 0.335104 0.023824 0.582020
vt 0.188398 0.776320
vt 0.188398 0.794342
vt 0.079715 0.812365
vt 0.152352 0.812912
vt 0.170375 0.812912
vt 0.188398 0.866980
vt 0.025099 0.830752
vt 0.025099 0.794525
vt 0.079168 0.758297
vt 0.115760 0.866980
vt 0.097737 0.866980
vt 0.133783 0.812912
vt 0.134330 0.703682
vt 0.188398 0.757750
vt 0.188398 0.703682
vt 0.133783 0.703682
vt 0.025099 0.757750
vt 0.133783 0.757750
vt 0.164137 0.673336
vt 0.173561 0.652059
vt 0.173561 0.673336
vt 0.145290 0.652059
vt 0.142582 0.630504
vt 0.145290 0.630504
vt 0.173561 0.651781
vt 0.176269 0.630504
vt 0.176269 0.651781
vt 0.157421 0.630504
vt 0.154713 0.652059
vt 0.154713 0.630504
vt 0.056000 0.799112
vt 0.187632 0.938764
vt 0.056000 0.938764
vt 0.021729 0.518624
vt 0.167402 0.604955
vt 0.021729 0.604955
vt 0.454201 0.519006
vt 0.592798 0.601906
vt 0.454201 0.601906
vt 0.056000 0.799112
vt 0.187632 0.938764
vt 0.056000 0.938764
vt 0.157421 0.630504
vt 0.154713 0.652059
vt 0.154713 0.630504
vt 0.173561 0.651781
vt 0.176269 0.630504
vt 0.176269 0.651781
vt 0.145290 0.652059
vt 0.142582 0.630504
vt 0.145290 0.630504
vt 0.164137 0.673336
vt 0.173561 0.652059
vt 0.173561 0.673336
vt 0.133783 0.703682
vt 0.025099 0.757750
vt 0.133783 0.757750
vt 0.134330 0.703682
vt 0.188398 0.757750
vt 0.188398 0.703682
vt 0.115760 0.866980
vt 0.097737 0.866980
vt 0.133783 0.812912
vt 0.025099 0.830752
vt 0.025099 0.794525
vt 0.079168 0.758297
vt 0.152352 0.812912
vt 0.170375 0.812912
vt 0.188398 0.866980
vt 0.188398 0.776320
vt 0.188398 0.794342
vt 0.079715 0.812365
vt 0.025099 0.867527
vt 0.079168 0.921595
vt 0.079168 0.867527
vt 0.188945 0.703682
vt 0.243013 0.757750
vt 0.243013 0.703682
vt 0.188945 0.758297
vt 0.243013 0.812365
vt 0.243013 0.758297
vt 0.079714 0.867527
vt 0.133783 0.921595
vt 0.133783 0.867527
vt 0.134330 0.867527
vt 0.188398 0.921595
vt 0.188398 0.867527
vt 0.188945 0.812912
vt 0.243013 0.866980
vt 0.243013 0.812912
vt 0.188945 0.867527
vt 0.243013 0.921595
vt 0.243013 0.867527
vt 0.243560 0.703682
vt 0.297628 0.757750
vt 0.297628 0.703682
vt 0.116000 0.755039
vt 0.059706 0.945345
vt 0.059706 0.755039
vt 0.025099 0.922142
vt 0.079168 0.976211
vt 0.079168 0.922142
vt 0.243560 0.758297
vt 0.297628 0.812365
vt 0.297628 0.758297
vt 0.079714 0.922142
vt 0.133783 0.976211
vt 0.133783 0.922142
vt 0.025099 0.867527
vt 0.079168 0.921595
vt 0.079168 0.867527
vt 0.188945 0.703682
vt 0.243013 0.757750
vt 0.243013 0.703682
vt 0.188945 0.758297
vt 0.243013 0.812365
vt 0.243013 0.758297
vt 0.079714 0.867527
vt 0.133783 0.921595
vt 0.133783 0.867527
vt 0.134330 0.867527
vt 0.188398 0.921595
vt 0.188398 0.867527
vt 0.188945 0.812912
vt 0.243013 0.866980
vt 0.243013 0.812912
vt 0.188945 0.867527
vt 0.243013 0.921595
vt 0.243013 0.867527
vt 0.243560 0.703682
vt 0.297628 0.757750
vt 0.297628 0.703682
vt 0.116000 0.755039
vt 0.059706 0.945345
vt 0.059706 0.755039
vt 0.025099 0.922142
vt 0.079168 0.976211
vt 0.079168 0.922142
vt 0.243560 0.758297
vt 0.297628 0.812365
vt 0.297628 0.758297
vt 0.079714 0.922142
vt 0.133783 0.976211
vt 0.133783 0.922142
vt 0.188398 0.812365
vt 0.079714 0.758297
vt 0.188398 0.758297
vt 0.188398 0.812912
vt 0.134330 0.828447
vt 0.134330 0.812912
vt 0.025099 0.758297
vt 0.079168 0.866980
vt 0.025099 0.866980
vt 0.079714 0.866980
vt 0.079714 0.851446
vt 0.133783 0.866980
vt 0.134330 0.757750
vt 0.025099 0.703682
vt 0.164137 0.652059
vt 0.135866 0.652059
vt 0.173561 0.630504
vt 0.164137 0.652059
vt 0.187632 0.799112
vt 0.167402 0.518624
vt 0.592798 0.519006
vt 0.187632 0.799112
vt 0.164137 0.652059
vt 0.173561 0.630504
vt 0.135866 0.652059
vt 0.164137 0.652059
vt 0.025099 0.703682
vt 0.134330 0.757750
vt 0.079714 0.866980
vt 0.079714 0.851446
vt 0.133783 0.866980
vt 0.025099 0.758297
vt 0.079168 0.866980
vt 0.025099 0.866980
vt 0.188398 0.812912
vt 0.134330 0.828447
vt 0.134330 0.812912
vt 0.188398 0.812365
vt 0.079714 0.758297
vt 0.188398 0.758297
vt 0.025099 0.921595
vt 0.188945 0.757750
vt 0.188945 0.812365
vt 0.079714 0.921595
vt 0.134330 0.921595
vt 0.188945 0.866980
vt 0.188945 0.921595
vt 0.243560 0.757750
vt 0.116000 0.945345
vt 0.025099 0.976211
vt 0.243560 0.812365
vt 0.079714 0.976211
vt 0.025099 0.921595
vt 0.188945 0.757750
vt 0.188945 0.812365
vt 0.079714 0.921595
vt 0.134330 0.921595
vt 0.188945 0.866980
vt 0.188945 0.921595
vt 0.243560 0.757750
vt 0.116000 0.945345
vt 0.025099 0.976211
vt 0.243560 0.812365
vt 0.079714 0.976211
vn -1.0000 0.0000 0.0000
vn 0.0000 0.0000 -1.0000
vn 1.0000 -0.0000 0.0000
vn 0.0000 0.0000 1.0000
vn 0.0000 -1.0000 0.0000
vn 0.3958 0.9183 0.0000
vn 0.0000 0.9183 -0.3958
usemtl None
s off
f 33/1/1 34/2/1 2/3/1
f 35/4/2 36/5/2 4/6/2
f 37/7/3 38/8/3 8/9/3
f 39/10/4 40/11/4 2/12/4
f 37/13/5 40/14/5 44/15/5
f 4/16/6 6/17/6 8/18/6
f 10/19/1 11/20/1 9/21/1
f 11/22/2 16/23/2 15/24/2
f 16/25/3 13/26/3 15/27/3
f 14/28/4 9/29/4 13/30/4
f 15/31/5 9/32/5 11/33/5
f 12/34/6 14/35/6 16/36/6
f 21/37/7 19/38/7 17/39/7
f 18/40/5 24/41/5 22/42/5
f 19/43/3 24/44/3 20/45/3
f 17/46/2 20/47/2 18/48/2
f 22/49/1 17/50/1 18/51/1
f 23/52/4 22/53/4 24/54/4
f 29/55/7 27/56/7 25/57/7
f 53/58/5 56/59/5 60/60/5
f 55/61/3 56/62/3 31/63/3
f 53/64/2 54/65/2 25/66/2
f 51/67/1 52/68/1 29/69/1
f 49/70/4 50/71/4 31/72/4
f 42/73/5 1/74/5 34/75/5
f 44/76/5 39/77/5 42/78/5
f 36/79/5 33/80/5 3/81/5
f 41/82/5 34/83/5 33/84/5
f 35/85/5 41/86/5 36/87/5
f 43/88/2 45/89/2 41/90/2
f 7/91/5 43/92/5 35/93/5
f 38/94/5 44/95/5 43/96/5
f 47/97/5 46/98/5 45/99/5
f 41/100/1 46/101/1 42/102/1
f 42/103/4 48/104/4 44/105/4
f 44/106/3 47/107/3 43/108/3
f 58/109/5 32/110/5 50/111/5
f 60/112/5 55/113/5 58/114/5
f 52/115/5 49/116/5 30/117/5
f 57/118/5 50/119/5 49/120/5
f 51/121/5 57/122/5 52/123/5
f 59/124/1 61/125/1 57/126/1
f 26/127/5 59/128/5 51/129/5
f 54/130/5 60/131/5 59/132/5
f 63/133/5 62/134/5 61/135/5
f 57/136/4 62/137/4 58/138/4
f 58/139/3 64/140/3 60/141/3
f 60/142/2 63/143/2 59/144/2
f 34/2/1 1/145/1 2/3/1
f 2/3/1 4/146/1 33/1/1
f 4/146/1 3/147/1 33/1/1
f 36/5/2 3/148/2 4/6/2
f 4/6/2 8/149/2 35/4/2
f 8/149/2 7/150/2 35/4/2
f 38/8/3 7/151/3 8/9/3
f 8/9/3 6/152/3 37/7/3
f 6/152/3 5/153/3 37/7/3
f 40/11/4 5/154/4 6/155/4
f 6/155/4 2/12/4 40/11/4
f 2/12/4 1/156/4 39/10/4
f 37/13/5 5/157/5 40/14/5
f 4/16/6 2/158/6 6/17/6
f 10/19/1 12/159/1 11/20/1
f 11/22/2 12/160/2 16/23/2
f 16/25/3 14/161/3 13/26/3
f 14/28/4 10/162/4 9/29/4
f 15/31/5 13/163/5 9/32/5
f 12/34/6 10/164/6 14/35/6
f 21/37/7 23/165/7 19/38/7
f 18/40/5 20/166/5 24/41/5
f 19/43/3 23/167/3 24/44/3
f 17/46/2 19/168/2 20/47/2
f 22/49/1 21/169/1 17/50/1
f 23/52/4 21/170/4 22/53/4
f 29/55/7 31/171/7 27/56/7
f 53/58/5 28/172/5 56/59/5
f 56/62/3 28/173/3 27/174/3
f 27/174/3 31/63/3 56/62/3
f 31/63/3 32/175/3 55/61/3
f 54/65/2 26/176/2 25/66/2
f 25/66/2 27/177/2 53/64/2
f 27/177/2 28/178/2 53/64/2
f 52/68/1 30/179/1 29/69/1
f 29/69/1 25/180/1 51/67/1
f 25/180/1 26/181/1 51/67/1
f 50/71/4 32/182/4 31/72/4
f 31/72/4 29/183/4 49/70/4
f 29/183/4 30/184/4 49/70/4
f 42/73/5 39/185/5 1/74/5
f 44/76/5 40/186/5 39/77/5
f 36/79/5 41/187/5 33/80/5
f 41/82/5 42/188/5 34/83/5
f 35/85/5 43/189/5 41/86/5
f 43/88/2 47/190/2 45/89/2
f 7/91/5 38/191/5 43/92/5
f 38/94/5 37/192/5 44/95/5
f 47/97/5 48/193/5 46/98/5
f 41/100/1 45/194/1 46/101/1
f 42/103/4 46/195/4 48/104/4
f 44/106/3 48/196/3 47/107/3
f 58/109/5 55/197/5 32/110/5
f 60/112/5 56/198/5 55/113/5
f 52/115/5 57/199/5 49/116/5
f 57/118/5 58/200/5 50/119/5
f 51/121/5 59/201/5 57/122/5
f 59/124/1 63/202/1 61/125/1
f 26/127/5 54/203/5 59/128/5
f 54/130/5 53/204/5 60/131/5
f 63/133/5 64/205/5 62/134/5
f 57/136/4 61/206/4 62/137/4
f 58/139/3 62/207/3 64/140/3
f 60/142/2 64/208/2 63/143/2
