# Blender v2.75 (sub 0) OBJ File: ''
# www.blender.org
mtllib ColBase.mtl
o 25mm_Cylinder.003
v 0.076401 0.162764 -0.355139
v -0.009212 0.162764 -0.381110
v -0.098247 0.162764 0.066500
v 0.155303 0.162764 -0.312965
v 0.224461 0.162764 -0.256209
v 0.281218 0.162764 -0.187050
v 0.323392 0.162764 -0.108149
v 0.349362 0.162764 -0.022535
v 0.358131 0.162764 0.066500
v 0.349362 0.162764 0.155535
v 0.323392 0.162764 0.241149
v 0.281218 0.162764 0.320051
v 0.224461 0.162764 0.389209
v 0.155303 0.162764 0.445965
v 0.076401 0.162764 0.488139
v -0.009213 0.162764 0.514110
v -0.098248 0.162764 0.522879
v -0.187283 0.162764 0.514110
v -0.272896 0.162764 0.488139
v -0.351798 0.162764 0.445965
v -0.420956 0.162764 0.389209
v -0.477713 0.162764 0.320050
v -0.519887 0.162764 0.241149
v -0.545857 0.162764 0.155535
v -0.554626 0.162764 0.066500
v -0.545857 0.162764 -0.022535
v -0.519886 0.162764 -0.108149
v -0.477712 0.162764 -0.187051
v -0.420956 0.162764 -0.256209
v -0.351798 0.162764 -0.312965
v -0.272896 0.162764 -0.355139
v -0.098248 0.162764 -0.389879
v -0.187282 0.162764 -0.381110
v 0.175163 -0.000000 0.475688
v 0.090081 -0.000000 0.521165
v -0.098247 -0.000000 0.066500
v 0.090081 0.000000 -0.388165
v 0.175163 0.000000 -0.342688
v -0.590373 -0.000000 0.066500
v -0.580917 0.000000 -0.029509
v 0.356418 -0.000000 0.254829
v 0.310940 -0.000000 0.339911
v -0.507436 -0.000000 0.339910
v -0.552913 -0.000000 0.254828
v 0.384422 0.000000 -0.029509
v 0.393878 -0.000000 0.066500
v -0.098248 0.000000 -0.425626
v -0.002239 0.000000 -0.416170
v -0.286576 -0.000000 0.521165
v -0.371658 -0.000000 0.475688
v -0.371657 0.000000 -0.342688
v -0.286575 0.000000 -0.388165
v -0.002239 -0.000000 0.549170
v -0.098248 -0.000000 0.558626
v 0.249738 0.000000 -0.281485
v 0.310940 0.000000 -0.206910
v -0.552912 0.000000 -0.121829
v -0.507435 0.000000 -0.206911
v 0.249738 -0.000000 0.414486
v -0.580918 -0.000000 0.162509
v 0.384422 -0.000000 0.162509
v -0.446233 -0.000000 0.414486
v -0.194256 0.000000 -0.416170
v 0.356418 0.000000 -0.121828
v -0.194257 -0.000000 0.549170
v -0.446233 0.000000 -0.281486
v -0.188534 0.152354 -0.387402
v -0.098248 0.152354 -0.396294
v 0.286552 0.152354 -0.190615
v 0.329319 0.152354 -0.110604
v -0.098248 0.152354 0.529295
v -0.188534 0.152354 0.520402
v -0.275351 0.152354 -0.361066
v -0.355363 0.152354 0.451300
v -0.425493 0.152354 0.393745
v -0.007961 0.152354 -0.387402
v 0.078856 0.152354 -0.361066
v 0.364547 0.152354 0.066500
v 0.355655 0.152354 0.156787
v -0.525814 0.152354 0.243604
v -0.552150 0.152354 0.156787
v 0.286552 0.152354 0.323615
v 0.228998 0.152354 0.393745
v -0.552149 0.152354 -0.023787
v -0.525814 0.152354 -0.110604
v 0.158867 0.152354 -0.318299
v 0.228998 0.152354 -0.260745
v 0.078856 0.152354 0.494067
v -0.007961 0.152354 0.520402
v -0.425492 0.152354 -0.260745
v -0.355362 0.152354 -0.318300
v -0.275351 0.152354 0.494066
v 0.355654 0.152354 -0.023787
v -0.483047 0.152354 0.323615
v 0.329319 0.152354 0.243604
v -0.561042 0.152354 0.066500
v 0.158867 0.152354 0.451300
v -0.483047 0.152354 -0.190615
vt 0.909412 0.867625
vt 0.917104 0.865825
vt 0.921025 0.912669
vt 0.902167 0.871157
vt 0.895646 0.876283
vt 0.890101 0.882808
vt 0.885744 0.890481
vt 0.882742 0.899006
vt 0.881212 0.908056
vt 0.881212 0.917284
vt 0.882742 0.926334
vt 0.885743 0.934860
vt 0.890101 0.942532
vt 0.895646 0.949056
vt 0.902167 0.954183
vt 0.909412 0.957714
vt 0.917104 0.959514
vt 0.924947 0.959514
vt 0.932638 0.957713
vt 0.939884 0.954182
vt 0.946405 0.949055
vt 0.951950 0.942530
vt 0.956307 0.934857
vt 0.959308 0.926332
vt 0.960838 0.917282
vt 0.960838 0.908054
vt 0.959308 0.899004
vt 0.956307 0.890479
vt 0.951950 0.882807
vt 0.946405 0.876282
vt 0.939884 0.871156
vt 0.924947 0.865824
vt 0.932638 0.867624
vt 0.886099 0.839171
vt 0.882862 0.829979
vt 0.924149 0.815248
vt 0.962199 0.839173
vt 0.957500 0.847446
vt 0.928378 0.764740
vt 0.936673 0.766682
vt 0.903811 0.860007
vt 0.896779 0.854479
vt 0.903811 0.770488
vt 0.911625 0.766681
vt 0.928378 0.865756
vt 0.919920 0.865756
vt 0.967086 0.820224
vt 0.965436 0.829982
vt 0.886099 0.791323
vt 0.890798 0.783050
vt 0.962199 0.791325
vt 0.965436 0.800517
vt 0.881212 0.820221
vt 0.881212 0.810272
vt 0.951520 0.854480
vt 0.944487 0.860008
vt 0.944487 0.770489
vt 0.951520 0.776017
vt 0.890798 0.847444
vt 0.919920 0.764740
vt 0.911625 0.863814
vt 0.896778 0.776016
vt 0.967086 0.810275
vt 0.936673 0.863815
vt 0.882862 0.800514
vt 0.957500 0.783052
vt 0.800374 0.872326
vt 0.809034 0.873140
vt 0.808684 0.882353
vt 0.800029 0.882353
vt 0.808788 0.931259
vt 0.816800 0.927129
vt 0.820290 0.935420
vt 0.812586 0.940328
vt 0.878781 0.764740
vt 0.880990 0.774720
vt 0.873348 0.777236
vt 0.870633 0.767534
vt 0.801430 0.862351
vt 0.810022 0.864011
vt 0.854905 0.775377
vt 0.858941 0.784471
vt 0.852167 0.789119
vt 0.847495 0.780438
vt 0.800374 0.892380
vt 0.809034 0.891566
vt 0.810022 0.900695
vt 0.801430 0.902355
vt 0.822061 0.957252
vt 0.828993 0.950819
vt 0.834093 0.957855
vt 0.827701 0.964942
vt 0.833845 0.792672
vt 0.839696 0.800344
vt 0.834093 0.806851
vt 0.827701 0.799764
vt 0.840458 0.978490
vt 0.845737 0.970285
vt 0.852167 0.975587
vt 0.847494 0.984268
vt 0.817018 0.815697
vt 0.824364 0.821360
vt 0.820290 0.829286
vt 0.812586 0.824378
vt 0.803192 0.912205
vt 0.811651 0.909705
vt 0.813915 0.918537
vt 0.805650 0.921863
vt 0.862638 0.993639
vt 0.866012 0.984200
vt 0.873348 0.987470
vt 0.870633 0.997172
vt 0.805650 0.842843
vt 0.813915 0.846168
vt 0.811651 0.855000
vt 0.803192 0.852501
vt 0.866012 0.780505
vt 0.862638 0.771067
vt 0.824364 0.943346
vt 0.817018 0.949009
vt 0.845737 0.794420
vt 0.840458 0.786216
vt 0.839696 0.964362
vt 0.833845 0.972034
vt 0.828993 0.813887
vt 0.822061 0.807454
vt 0.858941 0.980235
vt 0.854905 0.989329
vt 0.816800 0.837576
vt 0.808788 0.833447
vt 0.880990 0.989986
vt 0.878781 0.999966
vt 0.809485 0.882353
vt 0.809826 0.891487
vt 0.810805 0.900539
vt 0.812421 0.909473
vt 0.814666 0.918230
vt 0.817528 0.926749
vt 0.820990 0.934968
vt 0.825029 0.942826
vt 0.829614 0.950242
vt 0.834677 0.957216
vt 0.840232 0.963667
vt 0.846221 0.969541
vt 0.852597 0.974799
vt 0.859313 0.979408
vt 0.866324 0.983340
vt 0.873597 0.986576
vt 0.881154 0.989052
vt 0.881154 0.775654
vt 0.873597 0.778130
vt 0.866324 0.781366
vt 0.859313 0.785298
vt 0.852597 0.789907
vt 0.846221 0.795165
vt 0.840232 0.801039
vt 0.834677 0.807490
vt 0.829614 0.814464
vt 0.825029 0.821880
vt 0.820990 0.829737
vt 0.817529 0.837957
vt 0.814667 0.846476
vt 0.812421 0.855233
vt 0.810805 0.864167
vt 0.809826 0.873220
vn -0.000000 1.000000 0.000000
vn 0.000000 -1.000000 -0.000000
vn -0.154000 -0.614100 -0.774000
vn -0.182100 0.359000 -0.915400
vn -0.000000 0.359000 -0.933300
vn 0.000000 -0.614100 -0.789200
vn 0.656200 -0.614100 -0.438500
vn 0.776000 0.359000 -0.518500
vn 0.862300 0.359000 -0.357200
vn 0.729100 -0.614100 -0.302000
vn 0.000000 -0.614100 0.789200
vn -0.000000 0.359000 0.933300
vn -0.182100 0.359000 0.915400
vn -0.154000 -0.614100 0.774000
vn -0.302000 -0.614100 -0.729100
vn -0.357200 0.359000 -0.862300
vn -0.438500 -0.614100 0.656200
vn -0.518500 0.359100 0.776000
vn -0.660000 0.359000 0.660000
vn -0.558100 -0.614100 0.558100
vn 0.154000 -0.614100 -0.774000
vn 0.182100 0.359000 -0.915400
vn 0.357200 0.359000 -0.862300
vn 0.302000 -0.614100 -0.729100
vn 0.789200 -0.614100 0.000000
vn 0.933300 0.359000 -0.000000
vn 0.915400 0.359100 0.182100
vn 0.774000 -0.614100 0.154000
vn -0.729100 -0.614100 0.302000
vn -0.862300 0.359000 0.357200
vn -0.915400 0.359100 0.182100
vn -0.774000 -0.614100 0.154000
vn 0.656200 -0.614100 0.438500
vn 0.776000 0.359000 0.518500
vn 0.660000 0.359000 0.660000
vn 0.558100 -0.614100 0.558100
vn -0.774000 -0.614100 -0.154000
vn -0.915400 0.359000 -0.182100
vn -0.862300 0.359100 -0.357200
vn -0.729100 -0.614100 -0.302000
vn 0.438500 -0.614100 -0.656200
vn 0.518500 0.359000 -0.776000
vn 0.660000 0.359000 -0.660000
vn 0.558100 -0.614100 -0.558100
vn 0.302000 -0.614100 0.729100
vn 0.357200 0.359000 0.862300
vn 0.182100 0.359000 0.915400
vn 0.154000 -0.614100 0.774000
vn -0.558100 -0.614100 -0.558100
vn -0.660000 0.359000 -0.660000
vn -0.518500 0.359000 -0.776000
vn -0.438500 -0.614100 -0.656200
vn -0.357200 0.359000 0.862300
vn -0.302000 -0.614100 0.729100
vn 0.915400 0.359000 -0.182100
vn 0.774000 -0.614100 -0.154000
vn -0.776000 0.359000 0.518500
vn -0.656200 -0.614100 0.438500
vn 0.862300 0.359000 0.357200
vn 0.729100 -0.614100 0.302000
vn -0.933300 0.359000 -0.000000
vn -0.789200 -0.614100 0.000000
vn 0.518500 0.359000 0.776000
vn 0.438500 -0.614100 0.656200
vn -0.776000 0.359000 -0.518500
vn -0.656200 -0.614100 -0.438500
vn 0.000000 0.860100 -0.510100
vn 0.099500 0.860100 -0.500200
vn 0.195200 0.860100 -0.471200
vn 0.283400 0.860100 -0.424100
vn 0.360700 0.860200 -0.360600
vn 0.424100 0.860100 -0.283400
vn 0.471200 0.860100 -0.195200
vn 0.500200 0.860200 -0.099500
vn 0.510100 0.860100 0.000000
vn 0.500200 0.860200 0.099500
vn 0.471200 0.860100 0.195200
vn 0.424100 0.860100 0.283400
vn 0.360700 0.860200 0.360600
vn 0.283400 0.860100 0.424100
vn 0.195200 0.860100 0.471200
vn 0.099500 0.860100 0.500200
vn 0.000000 0.860100 0.510100
vn -0.099500 0.860200 0.500200
vn -0.195200 0.860100 0.471200
vn -0.283400 0.860100 0.424100
vn -0.360600 0.860200 0.360600
vn -0.424100 0.860100 0.283400
vn -0.471200 0.860100 0.195200
vn -0.500200 0.860200 0.099500
vn -0.510100 0.860100 0.000000
vn -0.500200 0.860100 -0.099500
vn -0.471200 0.860200 -0.195200
vn -0.424100 0.860100 -0.283400
vn -0.360600 0.860200 -0.360600
vn -0.283400 0.860100 -0.424100
vn -0.195200 0.860100 -0.471200
vn -0.099500 0.860200 -0.500200
usemtl BaseMaterial.003
s off
f 1/1/1 2/2/1 3/3/1
f 4/4/1 1/1/1 3/3/1
f 5/5/1 4/4/1 3/3/1
f 6/6/1 5/5/1 3/3/1
f 7/7/1 6/6/1 3/3/1
f 8/8/1 7/7/1 3/3/1
f 9/9/1 8/8/1 3/3/1
f 10/10/1 9/9/1 3/3/1
f 11/11/1 10/10/1 3/3/1
f 12/12/1 11/11/1 3/3/1
f 13/13/1 12/12/1 3/3/1
f 14/14/1 13/13/1 3/3/1
f 15/15/1 14/14/1 3/3/1
f 16/16/1 15/15/1 3/3/1
f 17/17/1 16/16/1 3/3/1
f 18/18/1 17/17/1 3/3/1
f 19/19/1 18/18/1 3/3/1
f 20/20/1 19/19/1 3/3/1
f 21/21/1 20/20/1 3/3/1
f 22/22/1 21/21/1 3/3/1
f 23/23/1 22/22/1 3/3/1
f 24/24/1 23/23/1 3/3/1
f 25/25/1 24/24/1 3/3/1
f 26/26/1 25/25/1 3/3/1
f 27/27/1 26/26/1 3/3/1
f 28/28/1 27/27/1 3/3/1
f 29/29/1 28/28/1 3/3/1
f 30/30/1 29/29/1 3/3/1
f 31/31/1 30/30/1 3/3/1
f 32/32/1 33/33/1 3/3/1
f 33/33/1 31/31/1 3/3/1
f 2/2/1 32/32/1 3/3/1
f 34/34/2 35/35/2 36/36/2
f 37/37/2 38/38/2 36/36/2
f 39/39/2 40/40/2 36/36/2
f 41/41/2 42/42/2 36/36/2
f 43/43/2 44/44/2 36/36/2
f 45/45/2 46/46/2 36/36/2
f 47/47/2 48/48/2 36/36/2
f 49/49/2 50/50/2 36/36/2
f 51/51/2 52/52/2 36/36/2
f 53/53/2 54/54/2 36/36/2
f 55/55/2 56/56/2 36/36/2
f 57/57/2 58/58/2 36/36/2
f 59/59/2 34/34/2 36/36/2
f 48/48/2 37/37/2 36/36/2
f 60/60/2 39/39/2 36/36/2
f 61/61/2 41/41/2 36/36/2
f 62/62/2 43/43/2 36/36/2
f 63/63/2 47/47/2 36/36/2
f 64/64/2 45/45/2 36/36/2
f 65/65/2 49/49/2 36/36/2
f 66/66/2 51/51/2 36/36/2
f 35/35/2 53/53/2 36/36/2
f 38/38/2 55/55/2 36/36/2
f 40/40/2 57/57/2 36/36/2
f 42/42/2 59/59/2 36/36/2
f 44/44/2 60/60/2 36/36/2
f 46/46/2 61/61/2 36/36/2
f 50/50/2 62/62/2 36/36/2
f 52/52/2 63/63/2 36/36/2
f 56/56/2 64/64/2 36/36/2
f 54/54/2 65/65/2 36/36/2
f 58/58/2 66/66/2 36/36/2
s 1
f 63/67/3 67/68/4 68/69/5 47/70/6
f 56/71/7 69/72/8 70/73/9 64/74/10
f 54/75/11 71/76/12 72/77/13 65/78/14
f 52/79/15 73/80/16 67/68/4 63/67/3
f 50/81/17 74/82/18 75/83/19 62/84/20
f 48/85/21 76/86/22 77/87/23 37/88/24
f 46/89/25 78/90/26 79/91/27 61/92/28
f 44/93/29 80/94/30 81/95/31 60/96/32
f 42/97/33 82/98/34 83/99/35 59/100/36
f 40/101/37 84/102/38 85/103/39 57/104/40
f 38/105/41 86/106/42 87/107/43 55/108/44
f 35/109/45 88/110/46 89/111/47 53/112/48
f 66/113/49 90/114/50 91/115/51 51/116/52
f 65/78/14 72/77/13 92/117/53 49/118/54
f 64/74/10 70/73/9 93/119/55 45/120/56
f 62/84/20 75/83/19 94/121/57 43/122/58
f 61/92/28 79/91/27 95/123/59 41/124/60
f 60/96/32 81/95/31 96/125/61 39/126/62
f 59/100/36 83/99/35 97/127/63 34/128/64
f 57/104/40 85/103/39 98/129/65 58/130/66
f 55/108/44 87/107/43 69/72/8 56/71/7
f 53/112/48 89/111/47 71/131/12 54/132/11
f 51/116/52 91/115/51 73/80/16 52/79/15
f 49/118/54 92/117/53 74/82/18 50/81/17
f 45/120/56 93/119/55 78/90/26 46/89/25
f 43/122/58 94/121/57 80/94/30 44/93/29
f 41/124/60 95/123/59 82/98/34 42/97/33
f 58/130/66 98/129/65 90/114/50 66/113/49
f 34/128/64 97/127/63 88/110/46 35/109/45
f 37/88/24 77/87/23 86/106/42 38/105/41
f 39/126/62 96/125/61 84/102/38 40/101/37
f 76/86/22 68/69/5 32/133/67 2/134/68
f 77/87/23 76/86/22 2/134/68 1/135/69
f 86/106/42 77/87/23 1/135/69 4/136/70
f 87/107/43 86/106/42 4/136/70 5/137/71
f 69/72/8 87/107/43 5/137/71 6/138/72
f 70/73/9 69/72/8 6/138/72 7/139/73
f 93/119/55 70/73/9 7/139/73 8/140/74
f 78/90/26 93/119/55 8/140/74 9/141/75
f 79/91/27 78/90/26 9/141/75 10/142/76
f 95/123/59 79/91/27 10/142/76 11/143/77
f 82/98/34 95/123/59 11/143/77 12/144/78
f 83/99/35 82/98/34 12/144/78 13/145/79
f 97/127/63 83/99/35 13/145/79 14/146/80
f 88/110/46 97/127/63 14/146/80 15/147/81
f 89/111/47 88/110/46 15/147/81 16/148/82
f 71/131/12 89/111/47 16/148/82 17/149/83
f 72/77/13 71/76/12 17/150/83 18/151/84
f 92/117/53 72/77/13 18/151/84 19/152/85
f 74/82/18 92/117/53 19/152/85 20/153/86
f 75/83/19 74/82/18 20/153/86 21/154/87
f 94/121/57 75/83/19 21/154/87 22/155/88
f 80/94/30 94/121/57 22/155/88 23/156/89
f 81/95/31 80/94/30 23/156/89 24/157/90
f 96/125/61 81/95/31 24/157/90 25/158/91
f 84/102/38 96/125/61 25/158/91 26/159/92
f 85/103/39 84/102/38 26/159/92 27/160/93
f 98/129/65 85/103/39 27/160/93 28/161/94
f 90/114/50 98/129/65 28/161/94 29/162/95
f 91/115/51 90/114/50 29/162/95 30/163/96
f 73/80/16 91/115/51 30/163/96 31/164/97
f 67/68/4 73/80/16 31/164/97 33/165/98
f 68/69/5 67/68/4 33/165/98 32/133/67
f 47/70/6 68/69/5 76/86/22 48/85/21