# Blender v2.79 (sub 0) OBJ File: '1x1_flat_grey.blend'
# www.blender.org
mtllib 1x1_collision.mtl
o Cube
v 0.990000 0.006911 -0.990000
v 0.990000 0.006911 0.990000
v -0.990000 0.006911 0.990000
v -0.990000 0.006911 -0.990000
v 0.990000 0.204911 -0.989999
v 0.989999 0.204911 0.990001
v -0.990000 0.204911 0.990000
v -0.990000 0.204911 -0.990000
v 0.990000 0.204911 -0.329999
v 0.990000 0.204911 0.330001
v 0.330000 0.204911 -0.990000
v -0.330000 0.204911 -0.990000
v 0.329999 0.204911 0.990000
v -0.330000 0.204911 0.990000
v -0.990000 0.204911 0.330000
v -0.990000 0.204911 -0.330000
v 0.330000 0.204911 -0.330000
v 0.330000 0.204911 0.330000
v -0.330000 0.204911 -0.330000
v -0.330000 0.204911 0.330000
vt 0.020639 0.982629
vt 0.302316 0.700952
vt 0.302316 0.982629
vt 0.024390 0.797915
vt 0.116105 0.706199
vt 0.116105 0.797915
vt 0.162354 0.890108
vt 0.162354 0.845237
vt 0.296966 0.845238
vt 0.161813 0.799826
vt 0.161813 0.844696
vt 0.027201 0.844696
vt 0.027201 0.890108
vt 0.027201 0.845238
vt 0.161813 0.845237
vt 0.296966 0.754955
vt 0.296966 0.799826
vt 0.162354 0.844696
vt 0.207821 0.797915
vt 0.299537 0.706199
vt 0.299537 0.797915
vt 0.207821 0.706199
vt 0.207821 0.981346
vt 0.299537 0.889630
vt 0.299537 0.981346
vt 0.207821 0.889630
vt 0.116105 0.981346
vt 0.116105 0.889630
vt 0.024390 0.981346
vt 0.020639 0.700951
vt 0.024390 0.706199
vt 0.296966 0.979850
vt 0.162354 0.934979
vt 0.162354 0.979850
vt 0.027201 0.710084
vt 0.161813 0.710084
vt 0.161813 0.754955
vt 0.161813 0.979850
vt 0.027201 0.934979
vt 0.027201 0.979850
vt 0.296966 0.844696
vt 0.162354 0.710084
vt 0.296966 0.710084
vt 0.024390 0.889630
vn 0.0000 -1.0000 0.0000
vn 0.0000 1.0000 -0.0000
vn 1.0000 0.0000 0.0000
vn -0.0000 0.0000 1.0000
vn -1.0000 -0.0000 -0.0000
vn 0.0000 0.0000 -1.0000
usemtl Material
s off
f 2/1/1 4/2/1 1/3/1
f 15/4/2 14/5/2 20/6/2
f 10/7/3 6/8/3 2/9/3
f 14/10/4 7/11/4 3/12/4
f 16/13/5 8/14/5 4/15/5
f 12/16/6 11/17/6 1/18/6
f 18/19/2 6/20/2 10/21/2
f 20/6/2 13/22/2 18/19/2
f 11/23/2 9/24/2 5/25/2
f 17/26/2 10/21/2 9/24/2
f 12/27/2 17/26/2 11/23/2
f 19/28/2 18/19/2 17/26/2
f 8/29/2 19/28/2 12/27/2
f 19/28/2 15/4/2 20/6/2
f 2/1/1 3/30/1 4/2/1
f 15/4/2 7/31/2 14/5/2
f 2/9/3 1/32/3 9/33/3
f 1/32/3 5/34/3 9/33/3
f 9/33/3 10/7/3 2/9/3
f 3/12/4 2/35/4 14/10/4
f 2/35/4 6/36/4 13/37/4
f 14/10/4 2/35/4 13/37/4
f 4/15/5 3/38/5 15/39/5
f 3/38/5 7/40/5 15/39/5
f 15/39/5 16/13/5 4/15/5
f 11/17/6 5/41/6 1/18/6
f 1/18/6 4/42/6 12/16/6
f 4/42/6 8/43/6 12/16/6
f 18/19/2 13/22/2 6/20/2
f 20/6/2 14/5/2 13/22/2
f 11/23/2 17/26/2 9/24/2
f 17/26/2 18/19/2 10/21/2
f 12/27/2 19/28/2 17/26/2
f 19/28/2 20/6/2 18/19/2
f 8/29/2 16/44/2 19/28/2
f 19/28/2 16/44/2 15/4/2
