# 3ds Max Wavefront OBJ Exporter v0.97b - (c)2007 guruware
# File Created: 04.04.2017 18:54:27

mtllib barrels3.mtl

#
# object Mesh_0039
#

v  1.0092 1.2433 -1.1239
v  1.0602 1.3418 -1.0986
v  1.0902 1.3153 -1.1291
v  1.0530 1.2434 -1.1476
v  1.0903 1.1715 -1.1294
v  1.1680 1.3153 -1.0908
v  1.2053 1.2434 -1.0725
v  1.1681 1.1715 -1.0910
v  1.2779 2.4015 0.1844
v  1.5212 2.4015 -0.1761
v  1.5309 2.4015 -0.6110
v  1.3040 2.4015 -0.9822
v  0.9124 2.4015 -1.1717
v  0.0136 2.4015 -0.4274
v  0.4491 2.4015 0.2848
v  0.1268 2.4015 -0.0074
v  0.8782 2.4015 0.3563
v  0.4805 2.4015 -1.1194
v  0.1455 2.4015 -0.8420
v  1.0603 1.1448 -1.0989
v  1.1623 1.1448 -1.0487
v  1.2132 1.2433 -1.0234
v  1.1621 1.3418 -1.0484
v  0.9124 0.0000 -1.1717
v  0.4805 0.0000 -1.1194
v  1.3040 0.0000 -0.9822
v  1.5309 0.0000 -0.6110
v  1.5212 0.0000 -0.1761
v  1.2779 0.0000 0.1844
v  0.8782 0.0000 0.3563
v  0.4491 0.0000 0.2848
v  0.1268 0.0000 -0.0074
v  0.0136 0.0000 -0.4274
v  0.1455 0.0000 -0.8420
v  -0.4103 1.1811 -1.4745
v  -0.3659 1.2747 -1.4391
v  -0.3301 1.2495 -1.4625
v  -0.3625 1.1812 -1.4884
v  -0.3299 1.1130 -1.4626
v  -0.2621 1.2495 -1.4085
v  -0.2296 1.1812 -1.3828
v  -0.2620 1.1130 -1.4087
v  -0.4251 2.2815 -0.1390
v  -0.1109 2.2815 -0.4398
v  -0.0092 2.2815 -0.8628
v  -0.1523 2.2815 -1.2735
v  -0.4948 2.2815 -1.5418
v  -1.5309 2.2815 -1.0049
v  -1.2563 2.2815 -0.2166
v  -1.5093 2.2815 -0.5705
v  -0.8521 2.2815 -0.0558
v  -0.9279 2.2815 -1.5822
v  -1.3142 2.2815 -1.3821
v  -0.3657 1.0876 -1.4393
v  -0.2767 1.0876 -1.3686
v  -0.2323 1.1811 -1.3331
v  -0.2769 1.2747 -1.3684
v  -0.4948 0.0000 -1.5418
v  -0.9279 0.0000 -1.5822
v  -0.1523 0.0000 -1.2735
v  -0.0092 0.0000 -0.8628
v  -0.1109 0.0000 -0.4398
v  -0.4251 0.0000 -0.1390
v  -0.8521 0.0000 -0.0558
v  -1.2563 0.0000 -0.2166
v  -1.5093 0.0000 -0.5705
v  -1.5309 0.0000 -1.0049
v  -1.3142 0.0000 -1.3821
v  -0.3872 1.2433 1.5470
v  -0.4433 1.3418 1.5374
v  -0.4633 1.3153 1.5752
v  -0.4224 1.2434 1.5822
v  -0.4634 1.1715 1.5754
v  -0.5489 1.3153 1.5607
v  -0.5898 1.2434 1.5539
v  -0.5489 1.1715 1.5609
v  -1.0192 2.4015 0.3702
v  -1.1491 2.4015 0.7854
v  -1.0339 2.4015 1.2049
v  -0.7102 2.4015 1.4955
v  -0.2808 2.4015 1.5651
v  0.3673 2.4015 0.5946
v  -0.2538 2.4015 0.0369
v  0.1386 2.4015 0.2246
v  -0.6854 2.4015 0.0912
v  0.1180 2.4015 1.3914
v  0.3596 2.4015 1.0296
v  -0.4433 1.1448 1.5376
v  -0.5554 1.1448 1.5187
v  -0.6114 1.2433 1.5091
v  -0.5554 1.3418 1.5184
v  -0.2808 0.0000 1.5651
v  0.1180 0.0000 1.3914
v  -0.7102 0.0000 1.4955
v  -1.0339 0.0000 1.2049
v  -1.1491 0.0000 0.7854
v  -1.0192 0.0000 0.3702
v  -0.6854 0.0000 0.0912
v  -0.2538 0.0000 0.0369
v  0.1386 0.0000 0.2246
v  0.3673 0.0000 0.5946
v  0.3596 0.0000 1.0296
# 102 vertices

vn -0.4303 0.4268 -0.7954
vn -0.4304 0.4269 -0.7953
vn 0.4419 0.0018 -0.8971
vn 0.4420 0.0016 -0.8970
vn 0.4421 0.0017 -0.8970
vn 0.4418 0.0011 -0.8971
vn 0.4420 0.0015 -0.8970
vn 0.4422 0.0016 -0.8969
vn 0.0000 1.0000 -0.0000
vn -0.4300 -0.4250 -0.7966
vn -0.4295 -0.4251 -0.7968
vn -0.4296 -0.4251 -0.7967
vn -0.4302 -0.4250 -0.7964
vn 0.2430 -0.8353 -0.4931
vn 0.2428 -0.8355 -0.4929
vn 0.2429 -0.8354 -0.4930
vn 0.2431 -0.8353 -0.4932
vn 0.8935 -0.4251 -0.1443
vn 0.8935 -0.4252 -0.1443
vn 0.8935 -0.4251 -0.1444
vn 0.8930 0.4269 -0.1426
vn 0.8930 0.4269 -0.1427
vn 0.8930 0.4268 -0.1426
vn 0.2414 0.8375 -0.4903
vn 0.2414 0.8375 -0.4902
vn 0.2414 0.8374 -0.4903
vn 0.1644 -0.0000 -0.9864
vn -0.1201 -0.0000 -0.9928
vn 0.6716 -0.0000 -0.7409
vn 0.8531 -0.0000 -0.5217
vn 0.9656 -0.0000 -0.2602
vn 0.9530 0.0000 0.3031
vn 0.9997 0.0000 0.0224
vn 0.6378 0.0000 0.7702
vn 0.1201 0.0000 0.9928
vn -0.4357 0.0000 0.9001
vn -0.8531 0.0000 0.5217
vn -0.9998 -0.0000 -0.0224
vn -0.8290 -0.0000 -0.5593
vn -0.6378 -0.0000 -0.7702
vn -0.0000 -1.0000 -0.0000
vn 0.0000 -1.0000 0.0000
vn 0.0000 -1.0000 -0.0000
vn -0.2492 0.4443 -0.8605
vn -0.2498 0.4450 -0.8600
vn 0.6221 0.0017 -0.7829
vn 0.6220 0.0016 -0.7830
vn 0.6219 0.0015 -0.7831
vn 0.6221 0.0015 -0.7830
vn 0.0000 1.0000 0.0000
vn -0.0000 1.0000 0.0000
vn -0.0000 1.0000 -0.0000
vn -0.2484 -0.4429 -0.8614
vn -0.2486 -0.4429 -0.8614
vn -0.2483 -0.4430 -0.8615
vn 0.3298 -0.8478 -0.4152
vn 0.3299 -0.8478 -0.4152
vn 0.8951 -0.4432 0.0480
vn 0.8951 -0.4433 0.0480
vn 0.8942 0.4450 0.0495
vn 0.8942 0.4450 0.0494
vn 0.3279 0.8498 -0.4128
vn 0.3278 0.8499 -0.4126
vn 0.3278 0.8498 -0.4127
vn 0.3279 0.8497 -0.4129
vn 0.3698 -0.0000 -0.9291
vn 0.0930 -0.0000 -0.9957
vn 0.8134 -0.0000 -0.5817
vn 0.9443 -0.0000 -0.3290
vn 0.9988 -0.0000 -0.0496
vn 0.8670 0.0000 0.4983
vn 0.9723 0.0000 0.2338
vn 0.4600 0.0000 0.8879
vn -0.0930 0.0000 0.9957
vn -0.6166 0.0000 0.7873
vn -0.9443 0.0000 0.3290
vn -0.9723 -0.0000 -0.2338
vn -0.6915 -0.0000 -0.7223
vn -0.4600 -0.0000 -0.8879
vn -0.0000 -1.0000 0.0000
vn 0.6400 0.4266 0.6390
vn 0.6400 0.4265 0.6392
vn -0.1663 0.0015 0.9861
vn -0.1665 0.0016 0.9860
vn -0.1665 0.0015 0.9860
vn -0.1667 0.0017 0.9860
vn -0.1666 0.0015 0.9860
vn -0.1667 0.0013 0.9860
vn 0.6396 -0.4250 0.6405
vn 0.6393 -0.4250 0.6408
vn 0.6394 -0.4250 0.6407
vn 0.6398 -0.4249 0.6404
vn -0.0916 -0.8353 0.5421
vn -0.0915 -0.8354 0.5420
vn -0.0917 -0.8353 0.5422
vn -0.8148 -0.4252 0.3941
vn -0.8147 0.4269 0.3924
vn -0.8148 0.4269 0.3923
vn -0.0911 0.8374 0.5389
vn 0.1248 0.0000 0.9922
vn 0.3993 0.0000 0.9168
vn -0.4314 0.0000 0.9021
vn -0.6681 0.0000 0.7441
vn -0.8507 0.0000 0.5257
vn -0.9998 -0.0000 -0.0177
vn -0.9643 0.0000 0.2647
vn -0.8316 -0.0000 -0.5554
vn -0.3993 -0.0000 -0.9168
vn 0.1598 -0.0000 -0.9872
vn 0.6681 -0.0000 -0.7441
vn 0.9643 -0.0000 -0.2647
vn 0.9544 0.0000 0.2986
vn 0.8316 0.0000 0.5554
# 113 vertex normals

vt 0.6958 0.7172 0.0000
vt 0.6797 0.7469 0.0000
vt 0.6740 0.7360 0.0000
vt 0.6834 0.7171 0.0000
vt 0.6733 0.6986 0.0000
vt 0.6520 0.7356 0.0000
vt 0.6404 0.7180 0.0000
vt 0.6513 0.7000 0.0000
vt 0.7598 0.3783 0.0000
vt 0.6689 0.3783 0.0000
vt 0.5925 0.3292 0.0000
vt 0.5547 0.2465 0.0000
vt 0.5677 0.1566 0.0000
vt 0.8015 0.0879 0.0000
vt 0.8739 0.2465 0.0000
vt 0.8610 0.1566 0.0000
vt 0.8362 0.3292 0.0000
vt 0.6272 0.0879 0.0000
vt 0.7143 0.0623 0.0000
vt 0.6793 0.6880 0.0000
vt 0.6454 0.6888 0.0000
vt 0.6284 0.7178 0.0000
vt 0.6460 0.7466 0.0000
vt 0.0143 0.0993 0.0000
vt 0.0143 0.0131 0.0000
vt 0.5126 0.0131 0.0000
vt 0.5126 0.0993 0.0000
vt 0.0143 0.1891 0.0000
vt 0.5126 0.1891 0.0000
vt 0.0143 0.2787 0.0000
vt 0.5126 0.2787 0.0000
vt 0.0143 0.3681 0.0000
vt 0.5126 0.3681 0.0000
vt 0.0143 0.4573 0.0000
vt 0.5126 0.4573 0.0000
vt 0.0143 0.5464 0.0000
vt 0.5126 0.5464 0.0000
vt 0.0143 0.6356 0.0000
vt 0.5126 0.6356 0.0000
vt 0.0143 0.7250 0.0000
vt 0.5126 0.7250 0.0000
vt 0.0143 0.8146 0.0000
vt 0.5126 0.8146 0.0000
vt 0.0143 0.9044 0.0000
vt 0.5126 0.9044 0.0000
vt 0.0143 0.9932 0.0000
vt 0.5126 0.9932 0.0000
vt 0.7652 0.6972 0.0000
vt 0.6880 0.6476 0.0000
vt 0.6499 0.5642 0.0000
vt 0.9592 0.4733 0.0000
vt 0.9723 0.5642 0.0000
vt 0.9342 0.6476 0.0000
vt 0.7230 0.4040 0.0000
vt 0.6630 0.4733 0.0000
vt 0.8570 0.6972 0.0000
vt 0.8991 0.4040 0.0000
vt 0.8111 0.3781 0.0000
# 58 texture coords

g Mesh_0039
usemtl Tex_0028_0_dds
s 1
f 1/1/1 2/2/1 3/3/1 
s 2
f 3/3/2 4/4/2 1/1/2 
s 3
f 4/4/3 3/3/4 5/5/5 
s 4
f 3/3/4 6/6/6 7/7/7 
s 5
f 3/3/4 7/7/7 5/5/5 
s 6
f 7/7/7 8/8/8 5/5/5 
s 7
f 9/9/9 10/10/9 11/11/9 
s 8
f 11/11/9 12/12/9 13/13/9 
s 9
f 9/9/9 11/11/9 13/13/9 
s 10
f 14/14/9 9/9/9 13/13/9 
s 11
f 14/14/9 15/15/9 9/9/9 
s 12
f 14/14/9 16/16/9 15/15/9 
s 13
f 15/15/9 17/17/9 9/9/9 
s 14
f 14/14/9 13/13/9 18/18/9 
s 15
f 19/19/9 14/14/9 18/18/9 
s 16
f 20/20/10 1/1/11 4/4/12 
s 17
f 4/4/12 5/5/13 20/20/10 
s 18
f 21/21/14 20/20/15 5/5/16 
s 19
f 5/5/16 8/8/17 21/21/14 
s 20
f 22/22/18 21/21/19 8/8/19 
s 21
f 8/8/19 7/7/20 22/22/18 
s 22
f 23/23/21 22/22/22 7/7/22 
s 23
f 7/7/22 6/6/23 23/23/21 
s 24
f 2/2/24 23/23/25 6/6/25 
s 25
f 6/6/25 3/3/26 2/2/24 
s 26
f 24/24/27 25/25/28 18/26/28 
s 27
f 18/26/28 13/27/27 24/24/27 
s 28
f 26/28/29 24/24/27 13/27/27 
s 29
f 13/27/27 12/29/29 26/28/29 
s 30
f 27/30/30 26/28/29 12/29/29 
s 31
f 12/29/29 11/31/31 27/30/30 
s 32
f 28/32/32 27/30/33 11/31/31 
s 33
f 11/31/31 10/33/32 28/32/32 
s 34
f 29/34/34 28/32/32 10/33/32 
s 35
f 10/33/32 9/35/34 29/34/34 
s 36
f 30/36/35 29/34/34 9/35/34 
s 37
f 9/35/34 17/37/35 30/36/35 
s 38
f 31/38/36 30/36/35 17/37/35 
s 39
f 17/37/35 15/39/36 31/38/36 
s 40
f 32/40/37 31/38/36 15/39/36 
s 41
f 15/39/36 16/41/37 32/40/37 
s 42
f 33/42/38 32/40/37 16/41/37 
s 43
f 16/41/37 14/43/38 33/42/38 
s 44
f 34/44/39 33/42/38 14/43/38 
s 45
f 14/43/38 19/45/39 34/44/39 
s 46
f 25/46/40 34/44/39 19/45/39 
s 47
f 19/45/39 18/47/40 25/46/40 
s 48
f 29/48/41 30/49/42 31/50/43 
s 49
f 24/51/41 26/52/42 27/53/43 
s 50
f 24/51/41 27/53/43 29/48/41 
s 51
f 24/51/41 29/48/41 33/54/43 
s 52
f 29/48/41 31/50/43 33/54/43 
s 53
f 31/50/43 32/55/43 33/54/43 
s 54
f 27/53/43 28/56/41 29/48/41 
s 55
f 25/57/42 24/51/41 34/58/42 
s 56
f 24/51/41 33/54/43 34/58/42 
usemtl Tex_0029_0_dds
s 1
f 35/1/44 36/2/44 37/3/44 
s 2
f 37/3/45 38/4/45 35/1/45 
s 3
f 38/4/46 37/3/47 39/5/47 
s 4
f 37/3/47 40/6/48 41/7/47 
s 5
f 37/3/47 41/7/47 39/5/47 
s 6
f 41/7/47 42/8/49 39/5/47 
s 7
f 43/9/50 44/10/9 45/11/50 
s 8
f 45/11/50 46/12/9 47/13/50 
s 9
f 43/9/50 45/11/50 47/13/50 
s 10
f 48/14/51 43/9/50 47/13/50 
s 11
f 48/14/51 49/15/9 43/9/50 
s 12
f 48/14/51 50/16/9 49/15/9 
s 13
f 49/15/9 51/17/9 43/9/50 
s 14
f 48/14/51 47/13/50 52/18/51 
s 15
f 53/19/52 48/14/51 52/18/51 
s 16
f 54/20/53 35/1/54 38/4/54 
s 17
f 38/4/54 39/5/55 54/20/53 
s 18
f 55/21/56 54/20/57 39/5/57 
s 19
f 39/5/57 42/8/56 55/21/56 
s 20
f 56/22/58 55/21/59 42/8/59 
s 21
f 42/8/59 41/7/58 56/22/58 
s 22
f 57/23/60 56/22/61 41/7/61 
s 23
f 41/7/61 40/6/60 57/23/60 
s 24
f 36/2/62 57/23/63 40/6/64 
s 25
f 40/6/64 37/3/65 36/2/62 
s 26
f 58/24/66 59/25/67 52/26/67 
s 27
f 52/26/67 47/27/66 58/24/66 
s 28
f 60/28/68 58/24/66 47/27/66 
s 29
f 47/27/66 46/29/68 60/28/68 
s 30
f 61/30/69 60/28/68 46/29/68 
s 31
f 46/29/68 45/31/70 61/30/69 
s 32
f 62/32/71 61/30/72 45/31/70 
s 33
f 45/31/70 44/33/71 62/32/71 
s 34
f 63/34/73 62/32/71 44/33/71 
s 35
f 44/33/71 43/35/73 63/34/73 
s 36
f 64/36/74 63/34/73 43/35/73 
s 37
f 43/35/73 51/37/74 64/36/74 
s 38
f 65/38/75 64/36/74 51/37/74 
s 39
f 51/37/74 49/39/75 65/38/75 
s 40
f 66/40/76 65/38/75 49/39/75 
s 41
f 49/39/75 50/41/76 66/40/76 
s 42
f 67/42/77 66/40/76 50/41/76 
s 43
f 50/41/76 48/43/77 67/42/77 
s 44
f 68/44/78 67/42/77 48/43/77 
s 45
f 48/43/77 53/45/78 68/44/78 
s 46
f 59/46/79 68/44/78 53/45/78 
s 47
f 53/45/78 52/47/79 59/46/79 
s 48
f 63/48/43 64/49/42 65/50/41 
s 49
f 58/51/43 60/52/42 61/53/43 
s 50
f 58/51/43 61/53/43 63/48/43 
s 51
f 58/51/43 63/48/43 67/54/41 
s 52
f 63/48/43 65/50/41 67/54/41 
s 53
f 65/50/41 66/55/80 67/54/41 
s 54
f 61/53/43 62/56/42 63/48/43 
s 55
f 59/57/42 58/51/43 68/58/42 
s 56
f 58/51/43 67/54/41 68/58/42 
usemtl Tex_0028_0_dds
s 1
f 69/1/81 70/2/81 71/3/81 
s 2
f 71/3/82 72/4/82 69/1/82 
s 3
f 72/4/83 71/3/84 73/5/85 
s 4
f 71/3/84 74/6/86 75/7/87 
s 5
f 71/3/84 75/7/87 73/5/85 
s 6
f 75/7/87 76/8/88 73/5/85 
s 7
f 77/9/50 78/10/50 79/11/50 
s 8
f 79/11/50 80/12/9 81/13/51 
s 9
f 77/9/50 79/11/50 81/13/51 
s 10
f 82/14/50 77/9/50 81/13/51 
s 11
f 82/14/50 83/15/9 77/9/50 
s 12
f 82/14/50 84/16/9 83/15/9 
s 13
f 83/15/9 85/17/9 77/9/50 
s 14
f 82/14/50 81/13/51 86/18/50 
s 15
f 87/19/50 82/14/50 86/18/50 
s 16
f 88/20/89 69/1/90 72/4/91 
s 17
f 72/4/91 73/5/92 88/20/89 
s 18
f 89/21/93 88/20/94 73/5/93 
s 19
f 73/5/93 76/8/95 89/21/93 
s 20
f 90/22/96 89/21/96 76/8/96 
s 21
f 76/8/96 75/7/96 90/22/96 
s 22
f 91/23/97 90/22/98 75/7/98 
s 23
f 75/7/98 74/6/97 91/23/97 
s 24
f 70/2/99 91/23/99 74/6/99 
s 25
f 74/6/99 71/3/99 70/2/99 
s 26
f 92/24/100 93/25/101 86/26/101 
s 27
f 86/26/101 81/27/100 92/24/100 
s 28
f 94/28/102 92/24/100 81/27/100 
s 29
f 81/27/100 80/29/102 94/28/102 
s 30
f 95/30/103 94/28/102 80/29/102 
s 31
f 80/29/102 79/31/104 95/30/103 
s 32
f 96/32/105 95/30/106 79/31/104 
s 33
f 79/31/104 78/33/105 96/32/105 
s 34
f 97/34/107 96/32/105 78/33/105 
s 35
f 78/33/105 77/35/107 97/34/107 
s 36
f 98/36/108 97/34/107 77/35/107 
s 37
f 77/35/107 85/37/108 98/36/108 
s 38
f 99/38/109 98/36/108 85/37/108 
s 39
f 85/37/108 83/39/109 99/38/109 
s 40
f 100/40/110 99/38/109 83/39/109 
s 41
f 83/39/109 84/41/110 100/40/110 
s 42
f 101/42/111 100/40/110 84/41/110 
s 43
f 84/41/110 82/43/111 101/42/111 
s 44
f 102/44/112 101/42/111 82/43/111 
s 45
f 82/43/111 87/45/112 102/44/112 
s 46
f 93/46/113 102/44/112 87/45/112 
s 47
f 87/45/112 86/47/113 93/46/113 
s 48
f 97/48/42 98/49/42 99/50/42 
s 49
f 92/51/42 94/52/42 95/53/42 
s 50
f 92/51/42 95/53/42 97/48/42 
s 51
f 92/51/42 97/48/42 101/54/42 
s 52
f 97/48/42 99/50/42 101/54/42 
s 53
f 99/50/42 100/55/42 101/54/42 
s 54
f 95/53/42 96/56/42 97/48/42 
s 55
f 93/57/42 92/51/42 102/58/42 
s 56
f 92/51/42 101/54/42 102/58/42 
# 0 polygons - 168 triangles