# 3ds Max Wavefront OBJ Exporter v0.97b - (c)2007 guruware
# File Created: 11.06.2015 18:36:22

mtllib Room Commandcenter.mtl

#
# object Box002
#

v  1.4104 0.2497 8.7547
v  1.4104 0.2497 1.3497
v  1.6047 0.2497 1.3497
v  1.6047 0.2497 8.7547
v  1.4104 2.0497 8.7547
v  1.6047 2.0497 8.7547
v  1.6047 2.0497 1.3497
v  1.4104 2.0497 1.3497
v  -1.5906 0.2497 6.0569
v  -1.5906 0.2497 -1.4997
v  -1.3963 0.2497 -1.4997
v  -1.3963 0.2497 6.0569
v  -1.5906 2.0497 6.0569
v  -1.3963 2.0497 6.0569
v  -1.3963 2.0497 -1.4997
v  -1.5906 2.0497 -1.4997
v  -1.5749 0.2497 -1.4890
v  -1.5749 0.2497 -9.0456
v  -1.3806 0.2497 -9.0456
v  -1.3806 0.2497 -1.4890
v  -1.5749 2.0497 -1.4890
v  -1.3806 2.0497 -1.4890
v  -1.3806 2.0497 -9.0456
v  -1.5749 2.0497 -9.0456
v  6.1535 0.2497 -1.4404
v  -1.4031 0.2497 -1.4404
v  -1.4031 0.2497 -1.6347
v  6.1535 0.2497 -1.6347
v  6.1535 2.0497 -1.4404
v  6.1535 2.0497 -1.6347
v  -1.4031 2.0497 -1.6347
v  -1.4031 2.0497 -1.4404
v  4.6713 0.2497 1.5466
v  1.5976 0.2497 1.5466
v  1.5976 0.2497 1.3523
v  4.6713 0.2497 1.3523
v  4.6713 2.0497 1.5466
v  4.6713 2.0497 1.3523
v  1.5976 2.0497 1.3523
v  1.5976 2.0497 1.5466
v  -1.5602 0.2497 -1.4788
v  -4.6339 0.2497 -1.4788
v  -4.6339 0.2497 -1.6731
v  -1.5602 0.2497 -1.6731
v  -1.5602 2.0497 -1.4788
v  -1.5602 2.0497 -1.6731
v  -4.6339 2.0497 -1.6731
v  -4.6339 2.0497 -1.4788
v  -5.8873 0.2497 3.0316
v  -8.9610 0.2497 3.0316
v  -8.9610 0.2497 2.8373
v  -5.8873 0.2497 2.8373
v  -5.8873 2.0497 3.0316
v  -5.8873 2.0497 2.8373
v  -8.9610 2.0497 2.8373
v  -8.9610 2.0497 3.0316
v  -7.3953 0.2497 -1.4876
v  -8.7930 0.2497 -1.4876
v  -8.7930 0.2497 -1.6819
v  -7.3953 0.2497 -1.6819
v  -7.3953 2.0497 -1.4876
v  -7.3953 2.0497 -1.6819
v  -8.7930 2.0497 -1.6819
v  -8.7930 2.0497 -1.4876
v  -4.4823 0.2497 6.0542
v  -5.8799 0.2497 6.0542
v  -5.8799 0.2497 5.8599
v  -4.4823 0.2497 5.8599
v  -4.4823 2.0497 6.0542
v  -4.4823 2.0497 5.8599
v  -5.8799 2.0497 5.8599
v  -5.8799 2.0497 6.0542
v  -6.0696 0.2497 6.0529
v  -6.0696 0.2497 2.9792
v  -5.8753 0.2497 2.9792
v  -5.8753 0.2497 6.0529
v  -6.0696 2.0497 6.0529
v  -5.8753 2.0497 6.0529
v  -5.8753 2.0497 2.9792
v  -6.0696 2.0497 2.9792
v  0.1045 0.2497 -5.9502
v  -1.3779 0.2497 -5.9502
v  -1.3779 0.2497 -6.1445
v  0.1045 0.2497 -6.1445
v  0.1045 2.0497 -5.9502
v  0.1045 2.0497 -6.1445
v  -1.3779 2.0497 -6.1445
v  -1.3779 2.0497 -5.9502
v  6.1592 0.2497 -5.9451
v  3.0854 0.2497 -5.9451
v  3.0854 0.2497 -6.1394
v  6.1592 0.2497 -6.1394
v  6.1592 2.0497 -5.9451
v  6.1592 2.0497 -6.1394
v  3.0854 2.0497 -6.1394
v  3.0854 2.0497 -5.9451
v  5.9616 0.2497 -1.5957
v  5.9616 0.2497 -6.0144
v  6.1559 0.2497 -6.0144
v  6.1559 0.2497 -1.5957
v  5.9616 2.0497 -1.5957
v  6.1559 2.0497 -1.5957
v  6.1559 2.0497 -6.0144
v  5.9616 2.0497 -6.0144
v  8.8493 0.2497 1.5426
v  7.4516 0.2497 1.5426
v  7.4516 0.2497 1.3483
v  8.8493 0.2497 1.3483
v  8.8493 2.0497 1.5426
v  8.8493 2.0497 1.3483
v  7.4516 2.0497 1.3483
v  7.4516 2.0497 1.5426
v  -8.9998 0.0000 8.9555
v  -8.9998 0.0000 -9.0445
v  9.0002 0.0000 -9.0445
v  9.0002 0.0000 8.9555
v  -8.9998 0.2500 8.9555
v  9.0002 0.2500 8.9555
v  9.0002 0.2500 -9.0445
v  -8.9998 0.2500 -9.0445
# 120 vertices

vn 0.0000 -1.0000 -0.0000
vn 0.0000 1.0000 -0.0000
vn 0.0000 0.0000 1.0000
vn 1.0000 0.0000 -0.0000
vn 0.0000 0.0000 -1.0000
vn -1.0000 0.0000 -0.0000
vn -0.0000 0.0000 -1.0000
# 7 vertex normals

vt 0.7065 0.7877 0.0000
vt 0.6923 0.7877 0.0000
vt 0.6923 0.7198 0.0000
vt 0.7065 0.7198 0.0000
vt 0.7441 0.6844 0.0000
vt 0.7491 0.6844 0.0000
vt 0.7491 0.7754 0.0000
vt 0.7441 0.7754 0.0000
vt 0.8062 0.6283 0.0000
vt 0.8062 0.9986 0.0000
vt 0.7175 0.9986 0.0000
vt 0.7175 0.6283 0.0000
vt 0.9959 0.6302 0.0000
vt 0.9959 0.9953 0.0000
vt 0.9071 0.9953 0.0000
vt 0.9071 0.6302 0.0000
vt 0.7468 0.6894 0.0000
vt 0.7506 0.6894 0.0000
vt 0.7506 0.8117 0.0000
vt 0.7468 0.8117 0.0000
vt 0.6842 0.5745 0.0000
vt 0.6842 0.9986 0.0000
vt 0.5955 0.9986 0.0000
vt 0.5955 0.5745 0.0000
vt 0.9014 0.6302 0.0000
vt 0.9014 0.9953 0.0000
vt 0.8127 0.9953 0.0000
vt 0.8127 0.6302 0.0000
vt 0.7069 0.9870 0.0000
vt 0.6877 0.9870 0.0000
vt 0.6877 0.9031 0.0000
vt 0.7069 0.9031 0.0000
vt 0.9516 0.8078 0.0000
vt 0.9355 0.8078 0.0000
vt 0.9355 0.7370 0.0000
vt 0.9516 0.7370 0.0000
vt 0.9960 0.6284 0.0000
vt 0.9960 0.9984 0.0000
vt 0.9075 0.9984 0.0000
vt 0.9075 0.6284 0.0000
vt 0.9514 0.8082 0.0000
vt 0.9352 0.8082 0.0000
vt 0.9352 0.7359 0.0000
vt 0.9514 0.7359 0.0000
vt 0.9012 0.7816 0.0000
vt 0.9012 0.7949 0.0000
vt 0.8124 0.7949 0.0000
vt 0.8124 0.7816 0.0000
vt 0.9017 0.5904 0.0000
vt 0.9017 0.9986 0.0000
vt 0.8129 0.9986 0.0000
vt 0.8129 0.5904 0.0000
vt 0.6839 0.5754 0.0000
vt 0.6839 0.9953 0.0000
vt 0.5952 0.9953 0.0000
vt 0.5952 0.5754 0.0000
vt 0.9960 0.7560 0.0000
vt 0.9075 0.7560 0.0000
vt 0.9017 0.7392 0.0000
vt 0.9017 0.7507 0.0000
vt 0.8131 0.7507 0.0000
vt 0.8131 0.7392 0.0000
vt 0.5889 0.5900 0.0000
vt 0.5889 0.7796 0.0000
vt 0.5004 0.7796 0.0000
vt 0.5004 0.5900 0.0000
vt 0.8057 0.6828 0.0000
vt 0.8057 0.6935 0.0000
vt 0.7161 0.6935 0.0000
vt 0.7161 0.6828 0.0000
vt 0.9019 0.5880 0.0000
vt 0.9019 0.8304 0.0000
vt 0.8133 0.8304 0.0000
vt 0.8133 0.5880 0.0000
vt 0.9960 0.8515 0.0000
vt 0.9075 0.8515 0.0000
vt 0.7079 0.9954 0.0000
vt 0.6887 0.9954 0.0000
vt 0.6887 0.9115 0.0000
vt 0.7079 0.9115 0.0000
vt 0.7570 0.8078 0.0000
vt 0.7409 0.8078 0.0000
vt 0.7409 0.7370 0.0000
vt 0.7570 0.7370 0.0000
vt 0.8047 0.8515 0.0000
vt 0.8047 0.9984 0.0000
vt 0.7161 0.9984 0.0000
vt 0.7161 0.8515 0.0000
vt 0.7601 0.8137 0.0000
vt 0.7412 0.8137 0.0000
vt 0.7412 0.7304 0.0000
vt 0.7601 0.7304 0.0000
vt 0.7079 0.9768 0.0000
vt 0.6887 0.9768 0.0000
vt 0.6887 0.8929 0.0000
vt 0.7079 0.8929 0.0000
vt 0.7453 0.6413 0.0000
vt 0.7599 0.6413 0.0000
vt 0.7599 0.8322 0.0000
vt 0.7453 0.8322 0.0000
vt 0.9016 0.8191 0.0000
vt 0.9016 0.9964 0.0000
vt 0.8131 0.9964 0.0000
vt 0.8131 0.8191 0.0000
vt 0.7053 0.7047 0.0000
vt 0.6907 0.7047 0.0000
vt 0.6907 0.6025 0.0000
vt 0.7053 0.6025 0.0000
vt 0.9015 0.6872 0.0000
vt 0.9015 0.6961 0.0000
vt 0.8129 0.6961 0.0000
vt 0.8129 0.6872 0.0000
vt 0.9015 0.7560 0.0000
vt 0.9015 0.9984 0.0000
vt 0.8129 0.9984 0.0000
vt 0.8129 0.7560 0.0000
vt 0.8569 0.8082 0.0000
vt 0.8407 0.8082 0.0000
vt 0.8407 0.7359 0.0000
vt 0.8569 0.7359 0.0000
vt 0.8053 0.7560 0.0000
vt 0.8053 0.9984 0.0000
vt 0.7167 0.9984 0.0000
vt 0.7167 0.7560 0.0000
vt 0.7063 0.6484 0.0000
vt 0.7063 0.8471 0.0000
vt 0.6906 0.8471 0.0000
vt 0.6906 0.6484 0.0000
vt 0.5885 0.5881 0.0000
vt 0.5885 0.8567 0.0000
vt 0.5009 0.8567 0.0000
vt 0.5009 0.5881 0.0000
vt 0.8052 0.6302 0.0000
vt 0.8052 0.9953 0.0000
vt 0.7165 0.9953 0.0000
vt 0.7165 0.6302 0.0000
vt 0.7042 0.6617 0.0000
vt 0.7042 0.6856 0.0000
vt 0.6923 0.6856 0.0000
vt 0.6923 0.6617 0.0000
vt 0.0000 0.0000 0.0000
vt 0.5002 0.0000 0.0000
vt 0.5002 1.0000 0.0000
vt 0.0000 1.0000 0.0000
# 144 texture coords

g Box002
usemtl Material__25
s 2
f 1/1/1 2/2/1 3/3/1 4/4/1 
s 4
f 5/4/2 6/1/2 7/2/2 8/3/2 
s 8
f 1/5/3 4/6/3 6/7/3 5/8/3 
s 16
f 4/9/4 3/10/4 7/11/4 6/12/4 
s 32
f 3/5/5 2/6/5 8/7/5 7/8/5 
s 64
f 2/13/6 1/14/6 5/15/6 8/16/6 
s 2
f 9/1/1 10/2/1 11/3/1 12/4/1 
s 4
f 13/4/2 14/1/2 15/2/2 16/3/2 
s 8
f 9/17/3 12/18/3 14/19/3 13/20/3 
s 16
f 12/21/4 11/22/4 15/23/4 14/24/4 
s 32
f 11/17/5 10/18/5 16/19/5 15/20/5 
s 64
f 10/25/6 9/26/6 13/27/6 16/28/6 
s 2
f 17/29/1 18/30/1 19/31/1 20/32/1 
s 4
f 21/32/2 22/29/2 23/30/2 24/31/2 
s 8
f 17/33/3 20/34/3 22/35/3 21/36/3 
s 16
f 20/37/4 19/38/4 23/39/4 22/40/4 
s 32
f 19/41/5 18/42/5 24/43/5 23/44/5 
s 64
f 18/37/6 17/38/6 21/39/6 24/40/6 
s 2
f 25/1/1 26/2/1 27/3/1 28/4/1 
s 4
f 29/4/2 30/1/2 31/2/2 32/3/2 
s 8
f 25/45/4 28/46/4 30/47/4 29/48/4 
s 16
f 28/49/5 27/50/5 31/51/5 30/52/5 
s 32
f 27/45/6 26/46/6 32/47/6 31/48/6 
s 64
f 26/53/3 25/54/3 29/55/3 32/56/3 
s 2
f 33/29/1 34/30/1 35/31/1 36/32/1 
s 4
f 37/32/2 38/29/2 39/30/2 40/31/2 
s 8
f 33/33/4 36/34/4 38/35/4 37/36/4 
s 16
f 36/57/7 35/38/7 39/39/7 38/58/7 
s 32
f 35/41/6 34/42/6 40/43/6 39/44/6 
s 64
f 34/57/3 33/38/3 37/39/3 40/58/3 
s 2
f 41/29/1 42/30/1 43/31/1 44/32/1 
s 4
f 45/32/2 46/29/2 47/30/2 48/31/2 
s 8
f 41/33/4 44/34/4 46/35/4 45/36/4 
s 16
f 44/57/5 43/38/5 47/39/5 46/58/5 
s 32
f 43/41/6 42/42/6 48/43/6 47/44/6 
s 64
f 42/57/3 41/38/3 45/39/3 48/58/3 
s 2
f 49/29/1 50/30/1 51/31/1 52/32/1 
s 4
f 53/32/2 54/29/2 55/30/2 56/31/2 
s 8
f 49/59/4 52/60/4 54/61/4 53/62/4 
s 16
f 52/63/7 51/64/7 55/65/7 54/66/7 
s 32
f 51/67/6 50/68/6 56/69/6 55/70/6 
s 64
f 50/71/3 49/72/3 53/73/3 56/74/3 
s 2
f 57/29/1 58/30/1 59/31/1 60/32/1 
s 4
f 61/32/2 62/29/2 63/30/2 64/31/2 
s 8
f 57/33/4 60/34/4 62/35/4 61/36/4 
s 16
f 60/75/5 59/38/5 63/39/5 62/76/5 
s 32
f 59/41/6 58/42/6 64/43/6 63/44/6 
s 64
f 58/75/3 57/38/3 61/39/3 64/76/3 
s 2
f 65/77/1 66/78/1 67/79/1 68/80/1 
s 4
f 69/80/2 70/77/2 71/78/2 72/79/2 
s 8
f 65/81/4 68/82/4 70/83/4 69/84/4 
s 16
f 68/85/7 67/86/7 71/87/7 70/88/7 
s 32
f 67/89/6 66/90/6 72/91/6 71/92/6 
s 64
f 66/85/3 65/86/3 69/87/3 72/88/3 
s 2
f 73/93/1 74/94/1 75/95/1 76/96/1 
s 4
f 77/96/2 78/93/2 79/94/2 80/95/2 
s 8
f 73/97/3 76/98/3 78/99/3 77/100/3 
s 16
f 76/101/4 75/102/4 79/103/4 78/104/4 
s 32
f 75/105/5 74/106/5 80/107/5 79/108/5 
s 64
f 74/101/6 73/102/6 77/103/6 80/104/6 
s 2
f 81/77/1 82/78/1 83/79/1 84/80/1 
s 4
f 85/80/2 86/77/2 87/78/2 88/79/2 
s 8
f 81/81/4 84/82/4 86/83/4 85/84/4 
s 16
f 84/85/5 83/86/5 87/87/5 86/88/5 
s 32
f 83/89/6 82/90/6 88/91/6 87/92/6 
s 64
f 82/85/3 81/86/3 85/87/3 88/88/3 
s 2
f 89/29/1 90/30/1 91/31/1 92/32/1 
s 4
f 93/32/2 94/29/2 95/30/2 96/31/2 
s 8
f 89/109/4 92/110/4 94/111/4 93/112/4 
s 16
f 92/113/7 91/114/7 95/115/7 94/116/7 
s 32
f 91/117/6 90/118/6 96/119/6 95/120/6 
s 64
f 90/121/3 89/122/3 93/123/3 96/124/3 
s 2
f 97/1/1 98/2/1 99/3/1 100/4/1 
s 4
f 101/4/2 102/1/2 103/2/2 104/3/2 
s 8
f 97/125/3 100/126/3 102/127/3 101/128/3 
s 16
f 100/129/4 99/130/4 103/131/4 102/132/4 
s 32
f 99/125/5 98/126/5 104/127/5 103/128/5 
s 64
f 98/133/6 97/134/6 101/135/6 104/136/6 
s 2
f 105/77/1 106/78/1 107/79/1 108/80/1 
s 4
f 109/80/2 110/77/2 111/78/2 112/79/2 
s 8
f 105/81/4 108/82/4 110/83/4 109/84/4 
s 16
f 108/85/5 107/86/5 111/87/5 110/88/5 
s 32
f 107/89/6 106/90/6 112/91/6 111/92/6 
s 64
f 106/85/3 105/86/3 109/87/3 112/88/3 
s 2
f 113/137/1 114/138/1 115/139/1 116/140/1 
s 4
f 117/141/2 118/142/2 119/143/2 120/144/2 
s 8
f 113/140/3 116/137/3 118/138/3 117/139/3 
s 16
f 116/140/4 115/137/4 119/138/4 118/139/4 
s 32
f 115/140/5 114/137/5 120/138/5 119/139/5 
s 64
f 114/140/6 113/137/6 117/138/6 120/139/6 
# 90 polygons

