# 3ds Max Wavefront OBJ Exporter v0.97b - (c)2007 guruware
# File Created: 14.07.2017 10:55:54

mtllib Boxs1.mtl

#
# object Boxs1
#

v  0.0236 0.0000 -0.3829
v  0.7123 0.0000 0.0147
v  0.3590 0.0000 0.6265
v  -0.3296 0.0000 0.2289
v  0.0236 0.7457 -0.3829
v  -0.3296 0.7457 0.2289
v  0.3590 0.7457 0.6265
v  0.7123 0.7457 0.0147
v  2.4399 0.0000 -0.1240
v  2.9510 0.0000 0.4851
v  2.4099 0.0000 0.9392
v  1.8988 0.0000 0.3301
v  2.4399 0.7457 -0.1240
v  1.8988 0.7457 0.3301
v  2.4099 0.7457 0.9392
v  2.9510 0.7457 0.4851
v  2.3433 0.0000 -0.7764
v  2.2053 0.0000 0.0067
v  1.5096 0.0000 -0.1160
v  1.6476 0.0000 -0.8990
v  2.3433 0.7457 -0.7764
v  1.6476 0.7457 -0.8990
v  1.5096 0.7457 -0.1160
v  2.2053 0.7457 0.0067
v  0.2600 0.0000 1.2380
v  0.1219 0.0000 2.0210
v  -0.5738 0.0000 1.8984
v  -0.4357 0.0000 1.1153
v  0.2600 0.7457 1.2380
v  -0.4357 0.7457 1.1153
v  -0.5738 0.7457 1.8984
v  0.1219 0.7457 2.0210
v  1.1509 0.0000 -0.8689
v  1.5485 0.0000 -0.1803
v  0.9367 0.0000 0.1729
v  0.5391 0.0000 -0.5157
v  1.1509 0.7457 -0.8689
v  0.5391 0.7457 -0.5157
v  0.9367 0.7457 0.1729
v  1.5485 0.7457 -0.1803
v  1.1163 0.0000 1.4596
v  0.3332 0.0000 1.5976
v  0.2106 0.0000 0.9020
v  0.9936 0.0000 0.7639
v  1.1163 0.7457 1.4596
v  0.9936 0.7457 0.7639
v  0.2106 0.7457 0.9020
v  0.3332 0.7457 1.5976
v  1.8275 0.0095 1.4651
v  1.7326 0.0095 2.0034
v  1.2544 0.0095 1.9191
v  1.3493 0.0095 1.3808
v  1.8275 0.5222 1.4651
v  1.3493 0.5222 1.3808
v  1.2544 0.5222 1.9191
v  1.7326 0.5222 2.0034
v  2.3458 0.7359 -0.2710
v  2.2078 0.7359 0.5120
v  1.5121 0.7359 0.3894
v  1.6502 0.7359 -0.3937
v  2.3458 1.4816 -0.2710
v  1.6502 1.4816 -0.3937
v  1.5121 1.4816 0.3894
v  2.2078 1.4816 0.5120
v  0.8509 1.4930 0.1510
v  0.7700 1.4930 0.6100
v  0.3623 1.4930 0.5381
v  0.4432 1.4930 0.0791
v  0.8509 1.9301 0.1510
v  0.4432 1.9301 0.0791
v  0.3623 1.9301 0.5381
v  0.7700 1.9301 0.6100
v  0.4160 0.7359 0.1663
v  0.8721 0.7359 0.8176
v  0.2935 0.7359 1.2228
v  -0.1626 0.7359 0.5715
v  0.4160 1.4816 0.1663
v  -0.1626 1.4816 0.5715
v  0.2935 1.4816 1.2228
v  0.8721 1.4816 0.8176
v  1.1534 0.7359 -0.3636
v  1.5510 0.7359 0.3250
v  0.9392 0.7359 0.6782
v  0.5417 0.7359 -0.0104
v  1.1534 1.4816 -0.3636
v  0.5417 1.4816 -0.0104
v  0.9392 1.4816 0.6782
v  1.5510 1.4816 0.3250
v  1.7576 0.7359 1.0044
v  1.3302 0.7359 1.0798
v  1.2632 0.7359 0.7001
v  1.6906 0.7359 0.6247
v  1.7576 1.1429 1.0044
v  1.6906 1.1429 0.6247
v  1.2632 1.1429 0.7001
v  1.3302 1.1429 1.0798
v  2.1205 0.0000 0.5338
v  1.9825 0.0000 1.3168
v  1.2868 0.0000 1.1942
v  1.4249 0.0000 0.4111
v  2.1205 0.7457 0.5338
v  1.4249 0.7457 0.4111
v  1.2868 0.7457 1.1942
v  1.9825 0.7457 1.3168
# 104 vertices

vn 0.0000 -1.0000 -0.0000
vn 0.0000 1.0000 -0.0000
vn 0.8660 0.0000 0.5000
vn 0.5000 0.0000 -0.8660
vn -0.8660 0.0000 -0.5000
vn -0.5000 0.0000 0.8660
vn 0.6428 0.0000 0.7660
vn 0.7660 0.0000 -0.6428
vn -0.6428 0.0000 -0.7660
vn -0.7660 0.0000 0.6428
vn -0.1736 0.0000 0.9848
vn 0.9848 0.0000 0.1736
vn 0.1736 0.0000 -0.9848
vn -0.9848 0.0000 -0.1736
vn 0.5000 0.0000 0.8660
vn 0.8660 0.0000 -0.5000
vn -0.5000 0.0000 -0.8660
vn -0.8660 0.0000 0.5000
vn -0.9848 0.0000 0.1736
vn 0.1736 0.0000 0.9848
vn 0.9848 0.0000 -0.1736
vn -0.1736 0.0000 -0.9848
vn 0.5736 0.0000 0.8192
vn 0.8192 0.0000 -0.5736
vn -0.5736 0.0000 -0.8192
vn -0.8192 0.0000 0.5736
# 26 vertex normals

vt 0.0128 0.7978 0.0000
vt 0.0128 0.7275 0.0000
vt 0.0828 0.7275 0.0000
vt 0.0828 0.7978 0.0000
vt 0.0126 0.7261 0.0000
vt 0.0126 0.6639 0.0000
vt 0.0751 0.6639 0.0000
vt 0.0751 0.7261 0.0000
# 8 texture coords

o Boxs1
g Boxs1
usemtl Building_1
s 2
f 1/1/1 2/2/1 3/3/1 
f 3/3/1 4/4/1 1/1/1 
s 4
f 5/4/2 6/1/2 7/2/2 
f 7/2/2 8/3/2 5/4/2 
s 8
f 8/4/3 7/1/3 3/2/3 
f 3/2/3 2/3/3 8/4/3 
s 16
f 5/4/4 8/1/4 2/2/4 
f 2/2/4 1/3/4 5/4/4 
s 32
f 6/4/5 5/1/5 1/2/5 
f 1/2/5 4/3/5 6/4/5 
s 64
f 7/4/6 6/1/6 4/2/6 
f 4/2/6 3/3/6 7/4/6 
s 2
f 9/5/1 10/6/1 11/7/1 
f 11/7/1 12/8/1 9/5/1 
s 4
f 13/8/2 14/5/2 15/6/2 
f 15/6/2 16/7/2 13/8/2 
s 8
f 16/8/7 15/5/7 11/6/7 
f 11/6/7 10/7/7 16/8/7 
s 16
f 13/8/8 16/5/8 10/6/8 
f 10/6/8 9/7/8 13/8/8 
s 32
f 14/8/9 13/5/9 9/6/9 
f 9/6/9 12/7/9 14/8/9 
s 64
f 15/8/10 14/5/10 12/6/10 
f 12/6/10 11/7/10 15/8/10 
s 2
f 17/5/1 18/6/1 19/7/1 
f 19/7/1 20/8/1 17/5/1 
s 4
f 21/8/2 22/5/2 23/6/2 
f 23/6/2 24/7/2 21/8/2 
s 8
f 24/8/11 23/5/11 19/6/11 
f 19/6/11 18/7/11 24/8/11 
s 16
f 21/8/12 24/5/12 18/6/12 
f 18/6/12 17/7/12 21/8/12 
s 32
f 22/8/13 21/5/13 17/6/13 
f 17/6/13 20/7/13 22/8/13 
s 64
f 23/8/14 22/5/14 20/6/14 
f 20/6/14 19/7/14 23/8/14 
s 2
f 25/5/1 26/6/1 27/7/1 
f 27/7/1 28/8/1 25/5/1 
s 4
f 29/8/2 30/5/2 31/6/2 
f 31/6/2 32/7/2 29/8/2 
s 8
f 32/8/11 31/5/11 27/6/11 
f 27/6/11 26/7/11 32/8/11 
s 16
f 29/8/12 32/5/12 26/6/12 
f 26/6/12 25/7/12 29/8/12 
s 32
f 30/8/13 29/5/13 25/6/13 
f 25/6/13 28/7/13 30/8/13 
s 64
f 31/8/14 30/5/14 28/6/14 
f 28/6/14 27/7/14 31/8/14 
s 2
f 33/5/1 34/6/1 35/7/1 
f 35/7/1 36/8/1 33/5/1 
s 4
f 37/8/2 38/5/2 39/6/2 
f 39/6/2 40/7/2 37/8/2 
s 8
f 40/8/15 39/5/15 35/6/15 
f 35/6/15 34/7/15 40/8/15 
s 16
f 37/8/16 40/5/16 34/6/16 
f 34/6/16 33/7/16 37/8/16 
s 32
f 38/8/17 37/5/17 33/6/17 
f 33/6/17 36/7/17 38/8/17 
s 64
f 39/8/18 38/5/18 36/6/18 
f 36/6/18 35/7/18 39/8/18 
s 2
f 41/5/1 42/6/1 43/7/1 
f 43/7/1 44/8/1 41/5/1 
s 4
f 45/8/2 46/5/2 47/6/2 
f 47/6/2 48/7/2 45/8/2 
s 8
f 48/8/19 47/5/19 43/6/19 
f 43/6/19 42/7/19 48/8/19 
s 16
f 45/8/20 48/5/20 42/6/20 
f 42/6/20 41/7/20 45/8/20 
s 32
f 46/8/21 45/5/21 41/6/21 
f 41/6/21 44/7/21 46/8/21 
s 64
f 47/8/22 46/5/22 44/6/22 
f 44/6/22 43/7/22 47/8/22 
s 2
f 49/5/1 50/6/1 51/7/1 
f 51/7/1 52/8/1 49/5/1 
s 4
f 53/8/2 54/5/2 55/6/2 
f 55/6/2 56/7/2 53/8/2 
s 8
f 56/8/11 55/5/11 51/6/11 
f 51/6/11 50/7/11 56/8/11 
s 16
f 53/8/12 56/5/12 50/6/12 
f 50/6/12 49/7/12 53/8/12 
s 32
f 54/8/13 53/5/13 49/6/13 
f 49/6/13 52/7/13 54/8/13 
s 64
f 55/8/14 54/5/14 52/6/14 
f 52/6/14 51/7/14 55/8/14 
s 2
f 57/5/1 58/6/1 59/7/1 
f 59/7/1 60/8/1 57/5/1 
s 4
f 61/8/2 62/5/2 63/6/2 
f 63/6/2 64/7/2 61/8/2 
s 8
f 64/8/11 63/5/11 59/6/11 
f 59/6/11 58/7/11 64/8/11 
s 16
f 61/8/12 64/5/12 58/6/12 
f 58/6/12 57/7/12 61/8/12 
s 32
f 62/8/13 61/5/13 57/6/13 
f 57/6/13 60/7/13 62/8/13 
s 64
f 63/8/14 62/5/14 60/6/14 
f 60/6/14 59/7/14 63/8/14 
s 2
f 65/5/1 66/6/1 67/7/1 
f 67/7/1 68/8/1 65/5/1 
s 4
f 69/8/2 70/5/2 71/6/2 
f 71/6/2 72/7/2 69/8/2 
s 8
f 72/8/11 71/5/11 67/6/11 
f 67/6/11 66/7/11 72/8/11 
s 16
f 69/8/12 72/5/12 66/6/12 
f 66/6/12 65/7/12 69/8/12 
s 32
f 70/8/13 69/5/13 65/6/13 
f 65/6/13 68/7/13 70/8/13 
s 64
f 71/8/14 70/5/14 68/6/14 
f 68/6/14 67/7/14 71/8/14 
s 2
f 73/5/1 74/6/1 75/7/1 
f 75/7/1 76/8/1 73/5/1 
s 4
f 77/8/2 78/5/2 79/6/2 
f 79/6/2 80/7/2 77/8/2 
s 8
f 80/8/23 79/5/23 75/6/23 
f 75/6/23 74/7/23 80/8/23 
s 16
f 77/8/24 80/5/24 74/6/24 
f 74/6/24 73/7/24 77/8/24 
s 32
f 78/8/25 77/5/25 73/6/25 
f 73/6/25 76/7/25 78/8/25 
s 64
f 79/8/26 78/5/26 76/6/26 
f 76/6/26 75/7/26 79/8/26 
s 2
f 81/5/1 82/6/1 83/7/1 
f 83/7/1 84/8/1 81/5/1 
s 4
f 85/8/2 86/5/2 87/6/2 
f 87/6/2 88/7/2 85/8/2 
s 8
f 88/8/15 87/5/15 83/6/15 
f 83/6/15 82/7/15 88/8/15 
s 16
f 85/8/16 88/5/16 82/6/16 
f 82/6/16 81/7/16 85/8/16 
s 32
f 86/8/17 85/5/17 81/6/17 
f 81/6/17 84/7/17 86/8/17 
s 64
f 87/8/18 86/5/18 84/6/18 
f 84/6/18 83/7/18 87/8/18 
s 2
f 89/5/1 90/6/1 91/7/1 
f 91/7/1 92/8/1 89/5/1 
s 4
f 93/8/2 94/5/2 95/6/2 
f 95/6/2 96/7/2 93/8/2 
s 8
f 96/8/19 95/5/19 91/6/19 
f 91/6/19 90/7/19 96/8/19 
s 16
f 93/8/20 96/5/20 90/6/20 
f 90/6/20 89/7/20 93/8/20 
s 32
f 94/8/21 93/5/21 89/6/21 
f 89/6/21 92/7/21 94/8/21 
s 64
f 95/8/22 94/5/22 92/6/22 
f 92/6/22 91/7/22 95/8/22 
s 2
f 97/1/1 98/2/1 99/3/1 
f 99/3/1 100/4/1 97/1/1 
s 4
f 101/4/2 102/1/2 103/2/2 
f 103/2/2 104/3/2 101/4/2 
s 8
f 104/4/11 103/1/11 99/2/11 
f 99/2/11 98/3/11 104/4/11 
s 16
f 101/4/12 104/1/12 98/2/12 
f 98/2/12 97/3/12 101/4/12 
s 32
f 102/4/13 101/1/13 97/2/13 
f 97/2/13 100/3/13 102/4/13 
s 64
f 103/4/14 102/1/14 100/2/14 
f 100/2/14 99/3/14 103/4/14 
# 156 faces

