# Blender v2.79 (sub 0) OBJ File: 'hybrid_autocannon.blend'
# www.blender.org
mtllib base_collider_hybrid.mtl
o Xmm_base_Backpack.000
v -0.284775 0.120301 -0.510053
v -0.378785 0.120301 -0.444658
v -0.000031 0.120301 0.000039
v -0.179780 0.120301 -0.555802
v -0.067944 0.120301 -0.580212
v 0.046646 0.120301 -0.582304
v 0.159306 0.120301 -0.561957
v 0.265860 0.120301 -0.520179
v 0.362239 0.120301 -0.458273
v 0.444728 0.120301 -0.378793
v 0.510061 0.120301 -0.284705
v 0.555873 0.120301 -0.179788
v 0.580220 0.120301 -0.067874
v 0.582295 0.120301 0.046576
v 0.562028 0.120301 0.159297
v 0.520187 0.120301 0.265930
v 0.458281 0.120301 0.362309
v 0.378864 0.120301 0.444720
v 0.284775 0.120301 0.510053
v 0.179780 0.120301 0.555802
v 0.067944 0.120301 0.580212
v -0.046567 0.120301 0.582366
v -0.159289 0.120301 0.562098
v -0.265860 0.120301 0.520179
v -0.362239 0.120301 0.458273
v -0.444728 0.120301 0.378793
v -0.510045 0.120301 0.284845
v -0.555794 0.120301 0.179850
v -0.580220 0.120301 0.067874
v -0.582295 0.120301 -0.046576
v -0.562028 0.120301 -0.159297
v -0.458343 0.120301 -0.362231
v -0.520109 0.120301 -0.265868
v 0.627936 0.001301 0.050275
v 0.606064 0.001301 0.171799
v -0.000031 0.001301 0.000039
v -0.307108 0.001301 -0.550013
v -0.193840 0.001301 -0.599293
v -0.390640 0.001301 0.494203
v -0.479554 0.001301 0.408499
v 0.550021 0.001301 -0.307038
v 0.599364 0.001301 -0.193849
v -0.050205 0.001301 0.627928
v -0.171729 0.001301 0.606056
v 0.286720 0.001301 -0.560923
v 0.390640 0.001301 -0.494203
v -0.494195 0.001301 -0.390570
v -0.408491 0.001301 -0.479483
v 0.307108 0.001301 0.550013
v 0.193919 0.001301 0.599355
v -0.627858 0.001301 -0.050213
v -0.606064 0.001301 -0.171799
v 0.560853 0.001301 0.286729
v 0.494133 0.001301 0.390649
v -0.073192 0.001301 -0.625659
v 0.050205 0.001301 -0.627928
v -0.549942 0.001301 0.307100
v -0.599364 0.001301 0.193849
v 0.625651 0.001301 -0.073262
v -0.286721 0.001301 0.560923
v 0.479554 0.001301 -0.408499
v 0.073192 0.001301 0.625659
v -0.560915 0.001301 -0.286650
v 0.171808 0.001301 -0.605994
v 0.408429 0.001301 0.479562
v -0.625651 0.001301 0.073262
v -0.527456 0.112701 -0.269635
v 0.047254 0.112701 -0.590491
v 0.464714 0.112701 0.367394
v 0.384147 0.112701 0.450936
v -0.569974 0.112701 -0.161500
v 0.182340 0.112701 0.563690
v -0.384147 0.112701 -0.450936
v 0.367324 0.112701 -0.464706
v -0.161508 0.112701 0.569904
v 0.563620 0.112701 -0.182332
v -0.451007 0.112701 0.384156
v -0.182324 0.112701 -0.563550
v 0.569912 0.112701 0.161578
v -0.588367 0.112701 0.068827
v 0.161508 0.112701 -0.569904
v 0.068898 0.112701 0.588358
v 0.450944 0.112701 -0.384077
v -0.269627 0.112701 0.527526
v 0.588367 0.112701 -0.068827
v -0.517206 0.112701 0.288745
v -0.068898 0.112701 -0.588358
v 0.527456 0.112701 0.269635
v -0.590483 0.112701 -0.047184
v 0.288753 0.112701 0.517276
v 0.269565 0.112701 -0.527447
v -0.047254 0.112701 0.590491
v 0.517206 0.112701 -0.288745
v -0.563620 0.112701 0.182332
v 0.590499 0.112701 0.047324
v -0.288815 0.112701 -0.517198
v -0.367324 0.112701 0.464706
v -0.464776 0.112701 -0.367316
vt 0.995600 0.003300
vt 0.995500 0.003300
vt 0.995400 0.003600
vt 0.995700 0.003400
vt 0.995800 0.003400
vt 0.995900 0.003400
vt 0.996000 0.003500
vt 0.996000 0.003600
vt 0.996100 0.003600
vt 0.996100 0.003700
vt 0.996000 0.003700
vt 0.996000 0.003800
vt 0.995900 0.003900
vt 0.995800 0.003900
vt 0.995700 0.003900
vt 0.995600 0.004000
vt 0.995500 0.004000
vt 0.995400 0.004000
vt 0.995300 0.004000
vt 0.995100 0.003900
vt 0.995000 0.003900
vt 0.995000 0.003900
vt 0.994900 0.003800
vt 0.994800 0.003700
vt 0.994800 0.003700
vt 0.994800 0.003600
vt 0.994800 0.003600
vt 0.994900 0.003500
vt 0.995000 0.003400
vt 0.995000 0.003400
vt 0.995100 0.003400
vt 0.995400 0.003300
vt 0.995300 0.003300
vt 0.996000 0.003100
vt 0.996000 0.003100
vt 0.995400 0.003000
vt 0.994800 0.003100
vt 0.994900 0.003200
vt 0.995300 0.002600
vt 0.995200 0.002600
vt 0.995700 0.003300
vt 0.995800 0.003200
vt 0.995700 0.002700
vt 0.995600 0.002600
vt 0.995300 0.003300
vt 0.995500 0.003300
vt 0.994700 0.003000
vt 0.994700 0.003100
vt 0.996000 0.002800
vt 0.995900 0.002700
vt 0.994800 0.002800
vt 0.994700 0.002900
vt 0.996100 0.003000
vt 0.996100 0.002900
vt 0.995000 0.003200
vt 0.995100 0.003300
vt 0.995100 0.002700
vt 0.995000 0.002700
vt 0.995900 0.003200
vt 0.995500 0.002600
vt 0.995600 0.003300
vt 0.995800 0.002700
vt 0.994700 0.002900
vt 0.995200 0.003300
vt 0.996000 0.002900
vt 0.994900 0.002700
vt 0.997300 0.003400
vt 0.997300 0.003400
vt 0.997200 0.003400
vt 0.997100 0.003800
vt 0.997200 0.003800
vt 0.997100 0.003800
vt 0.996100 0.002700
vt 0.996200 0.002700
vt 0.996200 0.002600
vt 0.996100 0.002600
vt 0.997300 0.003300
vt 0.997200 0.003300
vt 0.996600 0.002700
vt 0.996500 0.002700
vt 0.996400 0.002800
vt 0.997300 0.003600
vt 0.997300 0.003500
vt 0.997200 0.003500
vt 0.996900 0.004000
vt 0.997000 0.004000
vt 0.996900 0.003900
vt 0.996900 0.002900
vt 0.996800 0.002800
vt 0.996700 0.002900
vt 0.996600 0.004100
vt 0.996700 0.004100
vt 0.996600 0.004100
vt 0.997100 0.003000
vt 0.997100 0.003000
vt 0.997000 0.003000
vt 0.997200 0.003700
vt 0.997300 0.003600
vt 0.997200 0.003600
vt 0.996200 0.004200
vt 0.996400 0.004200
vt 0.996300 0.004100
vt 0.997300 0.003200
vt 0.997200 0.003200
vt 0.997100 0.003200
vt 0.996400 0.002700
vt 0.997100 0.003900
vt 0.997000 0.003800
vt 0.996700 0.002800
vt 0.996500 0.002800
vt 0.996800 0.004100
vt 0.996800 0.004000
vt 0.997000 0.002900
vt 0.996800 0.002900
vt 0.996500 0.004200
vt 0.996500 0.004100
vt 0.997200 0.003100
vt 0.997000 0.003100
vt 0.997100 0.003700
vt 0.996200 0.004200
vt 0.996100 0.004200
vt 0.996100 0.004300
vt 0.997200 0.003200
vt 0.996300 0.002700
vt 0.997000 0.003900
vt 0.996600 0.002800
vt 0.996700 0.004000
vt 0.997100 0.003100
vt 0.996400 0.004100
vt 0.997200 0.003600
vt 0.996900 0.003000
vt 0.997200 0.003400
vt 0.997200 0.003400
vt 0.997200 0.003500
vt 0.997200 0.003600
vt 0.997100 0.003600
vt 0.997100 0.003700
vt 0.997100 0.003700
vt 0.997000 0.003800
vt 0.996900 0.003900
vt 0.996900 0.003900
vt 0.996800 0.004000
vt 0.996700 0.004000
vt 0.996600 0.004000
vt 0.996500 0.004100
vt 0.996400 0.004100
vt 0.996300 0.004100
vt 0.996200 0.004200
vt 0.996100 0.004200
vt 0.996100 0.002700
vt 0.996200 0.002700
vt 0.996300 0.002700
vt 0.996400 0.002800
vt 0.996500 0.002800
vt 0.996600 0.002800
vt 0.996700 0.002900
vt 0.996800 0.002900
vt 0.996900 0.003000
vt 0.996900 0.003000
vt 0.997000 0.003100
vt 0.997100 0.003100
vt 0.997100 0.003200
vt 0.997100 0.003200
vt 0.997200 0.003300
vt 0.997200 0.003400
vn 0.0000 1.0000 0.0000
vn -0.0000 -1.0000 -0.0000
vn -0.7503 0.2964 -0.5909
vn -0.8378 0.2977 -0.4577
vn -0.7538 0.5115 -0.4125
vn 0.2024 0.3380 -0.9191
vn 0.0028 0.3291 -0.9443
vn 0.0003 0.5470 -0.8371
vn 0.6758 0.5099 0.5323
vn 0.5773 0.5120 0.6360
vn 0.6411 0.2980 0.7072
vn 0.7503 0.2964 0.5909
vn -0.9020 0.3021 -0.3085
vn -0.8098 0.5166 -0.2781
vn 0.1865 0.3193 0.9291
vn 0.3587 0.3101 0.8805
vn 0.3224 0.5260 0.7870
vn -0.5105 0.3027 -0.8048
vn -0.6411 0.2981 -0.7072
vn -0.5773 0.5120 -0.6360
vn 0.7360 0.3437 -0.5832
vn 0.5833 0.3463 -0.7347
vn 0.5131 0.5650 -0.6462
vn -0.4007 0.3442 0.8491
vn -0.2024 0.3380 0.9191
vn -0.1768 0.5565 0.8118
vn 0.9475 0.3181 -0.0334
vn 0.9188 0.3279 -0.2198
vn 0.8156 0.5456 -0.1928
vn -0.8490 0.3370 0.4070
vn -0.7360 0.3437 0.5832
vn -0.6488 0.5623 0.5127
vn -0.1865 0.3192 -0.9292
vn -0.3587 0.3101 -0.8805
vn -0.3224 0.5259 -0.7870
vn 0.8378 0.2977 0.4578
vn 0.9020 0.3021 0.3084
vn 0.8098 0.5166 0.2782
vn -0.9400 0.3091 -0.1441
vn -0.9474 0.3182 0.0334
vn -0.8446 0.5347 0.0277
vn 0.5105 0.3027 0.8048
vn 0.4007 0.3442 -0.8491
vn 0.1768 0.5565 -0.8118
vn -0.0028 0.3291 0.9443
vn 0.1682 0.5362 0.8272
vn 0.8490 0.3370 -0.4070
vn 0.6488 0.5623 -0.5128
vn -0.5833 0.3463 0.7347
vn -0.3518 0.5629 0.7479
vn 0.9400 0.3091 0.1441
vn 0.8445 0.5349 -0.0277
vn -0.9188 0.3279 0.2198
vn -0.7507 0.5553 0.3578
vn -0.1681 0.5363 -0.8271
vn 0.7538 0.5115 0.4125
vn -0.8412 0.5247 -0.1307
vn 0.4593 0.5176 0.7219
vn 0.3518 0.5629 -0.7479
vn -0.0003 0.5470 0.8371
vn 0.7508 0.5553 -0.3577
vn -0.8156 0.5456 0.1928
vn 0.8412 0.5247 0.1307
vn -0.4593 0.5175 -0.7219
vn -0.5131 0.5650 0.6462
vn -0.6758 0.5099 -0.5323
vn -0.5574 0.7047 -0.4389
vn -0.4770 0.7069 -0.5223
vn -0.3799 0.7127 -0.5897
vn -0.2675 0.7216 -0.6385
vn -0.1417 0.7326 -0.6657
vn -0.0058 0.7439 -0.6682
vn 0.1349 0.7541 -0.6427
vn 0.2736 0.7611 -0.5881
vn 0.4017 0.7633 -0.5059
vn 0.5111 0.7606 -0.4004
vn 0.5959 0.7531 -0.2787
vn 0.6531 0.7427 -0.1482
vn 0.6819 0.7313 -0.0162
vn 0.6845 0.7204 0.1118
vn 0.6629 0.7119 0.2320
vn 0.6198 0.7066 0.3416
vn 0.5574 0.7047 0.4390
vn 0.4769 0.7070 0.5222
vn 0.3799 0.7127 0.5897
vn 0.2674 0.7217 0.6385
vn 0.1417 0.7325 0.6659
vn 0.0059 0.7440 0.6682
vn -0.1350 0.7541 0.6428
vn -0.2736 0.7611 0.5881
vn -0.4017 0.7633 0.5059
vn -0.5111 0.7605 0.4004
vn -0.5960 0.7531 0.2787
vn -0.6530 0.7427 0.1481
vn -0.6819 0.7313 0.0161
vn -0.6845 0.7204 -0.1118
vn -0.6629 0.7119 -0.2320
vn -0.6198 0.7065 -0.3416
usemtl Material.004
s off
f 1/1/1 2/2/1 3/3/1
f 4/4/1 1/1/1 3/3/1
f 5/5/1 4/4/1 3/3/1
f 6/6/1 5/5/1 3/3/1
f 7/7/1 6/6/1 3/3/1
f 8/8/1 7/7/1 3/3/1
f 9/9/1 8/8/1 3/3/1
f 10/10/1 9/9/1 3/3/1
f 11/11/1 10/10/1 3/3/1
f 12/12/1 11/11/1 3/3/1
f 13/13/1 12/12/1 3/3/1
f 14/14/1 13/13/1 3/3/1
f 15/15/1 14/14/1 3/3/1
f 16/16/1 15/15/1 3/3/1
f 17/17/1 16/16/1 3/3/1
f 18/18/1 17/17/1 3/3/1
f 19/19/1 18/18/1 3/3/1
f 20/20/1 19/19/1 3/3/1
f 21/21/1 20/20/1 3/3/1
f 22/22/1 21/21/1 3/3/1
f 23/23/1 22/22/1 3/3/1
f 24/24/1 23/23/1 3/3/1
f 25/25/1 24/24/1 3/3/1
f 26/26/1 25/25/1 3/3/1
f 27/27/1 26/26/1 3/3/1
f 28/28/1 27/27/1 3/3/1
f 29/29/1 28/28/1 3/3/1
f 30/30/1 29/29/1 3/3/1
f 31/31/1 30/30/1 3/3/1
f 32/32/1 33/33/1 3/3/1
f 33/33/1 31/31/1 3/3/1
f 2/2/1 32/32/1 3/3/1
f 34/34/2 35/35/2 36/36/2
f 37/37/2 38/38/2 36/36/2
f 39/39/2 40/40/2 36/36/2
f 41/41/2 42/42/2 36/36/2
f 43/43/2 44/44/2 36/36/2
f 45/45/2 46/46/2 36/36/2
f 47/47/2 48/48/2 36/36/2
f 49/49/2 50/50/2 36/36/2
f 51/51/2 52/52/2 36/36/2
f 53/53/2 54/54/2 36/36/2
f 55/55/2 56/56/2 36/36/2
f 57/57/2 58/58/2 36/36/2
f 59/59/2 34/34/2 36/36/2
f 48/48/2 37/37/2 36/36/2
f 60/60/2 39/39/2 36/36/2
f 61/61/2 41/41/2 36/36/2
f 62/62/2 43/43/2 36/36/2
f 63/63/2 47/47/2 36/36/2
f 64/64/2 45/45/2 36/36/2
f 65/65/2 49/49/2 36/36/2
f 66/66/2 51/51/2 36/36/2
f 35/35/2 53/53/2 36/36/2
f 38/38/2 55/55/2 36/36/2
f 40/40/2 57/57/2 36/36/2
f 42/42/2 59/59/2 36/36/2
f 44/44/2 60/60/2 36/36/2
f 46/46/2 61/61/2 36/36/2
f 50/50/2 62/62/2 36/36/2
f 52/52/2 63/63/2 36/36/2
f 56/56/2 64/64/2 36/36/2
f 54/54/2 65/65/2 36/36/2
f 58/58/2 66/66/2 36/36/2
s 1
f 47/67/3 63/68/4 67/69/5
f 64/70/6 56/71/7 68/72/8
f 69/73/9 70/74/10 65/75/11
f 65/75/11 54/76/12 69/73/9
f 63/68/4 52/77/13 71/78/14
f 62/79/15 50/80/16 72/81/17
f 37/82/18 48/83/19 73/84/20
f 61/85/21 46/86/22 74/87/23
f 60/88/24 44/89/25 75/90/26
f 59/91/27 42/92/28 76/93/29
f 57/94/30 40/95/31 77/96/32
f 55/97/33 38/98/34 78/99/35
f 53/100/36 35/101/37 79/102/38
f 51/103/39 66/104/40 80/105/41
f 49/106/42 65/75/11 70/74/10
f 45/107/43 64/70/6 81/108/44
f 43/109/45 62/79/15 82/110/46
f 41/111/47 61/85/21 83/112/48
f 39/113/49 60/88/24 84/114/50
f 34/115/51 59/91/27 85/116/52
f 58/117/53 57/94/30 86/118/54
f 56/71/7 55/97/33 87/119/55
f 88/120/56 69/121/9 54/122/12
f 54/122/12 53/100/36 88/120/56
f 52/77/13 51/103/39 89/123/57
f 50/80/16 49/106/42 90/124/58
f 46/86/22 45/107/43 91/125/59
f 44/89/25 43/109/45 92/126/60
f 42/92/28 41/111/47 93/127/61
f 66/104/40 58/117/53 94/128/62
f 35/101/37 34/115/51 95/129/63
f 38/98/34 37/82/18 96/130/64
f 40/95/31 39/113/49 97/131/65
f 98/132/66 32/133/67 2/134/68
f 73/84/20 2/134/68 1/135/69
f 96/130/64 1/135/69 4/136/70
f 78/99/35 4/136/70 5/137/71
f 87/119/55 5/137/71 6/138/72
f 68/72/8 6/138/72 7/139/73
f 81/108/44 7/139/73 8/140/74
f 91/125/59 8/140/74 9/141/75
f 74/87/23 9/141/75 10/142/76
f 83/112/48 10/142/76 11/143/77
f 93/127/61 11/143/77 12/144/78
f 76/93/29 12/144/78 13/145/79
f 85/116/52 13/145/79 14/146/80
f 95/129/63 14/146/80 15/147/81
f 79/102/38 15/147/81 16/148/82
f 88/120/56 16/148/82 17/149/83
f 17/149/83 69/121/9 88/120/56
f 69/73/9 17/150/83 18/151/84
f 18/151/84 70/74/10 69/73/9
f 70/74/10 18/151/84 19/152/85
f 90/124/58 19/152/85 20/153/86
f 72/81/17 20/153/86 21/154/87
f 82/110/46 21/154/87 22/155/88
f 92/126/60 22/155/88 23/156/89
f 75/90/26 23/156/89 24/157/90
f 84/114/50 24/157/90 25/158/91
f 97/131/65 25/158/91 26/159/92
f 77/96/32 26/159/92 27/160/93
f 86/118/54 27/160/93 28/161/94
f 94/128/62 28/161/94 29/162/95
f 80/105/41 29/162/95 30/163/96
f 89/123/57 30/163/96 31/164/97
f 71/78/14 31/164/97 33/165/98
f 67/69/5 33/165/98 32/133/67
f 48/83/19 47/67/3 98/132/66
f 80/105/41 89/123/57 51/103/39
f 30/163/96 89/123/57 80/105/41
f 6/138/72 68/72/8 87/119/55
f 87/119/55 68/72/8 56/71/7
f 83/112/48 93/127/61 41/111/47
f 11/143/77 93/127/61 83/112/48
f 26/159/92 77/96/32 97/131/65
f 97/131/65 77/96/32 40/95/31
f 98/132/66 73/84/20 48/83/19
f 2/134/68 73/84/20 98/132/66
f 82/110/46 92/126/60 43/109/45
f 22/155/88 92/126/60 82/110/46
f 13/145/79 85/116/52 76/93/29
f 76/93/29 85/116/52 59/91/27
f 81/108/44 91/125/59 45/107/43
f 8/140/74 91/125/59 81/108/44
f 24/157/90 84/114/50 75/90/26
f 75/90/26 84/114/50 60/88/24
f 96/130/64 78/99/35 38/98/34
f 4/136/70 78/99/35 96/130/64
f 20/153/86 72/81/17 90/124/58
f 90/124/58 72/81/17 50/80/16
f 28/161/94 94/128/62 86/118/54
f 86/118/54 94/128/62 58/117/53
f 15/147/81 79/102/38 95/129/63
f 95/129/63 79/102/38 35/101/37
f 71/78/14 67/69/5 63/68/4
f 33/165/98 67/69/5 71/78/14
f 10/142/76 83/112/48 74/87/23
f 74/87/23 83/112/48 61/85/21
f 27/160/93 86/118/54 77/96/32
f 77/96/32 86/118/54 57/94/30
f 93/127/61 76/93/29 42/92/28
f 12/144/78 76/93/29 93/127/61
f 84/114/50 97/131/65 39/113/49
f 25/158/91 97/131/65 84/114/50
f 91/125/59 74/87/23 46/86/22
f 9/141/75 74/87/23 91/125/59
f 94/128/62 80/105/41 66/104/40
f 29/162/95 80/105/41 94/128/62
f 85/116/52 95/129/63 34/115/51
f 14/146/80 95/129/63 85/116/52
f 23/156/89 75/90/26 92/126/60
f 92/126/60 75/90/26 44/89/25
f 7/139/73 81/108/44 68/72/8
f 68/72/8 81/108/44 64/70/6
f 31/164/97 71/78/14 89/123/57
f 89/123/57 71/78/14 52/77/13
f 72/81/17 82/110/46 62/79/15
f 21/154/87 82/110/46 72/81/17
f 79/102/38 88/120/56 53/100/36
f 16/148/82 88/120/56 79/102/38
f 78/99/35 87/119/55 55/97/33
f 5/137/71 87/119/55 78/99/35
f 67/69/5 98/132/66 47/67/3
f 32/133/67 98/132/66 67/69/5
f 19/152/85 90/124/58 70/74/10
f 70/74/10 90/124/58 49/106/42
f 73/84/20 96/130/64 37/82/18
f 1/135/69 96/130/64 73/84/20
