# This file uses centimeters as units for non-parametric coordinates.

mtllib Pipes 1.mtl
g default
v -5.815426 -0.492827 -1.461561
v -3.824031 1.647547 -1.461561
v -5.815426 -0.492827 -0.060031
v -3.824031 1.647548 -0.060031
v -6.310941 0.002688 -0.760797
v -4.319547 2.143063 -0.760796
v -6.165808 -0.142445 -1.256312
v -4.174414 1.997930 -1.256312
v -6.165808 -0.142445 -0.265280
v -4.174414 1.997930 -0.265281
v -5.319910 -0.988343 -0.760796
v -3.328516 1.152032 -0.760796
v -5.465043 -0.843210 -0.265281
v -3.473649 1.297165 -0.265281
v -5.465043 -0.843210 -1.256312
v -3.473649 1.297165 -1.256312
v -3.252934 1.871021 -1.461561
v -3.252934 1.871021 -0.060031
v -3.252934 2.571785 -0.760796
v -3.760575 2.491654 -0.760796
v -3.526067 1.831292 -1.461561
v -3.691889 2.298239 -1.256312
v -3.252934 2.366536 -1.256312
v -3.526067 1.831292 -0.060032
v -3.691889 2.298238 -0.265280
v -3.252934 2.366536 -0.265280
v -3.252934 1.170256 -0.760796
v -3.291559 1.170930 -0.760796
v -3.360245 1.364346 -0.265280
v -3.252934 1.375505 -0.265280
v -3.360245 1.364346 -1.256312
v -3.252934 1.375505 -1.256312
v -3.252934 1.871021 -1.512260
v -3.252934 1.871021 -0.009332
v -3.252934 1.119557 -0.760796
v -3.252934 1.339655 -1.292162
v -3.252934 1.339655 -0.229431
v -3.252934 2.622485 -0.760796
v -3.252934 2.402386 -0.229431
v -3.252934 2.402386 -1.292162
v -3.069189 1.871021 -1.512260
v -3.069189 1.871021 -0.009332
v -3.069189 1.119557 -0.760796
v -3.069189 1.339655 -1.292162
v -3.069189 1.339655 -0.229431
v -3.069189 2.622485 -0.760796
v -3.069189 2.402386 -0.229431
v -3.069189 2.402386 -1.292162
v -3.069189 1.871021 -1.461561
v -3.069189 1.871021 -0.060031
v -3.069189 1.170256 -0.760796
v -3.069189 1.375505 -1.256312
v -3.069189 1.375505 -0.265280
v -3.069189 2.571785 -0.760796
v -3.069189 2.366536 -0.265280
v -3.069189 2.366536 -1.256312
v 3.515850 1.871021 -1.461561
v 3.515850 1.871021 -0.060031
v 3.515850 1.170256 -0.760796
v 3.515850 1.375505 -1.256312
v 3.515850 1.375505 -0.265280
v 3.515850 2.571785 -0.760796
v 3.515850 2.366536 -0.265280
v 3.515850 2.366536 -1.256312
v -2.303830 1.202052 0.261328
v -2.000834 1.202052 0.261328
v -2.303830 2.654883 0.261328
v -2.000834 2.654883 0.261328
v -2.303830 2.654883 -1.652344
v -2.000834 2.654883 -1.652344
v -2.303830 1.202052 -1.652344
v -2.000834 1.202052 -1.652344
v -2.303830 -0.126596 0.261328
v -2.000834 -0.126596 0.261328
v -2.303830 1.145018 0.261328
v -2.000834 1.145018 0.261328
v -2.303830 1.145018 -1.652344
v -2.000834 1.145018 -1.652344
v -2.303830 -0.126596 -1.652344
v -2.000834 -0.126596 -1.652344
v 3.317553 0.126878 0.906628
v 3.120947 0.126878 0.825191
v 3.039510 0.126878 0.628585
v 3.039510 4.447374 0.628585
v 3.120947 4.447374 0.825191
v 3.317553 4.447374 0.906628
v 6.310941 0.126878 0.628585
v 6.229504 0.126878 0.825191
v 6.032897 0.126878 0.906628
v 6.310941 4.447374 0.628585
v 6.032897 4.447374 0.906628
v 6.229504 4.447374 0.825191
v 3.120947 4.447374 -2.283366
v 3.039510 4.447374 -2.086759
v 3.317553 4.447374 -2.364803
v 3.039510 0.126878 -2.086759
v 3.120947 0.126878 -2.283366
v 3.317553 0.126878 -2.364803
v 6.229504 4.447374 -2.283366
v 6.032897 4.447374 -2.364803
v 6.310941 4.447374 -2.086759
v 6.032897 0.126878 -2.364803
v 6.229504 0.126878 -2.283366
v 6.310941 0.126878 -2.086759
v 3.867745 4.364515 0.853451
v 5.357899 4.364515 0.853451
v 3.867745 4.714561 0.853451
v 5.357899 4.714561 0.853451
v 3.867745 4.714561 -2.311625
v 5.357899 4.714561 -2.311625
v 3.867745 4.364515 -2.311625
v 5.357899 4.364515 -2.311625
v 3.867745 4.714561 -1.270605
v 3.867745 4.364515 -1.270605
v 5.357899 4.364515 -1.270605
v 5.357899 4.714561 -1.270605
v 3.867745 4.714561 -0.208577
v 3.867745 4.364515 -0.208577
v 5.357899 4.364515 -0.208577
v 5.357899 4.714561 -0.208577
v 3.092687 4.364515 -1.270605
v 3.092687 4.364515 -0.208577
v 3.092687 4.714561 -0.208577
v 3.092687 4.714561 -1.270605
v 6.257764 4.364515 -0.208577
v 6.257764 4.714561 -0.208577
v 6.257764 4.364515 -1.270605
v 6.257764 4.714561 -1.270605
v 4.701232 0.331154 0.714297
v 4.612927 0.331154 1.408005
v 4.701232 1.434501 0.714297
v 4.612927 1.434501 1.408005
v 5.247828 0.882827 0.639616
v 5.032911 0.882827 1.765715
v 5.087733 0.492735 0.661489
v 4.909902 0.492735 1.660945
v 5.087733 1.272920 0.661489
v 4.909902 1.272920 1.660945
v 4.154634 0.882827 0.788979
v 4.192941 0.882827 1.050295
v 4.314731 1.272920 0.767105
v 4.315952 1.272920 1.155066
v 4.314731 0.492735 0.767105
v 4.315952 0.492735 1.155066
v 3.735134 0.331154 1.687765
v 3.735134 1.434501 1.687765
v 3.735134 0.882827 2.239439
v 4.512199 0.882827 2.113893
v 4.327585 0.331154 1.594026
v 4.458127 0.492735 1.961627
v 3.735134 0.492735 2.077858
v 4.327585 1.434501 1.594026
v 4.458127 1.272920 1.961627
v 3.735134 1.272920 2.077858
v 3.735134 0.882827 1.136092
v 4.142969 0.882827 1.074161
v 4.197042 1.272920 1.226424
v 3.735134 1.272920 1.297673
v 4.197042 0.492735 1.226424
v 3.735134 0.492735 1.297673
v 3.735134 0.291241 1.687765
v 3.735134 1.474414 1.687765
v 3.735134 0.882827 1.096179
v 3.735134 0.464513 1.269451
v 3.735134 1.301142 1.269451
v 3.735134 0.882827 2.279352
v 3.735134 1.301142 2.106081
v 3.735134 0.464513 2.106081
v 3.590481 0.291241 1.687765
v 3.590481 1.474414 1.687765
v 3.590481 0.882827 1.096179
v 3.590481 0.464513 1.269451
v 3.590481 1.301142 1.269451
v 3.590481 0.882827 2.279352
v 3.590481 1.301142 2.106081
v 3.590481 0.464513 2.106081
v 3.590481 0.331154 1.687765
v 3.590481 1.434501 1.687765
v 3.590481 0.882827 1.136092
v 3.590481 0.492735 1.297673
v 3.590481 1.272920 1.297673
v 3.590481 0.882827 2.239439
v 3.590481 1.272920 2.077858
v 3.590481 0.492735 2.077858
v -1.593559 0.331154 1.687765
v -1.593559 1.434501 1.687765
v -1.593559 0.882827 1.136092
v -1.593559 0.492735 1.297673
v -1.593559 1.272920 1.297673
v -1.593559 0.882827 2.239439
v -1.593559 1.272920 2.077858
v -1.593559 0.492735 2.077858
v -1.593559 0.404090 2.166504
v -1.593559 0.205790 1.687765
v -1.593559 1.361565 1.209027
v -1.593559 1.559865 1.687765
v -1.593559 0.404090 1.209027
v -1.593559 0.882827 1.010728
v -1.593559 1.361565 2.166504
v -1.593559 0.882827 2.364803
v -1.716529 0.404090 2.166504
v -1.716529 0.205790 1.687765
v -1.716529 1.361565 1.209027
v -1.716529 1.559865 1.687765
v -1.716529 0.404090 1.209027
v -1.716529 0.882827 1.010728
v -1.716529 1.361565 2.166504
v -1.716529 0.882827 2.364803
v -1.255981 0.164479 2.336294
v -0.773159 0.164479 2.336294
v -1.255981 0.365127 2.336294
v -0.773159 0.365127 2.336294
v -1.255981 0.365127 1.121053
v -0.773159 0.365127 1.121053
v -1.255981 0.164479 1.121053
v -0.773159 0.164479 1.121053
v 2.169728 0.164479 2.336294
v 2.652550 0.164479 2.336294
v 2.169728 0.365127 2.336294
v 2.652550 0.365127 2.336294
v 2.169728 0.365127 1.121053
v 2.652550 0.365127 1.121053
v 2.169728 0.164479 1.121053
v 2.652550 0.164479 1.121053
v -4.785427 -1.541990 -1.363540
v -3.072582 0.298996 -1.363540
v -4.785427 -1.541990 -0.158052
v -3.072582 0.298996 -0.158052
v -5.211631 -1.115786 -0.760796
v -3.498786 0.725201 -0.760796
v -5.086799 -1.240618 -1.187001
v -3.373954 0.600368 -1.187001
v -5.086799 -1.240618 -0.334591
v -3.373954 0.600368 -0.334592
v -4.359222 -1.968195 -0.760796
v -2.646377 -0.127208 -0.760796
v -4.484055 -1.843362 -0.334592
v -2.771210 -0.002376 -0.334592
v -4.484055 -1.843362 -1.187001
v -2.771210 -0.002376 -1.187001
v -2.581367 0.491211 -1.363540
v -2.581367 0.491210 -0.158052
v -2.581367 1.093955 -0.760796
v -3.018001 1.025031 -0.760796
v -2.816296 0.457039 -1.363540
v -2.958923 0.858671 -1.187001
v -2.581367 0.917415 -1.187001
v -2.816296 0.457039 -0.158052
v -2.958923 0.858670 -0.334592
v -2.581367 0.917415 -0.334591
v -2.581367 -0.111534 -0.760796
v -2.614590 -0.110953 -0.760796
v -2.673669 0.055408 -0.334591
v -2.581367 0.065006 -0.334591
v -2.673669 0.055408 -1.187001
v -2.581367 0.065006 -1.187001
v -2.581367 0.491210 -1.407148
v -2.581367 0.491210 -0.114444
v -2.581367 -0.155141 -0.760796
v -2.581367 0.034171 -1.217836
v -2.581367 0.034171 -0.303756
v -2.581367 1.137563 -0.760796
v -2.581367 0.948250 -0.303756
v -2.581367 0.948250 -1.217836
v -2.423324 0.491210 -1.407148
v -2.423324 0.491210 -0.114444
v -2.423324 -0.155141 -0.760796
v -2.423324 0.034171 -1.217836
v -2.423324 0.034171 -0.303756
v -2.423324 1.137563 -0.760796
v -2.423324 0.948250 -0.303756
v -2.423324 0.948250 -1.217836
v -2.423324 0.491211 -1.363540
v -2.423324 0.491210 -0.158052
v -2.423324 -0.111534 -0.760796
v -2.423324 0.065006 -1.187001
v -2.423324 0.065006 -0.334591
v -2.423324 1.093955 -0.760796
v -2.423324 0.917415 -0.334591
v -2.423324 0.917415 -1.187001
v 3.240621 0.491211 -1.363540
v 3.240621 0.491210 -0.158052
v 3.240621 -0.111534 -0.760796
v 3.240621 0.065006 -1.187001
v 3.240621 0.065006 -0.334591
v 3.240621 1.093955 -0.760796
v 3.240621 0.917415 -0.334591
v 3.240621 0.917415 -1.187001
vt 0.462914 0.678571
vt 0.462914 0.642083
vt 0.686738 0.642083
vt 0.686738 0.678571
vt 0.462914 0.524417
vt 0.462914 0.495721
vt 0.686738 0.495721
vt 0.686738 0.524417
vt 0.462914 0.602651
vt 0.462914 0.558203
vt 0.686738 0.558203
vt 0.686738 0.602651
vt 0.462914 0.459643
vt 0.462914 0.423155
vt 0.686738 0.423155
vt 0.686738 0.459643
vt 0.462914 0.715059
vt 0.686738 0.715059
vt 0.732765 0.642083
vt 0.779403 0.642083
vt 0.779403 0.678571
vt 0.732765 0.678571
vt 0.732765 0.495721
vt 0.779403 0.495721
vt 0.779403 0.524417
vt 0.732765 0.524417
vt 0.732765 0.558203
vt 0.779403 0.558203
vt 0.779403 0.602651
vt 0.732765 0.602651
vt 0.732765 0.423155
vt 0.779403 0.423155
vt 0.779403 0.459643
vt 0.732765 0.459643
vt 0.732765 0.715059
vt 0.779403 0.715059
vt 0.006537 0.835523
vt 0.006537 0.838657
vt 0.006537 0.792200
vt 0.006537 0.792200
vt 0.006537 0.748877
vt 0.006537 0.745743
vt 0.006537 0.792200
vt 0.006537 0.792200
vt 0.006537 0.748877
vt 0.006537 0.745743
vt 0.006537 0.726499
vt 0.006537 0.730932
vt 0.006537 0.835523
vt 0.006537 0.838657
vt 0.006537 0.857901
vt 0.006537 0.853468
vt 0.006537 0.853468
vt 0.006537 0.857901
vt 0.022602 0.838657
vt 0.022602 0.792200
vt 0.022602 0.745743
vt 0.022602 0.792200
vt 0.022602 0.745743
vt 0.022602 0.726499
vt 0.022602 0.838657
vt 0.022602 0.857901
vt 0.022602 0.857901
vt 0.022602 0.835523
vt 0.022602 0.792200
vt 0.022602 0.748877
vt 0.022602 0.792200
vt 0.022602 0.748877
vt 0.022602 0.730932
vt 0.022602 0.835523
vt 0.022602 0.853468
vt 0.022602 0.853468
vt 0.458214 0.602651
vt 0.458214 0.642083
vt 0.010226 0.642083
vt 0.010225 0.602651
vt 0.458210 0.459643
vt 0.458211 0.495721
vt 0.010222 0.495721
vt 0.010221 0.459643
vt 0.458215 0.678571
vt 0.458216 0.715059
vt 0.010228 0.715059
vt 0.010227 0.678571
vt 0.458209 0.423155
vt 0.010221 0.423155
vt 0.458212 0.524417
vt 0.458213 0.558203
vt 0.010224 0.558203
vt 0.010223 0.524417
vt 0.026048 0.229098
vt 0.053973 0.229098
vt 0.053973 0.406585
vt 0.026048 0.406585
vt 0.027798 0.229817
vt 0.055722 0.229817
vt 0.055722 0.406585
vt 0.027798 0.406585
vt 0.026744 0.229098
vt 0.054668 0.229098
vt 0.054668 0.406585
vt 0.026744 0.406585
vt 0.065099 0.403285
vt 0.065099 0.226921
vt 0.200122 0.226921
vt 0.200122 0.403285
vt 0.066229 0.406057
vt 0.066229 0.229693
vt 0.200122 0.229693
vt 0.200122 0.406057
vt 0.027929 0.229389
vt 0.055853 0.229389
vt 0.055853 0.406585
vt 0.027929 0.406585
vt 0.028028 0.230220
vt 0.055952 0.230220
vt 0.055952 0.406585
vt 0.028028 0.406585
vt 0.028524 0.228929
vt 0.056448 0.228929
vt 0.056448 0.406585
vt 0.028524 0.406585
vt 0.065329 0.406585
vt 0.065329 0.230220
vt 0.200122 0.230220
vt 0.200122 0.406585
vt 0.067510 0.405431
vt 0.067510 0.229066
vt 0.200122 0.229066
vt 0.200122 0.405431
vt 0.757848 0.354817
vt 0.757848 0.007014
vt 0.976435 0.007014
vt 0.976435 0.354817
vt 0.463955 0.008692
vt 0.463955 0.356495
vt 0.245368 0.356495
vt 0.245368 0.008692
vt 0.501391 0.356613
vt 0.501391 0.008810
vt 0.719978 0.008810
vt 0.719978 0.356613
vt 0.502144 0.356660
vt 0.502144 0.008857
vt 0.720731 0.008857
vt 0.720731 0.356660
vt 0.003132 0.021622
vt 0.021356 0.003398
vt 0.021356 0.217818
vt 0.003132 0.199594
vt 0.736558 0.008857
vt 0.736558 0.356660
vt 0.742021 0.007014
vt 0.742021 0.354817
vt 0.992262 0.007014
vt 0.992262 0.354817
vt 0.485564 0.008810
vt 0.485564 0.356613
vt 0.486317 0.356660
vt 0.486317 0.008857
vt 0.479782 0.356495
vt 0.479782 0.008692
vt 0.229541 0.356495
vt 0.229541 0.008692
vt 0.735805 0.356613
vt 0.735805 0.008810
vt 0.008470 0.008736
vt 0.217552 0.021622
vt 0.199328 0.003398
vt 0.212214 0.008736
vt 0.008470 0.212480
vt 0.212214 0.212480
vt 0.199328 0.217818
vt 0.217552 0.199594
vt 0.728698 0.841512
vt 0.578613 0.841512
vt 0.578613 0.806256
vt 0.728698 0.806256
vt 0.741326 0.993207
vt 0.741326 0.846682
vt 0.845753 0.846682
vt 0.740713 0.745295
vt 0.728698 0.841780
vt 0.578613 0.841780
vt 0.578613 0.806525
vt 0.728698 0.806525
vt 0.728698 0.841233
vt 0.577692 0.841233
vt 0.577692 0.805977
vt 0.728698 0.805977
vt 0.728698 0.841523
vt 0.577692 0.841523
vt 0.577692 0.806267
vt 0.728698 0.806267
vt 0.685794 0.803326
vt 0.578829 0.803326
vt 0.578829 0.768070
vt 0.685794 0.768070
vt 0.685794 0.768028
vt 0.685794 0.803284
vt 0.578829 0.803284
vt 0.578829 0.768028
vt 0.743496 0.993207
vt 0.845141 0.833739
vt 0.845857 0.846682
vt 0.845858 0.993207
vt 0.685794 0.803242
vt 0.578829 0.803242
vt 0.578829 0.767986
vt 0.685794 0.767986
vt 0.685794 0.766541
vt 0.685794 0.801798
vt 0.578829 0.801797
vt 0.578829 0.766542
vt 0.578829 0.802986
vt 0.578829 0.767730
vt 0.685794 0.767730
vt 0.685794 0.802986
vt 0.845141 0.833108
vt 0.740713 0.833108
vt 0.578829 0.803028
vt 0.578829 0.767772
vt 0.685794 0.767772
vt 0.685794 0.803028
vt 0.685794 0.766711
vt 0.685794 0.801967
vt 0.578829 0.801967
vt 0.578829 0.766711
vt 0.685794 0.766753
vt 0.685794 0.802009
vt 0.578829 0.802009
vt 0.578829 0.766753
vt 0.740713 0.745257
vt 0.845141 0.745257
vt 0.696239 0.874148
vt 0.731130 0.874148
vt 0.471783 0.911898
vt 0.696239 0.911898
vt 0.575972 0.874148
vt 0.606698 0.874148
vt 0.606698 0.911898
vt 0.575972 0.911898
vt 0.503158 0.874148
vt 0.539337 0.874148
vt 0.539337 0.911898
vt 0.503158 0.911898
vt 0.632009 0.874148
vt 0.661076 0.874148
vt 0.661076 0.911898
vt 0.632009 0.911898
vt 0.731130 0.934639
vt 0.023120 0.929985
vt 0.023120 0.971517
vt 0.696239 0.934639
vt 0.606698 0.934639
vt 0.023120 0.929985
vt 0.023120 0.888453
vt 0.575972 0.934640
vt 0.539337 0.934640
vt 0.023120 0.871250
vt 0.023120 0.888453
vt 0.503158 0.934640
vt 0.661076 0.934640
vt 0.023120 0.988721
vt 0.023120 0.971517
vt 0.632009 0.934640
vt 0.023120 0.885448
vt 0.023120 0.929985
vt 0.023120 0.974522
vt 0.023120 0.929985
vt 0.023120 0.974522
vt 0.023120 0.992970
vt 0.023120 0.885448
vt 0.023120 0.867001
vt 0.007719 0.885448
vt 0.007719 0.929985
vt 0.007719 0.974522
vt 0.007719 0.929985
vt 0.007719 0.974522
vt 0.007719 0.992970
vt 0.007719 0.885448
vt 0.007719 0.867001
vt 0.464709 0.757611
vt 0.464700 0.723623
vt 0.464744 0.893561
vt 0.464735 0.859574
vt 0.464762 0.961537
vt 0.464753 0.927549
vt 0.464726 0.825586
vt 0.464718 0.791598
vt 0.039786 0.882817
vt 0.039786 0.924349
vt 0.039786 0.965881
vt 0.039786 0.924349
vt 0.039786 0.965881
vt 0.039786 0.983085
vt 0.039786 0.882817
vt 0.039786 0.865614
vt 0.039786 0.873379
vt 0.039786 0.924349
vt 0.039786 0.975319
vt 0.039786 0.924349
vt 0.039786 0.975319
vt 0.039786 0.996432
vt 0.039786 0.873379
vt 0.039786 0.852267
vt 0.026693 0.873379
vt 0.026693 0.924349
vt 0.026693 0.975319
vt 0.026693 0.924349
vt 0.026693 0.975319
vt 0.026693 0.996432
vt 0.026693 0.873379
vt 0.026693 0.852267
vt 0.458214 0.613797
vt 0.458213 0.580011
vt 0.010224 0.580011
vt 0.010225 0.613797
vt 0.458216 0.715059
vt 0.010227 0.715059
vt 0.458210 0.459643
vt 0.458209 0.423155
vt 0.010221 0.423155
vt 0.010221 0.459643
vt 0.458215 0.678571
vt 0.458215 0.642493
vt 0.010226 0.642493
vt 0.010226 0.678571
vt 0.458212 0.535562
vt 0.458211 0.496131
vt 0.010222 0.496131
vt 0.010223 0.535562
vt 0.022602 0.853468
vt 0.022602 0.853468
vt 0.022602 0.835523
vt 0.022602 0.730932
vt 0.022602 0.748877
vt 0.022602 0.792200
vt 0.022602 0.748877
vt 0.022602 0.792200
vt 0.022602 0.835523
vt 0.022602 0.857901
vt 0.022602 0.857901
vt 0.022602 0.838657
vt 0.022602 0.726499
vt 0.022602 0.745743
vt 0.022602 0.792200
vt 0.022602 0.745743
vt 0.022602 0.792200
vt 0.022602 0.838657
vt 0.006537 0.857901
vt 0.006537 0.853468
vt 0.006537 0.853468
vt 0.006537 0.857901
vt 0.006537 0.838657
vt 0.006537 0.835523
vt 0.006537 0.730932
vt 0.006537 0.726499
vt 0.006537 0.745743
vt 0.006537 0.748877
vt 0.006537 0.792200
vt 0.006537 0.792200
vt 0.006537 0.745743
vt 0.006537 0.748877
vt 0.006537 0.792200
vt 0.006537 0.792200
vt 0.006537 0.838657
vt 0.006537 0.835523
vt 0.779403 0.715059
vt 0.732765 0.715059
vt 0.732765 0.459643
vt 0.779403 0.459643
vt 0.779403 0.423155
vt 0.732765 0.423155
vt 0.732765 0.602651
vt 0.779403 0.602651
vt 0.779403 0.558203
vt 0.732765 0.558203
vt 0.732765 0.524417
vt 0.779403 0.524417
vt 0.779403 0.495721
vt 0.732765 0.495721
vt 0.732765 0.678571
vt 0.779403 0.678571
vt 0.779403 0.642083
vt 0.732765 0.642083
vt 0.686738 0.715059
vt 0.462914 0.715059
vt 0.686738 0.459643
vt 0.686738 0.423155
vt 0.462914 0.423155
vt 0.462914 0.459643
vt 0.686738 0.602651
vt 0.686738 0.558203
vt 0.462914 0.558203
vt 0.462914 0.602651
vt 0.686738 0.524417
vt 0.686738 0.495721
vt 0.462914 0.495721
vt 0.462914 0.524417
vt 0.686738 0.678571
vt 0.686738 0.642083
vt 0.462914 0.642083
vt 0.462914 0.678571
vt 0.567874 0.838451
vt 0.567874 0.739475
vt 0.551532 0.739475
vt 0.551532 0.838451
vt 0.568269 0.839837
vt 0.568269 0.740861
vt 0.551928 0.740861
vt 0.551928 0.839837
vt 0.507578 0.780866
vt 0.507578 0.741542
vt 0.491236 0.741542
vt 0.491236 0.780866
vt 0.492356 0.780665
vt 0.492356 0.741341
vt 0.508698 0.741341
vt 0.508698 0.780665
vt 0.510660 0.741346
vt 0.549984 0.741346
vt 0.549984 0.840322
vt 0.510660 0.840322
vt 0.491614 0.780968
vt 0.491614 0.741644
vt 0.507956 0.741644
vt 0.507956 0.780968
vt 0.551355 0.838451
vt 0.551355 0.739475
vt 0.567697 0.739475
vt 0.567697 0.838451
vt 0.551619 0.838470
vt 0.551619 0.739494
vt 0.567961 0.739494
vt 0.567961 0.838470
vt 0.491230 0.780665
vt 0.491230 0.741341
vt 0.507572 0.741341
vt 0.507572 0.780665
vt 0.510484 0.740486
vt 0.549807 0.740486
vt 0.549807 0.839463
vt 0.510484 0.839463
vt 0.039786 0.924349
vt 0.047482 0.995633
vt 0.007719 0.929985
vt 0.007719 0.929985
vt 0.023120 0.929985
vt 0.731130 0.993602
vt 0.471783 0.934639
vt 0.731130 0.911898
vt 0.471783 0.874148
vt 0.047429 0.791707
vt 0.047420 0.757720
vt 0.047446 0.859682
vt 0.047437 0.825695
vt 0.047464 0.927658
vt 0.047455 0.893670
vt 0.047411 0.723732
vt 0.039786 0.924349
vt 0.047473 0.961645
vt 0.007719 0.888453
vt 0.007719 0.871250
vt 0.007719 0.888453
vt 0.007719 0.929985
vt 0.007719 0.971517
vt 0.007719 0.988721
vt 0.007719 0.971517
vt 0.007719 0.929985
vt 0.464771 0.995524
vt 0.696239 0.993602
vt 0.661076 0.993602
vt 0.632009 0.993602
vt 0.606698 0.993602
vt 0.575972 0.993602
vt 0.539337 0.993602
vt 0.503158 0.993602
vt 0.471783 0.993602
vt 0.023120 0.929985
vt 0.850622 0.846682
vt 0.740713 0.833739
vt 0.850622 0.993207
vt 0.845753 0.993207
vt 0.955049 0.846682
vt 0.743495 0.846682
vt 0.955049 0.993207
vt 0.845141 0.745295
vt 0.855400 0.725499
vt 0.812717 0.707819
vt 0.898084 0.622452
vt 0.795037 0.665136
vt 0.898084 0.707819
vt 0.812717 0.622452
vt 0.915764 0.665136
vt 0.855400 0.604772
vn 0.521083 -0.484813 -0.702445
vn 0.006432 -0.005984 -0.999961
vn -0.016269 0.022138 -0.999623
vn 0.501973 -0.479117 -0.720049
vn -0.514658 0.478835 0.711228
vn 0.006432 -0.005985 0.999961
vn -0.016269 0.022138 0.999623
vn -0.506254 0.513520 0.692823
vn -0.514657 0.478835 -0.711228
vn -0.732127 0.681168 -0.000000
vn -0.701623 0.712549 0.000000
vn -0.506253 0.513520 -0.692823
vn 0.521083 -0.484813 0.702445
vn 0.732127 -0.681168 -0.000000
vn 0.725897 -0.687804 -0.000000
vn 0.501973 -0.479117 0.720049
vn -0.064159 0.156438 -0.985602
vn -0.025892 0.155582 -0.987484
vn 0.058762 -0.558073 -0.827709
vn 0.181147 -0.508345 -0.841886
vn -0.064160 0.156438 0.985602
vn -0.025894 0.155581 0.987484
vn -0.118355 0.760095 0.638942
vn -0.286299 0.715232 0.637555
vn -0.371490 0.928437 0.000000
vn -0.154910 0.987929 0.000000
vn -0.118354 0.760096 -0.638942
vn -0.286299 0.715232 -0.637555
vn 0.304374 -0.952553 -0.000000
vn 0.071656 -0.997429 0.000000
vn 0.058761 -0.558072 0.827710
vn 0.181146 -0.508344 0.841886
vn -1.000000 -0.000001 0.000000
vn -1.000000 -0.000001 0.000000
vn -1.000000 -0.000000 0.000000
vn -1.000000 0.000000 0.000000
vn -1.000000 -0.000001 0.000000
vn -1.000000 -0.000001 0.000000
vn -1.000000 0.000000 0.000000
vn -1.000000 -0.000000 0.000000
vn -1.000000 -0.000003 0.000000
vn -1.000000 -0.000003 0.000000
vn -1.000000 -0.000002 0.000000
vn -1.000000 -0.000002 0.000000
vn -1.000000 0.000001 0.000000
vn -1.000000 0.000001 0.000000
vn -1.000000 -0.000002 0.000000
vn -1.000000 -0.000002 0.000000
vn 0.000000 0.707106 -0.707107
vn 0.000000 0.707106 -0.707107
vn 0.000000 0.000000 -1.000000
vn 0.000000 0.000000 -1.000000
vn 0.000000 -0.707107 0.707107
vn 0.000000 -0.707107 0.707107
vn 0.000000 0.000000 1.000000
vn 0.000000 0.000000 1.000000
vn 0.000000 -0.707107 -0.707107
vn 0.000000 -0.707107 -0.707107
vn 0.000000 -1.000000 0.000000
vn 0.000000 -1.000000 0.000000
vn 0.000000 0.707106 0.707107
vn 0.000000 0.707106 0.707107
vn 0.000000 1.000000 0.000000
vn 0.000000 1.000000 0.000000
vn 1.000000 0.000001 0.000000
vn 1.000000 0.000001 0.000000
vn 1.000000 0.000002 0.000000
vn 1.000000 0.000002 0.000000
vn 1.000000 0.000000 0.000000
vn 1.000000 0.000000 0.000000
vn 1.000000 0.000000 0.000000
vn 1.000000 0.000000 0.000000
vn 1.000000 0.000001 0.000000
vn 1.000000 0.000001 0.000000
vn 1.000000 0.000000 0.000000
vn 1.000000 0.000000 0.000000
vn 1.000000 0.000000 0.000000
vn 1.000000 0.000000 0.000000
vn 1.000000 0.000000 0.000000
vn 1.000000 0.000000 0.000000
vn 0.000000 0.707107 -0.707107
vn 0.000000 -0.000000 -1.000000
vn 0.000000 -0.000000 -1.000000
vn 0.000000 0.707107 -0.707107
vn 0.000000 -0.707107 0.707107
vn 0.000000 -0.000001 1.000000
vn 0.000000 -0.000001 1.000000
vn 0.000000 -0.707107 0.707107
vn 0.000000 -0.707107 -0.707107
vn 0.000000 -1.000000 0.000000
vn 0.000000 -1.000000 0.000000
vn 0.000000 -0.707107 -0.707107
vn 0.000000 0.707107 0.707107
vn 0.000000 1.000000 0.000000
vn 0.000000 1.000000 0.000000
vn 0.000000 0.707107 0.707107
vn 0.000000 0.000000 1.000000
vn 0.000000 0.000000 1.000000
vn 0.000000 0.000000 1.000000
vn 0.000000 0.000000 1.000000
vn 0.000000 1.000000 0.000000
vn 0.000000 1.000000 0.000000
vn 0.000000 1.000000 0.000000
vn 0.000000 1.000000 0.000000
vn 0.000000 0.000000 -1.000000
vn 0.000000 0.000000 -1.000000
vn 0.000000 0.000000 -1.000000
vn 0.000000 0.000000 -1.000000
vn 1.000000 0.000000 0.000000
vn 1.000000 0.000000 0.000000
vn 1.000000 0.000000 0.000000
vn 1.000000 0.000000 0.000000
vn -1.000000 0.000000 0.000000
vn -1.000000 0.000000 0.000000
vn -1.000000 0.000000 0.000000
vn -1.000000 0.000000 0.000000
vn 0.000000 0.000000 1.000000
vn 0.000000 0.000000 1.000000
vn 0.000000 0.000000 1.000000
vn 0.000000 0.000000 1.000000
vn 0.000000 1.000000 0.000000
vn 0.000000 1.000000 0.000000
vn 0.000000 1.000000 0.000000
vn 0.000000 1.000000 0.000000
vn 0.000000 0.000000 -1.000000
vn 0.000000 0.000000 -1.000000
vn 0.000000 0.000000 -1.000000
vn 0.000000 0.000000 -1.000000
vn 1.000000 0.000000 0.000000
vn 1.000000 0.000000 0.000000
vn 1.000000 0.000000 0.000000
vn 1.000000 0.000000 0.000000
vn -1.000000 0.000000 0.000000
vn -1.000000 0.000000 0.000000
vn -1.000000 0.000000 0.000000
vn -1.000000 0.000000 0.000000
vn -0.027956 0.000000 0.999609
vn -0.027956 0.000000 0.999609
vn 0.027956 0.000000 0.999609
vn 0.027956 0.000000 0.999609
vn -0.027956 0.000000 -0.999609
vn -0.027956 0.000000 -0.999609
vn 0.027956 0.000000 -0.999609
vn 0.027956 0.000000 -0.999609
vn 0.999609 0.000000 0.027956
vn 0.999609 0.000000 0.027956
vn 0.999609 0.000000 -0.027956
vn 0.999609 0.000000 -0.027956
vn -0.999609 0.000000 -0.027956
vn -0.999609 0.000000 -0.027956
vn -0.999609 0.000000 0.027956
vn -0.999609 0.000000 0.027956
vn 0.000000 1.000000 0.000000
vn 0.000000 1.000000 0.000000
vn 0.000000 1.000000 0.000000
vn 0.000000 1.000000 0.000000
vn -0.707107 0.000000 0.707106
vn -0.707107 0.000000 0.707106
vn 0.707107 0.000000 0.707106
vn 0.707107 0.000000 0.707106
vn -0.707107 0.000000 -0.707107
vn -0.707107 0.000000 -0.707107
vn 0.707107 0.000000 -0.707107
vn 0.707107 0.000000 -0.707107
vn 0.000000 1.000000 0.000000
vn 0.000000 1.000000 0.000000
vn 0.000000 1.000000 0.000000
vn 0.000000 1.000000 0.000002
vn 0.000000 1.000000 0.000000
vn 0.000000 1.000000 -0.000002
vn 0.000000 1.000000 -0.000000
vn 0.000000 1.000000 -0.000000
vn 0.000000 0.000000 1.000000
vn 0.000000 0.000000 1.000000
vn 0.000000 0.000000 1.000000
vn 0.000000 0.000000 1.000000
vn 0.000000 1.000000 0.000000
vn 0.000000 1.000000 0.000000
vn 0.000000 1.000000 0.000000
vn 0.000000 1.000000 0.000000
vn 0.000000 0.000000 -1.000000
vn 0.000000 0.000000 -1.000000
vn 0.000000 0.000000 -1.000000
vn 0.000000 0.000000 -1.000000
vn 1.000000 0.000000 0.000000
vn 1.000000 0.000000 0.000000
vn 1.000000 0.000000 0.000000
vn 1.000000 0.000000 0.000000
vn -1.000000 0.000000 0.000000
vn -1.000000 0.000000 0.000000
vn -1.000000 0.000000 0.000000
vn -1.000000 0.000000 0.000000
vn -1.000000 0.000000 0.000000
vn -1.000000 0.000000 0.000000
vn -1.000000 0.000000 0.000000
vn -1.000000 0.000000 0.000000
vn 1.000000 0.000000 0.000000
vn 1.000000 0.000000 0.000000
vn 1.000000 0.000000 0.000000
vn 1.000000 0.000000 0.000000
vn 0.000000 1.000000 0.000000
vn 0.000000 1.000000 0.000000
vn 0.000000 1.000000 0.000000
vn 0.000000 1.000000 0.000000
vn -1.000000 0.000000 0.000000
vn -1.000000 0.000000 0.000000
vn -1.000000 0.000000 0.000000
vn -1.000000 0.000000 0.000000
vn 1.000000 0.000000 0.000000
vn 1.000000 0.000000 0.000000
vn 1.000000 0.000000 0.000000
vn 1.000000 0.000000 0.000000
vn 0.000000 0.000000 1.000000
vn 0.000000 0.000000 1.000000
vn 0.000000 0.000000 1.000000
vn 0.000000 0.000000 1.000000
vn 0.000000 1.000000 0.000000
vn 0.000000 1.000000 0.000000
vn 0.000000 1.000000 0.000000
vn 0.000000 1.000000 0.000000
vn 0.000000 0.000000 -1.000000
vn 0.000000 0.000000 -1.000000
vn 0.000000 0.000000 -1.000000
vn 0.000000 0.000000 -1.000000
vn 0.000000 0.000000 1.000000
vn 0.000000 0.000000 1.000000
vn 0.000000 0.000000 1.000000
vn 0.000000 0.000000 1.000000
vn 0.000000 0.000000 -1.000000
vn 0.000000 0.000000 -1.000000
vn 0.000000 0.000000 -1.000000
vn 0.000000 0.000000 -1.000000
vn 0.000000 1.000000 0.000000
vn 0.000000 1.000000 0.000000
vn 0.000000 1.000000 0.000000
vn 0.000000 1.000000 0.000000
vn -0.658675 -0.752428 -0.000373
vn 0.162522 -0.986029 0.036520
vn 0.188159 -0.978754 0.081468
vn -0.531907 -0.834737 -0.142438
vn 0.792131 0.593608 0.141983
vn 0.162522 0.986029 0.036520
vn 0.188159 0.978754 0.081468
vn 0.712703 0.610440 0.345568
vn 0.792130 -0.593608 0.141983
vn 0.983354 0.000000 0.181699
vn 0.892093 0.000000 0.451851
vn 0.712703 -0.610440 0.345568
vn -0.658675 0.752427 -0.000373
vn -0.998152 -0.000000 0.060767
vn -0.987634 -0.000000 -0.156781
vn -0.531908 0.834737 -0.142438
vn 0.045721 -0.992845 0.110310
vn 0.013751 -0.996463 0.082898
vn -0.101460 -0.746705 -0.657372
vn -0.152245 -0.774957 -0.613403
vn 0.045721 0.992845 0.110310
vn 0.013751 0.996463 0.082898
vn 0.119045 0.661637 0.740314
vn 0.254442 0.651099 0.715073
vn 0.337197 0.000000 0.941434
vn 0.159125 0.000000 0.987258
vn 0.119045 -0.661637 0.740314
vn 0.254442 -0.651099 0.715073
vn -0.213738 0.000000 -0.976891
vn -0.151361 0.000000 -0.988479
vn -0.101460 0.746705 -0.657372
vn -0.152245 0.774957 -0.613403
vn 1.000000 0.000000 0.000000
vn 1.000000 0.000000 0.000000
vn 1.000000 0.000000 0.000000
vn 1.000000 0.000000 0.000000
vn 1.000000 0.000000 0.000000
vn 1.000000 0.000000 0.000000
vn 1.000000 0.000000 0.000000
vn 1.000000 0.000000 0.000000
vn 1.000000 -0.000002 0.000000
vn 1.000000 -0.000002 0.000000
vn 1.000000 -0.000002 0.000000
vn 1.000000 -0.000002 0.000000
vn 1.000000 0.000000 0.000000
vn 1.000000 0.000000 0.000000
vn 1.000000 0.000000 0.000000
vn 1.000000 0.000000 0.000000
vn 0.000000 -0.707107 0.707106
vn 0.000000 -0.707107 0.707106
vn 0.000000 -1.000000 -0.000000
vn 0.000000 -1.000000 -0.000000
vn 0.000000 0.707107 -0.707107
vn 0.000000 0.707107 -0.707107
vn 0.000000 1.000000 0.000000
vn 0.000000 1.000000 0.000000
vn 0.000000 -0.707107 -0.707107
vn 0.000000 -0.707107 -0.707107
vn 0.000000 -0.000000 -1.000000
vn 0.000000 -0.000000 -1.000000
vn 0.000000 0.707107 0.707107
vn 0.000000 0.707107 0.707107
vn 0.000000 -0.000000 1.000000
vn 0.000000 -0.000000 1.000000
vn -1.000000 0.000000 0.000000
vn -1.000000 0.000000 0.000000
vn -1.000000 0.000000 0.000000
vn -1.000000 0.000000 0.000000
vn -1.000000 0.000000 0.000000
vn -1.000000 0.000000 0.000000
vn -1.000000 0.000000 0.000000
vn -1.000000 0.000000 0.000000
vn -1.000000 0.000000 0.000000
vn -1.000000 0.000000 0.000000
vn -1.000000 0.000000 0.000000
vn -1.000000 0.000000 0.000000
vn -1.000000 0.000000 0.000000
vn -1.000000 0.000000 0.000000
vn -1.000000 0.000000 0.000000
vn -1.000000 0.000000 0.000000
vn 0.000000 -0.707107 0.707107
vn 0.000000 -1.000000 0.000000
vn 0.000000 -1.000000 0.000000
vn 0.000000 -0.707107 0.707107
vn 0.000000 0.707106 -0.707107
vn 0.000000 1.000000 0.000000
vn 0.000000 1.000000 0.000000
vn 0.000000 0.707106 -0.707107
vn 0.000000 -0.707107 -0.707107
vn 0.000000 0.000000 -1.000000
vn 0.000000 0.000000 -1.000000
vn 0.000000 -0.707107 -0.707107
vn 0.000000 0.707107 0.707107
vn 0.000000 0.000000 1.000000
vn 0.000000 0.000000 1.000000
vn 0.000000 0.707107 0.707107
vn 1.000000 0.000000 0.000000
vn 1.000000 0.000000 0.000000
vn 1.000000 0.000000 0.000000
vn 1.000000 0.000000 0.000000
vn 1.000000 0.000000 0.000000
vn 1.000000 0.000000 0.000000
vn 1.000000 0.000000 0.000000
vn 1.000000 0.000000 0.000000
vn 1.000000 0.000000 0.000000
vn 1.000000 0.000000 0.000000
vn 1.000000 0.000000 0.000000
vn 1.000000 0.000000 0.000000
vn 1.000000 0.000000 0.000000
vn 1.000000 0.000000 0.000000
vn 1.000000 0.000000 0.000000
vn 1.000000 0.000000 0.000000
vn 1.000000 0.000000 0.000000
vn 1.000000 0.000000 0.000000
vn 1.000000 0.000000 0.000000
vn 1.000000 0.000000 0.000000
vn 1.000000 0.000000 0.000000
vn 1.000000 0.000000 0.000000
vn 1.000000 0.000000 0.000000
vn 1.000000 0.000000 0.000000
vn 1.000000 0.000000 0.000000
vn 1.000000 0.000000 0.000000
vn 1.000000 0.000000 0.000000
vn 1.000000 0.000000 0.000000
vn 1.000000 0.000000 0.000000
vn 1.000000 0.000000 0.000000
vn 1.000000 0.000000 0.000000
vn 1.000000 0.000000 0.000000
vn 0.000000 -1.000000 0.000000
vn 0.000000 -0.707107 0.707107
vn 0.000000 -0.707107 0.707107
vn 0.000000 -1.000000 0.000000
vn 0.000000 1.000000 0.000000
vn 0.000000 0.707106 -0.707107
vn 0.000000 0.707106 -0.707107
vn 0.000000 1.000000 0.000000
vn 0.000000 0.000000 -1.000000
vn 0.000000 -0.707107 -0.707107
vn 0.000000 -0.707107 -0.707107
vn 0.000000 0.000000 -1.000000
vn 0.000000 0.000000 1.000000
vn 0.000000 0.707107 0.707107
vn 0.000000 0.707107 0.707107
vn 0.000000 0.000000 1.000000
vn -1.000000 0.000000 0.000000
vn -1.000000 0.000000 0.000000
vn -1.000000 0.000000 0.000000
vn -1.000000 -0.000001 0.000000
vn -1.000000 -0.000001 0.000000
vn -1.000000 -0.000001 0.000000
vn -1.000000 0.000000 0.000000
vn -1.000000 0.000000 0.000000
vn -1.000000 0.000000 0.000000
vn -1.000000 0.000000 0.000000
vn -1.000000 0.000000 0.000000
vn -1.000000 0.000000 0.000000
vn -1.000000 0.000000 0.000000
vn -1.000000 0.000000 0.000000
vn -1.000000 0.000000 0.000000
vn -1.000000 0.000000 0.000000
vn -1.000000 0.000000 0.000000
vn -1.000000 0.000000 0.000000
vn 0.000000 0.000000 1.000000
vn 0.000000 0.000000 1.000000
vn 0.000000 0.000000 1.000000
vn 0.000000 0.000000 1.000000
vn 0.000000 1.000000 0.000000
vn 0.000000 1.000000 0.000000
vn 0.000000 1.000000 0.000000
vn 0.000000 1.000000 0.000000
vn 0.000000 0.000000 -1.000000
vn 0.000000 0.000000 -1.000000
vn 0.000000 0.000000 -1.000000
vn 0.000000 0.000000 -1.000000
vn 1.000000 0.000000 0.000000
vn 1.000000 0.000000 0.000000
vn 1.000000 0.000000 0.000000
vn 1.000000 0.000000 0.000000
vn -1.000000 0.000000 0.000000
vn -1.000000 0.000000 0.000000
vn -1.000000 0.000000 0.000000
vn -1.000000 0.000000 0.000000
vn 0.000000 0.000000 1.000000
vn 0.000000 0.000000 1.000000
vn 0.000000 0.000000 1.000000
vn 0.000000 0.000000 1.000000
vn 0.000000 1.000000 0.000000
vn 0.000000 1.000000 0.000000
vn 0.000000 1.000000 0.000000
vn 0.000000 1.000000 0.000000
vn 0.000000 0.000000 -1.000000
vn 0.000000 0.000000 -1.000000
vn 0.000000 0.000000 -1.000000
vn 0.000000 0.000000 -1.000000
vn 1.000000 0.000000 0.000000
vn 1.000000 0.000000 0.000000
vn 1.000000 0.000000 0.000000
vn 1.000000 0.000000 0.000000
vn -1.000000 0.000000 0.000000
vn -1.000000 0.000000 0.000000
vn -1.000000 0.000000 0.000000
vn -1.000000 0.000000 0.000000
vn 0.521083 -0.484813 -0.702445
vn 0.006432 -0.005984 -0.999961
vn -0.016268 0.022138 -0.999623
vn 0.501973 -0.479117 -0.720049
vn -0.514658 0.478835 0.711228
vn 0.006432 -0.005985 0.999961
vn -0.016269 0.022138 0.999623
vn -0.506254 0.513521 0.692823
vn -0.514657 0.478835 -0.711228
vn -0.732127 0.681168 -0.000000
vn -0.701623 0.712549 -0.000000
vn -0.506253 0.513520 -0.692823
vn 0.521083 -0.484813 0.702445
vn 0.732127 -0.681168 -0.000000
vn 0.725897 -0.687804 -0.000000
vn 0.501973 -0.479117 0.720049
vn -0.064159 0.156438 -0.985602
vn -0.025892 0.155582 -0.987484
vn 0.058762 -0.558073 -0.827709
vn 0.181147 -0.508345 -0.841886
vn -0.064160 0.156438 0.985602
vn -0.025894 0.155581 0.987484
vn -0.118355 0.760096 0.638942
vn -0.286299 0.715232 0.637555
vn -0.371489 0.928437 0.000000
vn -0.154910 0.987929 0.000000
vn -0.118354 0.760096 -0.638942
vn -0.286299 0.715232 -0.637555
vn 0.304374 -0.952553 0.000000
vn 0.071656 -0.997429 -0.000000
vn 0.058761 -0.558072 0.827709
vn 0.181146 -0.508344 0.841886
vn -1.000000 -0.000001 0.000000
vn -1.000000 -0.000001 0.000000
vn -1.000000 -0.000002 0.000000
vn -1.000000 -0.000002 0.000000
vn -1.000000 -0.000002 0.000000
vn -1.000000 -0.000002 0.000000
vn -1.000000 0.000001 0.000000
vn -1.000000 0.000001 0.000000
vn -1.000000 0.000002 0.000000
vn -1.000000 0.000002 0.000000
vn -1.000000 0.000000 0.000000
vn -1.000000 -0.000000 0.000000
vn -1.000000 0.000003 0.000000
vn -1.000000 0.000003 0.000000
vn -1.000000 0.000003 0.000000
vn -1.000000 0.000003 0.000000
vn 0.000000 0.707107 -0.707107
vn 0.000000 0.707107 -0.707107
vn 0.000000 0.000000 -1.000000
vn 0.000000 0.000000 -1.000000
vn 0.000000 -0.707107 0.707107
vn 0.000000 -0.707107 0.707107
vn 0.000000 0.000000 1.000000
vn 0.000000 0.000000 1.000000
vn 0.000000 -0.707107 -0.707107
vn 0.000000 -0.707107 -0.707107
vn 0.000000 -1.000000 0.000000
vn 0.000000 -1.000000 0.000000
vn 0.000000 0.707107 0.707107
vn 0.000000 0.707107 0.707107
vn 0.000000 1.000000 0.000000
vn 0.000000 1.000000 0.000000
vn 1.000000 0.000000 0.000000
vn 1.000000 0.000000 0.000000
vn 1.000000 0.000001 0.000000
vn 1.000000 0.000001 0.000000
vn 1.000000 -0.000001 0.000000
vn 1.000000 -0.000001 0.000000
vn 1.000000 -0.000001 0.000000
vn 1.000000 -0.000001 0.000000
vn 1.000000 0.000001 0.000000
vn 1.000000 0.000001 0.000000
vn 1.000000 0.000000 0.000000
vn 1.000000 0.000000 0.000000
vn 1.000000 -0.000003 0.000000
vn 1.000000 -0.000003 0.000000
vn 1.000000 -0.000003 0.000000
vn 1.000000 -0.000003 0.000000
vn 0.000000 0.707107 -0.707107
vn 0.000000 -0.000000 -1.000000
vn 0.000000 -0.000000 -1.000000
vn 0.000000 0.707107 -0.707107
vn 0.000000 -0.707107 0.707107
vn 0.000000 -0.000001 1.000000
vn 0.000000 -0.000001 1.000000
vn 0.000000 -0.707107 0.707107
vn 0.000000 -0.707107 -0.707107
vn 0.000000 -1.000000 0.000000
vn 0.000000 -1.000000 0.000000
vn 0.000000 -0.707107 -0.707107
vn 0.000000 0.707107 0.707107
vn 0.000000 1.000000 0.000000
vn 0.000000 1.000000 0.000000
vn 0.000000 0.707107 0.707107
s 1
g polySurface1
usemtl lambert2SG
f 15/1/1 1/2/2 2/3/3 16/4/4
f 9/5/5 3/6/6 4/7/7 10/8/8
f 7/9/9 5/10/10 6/11/11 8/12/12
f 1/2/2 7/9/9 8/12/12 2/3/3
f 5/10/10 9/5/5 10/8/8 6/11/11
f 13/13/13 11/14/14 12/15/15 14/16/16
f 3/6/6 13/13/13 14/16/16 4/7/7
f 11/17/14 15/1/1 16/4/4 12/18/15
f 21/19/17 17/20/18 32/21/19 31/22/20
f 24/23/21 18/24/22 26/25/23 25/26/24
f 20/27/25 19/28/26 23/29/27 22/30/28
f 8/12/12 6/11/11 20/27/25 22/30/28
f 2/3/3 8/12/12 22/30/28 21/19/17
f 23/29/27 17/20/18 21/19/17 22/30/28
f 10/8/8 4/7/7 24/23/21 25/26/24
f 6/11/11 10/8/8 25/26/24 20/27/25
f 26/25/23 19/28/26 20/27/25 25/26/24
f 28/31/29 27/32/30 30/33/31 29/34/32
f 14/16/16 12/15/15 28/31/29 29/34/32
f 4/7/7 14/16/16 29/34/32 24/23/21
f 30/33/31 18/24/22 24/23/21 29/34/32
f 16/4/4 2/3/3 21/19/17 31/22/20
f 12/18/15 16/4/4 31/22/20 28/35/29
f 32/21/19 27/36/30 28/35/29 31/22/20
s 5
f 23/37/33 40/38/34 33/39/35 17/40/36
f 30/41/37 37/42/38 34/43/39 18/44/40
f 32/45/41 36/46/42 35/47/43 27/48/44
f 17/40/36 33/39/35 36/46/42 32/45/41
f 27/48/44 35/47/43 37/42/38 30/41/37
f 26/49/45 39/50/46 38/51/47 19/52/48
f 18/44/40 34/43/39 39/50/46 26/49/45
f 19/53/48 38/54/47 40/38/34 23/37/33
s 7
f 40/38/49 48/55/50 41/56/51 33/39/52
f 37/42/53 45/57/54 42/58/55 34/43/56
f 36/46/57 44/59/58 43/60/59 35/47/60
f 33/39/52 41/56/51 44/59/58 36/46/57
f 35/47/60 43/60/59 45/57/54 37/42/53
f 39/50/61 47/61/62 46/62/63 38/51/64
f 34/43/56 42/58/55 47/61/62 39/50/61
f 38/54/64 46/63/63 48/55/50 40/38/49
s 9
f 48/55/65 56/64/66 49/65/67 41/56/68
f 45/57/69 53/66/70 50/67/71 42/58/72
f 44/59/73 52/68/74 51/69/75 43/60/76
f 41/56/68 49/65/67 52/68/74 44/59/73
f 43/60/76 51/69/75 53/66/70 45/57/69
f 47/61/77 55/70/78 54/71/79 46/62/80
f 42/58/72 50/67/71 55/70/78 47/61/77
f 46/63/80 54/72/79 56/64/66 48/55/65
s 11
f 64/73/81 57/74/82 49/75/83 56/76/84
f 61/77/85 58/78/86 50/79/87 53/80/88
f 60/81/89 59/82/90 51/83/91 52/84/92
f 57/74/82 60/81/89 52/84/92 49/75/83
f 59/85/90 61/77/85 53/80/88 51/86/91
f 63/87/93 62/88/94 54/89/95 55/90/96
f 58/78/86 63/87/93 55/90/96 50/79/87
f 62/88/94 64/73/81 56/76/84 54/89/95
s off
f 65/91/97 66/92/98 68/93/99 67/94/100
f 67/95/101 68/96/102 70/97/103 69/98/104
f 69/99/105 70/100/106 72/101/107 71/102/108
f 66/103/109 72/104/110 70/105/111 68/106/112
f 71/107/113 65/108/114 67/109/115 69/110/116
f 73/111/117 74/112/118 76/113/119 75/114/120
f 75/115/121 76/116/122 78/117/123 77/118/124
f 77/119/125 78/120/126 80/121/127 79/122/128
f 74/123/129 80/124/130 78/125/131 76/126/132
f 79/127/133 73/128/134 75/129/135 77/130/136
s 13
f 86/131/137 81/132/138 89/133/139 91/134/140
f 98/135/141 95/136/142 100/137/143 102/138/144
f 90/139/145 87/140/146 104/141/147 101/142/148
f 94/143/149 96/144/150 83/145/151 84/146/152
s 17
f 84/147/153 86/148/154 95/149/155 94/150/156
s 13
f 83/145/151 82/151/157 85/152/158 84/146/152
f 82/153/157 81/132/138 86/131/137 85/154/158
f 89/133/139 88/155/159 92/156/160 91/134/140
f 88/157/159 87/140/146 90/139/145 92/158/160
f 94/143/149 93/159/161 97/160/162 96/144/150
f 93/161/161 95/136/142 98/135/141 97/162/162
f 100/137/143 99/163/163 103/164/164 102/138/144
f 99/165/163 101/142/148 104/141/147 103/166/164
s 17
f 84/147/153 85/167/165 86/148/154
f 90/168/166 91/169/167 92/170/168
f 93/171/169 94/150/156 95/149/155
f 99/172/170 100/173/171 101/174/172
f 95/149/155 86/148/154 91/169/167 100/173/171
f 100/173/171 91/169/167 90/168/166 101/174/172
s off
f 105/175/173 106/176/174 108/177/175 107/178/176
s 19
f 107/179/177 108/180/178 120/181/179 117/484/180
s off
f 109/183/181 110/184/182 112/185/183 111/186/184
f 106/187/185 119/188/186 120/189/187 108/190/188
f 118/191/189 105/192/190 107/193/191 117/194/192
f 111/195/193 114/196/194 113/197/195 109/198/196
f 116/199/197 115/200/198 112/201/199 110/202/200
s 19
f 113/203/201 116/486/202 110/205/203 109/206/204
s off
f 121/207/205 122/208/206 123/209/207 124/210/208
f 126/211/209 125/212/210 127/213/211 128/214/212
s 19
f 117/483/180 120/481/179 116/485/202 113/487/201
s off
f 118/215/213 117/216/214 123/217/215 122/218/216
f 117/182/217 113/488/218 124/219/219 123/220/220
f 113/221/221 114/222/222 121/223/223 124/224/224
f 120/225/225 119/226/226 125/227/227 126/228/228
f 115/229/229 116/230/230 128/231/231 127/232/232
f 116/204/233 120/482/234 126/233/235 128/234/236
s 20
f 143/235/237 129/236/238 130/452/239 144/238/240
f 137/239/241 131/240/242 132/241/243 138/242/244
f 135/243/245 133/244/246 134/245/247 136/246/248
f 129/453/238 135/243/245 136/246/248 130/237/239
f 133/244/246 137/239/241 138/242/244 134/245/247
f 141/247/249 139/248/250 140/249/251 142/250/252
f 131/240/242 141/247/249 142/250/252 132/241/243
f 139/248/250 143/235/237 144/238/240 140/249/251
f 149/251/253 145/450/254 160/472/255 159/254/256
f 152/255/257 146/475/258 154/476/259 153/258/260
f 148/259/261 147/477/262 151/478/263 150/262/264
f 136/246/248 134/245/247 148/259/261 150/262/264
f 130/237/239 136/246/248 150/262/264 149/451/253
f 151/478/263 145/479/254 149/451/253 150/262/264
f 138/242/244 132/241/243 152/255/257 153/258/260
f 134/245/247 138/242/244 153/258/260 148/259/261
f 154/476/259 147/477/262 148/259/261 153/258/260
f 156/263/265 155/473/266 158/474/267 157/266/268
f 142/250/252 140/249/251 156/263/265 157/266/268
f 132/241/243 142/250/252 157/266/268 152/255/257
f 158/474/267 146/475/258 152/255/257 157/266/268
f 144/238/240 130/452/239 149/251/253 159/254/256
f 140/249/251 144/238/240 159/254/256 156/263/265
f 160/472/255 155/473/266 156/263/265 159/254/256
s 24
f 151/261/269 168/267/270 161/268/271 145/252/272
f 158/265/273 165/269/274 162/270/275 146/256/276
f 160/253/277 164/271/278 163/272/279 155/264/280
f 145/480/272 161/449/271 164/271/278 160/253/277
f 155/264/280 163/272/279 165/269/274 158/265/273
f 154/257/281 167/273/282 166/274/283 147/260/284
f 146/256/276 162/270/275 167/273/282 154/257/281
f 147/260/284 166/274/283 168/267/270 151/261/269
s 26
f 168/267/285 176/275/286 169/276/287 161/268/288
f 165/269/289 173/277/290 170/278/291 162/270/292
f 164/271/293 172/279/294 171/280/295 163/272/296
f 161/449/288 169/448/287 172/279/294 164/271/293
f 163/272/296 171/280/295 173/277/290 165/269/289
f 167/273/297 175/281/298 174/282/299 166/274/300
f 162/270/292 170/278/291 175/281/298 167/273/297
f 166/274/300 174/282/299 176/275/286 168/267/285
s 28
f 176/275/301 184/463/302 177/470/303 169/276/304
f 173/277/305 181/467/306 178/466/307 170/278/308
f 172/279/309 180/469/310 179/468/311 171/280/312
f 169/448/304 177/447/303 180/469/310 172/279/309
f 171/280/312 179/468/311 181/467/306 173/277/305
f 175/281/313 183/465/314 182/464/315 174/282/316
f 170/278/308 178/466/307 183/465/314 175/281/313
f 174/282/316 182/464/315 184/463/302 176/275/301
s 30
f 192/455/317 185/460/318 177/284/319 184/283/320
f 189/459/321 186/456/322 178/286/323 181/285/324
f 188/462/325 187/458/326 179/288/327 180/287/328
f 185/446/318 188/462/325 180/287/328 177/471/319
f 187/458/326 189/459/321 181/285/324 179/288/327
f 191/457/329 190/454/330 182/290/331 183/289/332
f 186/456/322 191/457/329 183/289/332 178/286/323
f 190/454/330 192/455/317 184/283/320 182/290/331
s off
f 185/292/333 192/291/334 193/299/335 194/300/336
f 186/294/337 189/293/338 195/301/339 196/302/340
f 187/296/341 188/295/342 197/303/343 198/304/344
f 188/295/345 185/461/346 194/445/347 197/303/348
f 189/293/349 187/296/350 198/304/351 195/301/352
f 190/298/353 191/297/354 199/305/355 200/306/356
f 191/297/357 186/294/358 196/302/359 199/305/360
f 192/291/361 190/298/362 200/306/363 193/299/364
s 32
f 194/300/365 193/299/366 201/307/367 202/308/368
f 196/302/369 195/301/370 203/309/371 204/310/372
f 198/304/373 197/303/374 205/311/375 206/312/376
f 197/303/374 194/445/365 202/308/368 205/311/375
f 195/301/370 198/304/373 206/312/376 203/309/371
f 200/306/377 199/305/378 207/313/379 208/314/380
f 199/305/378 196/302/369 204/310/372 207/313/379
f 193/299/366 200/306/377 208/314/380 201/307/367
s off
f 204/489/381 203/490/382 201/491/383
f 206/492/384 205/494/385 201/491/386
f 205/494/387 202/496/388 201/491/389
f 203/490/390 206/492/391 201/491/392
f 208/495/393 207/493/394 201/491/395
f 207/493/396 204/489/397 201/491/398
f 209/417/399 210/418/400 212/419/401 211/420/402
f 211/421/403 212/422/404 214/423/405 213/424/406
f 213/425/407 214/426/408 216/427/409 215/428/410
f 210/429/411 216/430/412 214/431/413 212/432/414
f 215/433/415 209/434/416 211/435/417 213/436/418
f 217/437/419 218/438/420 220/439/421 219/440/422
f 219/441/423 220/442/424 222/443/425 221/444/426
f 221/416/427 222/415/428 224/414/429 223/413/430
f 218/412/431 224/411/432 222/410/433 220/409/434
f 223/408/435 217/407/436 219/406/437 221/405/438
s 34
f 239/404/439 225/403/440 226/402/441 240/401/442
f 233/400/443 227/399/444 228/398/445 234/397/446
f 231/396/447 229/395/448 230/394/449 232/393/450
f 225/403/440 231/396/447 232/393/450 226/402/441
f 229/395/448 233/400/443 234/397/446 230/394/449
f 237/392/451 235/391/452 236/390/453 238/389/454
f 227/399/444 237/392/451 238/389/454 228/398/445
f 235/388/452 239/404/439 240/401/442 236/387/453
f 245/386/455 241/385/456 256/384/457 255/383/458
f 248/382/459 242/381/460 250/380/461 249/379/462
f 244/378/463 243/377/464 247/376/465 246/375/466
f 232/393/450 230/394/449 244/378/463 246/375/466
f 226/402/441 232/393/450 246/375/466 245/386/455
f 247/376/465 241/385/456 245/386/455 246/375/466
f 234/397/446 228/398/445 248/382/459 249/379/462
f 230/394/449 234/397/446 249/379/462 244/378/463
f 250/380/461 243/377/464 244/378/463 249/379/462
f 252/374/467 251/373/468 254/372/469 253/371/470
f 238/389/454 236/390/453 252/374/467 253/371/470
f 228/398/445 238/389/454 253/371/470 248/382/459
f 254/372/469 242/381/460 248/382/459 253/371/470
f 240/401/442 226/402/441 245/386/455 255/383/458
f 236/387/453 240/401/442 255/383/458 252/370/467
f 256/384/457 251/369/468 252/370/467 255/383/458
s 38
f 247/368/471 264/367/472 257/366/473 241/365/474
f 254/364/475 261/363/476 258/362/477 242/361/478
f 256/360/479 260/359/480 259/358/481 251/357/482
f 241/365/474 257/366/473 260/359/480 256/360/479
f 251/357/482 259/358/481 261/363/476 254/364/475
f 250/356/483 263/355/484 262/354/485 243/353/486
f 242/361/478 258/362/477 263/355/484 250/356/483
f 243/352/486 262/351/485 264/367/472 247/368/471
s 40
f 264/367/487 272/350/488 265/349/489 257/366/490
f 261/363/491 269/348/492 266/347/493 258/362/494
f 260/359/495 268/346/496 267/345/497 259/358/498
f 257/366/490 265/349/489 268/346/496 260/359/495
f 259/358/498 267/345/497 269/348/492 261/363/491
f 263/355/499 271/344/500 270/343/501 262/354/502
f 258/362/494 266/347/493 271/344/500 263/355/499
f 262/351/502 270/342/501 272/350/488 264/367/487
s 42
f 272/350/503 280/341/504 273/340/505 265/349/506
f 269/348/507 277/339/508 274/338/509 266/347/510
f 268/346/511 276/337/512 275/336/513 267/345/514
f 265/349/506 273/340/505 276/337/512 268/346/511
f 267/345/514 275/336/513 277/339/508 269/348/507
f 271/344/515 279/335/516 278/334/517 270/343/518
f 266/347/510 274/338/509 279/335/516 271/344/515
f 270/342/518 278/333/517 280/341/504 272/350/503
s 44
f 288/332/519 281/331/520 273/330/521 280/329/522
f 285/328/523 282/327/524 274/326/525 277/325/526
f 284/324/527 283/323/528 275/322/529 276/321/530
f 281/331/520 284/324/527 276/321/530 273/330/521
f 283/320/528 285/328/523 277/325/526 275/319/529
f 287/318/531 286/317/532 278/316/533 279/315/534
f 282/327/524 287/318/531 279/315/534 274/326/525
f 286/317/532 288/332/519 280/329/522 278/316/533
