# Blender v2.79 (sub 0) OBJ File: 'console.blend'
# www.blender.org
mtllib console.mtl
o Plane
v -1.000000 0.494514 1.000000
v -1.000000 0.869179 1.000000
v -1.000000 0.494514 -1.000000
v -1.000000 0.869179 -1.000000
v -0.380424 0.494514 1.000000
v -0.380424 0.602161 1.000000
v -0.380424 0.494514 -1.000000
v -0.380424 0.602161 -1.000000
v -0.934823 0.599406 0.241455
v -0.934823 0.895244 0.241455
v -0.934823 0.599406 -0.241455
v -0.934823 0.895244 -0.241455
v -0.445601 0.599406 0.241455
v -0.445601 0.684405 0.241455
v -0.445601 0.599406 -0.241455
v -0.445601 0.684405 -0.241455
v -0.934823 0.599406 0.811463
v -0.934823 0.895244 0.811463
v -0.934823 0.599406 0.328553
v -0.934823 0.895244 0.328553
v -0.445601 0.599406 0.811463
v -0.445601 0.684405 0.811463
v -0.445601 0.599406 0.328553
v -0.445601 0.684405 0.328553
v -0.934823 0.599406 -0.344538
v -0.934823 0.895244 -0.344538
v -0.934823 0.599406 -0.827448
v -0.934823 0.895244 -0.827448
v -0.445601 0.599406 -0.344538
v -0.445601 0.684405 -0.344538
v -0.445601 0.599406 -0.827448
v -0.445601 0.684405 -0.827448
v -1.000000 0.494514 -0.333333
v -1.000000 0.494514 0.333333
v -0.586949 0.494514 -1.000000
v -0.793475 0.494514 -1.000000
v -0.380424 0.494514 0.333333
v -0.380424 0.494514 -0.333333
v -0.793475 0.494514 1.000000
v -0.586949 0.494514 1.000000
v -0.793475 0.494514 -0.333333
v -0.793475 0.494514 0.333333
v -0.586949 0.494514 -0.333333
v -0.586949 0.494514 0.333333
v -0.793475 0.023824 -0.333333
v -0.793475 0.023824 0.333333
v -0.586949 0.023824 -0.333333
v -0.586949 0.023824 0.333333
vt 0.188398 0.776320
vt 0.188398 0.794342
vt 0.079715 0.812365
vt 0.152352 0.812912
vt 0.170375 0.812912
vt 0.188398 0.866980
vt 0.025099 0.830752
vt 0.025099 0.794525
vt 0.079168 0.758297
vt 0.115760 0.866980
vt 0.097737 0.866980
vt 0.133783 0.812912
vt 0.134330 0.703682
vt 0.188398 0.757750
vt 0.188398 0.703682
vt 0.133783 0.703682
vt 0.025099 0.757750
vt 0.133783 0.757750
vt 0.164137 0.673336
vt 0.173561 0.652059
vt 0.173561 0.673336
vt 0.145290 0.652059
vt 0.142582 0.630504
vt 0.145290 0.630504
vt 0.173561 0.651781
vt 0.176269 0.630504
vt 0.176269 0.651781
vt 0.157421 0.630504
vt 0.154713 0.652059
vt 0.154713 0.630504
vt 0.588000 -0.768888
vt 0.719632 -0.629235
vt 0.588000 -0.629235
vt 0.432430 0.608793
vt 0.184886 0.396737
vt 0.432430 0.396737
vt 0.154713 0.673336
vt 0.164137 0.652059
vt 0.164137 0.673336
vt 0.800272 -0.629235
vt 0.777103 -0.768888
vt 0.800272 -0.768888
vt 0.176269 0.651781
vt 0.178976 0.630504
vt 0.178976 0.651781
vt 0.147997 0.652059
vt 0.145290 0.673614
vt 0.145290 0.652059
vt 0.193106 -0.756961
vt 0.324737 -0.617308
vt 0.193106 -0.617308
vt 0.597479 0.601395
vt 0.449550 0.407110
vt 0.597479 0.407110
vt 0.164137 0.651781
vt 0.173561 0.630504
vt 0.173561 0.651781
vt 0.135866 0.652059
vt 0.138573 0.673614
vt 0.135866 0.673614
vt 0.173561 0.673336
vt 0.176269 0.652059
vt 0.176269 0.673336
vt 0.147997 0.630504
vt 0.145290 0.652059
vt 0.145290 0.630504
vt 0.719632 -0.768888
vt 0.588000 -0.908540
vt 0.719632 -0.908541
vt 0.019924 0.401623
vt 0.167188 0.607715
vt 0.019924 0.607715
vt 0.025099 0.867527
vt 0.079168 0.921595
vt 0.079168 0.867527
vt 0.188945 0.703682
vt 0.243013 0.757750
vt 0.243013 0.703682
vt 0.188945 0.758297
vt 0.243013 0.812365
vt 0.243013 0.758297
vt 0.079714 0.867527
vt 0.133783 0.921595
vt 0.133783 0.867527
vt 0.134330 0.867527
vt 0.188398 0.921595
vt 0.188398 0.867527
vt 0.188945 0.812912
vt 0.243013 0.866980
vt 0.243013 0.812912
vt 0.188945 0.867527
vt 0.243013 0.921595
vt 0.243013 0.867527
vt 0.243560 0.703682
vt 0.297628 0.757750
vt 0.297628 0.703682
vt 0.156227 0.754245
vt 0.099933 0.944550
vt 0.099933 0.754245
vt 0.025099 0.922142
vt 0.079168 0.976211
vt 0.079168 0.922142
vt 0.243560 0.758297
vt 0.297628 0.812365
vt 0.297628 0.758297
vt 0.079714 0.922142
vt 0.133783 0.976211
vt 0.133783 0.922142
vt 0.188398 0.812365
vt 0.079714 0.758297
vt 0.188398 0.758297
vt 0.188398 0.812912
vt 0.134330 0.828447
vt 0.134330 0.812912
vt 0.025099 0.758297
vt 0.079168 0.866980
vt 0.025099 0.866980
vt 0.079714 0.866980
vt 0.079714 0.851446
vt 0.133783 0.866980
vt 0.134330 0.757750
vt 0.025099 0.703682
vt 0.164137 0.652059
vt 0.135866 0.652059
vt 0.173561 0.630504
vt 0.164137 0.652059
vt 0.719632 -0.768888
vt 0.184886 0.608793
vt 0.154713 0.652059
vt 0.719632 -0.629235
vt 0.176269 0.630504
vt 0.154713 0.673614
vt 0.324737 -0.756961
vt 0.449550 0.601395
vt 0.164137 0.630504
vt 0.145290 0.652059
vt 0.173561 0.652059
vt 0.154713 0.652059
vt 0.588000 -0.768888
vt 0.167188 0.401623
vt 0.025099 0.921595
vt 0.188945 0.757750
vt 0.188945 0.812365
vt 0.079714 0.921595
vt 0.134330 0.921595
vt 0.188945 0.866980
vt 0.188945 0.921595
vt 0.243560 0.757750
vt 0.156227 0.944550
vt 0.025099 0.976211
vt 0.243560 0.812365
vt 0.079714 0.976211
vn -1.0000 0.0000 0.0000
vn 0.0000 0.0000 -1.0000
vn 1.0000 -0.0000 0.0000
vn 0.0000 0.0000 1.0000
vn 0.0000 -1.0000 0.0000
vn 0.3958 0.9183 0.0000
usemtl None
s off
f 33/1/1 34/2/1 2/3/1
f 35/4/2 36/5/2 4/6/2
f 37/7/3 38/8/3 8/9/3
f 39/10/4 40/11/4 2/12/4
f 37/13/5 40/14/5 44/15/5
f 4/16/6 6/17/6 8/18/6
f 10/19/1 11/20/1 9/21/1
f 11/22/2 16/23/2 15/24/2
f 16/25/3 13/26/3 15/27/3
f 14/28/4 9/29/4 13/30/4
f 15/31/5 9/32/5 11/33/5
f 12/34/6 14/35/6 16/36/6
f 18/37/1 19/38/1 17/39/1
f 19/40/2 24/41/2 23/42/2
f 24/43/3 21/44/3 23/45/3
f 22/46/4 17/47/4 21/48/4
f 23/49/5 17/50/5 19/51/5
f 20/52/6 22/53/6 24/54/6
f 26/55/1 27/56/1 25/57/1
f 27/58/2 32/59/2 31/60/2
f 32/61/3 29/62/3 31/63/3
f 30/64/4 25/65/4 29/66/4
f 31/67/5 25/68/5 27/69/5
f 28/70/6 30/71/6 32/72/6
f 42/73/5 1/74/5 34/75/5
f 44/76/5 39/77/5 42/78/5
f 36/79/5 33/80/5 3/81/5
f 41/82/5 34/83/5 33/84/5
f 35/85/5 41/86/5 36/87/5
f 43/88/2 45/89/2 41/90/2
f 7/91/5 43/92/5 35/93/5
f 38/94/5 44/95/5 43/96/5
f 47/97/5 46/98/5 45/99/5
f 41/100/1 46/101/1 42/102/1
f 42/103/4 48/104/4 44/105/4
f 44/106/3 47/107/3 43/108/3
f 34/2/1 1/109/1 2/3/1
f 2/3/1 4/110/1 33/1/1
f 4/110/1 3/111/1 33/1/1
f 36/5/2 3/112/2 4/6/2
f 4/6/2 8/113/2 35/4/2
f 8/113/2 7/114/2 35/4/2
f 38/8/3 7/115/3 8/9/3
f 8/9/3 6/116/3 37/7/3
f 6/116/3 5/117/3 37/7/3
f 40/11/4 5/118/4 6/119/4
f 6/119/4 2/12/4 40/11/4
f 2/12/4 1/120/4 39/10/4
f 37/13/5 5/121/5 40/14/5
f 4/16/6 2/122/6 6/17/6
f 10/19/1 12/123/1 11/20/1
f 11/22/2 12/124/2 16/23/2
f 16/25/3 14/125/3 13/26/3
f 14/28/4 10/126/4 9/29/4
f 15/31/5 13/127/5 9/32/5
f 12/34/6 10/128/6 14/35/6
f 18/37/1 20/129/1 19/38/1
f 19/40/2 20/130/2 24/41/2
f 24/43/3 22/131/3 21/44/3
f 22/46/4 18/132/4 17/47/4
f 23/49/5 21/133/5 17/50/5
f 20/52/6 18/134/6 22/53/6
f 26/55/1 28/135/1 27/56/1
f 27/58/2 28/136/2 32/59/2
f 32/61/3 30/137/3 29/62/3
f 30/64/4 26/138/4 25/65/4
f 31/67/5 29/139/5 25/68/5
f 28/70/6 26/140/6 30/71/6
f 42/73/5 39/141/5 1/74/5
f 44/76/5 40/142/5 39/77/5
f 36/79/5 41/143/5 33/80/5
f 41/82/5 42/144/5 34/83/5
f 35/85/5 43/145/5 41/86/5
f 43/88/2 47/146/2 45/89/2
f 7/91/5 38/147/5 43/92/5
f 38/94/5 37/148/5 44/95/5
f 47/97/5 48/149/5 46/98/5
f 41/100/1 45/150/1 46/101/1
f 42/103/4 46/151/4 48/104/4
f 44/106/3 48/152/3 47/107/3
