# 3ds Max Wavefront OBJ Exporter v0.97b - (c)2007 guruware
# File Created: 12.06.2015 14:17:53

mtllib Board Walls Cross.mtl

#
# object Box002
#

v  0.0626 0.0000 18.0000
v  -0.0624 0.0000 18.0000
v  -0.0624 0.0000 -18.0000
v  0.0626 0.0000 -18.0000
v  0.0626 3.2400 18.0000
v  0.0626 3.2400 -18.0000
v  -0.0624 3.2400 -18.0000
v  -0.0624 3.2400 18.0000
v  -17.9999 0.0000 0.0625
v  -17.9999 0.0000 -0.0625
v  18.0001 0.0000 -0.0625
v  18.0001 0.0000 0.0625
v  -17.9999 3.2400 0.0625
v  18.0001 3.2400 0.0625
v  18.0001 3.2400 -0.0625
v  -17.9999 3.2400 -0.0625
# 16 vertices

vn 0.0000 -1.0000 -0.0000
vn 0.0000 1.0000 -0.0000
vn 1.0000 0.0000 -0.0000
vn -0.0000 0.0000 -1.0000
vn -1.0000 0.0000 0.0000
vn 0.0000 0.0000 1.0000
# 6 vertex normals

vt 0.1417 0.6821 0.0000
vt 0.1417 0.6802 0.0000
vt 0.1422 0.6802 0.0000
vt 0.1422 0.6821 0.0000
vt 0.2146 0.9462 0.0000
vt 0.2151 0.9462 0.0000
vt 0.2151 0.9481 0.0000
vt 0.2146 0.9481 0.0000
vt 0.0000 0.0000 0.0000
vt 1.0000 0.0000 0.0000
vt 1.0000 1.0000 0.0000
vt 0.0000 1.0000 0.0000
vt 0.1416 0.6802 0.0000
vt 0.1416 0.6889 0.0000
vt 0.2144 0.9521 0.0000
vt 0.2144 0.9434 0.0000
vt 0.2145 0.9434 0.0000
vt 0.2145 0.9521 0.0000
# 18 texture coords

g Box002
usemtl Material__26
s 2
f 1/1/1 2/2/1 3/3/1 4/4/1 
s 4
f 5/5/2 6/6/2 7/7/2 8/8/2 
s 8
f 1/9/3 4/10/3 6/11/3 5/12/3 
s 16
f 4/9/4 3/10/4 7/11/4 6/12/4 
s 32
f 3/9/5 2/10/5 8/11/5 7/12/5 
s 64
f 2/9/6 1/10/6 5/11/6 8/12/6 
s 2
f 9/13/1 10/13/1 11/14/1 12/14/1 
s 4
f 13/15/2 14/16/2 15/17/2 16/18/2 
s 8
f 9/9/6 12/10/6 14/11/6 13/12/6 
s 16
f 12/9/3 11/10/3 15/11/3 14/12/3 
s 32
f 11/9/4 10/10/4 16/11/4 15/12/4 
s 64
f 10/9/5 9/10/5 13/11/5 16/12/5 
# 12 polygons

