# Blender v2.79 (sub 0) OBJ File: 'wall1_2x_offset.blend'
# www.blender.org
mtllib wall1_2x_offset.mtl
o Cube
v 1.499900 0.000000 -0.500000
v 1.499900 0.000000 0.000000
v -0.499900 0.000000 -0.000000
v -0.499900 0.000000 -0.500000
v 1.499900 2.000000 -0.500000
v 1.499899 2.000000 0.000000
v -0.499900 2.000000 -0.000000
v -0.499900 2.000000 -0.500000
vt 0.999645 0.779119
vt 0.999640 0.999713
vt 0.169908 0.999698
vt 0.169908 0.779104
vt 0.999689 0.247982
vt 0.169908 0.247982
vt 0.169908 0.000343
vt 0.999688 0.000343
vt 0.169908 -0.000036
vt 0.169908 0.999373
vt 0.001466 0.999373
vt 0.001466 -0.000036
vt 0.999996 0.000317
vt 0.999996 0.999762
vt 0.169908 0.999762
vt 0.169908 0.000317
vt 0.169908 0.000835
vt 0.169908 1.000400
vt 0.001474 1.000400
vt 0.001474 0.000835
vt -0.827627 0.999939
vt -0.827627 0.000828
vt 0.001480 0.999939
vn 0.0000 -1.0000 0.0000
vn 0.0000 1.0000 0.0000
vn 1.0000 0.0000 0.0000
vn -0.0000 -0.0000 1.0000
vn -1.0000 -0.0000 -0.0000
vn 0.0000 0.0000 -1.0000
usemtl Material
s off
f 1/1/1 2/2/1 3/3/1 4/4/1
f 5/5/2 8/6/2 7/7/2 6/8/2
f 1/9/3 5/10/3 6/11/3 2/12/3
f 2/13/4 6/14/4 7/15/4 3/16/4
f 3/17/5 7/18/5 8/19/5 4/20/5
f 5/21/6 1/22/6 4/20/6 8/23/6