# 3ds Max Wavefront OBJ Exporter v0.97b - (c)2007 guruware
# File Created: 12.06.2015 17:59:00

mtllib Door Dreadnought.mtl

#
# object Plane002
#

v  -0.0111 0.1421 -0.5937
v  -0.0111 0.1416 -0.5391
v  -0.0111 0.0373 -0.4718
v  -0.0111 0.4558 -0.5934
v  -0.0111 0.5435 -0.6840
v  -0.0111 0.8862 -0.5931
v  -0.0111 0.8097 -0.6841
v  -0.0111 1.2226 -0.5935
v  -0.0111 1.2945 0.2250
v  -0.0111 1.2238 -0.5258
v  -0.0111 1.2945 -0.4656
v  -0.0111 0.8215 0.2811
v  -0.0111 1.2133 0.3589
v  -0.0111 1.2134 0.2863
v  -0.0111 0.8873 0.3595
v  -0.0111 0.1374 0.2912
v  -0.0111 0.5364 0.2820
v  -0.0111 0.4548 0.3614
v  -0.0111 0.1420 0.3606
v  -0.0111 0.0213 -0.4718
v  -0.0111 0.0205 0.2136
v  0.0606 0.1416 -0.5391
v  0.0606 0.1421 -0.5937
v  0.0606 0.4558 -0.5934
v  0.0606 0.0373 -0.4718
v  0.0606 0.5435 -0.6840
v  0.0606 0.8097 -0.6841
v  0.0606 0.8862 -0.5931
v  0.0606 1.2226 -0.5935
v  0.0606 1.2238 -0.5258
v  0.0606 1.2945 0.2250
v  0.0606 1.2945 -0.4656
v  0.0606 0.8215 0.2811
v  0.0606 1.2134 0.2863
v  0.0606 1.2133 0.3589
v  0.0606 0.8873 0.3595
v  0.0606 0.5364 0.2820
v  0.0606 0.1374 0.2912
v  0.0606 0.4548 0.3614
v  0.0606 0.1420 0.3606
v  0.0606 0.0213 -0.4718
v  0.0606 0.0205 0.2136
# 42 vertices

vn -1.0000 -0.0000 0.0000
vn 1.0000 0.0000 -0.0000
vn -0.0000 0.7181 -0.6959
vn -0.0000 0.9999 -0.0154
vn -0.0000 -0.0014 -1.0000
vn -0.0000 0.8220 -0.5695
vn -0.0000 -0.0002 -1.0000
vn 0.0000 -0.7816 -0.6238
vn -0.0000 0.0011 -1.0000
vn 0.0000 -1.0000 -0.0068
vn -0.0000 -0.6161 -0.7877
vn -0.0000 0.0000 -1.0000
vn 0.0000 -1.0000 -0.0010
vn 0.0000 -0.6272 0.7788
vn 0.0000 -0.9985 0.0549
vn 0.0000 -0.0033 1.0000
vn -0.0000 0.7632 0.6462
vn 0.0000 0.0036 1.0000
vn 0.0000 -0.8222 0.5692
vn 0.0000 0.0023 1.0000
vn -0.0000 1.0000 0.0004
vn 0.0000 0.6755 0.7373
vn -0.0000 1.0000 0.0000
# 23 vertex normals

vt 0.0925 0.8998 -0.0000
vt 0.1360 0.8997 -0.0000
vt 0.2070 0.9841 -0.0000
vt 0.0936 0.6539 -0.0000
vt 0.0058 0.5874 -0.0000
vt 0.0873 0.3197 -0.0000
vt 0.0051 0.3805 -0.0000
vt 0.0865 0.0625 -0.0000
vt 0.8681 0.0044 -0.0000
vt 0.1520 0.0606 -0.0000
vt 0.2155 0.0055 -0.0000
vt 0.9195 0.3713 -0.0000
vt 0.9932 0.0695 -0.0000
vt 0.9236 0.0705 -0.0000
vt 0.9941 0.3181 -0.0000
vt 0.9225 0.9070 -0.0000
vt 0.9196 0.6008 -0.0000
vt 0.9906 0.6635 -0.0000
vt 0.9895 0.9069 -0.0000
vt 0.2073 0.9958 -0.0000
vt 0.8476 0.9945 -0.0000
vt 0.1360 0.8997 1.0000
vt 0.0925 0.8998 1.0000
vt 0.0936 0.6539 1.0000
vt 0.2068 0.9837 1.0000
vt 0.0058 0.5874 1.0000
vt 0.0051 0.3805 1.0000
vt 0.0873 0.3197 1.0000
vt 0.0865 0.0625 1.0000
vt 0.1520 0.0606 1.0000
vt 0.8681 0.0044 1.0000
vt 0.2155 0.0055 1.0000
vt 0.9195 0.3713 1.0000
vt 0.9236 0.0705 1.0000
vt 0.9932 0.0695 1.0000
vt 0.9941 0.3181 1.0000
vt 0.9196 0.6008 1.0000
vt 0.9225 0.9070 1.0000
vt 0.9906 0.6635 1.0000
vt 0.9895 0.9069 1.0000
vt 0.2068 0.9958 1.0000
vt 0.8476 0.9945 1.0000
vt 0.6014 0.5149 0.0000
vt 0.6011 0.5149 0.0000
vt 0.6011 0.5152 0.0000
vt 0.6014 0.5152 0.0000
vt 0.6013 0.5152 0.0000
vt 0.6015 0.5152 0.0000
vt 0.6015 0.5154 0.0000
vt 0.6013 0.5154 0.0000
vt 0.5997 0.5144 0.0000
vt 0.5997 0.5146 0.0000
vt 0.5989 0.5146 0.0000
vt 0.5989 0.5141 0.0000
vt 0.5992 0.5155 0.0000
vt 0.5989 0.5155 0.0000
vt 0.5989 0.5157 0.0000
vt 0.5992 0.5157 0.0000
vt 0.6004 0.5149 0.0000
vt 0.5997 0.5149 0.0000
vt 0.5997 0.5152 0.0000
vt 0.6004 0.5152 0.0000
vt 0.6013 0.5136 0.0000
vt 0.6013 0.5138 0.0000
vt 0.6010 0.5138 0.0000
vt 0.6010 0.5139 0.0000
vt 0.6005 0.5144 0.0000
vt 0.5998 0.5144 0.0000
vt 0.5998 0.5146 0.0000
vt 0.6005 0.5146 0.0000
vt 0.6015 0.5136 0.0000
vt 0.6015 0.5138 0.0000
vt 0.6014 0.5138 0.0000
vt 0.6014 0.5139 0.0000
vt 0.6007 0.5149 0.0000
vt 0.6007 0.5152 0.0000
vt 0.6015 0.5133 0.0000
vt 0.6015 0.5131 0.0000
vt 0.6014 0.5131 0.0000
vt 0.6014 0.5133 0.0000
vt 0.6009 0.5139 0.0000
vt 0.6009 0.5141 0.0000
vt 0.5989 0.5136 0.0000
vt 0.6014 0.5135 0.0000
vt 0.6010 0.5135 0.0000
vt 0.6010 0.5131 0.0000
vt 0.6012 0.5152 0.0000
vt 0.6010 0.5152 0.0000
vt 0.6010 0.5154 0.0000
vt 0.6012 0.5154 0.0000
vt 0.5989 0.5152 0.0000
vt 0.5989 0.5149 0.0000
vt 0.6001 0.5152 0.0000
vt 0.6001 0.5154 0.0000
vt 0.6004 0.5154 0.0000
vt 0.5996 0.5152 0.0000
vt 0.5996 0.5154 0.0000
vt 0.5989 0.5154 0.0000
vt 0.6008 0.5152 0.0000
vt 0.6008 0.5149 0.0000
vt 0.5997 0.5147 0.0000
vt 0.5989 0.5147 0.0000
vt 0.6015 0.5144 0.0000
vt 0.6015 0.5146 0.0000
vt 0.6013 0.5146 0.0000
vt 0.6013 0.5144 0.0000
vt 0.6004 0.5155 0.0000
vt 0.6001 0.5155 0.0000
vt 0.6001 0.5157 0.0000
vt 0.6004 0.5157 0.0000
vt 0.6010 0.5133 0.0000
vt 0.5989 0.5133 0.0000
# 112 texture coords

g Plane002
usemtl Material__25
s off
f 1/1/1 2/2/1 3/3/1 4/4/1 
f 5/5/1 4/4/1 6/6/1 7/7/1 
f 8/8/1 6/6/1 9/9/1 10/10/1 
f 11/11/1 10/10/1 9/9/1 
f 6/6/1 4/4/1 12/12/1 9/9/1 
f 13/13/1 14/14/1 9/9/1 15/15/1 
f 15/15/1 9/9/1 12/12/1 
f 12/12/1 4/4/1 16/16/1 17/17/1 
f 18/18/1 17/17/1 16/16/1 19/19/1 
f 4/4/1 3/3/1 20/20/1 16/16/1 
f 20/20/1 21/21/1 16/16/1 
f 22/22/2 23/23/2 24/24/2 25/25/2 
f 24/24/2 26/26/2 27/27/2 28/28/2 
f 28/28/2 29/29/2 30/30/2 31/31/2 
f 30/30/2 32/32/2 31/31/2 
f 24/24/2 28/28/2 31/31/2 33/33/2 
f 34/34/2 35/35/2 36/36/2 31/31/2 
f 31/31/2 36/36/2 33/33/2 
f 24/24/2 33/33/2 37/37/2 38/38/2 
f 37/37/2 39/39/2 40/40/2 38/38/2 
f 25/25/2 24/24/2 38/38/2 41/41/2 
f 42/42/2 41/41/2 38/38/2 
f 10/43/3 11/44/3 32/45/3 30/46/3 
f 8/47/4 10/48/4 30/49/4 29/50/4 
f 8/51/5 29/52/5 28/53/5 6/54/5 
f 7/55/6 6/56/6 28/57/6 27/58/6 
f 5/59/7 7/60/7 27/61/7 26/62/7 
f 5/63/8 26/64/8 24/65/8 4/66/8 
f 1/67/9 4/68/9 24/69/9 23/70/9 
f 1/71/10 23/72/10 22/73/10 2/74/10 
f 3/75/11 2/59/11 22/62/11 25/76/11 
f 41/77/12 20/78/12 3/79/12 25/80/12 
f 20/81/13 41/82/13 42/54/13 21/83/13 
f 21/80/14 42/84/14 38/85/14 16/86/14 
f 19/87/15 16/88/15 38/89/15 40/90/15 
f 19/60/16 40/61/16 39/91/16 18/92/16 
f 17/62/17 18/93/17 39/94/17 37/95/17 
f 17/96/18 37/97/18 33/98/18 12/91/18 
f 12/44/19 33/45/19 36/99/19 15/100/19 
f 15/101/20 36/60/20 35/92/20 13/102/20 
f 13/103/21 35/104/21 34/105/21 14/106/21 
f 9/107/22 14/108/22 34/109/22 31/110/22 
f 9/86/23 31/111/23 32/112/23 11/112/23 
# 37 polygons - 6 triangles

#
# object Door1
#

v  0.1000 -0.0009 -0.7087
v  0.1000 -0.0009 0.4913
v  -0.0500 -0.0009 0.4913
v  -0.0500 -0.0009 -0.7087
v  0.1000 0.0741 -0.7087
v  -0.0500 0.0741 -0.7087
v  -0.0500 0.0741 0.4913
v  0.1000 0.0741 0.4913
v  0.0585 0.0026 0.3906
v  0.0585 0.0043 -0.5857
v  -0.0145 0.0043 -0.5857
v  -0.0145 0.0026 0.3906
# 12 vertices

vn 0.0000 -1.0000 -0.0000
vn 0.0000 1.0000 -0.0000
vn 0.0000 0.0000 1.0000
vn 1.0000 0.0000 -0.0000
vn 0.0000 0.0000 -1.0000
vn -1.0000 0.0000 -0.0000
vn 0.0000 1.0000 0.0017
# 7 vertex normals

vt 0.4602 0.0753 0.0000
vt 0.4602 0.0713 0.0000
vt 0.4642 0.0713 0.0000
vt 0.4642 0.0753 0.0000
vt 0.4625 0.0751 0.0000
vt 0.4625 0.0714 0.0000
vt 0.4630 0.0714 0.0000
vt 0.4623 0.0714 0.0000
vt 0.4623 0.0751 0.0000
vt 0.4618 0.0751 0.0000
# 10 texture coords

g Door1
usemtl Material__25
s 2
f 43/113/24 44/114/24 45/115/24 46/116/24 
s 4
f 47/116/25 48/113/25 49/114/25 50/115/25 
s 8
f 50/116/26 49/113/26 45/114/26 44/115/26 
s 16
f 47/116/27 50/113/27 44/114/27 43/115/27 
s 32
f 48/116/28 47/113/28 43/114/28 46/115/28 
s 64
f 49/116/29 48/113/29 46/114/29 45/115/29 
s off
f 51/117/30 52/118/30 53/119/30 
f 53/120/30 54/121/30 51/122/30 
# 6 polygons - 2 triangles

