# 3ds Max Wavefront OBJ Exporter v0.97b - (c)2007 guruware
# File Created: 11.06.2015 16:04:28

mtllib Room Loading.mtl

#
# object 1
#

v  -7.4470 0.2391 -1.3874
v  -8.8878 0.2391 -1.3874
v  -8.8878 0.2391 -1.5201
v  -7.4470 0.2391 -1.5201
v  -8.8878 2.0511 -1.5201
v  -8.8878 2.0511 -1.3874
v  -7.4470 2.0511 -1.3874
v  -7.4470 2.0511 -1.5201
v  -2.9504 0.2391 -1.4179
v  -4.6191 0.2391 -1.4179
v  -4.6191 0.2391 -1.5506
v  -2.9504 0.2391 -1.5506
v  -4.6191 2.0511 -1.5506
v  -4.6191 2.0511 -1.4179
v  -2.9504 2.0511 -1.4179
v  -2.9504 2.0511 -1.5506
v  -1.3926 0.2391 7.7068
v  -1.3926 0.2391 8.9451
v  -1.5253 0.2391 8.9451
v  -1.5253 0.2391 7.7068
v  -1.5253 2.0511 8.9451
v  -1.3926 2.0511 8.9451
v  -1.3926 2.0511 7.7068
v  -1.5253 2.0511 7.7068
v  4.5903 0.2391 7.7004
v  4.5903 0.2391 8.9387
v  4.4576 0.2391 8.9387
v  4.4576 0.2391 7.7004
v  4.4576 2.0511 8.9387
v  4.5903 2.0511 8.9387
v  4.5903 2.0511 7.7004
v  4.4576 2.0511 7.7004
v  -1.3906 0.2391 1.4992
v  -1.3906 0.2391 4.6069
v  -1.5233 0.2391 4.6069
v  -1.5233 0.2391 1.4992
v  -1.5233 2.0511 4.6069
v  -1.3906 2.0511 4.6069
v  -1.3906 2.0511 1.4992
v  -1.5233 2.0511 1.4992
v  4.6384 0.2391 1.4992
v  4.6384 0.2391 4.6069
v  4.5057 0.2391 4.6069
v  4.5057 0.2391 1.4992
v  4.5057 2.0511 4.6069
v  4.6384 2.0511 4.6069
v  4.6384 2.0511 1.4992
v  4.5057 2.0511 1.4992
v  8.9870 0.2391 1.6221
v  4.5371 0.2391 1.6221
v  4.5371 0.2391 1.4894
v  8.9870 0.2391 1.4894
v  4.5371 2.0511 1.4894
v  4.5371 2.0511 1.6221
v  8.9870 2.0511 1.6221
v  8.9870 2.0511 1.4894
v  1.4796 0.2391 1.6221
v  -4.4866 0.2391 1.6221
v  -4.4866 0.2391 1.4894
v  1.4796 0.2391 1.4894
v  -4.4866 2.0511 1.4894
v  -4.4866 2.0511 1.6221
v  1.4796 2.0511 1.6221
v  1.4796 2.0511 1.4894
v  -7.4534 0.2391 1.6016
v  -8.9080 0.2391 1.6016
v  -8.9080 0.2391 1.4689
v  -7.4534 0.2391 1.4689
v  -8.9080 2.0511 1.4689
v  -8.9080 2.0511 1.6016
v  -7.4534 2.0511 1.6016
v  -7.4534 2.0511 1.4689
v  6.1425 0.2391 -6.0113
v  6.1425 0.2391 1.5875
v  6.0098 0.2391 1.5875
v  6.0098 0.2391 -6.0113
v  6.0098 2.0511 1.5875
v  6.1425 2.0511 1.5875
v  6.1425 2.0511 -6.0113
v  6.0098 2.0511 -6.0113
v  -2.9474 0.2391 -9.0472
v  -2.9474 0.2391 -1.4484
v  -3.0801 0.2391 -1.4484
v  -3.0801 0.2391 -9.0472
v  -3.0801 2.0511 -1.4484
v  -2.9474 2.0511 -1.4484
v  -2.9474 2.0511 -9.0472
v  -3.0801 2.0511 -9.0472
v  0.1493 0.2391 -6.0474
v  0.1493 0.2391 1.4883
v  0.0166 0.2391 1.4883
v  0.0166 0.2391 -6.0474
v  0.0166 2.0511 1.4883
v  0.1493 2.0511 1.4883
v  0.1493 2.0511 -6.0474
v  0.0166 2.0511 -6.0474
v  1.5258 0.2391 -6.0001
v  0.0144 0.2391 -6.0001
v  0.0144 0.2391 -6.1328
v  1.5258 0.2391 -6.1328
v  0.0144 2.0511 -6.1328
v  0.0144 2.0511 -6.0001
v  1.5258 2.0511 -6.0001
v  1.5258 2.0511 -6.1328
v  6.1457 0.2391 -6.0009
v  4.6025 0.2391 -6.0009
v  4.6025 0.2391 -6.1336
v  6.1457 0.2391 -6.1336
v  4.6025 2.0511 -6.1336
v  4.6025 2.0511 -6.0009
v  6.1457 2.0511 -6.0009
v  6.1457 2.0511 -6.1336
v  -8.9969 0.0000 8.9524
v  -8.9969 0.0000 -9.0476
v  9.0031 0.0000 -9.0476
v  9.0031 0.0000 8.9524
v  -8.9969 0.2475 8.9524
v  9.0031 0.2475 8.9524
v  9.0031 0.2475 -9.0476
v  -8.9969 0.2475 -9.0476
# 120 vertices

vn 0.0000 -1.0000 -0.0000
vn 0.0000 1.0000 -0.0000
vn 0.0000 0.0000 1.0000
vn 1.0000 0.0000 -0.0000
vn 0.0000 0.0000 -1.0000
vn -1.0000 0.0000 -0.0000
# 6 vertex normals

vt 0.7084 0.8372 0.0000
vt 0.7084 0.9429 0.0000
vt 0.6953 0.9429 0.0000
vt 0.6953 0.8372 0.0000
vt 0.5070 0.7922 0.0000
vt 0.5931 0.7922 0.0000
vt 0.5931 0.8935 0.0000
vt 0.5070 0.8935 0.0000
vt 0.6979 0.8983 0.0000
vt 0.6979 0.6758 0.0000
vt 0.7043 0.6758 0.0000
vt 0.7043 0.8983 0.0000
vt 0.5056 0.9123 0.0000
vt 0.5931 0.9123 0.0000
vt 0.5931 0.9984 0.0000
vt 0.5056 0.9984 0.0000
vt 0.5062 0.5929 0.0000
vt 0.5941 0.5929 0.0000
vt 0.5941 0.6941 0.0000
vt 0.5062 0.6941 0.0000
vt 0.7054 0.7664 0.0000
vt 0.7054 0.6209 0.0000
vt 0.7093 0.6209 0.0000
vt 0.7093 0.7664 0.0000
vt 0.5062 0.8099 0.0000
vt 0.5941 0.8099 0.0000
vt 0.5941 0.9111 0.0000
vt 0.5062 0.9111 0.0000
vt 0.7220 0.8739 0.0000
vt 0.8063 0.8739 0.0000
vt 0.8063 0.9752 0.0000
vt 0.7220 0.9752 0.0000
vt 0.5070 0.8093 0.0000
vt 0.5931 0.8093 0.0000
vt 0.5931 0.9106 0.0000
vt 0.5070 0.9106 0.0000
vt 0.9082 0.6312 0.0000
vt 0.9961 0.6312 0.0000
vt 0.9961 0.7506 0.0000
vt 0.9082 0.7506 0.0000
vt 0.6945 0.8103 0.0000
vt 0.6945 0.5878 0.0000
vt 0.7008 0.5878 0.0000
vt 0.7008 0.8103 0.0000
vt 0.9080 0.7832 0.0000
vt 0.9957 0.7832 0.0000
vt 0.9957 0.9938 0.0000
vt 0.9080 0.9938 0.0000
vt 0.8147 0.6492 0.0000
vt 0.9009 0.6492 0.0000
vt 0.9009 0.8683 0.0000
vt 0.8147 0.8683 0.0000
vt 0.9088 0.6305 0.0000
vt 0.9960 0.6305 0.0000
vt 0.9954 0.8496 0.0000
vt 0.9088 0.8496 0.0000
vt 0.8147 0.6604 0.0000
vt 0.9017 0.6604 0.0000
vt 0.9017 0.9964 0.0000
vt 0.8147 0.9964 0.0000
vt 0.6953 0.8375 0.0000
vt 0.7084 0.8375 0.0000
vt 0.7084 0.9432 0.0000
vt 0.6953 0.9432 0.0000
vt 0.9079 0.6323 0.0000
vt 0.9959 0.6323 0.0000
vt 0.9952 0.9964 0.0000
vt 0.9079 0.9964 0.0000
vt 0.7216 0.6323 0.0000
vt 0.8077 0.6323 0.0000
vt 0.8077 0.9964 0.0000
vt 0.7216 0.9964 0.0000
vt 0.7212 0.7545 0.0000
vt 0.8075 0.7545 0.0000
vt 0.8075 0.8558 0.0000
vt 0.7212 0.8558 0.0000
vt 0.7209 0.6400 0.0000
vt 0.8061 0.6400 0.0000
vt 0.8061 1.0009 0.0000
vt 0.7209 1.0009 0.0000
vt 0.5998 0.6260 0.0000
vt 0.6876 0.6260 0.0000
vt 0.6876 0.9869 0.0000
vt 0.5998 0.9869 0.0000
vt 0.9079 0.6360 0.0000
vt 0.9958 0.6360 0.0000
vt 0.9951 0.9964 0.0000
vt 0.5996 0.5783 0.0000
vt 0.6875 0.5783 0.0000
vt 0.6868 0.9964 0.0000
vt 0.5996 0.9964 0.0000
vt 0.5065 0.6665 0.0000
vt 0.5934 0.6665 0.0000
vt 0.5934 0.9984 0.0000
vt 0.5065 0.9984 0.0000
vt 0.6002 0.6252 0.0000
vt 0.6870 0.6252 0.0000
vt 0.6870 0.9571 0.0000
vt 0.6002 0.9571 0.0000
vt 0.9092 0.6624 0.0000
vt 0.9957 0.6624 0.0000
vt 0.9957 0.7706 0.0000
vt 0.9092 0.7706 0.0000
vt 0.5994 0.7995 0.0000
vt 0.6875 0.7995 0.0000
vt 0.6875 0.8099 0.0000
vt 0.5994 0.8099 0.0000
vt 0.5065 0.9135 0.0000
vt 0.5934 0.9135 0.0000
vt 0.5934 0.9981 0.0000
vt 0.5065 0.9981 0.0000
vt 0.7218 0.6436 0.0000
vt 0.8059 0.6436 0.0000
vt 0.8059 0.7449 0.0000
vt 0.7218 0.7449 0.0000
vt 0.7055 0.6366 0.0000
vt 0.7055 0.6343 0.0000
vt 0.7078 0.6343 0.0000
vt 0.7078 0.6366 0.0000
vt 0.0000 0.0000 0.0000
vt 0.5000 0.0000 0.0000
vt 0.5000 1.0000 0.0000
vt 0.0000 1.0000 0.0000
# 123 texture coords

g 1
usemtl Material__25
s 2
f 1/1/1 2/2/1 3/3/1 4/4/1 
s 4
f 5/4/2 6/1/2 7/2/2 8/3/2 
s 8
f 6/5/3 2/6/3 1/7/3 7/8/3 
s 16
f 7/9/4 1/10/4 4/11/4 8/12/4 
s 32
f 8/13/5 4/14/5 3/15/5 5/16/5 
s 64
f 5/9/6 3/10/6 2/11/6 6/12/6 
s 2
f 9/1/1 10/2/1 11/3/1 12/4/1 
s 4
f 13/4/2 14/1/2 15/2/2 16/3/2 
s 8
f 14/17/3 10/18/3 9/19/3 15/20/3 
s 16
f 15/21/4 9/22/4 12/23/4 16/24/4 
s 32
f 16/25/5 12/26/5 11/27/5 13/28/5 
s 64
f 13/21/6 11/22/6 10/23/6 14/24/6 
s 2
f 17/1/1 18/2/1 19/3/1 20/4/1 
s 4
f 21/4/2 22/1/2 23/2/2 24/3/2 
s 8
f 22/5/4 18/6/4 17/7/4 23/8/4 
s 16
f 23/9/5 17/10/5 20/11/5 24/12/5 
s 32
f 24/29/6 20/30/6 19/31/6 21/32/6 
s 64
f 21/9/3 19/10/3 18/11/3 22/12/3 
s 2
f 25/1/1 26/2/1 27/3/1 28/4/1 
s 4
f 29/4/2 30/1/2 31/2/2 32/3/2 
s 8
f 30/33/4 26/34/4 25/35/4 31/36/4 
s 16
f 31/9/5 25/10/5 28/11/5 32/12/5 
s 32
f 32/29/6 28/30/6 27/31/6 29/32/6 
s 64
f 29/9/3 27/10/3 26/11/3 30/12/3 
s 2
f 33/1/1 34/2/1 35/3/1 36/4/1 
s 4
f 37/4/2 38/1/2 39/2/2 40/3/2 
s 8
f 38/37/4 34/38/4 33/39/4 39/40/4 
s 16
f 39/41/5 33/42/5 36/43/5 40/44/5 
s 32
f 40/45/6 36/46/6 35/47/6 37/48/6 
s 64
f 37/41/3 35/42/3 34/43/3 38/44/3 
s 2
f 41/1/1 42/2/1 43/3/1 44/4/1 
s 4
f 45/4/2 46/1/2 47/2/2 48/3/2 
s 8
f 46/49/4 42/50/4 41/51/4 47/52/4 
s 16
f 47/9/5 41/10/5 44/11/5 48/12/5 
s 32
f 48/53/6 44/54/6 43/55/6 45/56/6 
s 64
f 45/9/3 43/10/3 42/11/3 46/12/3 
s 2
f 49/1/1 50/2/1 51/3/1 52/4/1 
s 4
f 53/4/2 54/1/2 55/2/2 56/3/2 
s 8
f 54/57/3 50/58/3 49/59/3 55/60/3 
s 16
f 55/61/4 49/62/4 52/63/4 56/64/4 
s 32
f 56/65/5 52/66/5 51/67/5 53/68/5 
s 64
f 53/61/6 51/62/6 50/63/6 54/64/6 
s 2
f 57/1/1 58/2/1 59/3/1 60/4/1 
s 4
f 61/4/2 62/1/2 63/2/2 64/3/2 
s 8
f 62/65/3 58/66/3 57/67/3 63/68/3 
s 16
f 63/61/4 57/62/4 60/63/4 64/64/4 
s 32
f 64/69/5 60/70/5 59/71/5 61/72/5 
s 64
f 61/61/6 59/62/6 58/63/6 62/64/6 
s 2
f 65/1/1 66/2/1 67/3/1 68/4/1 
s 4
f 69/4/2 70/1/2 71/2/2 72/3/2 
s 8
f 70/5/3 66/6/3 65/7/3 71/8/3 
s 16
f 71/21/4 65/22/4 68/23/4 72/24/4 
s 32
f 72/73/5 68/74/5 67/75/5 69/76/5 
s 64
f 69/21/6 67/22/6 66/23/6 70/24/6 
s 2
f 73/1/1 74/2/1 75/3/1 76/4/1 
s 4
f 77/4/2 78/1/2 79/2/2 80/3/2 
s 8
f 78/77/4 74/78/4 73/79/4 79/80/4 
s 16
f 79/61/5 73/62/5 76/63/5 80/64/5 
s 32
f 80/81/6 76/82/6 75/83/6 77/84/6 
s 64
f 77/61/3 75/62/3 74/63/3 78/64/3 
s 2
f 81/1/1 82/2/1 83/3/1 84/4/1 
s 4
f 85/4/2 86/1/2 87/2/2 88/3/2 
s 8
f 86/85/4 82/86/4 81/87/4 87/68/4 
s 16
f 87/61/5 81/62/5 84/63/5 88/64/5 
s 32
f 88/88/6 84/89/6 83/90/6 85/91/6 
s 64
f 85/61/3 83/62/3 82/63/3 86/64/3 
s 2
f 89/1/1 90/2/1 91/3/1 92/4/1 
s 4
f 93/4/2 94/1/2 95/2/2 96/3/2 
s 8
f 94/92/4 90/93/4 89/94/4 95/95/4 
s 16
f 95/61/5 89/62/5 92/63/5 96/64/5 
s 32
f 96/96/6 92/97/6 91/98/6 93/99/6 
s 64
f 93/61/3 91/62/3 90/63/3 94/64/3 
s 2
f 97/1/1 98/2/1 99/3/1 100/4/1 
s 4
f 101/4/2 102/1/2 103/2/2 104/3/2 
s 8
f 102/100/3 98/101/3 97/102/3 103/103/3 
s 16
f 103/104/4 97/105/4 100/106/4 104/107/4 
s 32
f 104/108/5 100/109/5 99/110/5 101/111/5 
s 64
f 101/104/6 99/105/6 98/106/6 102/107/6 
s 2
f 105/1/1 106/2/1 107/3/1 108/4/1 
s 4
f 109/4/2 110/1/2 111/2/2 112/3/2 
s 8
f 110/5/3 106/6/3 105/7/3 111/8/3 
s 16
f 111/21/4 105/22/4 108/23/4 112/24/4 
s 32
f 112/112/5 108/113/5 107/114/5 109/115/5 
s 64
f 109/21/6 107/22/6 106/23/6 110/24/6 
s 2
f 113/116/1 114/117/1 115/118/1 
f 115/118/1 116/119/1 113/116/1 
s 4
f 117/120/2 118/121/2 119/122/2 
f 119/122/2 120/123/2 117/120/2 
s 8
f 113/116/3 116/119/3 118/119/3 
f 118/119/3 117/116/3 113/116/3 
s 16
f 116/119/4 115/118/4 119/118/4 
f 119/118/4 118/119/4 116/119/4 
s 32
f 115/118/5 114/117/5 120/117/5 
f 120/117/5 119/118/5 115/118/5 
s 64
f 114/117/6 113/116/6 117/116/6 
f 117/116/6 120/117/6 114/117/6 
# 84 polygons - 12 triangles

