# 3ds Max Wavefront OBJ Exporter v0.97b - (c)2007 guruware
# File Created: 12.06.2015 12:52:57

mtllib Door1.mtl

#
# object Box001
#

v  0.0814 -0.0009 0.5987
v  -0.0686 -0.0009 0.5987
v  -0.0686 -0.0009 -0.6013
v  0.0814 -0.0009 -0.6013
v  -0.0686 0.0741 -0.6013
v  -0.0686 0.0741 0.5987
v  0.0814 0.0741 0.5987
v  0.0814 0.0741 -0.6013
v  0.0399 1.2372 -0.2330
v  0.0399 1.2372 0.2364
v  0.0399 0.2138 -0.6099
v  0.0399 0.7158 -0.6099
v  0.0399 0.0026 0.4980
v  0.0399 0.0043 -0.4783
v  0.0399 0.6995 0.6247
v  0.0399 0.2366 0.6247
v  -0.0331 0.6995 0.6247
v  -0.0331 1.2372 0.2364
v  -0.0331 0.0026 0.4980
v  -0.0331 0.2366 0.6247
v  -0.0331 0.2138 -0.6099
v  -0.0331 0.0043 -0.4783
v  -0.0331 1.2372 -0.2330
v  -0.0331 0.7158 -0.6099
# 24 vertices

vn 0.0000 -1.0000 -0.0000
vn 0.0000 1.0000 -0.0000
vn 0.0000 0.0000 1.0000
vn 1.0000 0.0000 -0.0000
vn 0.0000 0.0000 -1.0000
vn -1.0000 0.0000 -0.0000
vn 1.0000 0.0000 0.0000
vn -1.0000 -0.0000 -0.0000
vn -1.0000 -0.0000 0.0000
vn 0.0000 -0.4763 0.8793
vn 0.0000 1.0000 0.0017
vn 0.0000 -0.5318 -0.8469
vn 0.0000 0.5858 -0.8105
vn 0.0000 0.5854 0.8107
# 14 vertex normals

vt 0.8963 0.0167 0.0000
vt 0.9190 0.0167 0.0000
vt 0.9190 0.0394 0.0000
vt 0.8963 0.0394 0.0000
vt 0.9996 0.8375 0.0000
vt 0.9993 0.6754 0.0000
vt 0.1737 0.9996 0.0000
vt 0.5424 0.9997 0.0000
vt 0.0088 0.5560 0.0000
vt 0.0001 0.9440 0.0000
vt 0.5417 0.5048 0.0000
vt 0.1893 0.5052 0.0000
vt 0.5748 0.0029 1.0000
vt 0.9985 0.1568 1.0000
vt 0.0375 0.0553 1.0000
vt 0.2032 0.0030 1.0000
vt 0.2084 0.4982 1.0000
vt 0.0379 0.4473 1.0000
vt 0.9982 0.3442 1.0000
vt 0.5766 0.4985 1.0000
vt 0.8303 0.0431 1.0000
vt 0.8303 0.0431 0.0000
vt 0.8303 0.0289 0.0000
vt 0.8303 0.0289 1.0000
vt 0.8460 0.0503 0.0000
vt 0.8460 0.0503 1.0000
vt 0.9673 0.0502 0.0000
vt 0.9673 0.0502 1.0000
vt 0.9837 0.0438 1.0000
vt 0.9837 0.0438 0.0000
vt 0.9837 0.0284 1.0000
vt 0.9837 0.0284 0.0000
vt 0.9368 0.0123 1.0000
vt 0.9368 0.0123 0.0000
vt 0.8785 0.0123 1.0000
vt 0.8785 0.0123 0.0000
# 36 texture coords

g Box001
usemtl Material__25
s 2
f 1/1/1 2/2/1 3/3/1 4/4/1 
s 4
f 5/4/2 6/1/2 7/2/2 8/3/2 
s 8
f 6/4/3 2/1/3 1/2/3 7/3/3 
s 16
f 7/4/4 1/1/4 4/2/4 8/3/4 
s 32
f 8/4/5 4/1/5 3/2/5 5/3/5 
s 64
f 5/4/6 3/1/6 2/2/6 6/3/6 
s off
f 9/5/4 10/6/4 11/7/4 12/8/4 
f 11/7/7 10/6/7 13/9/7 14/10/7 
f 13/9/4 10/6/4 15/11/4 16/12/4 
f 17/13/8 18/14/8 19/15/8 20/16/8 
f 19/15/9 18/14/9 21/17/9 22/18/9 
f 21/17/8 18/14/8 23/19/8 24/20/8 
f 20/21/3 16/22/3 15/23/3 17/24/3 
f 13/25/10 16/22/10 20/21/10 19/26/10 
f 13/25/11 14/27/11 22/28/11 
f 22/28/11 19/26/11 13/25/11 
f 22/28/12 21/29/12 11/30/12 14/27/12 
f 21/29/5 24/31/5 12/32/5 11/30/5 
f 12/32/13 24/31/13 23/33/13 9/34/13 
f 9/34/2 23/33/2 18/35/2 10/36/2 
f 10/36/14 18/35/14 17/24/14 15/23/14 
# 19 polygons - 2 triangles

