# Blender v2.79 (sub 0) OBJ File: 'consolecorner.blend'
# www.blender.org
mtllib consolecorner.mtl
o Plane
v -1.000000 0.494514 1.000000
v -1.000000 0.869179 1.000000
v -1.000000 0.494514 -1.000000
v -1.000000 0.869179 -1.000000
v -0.380424 0.494514 1.000000
v -0.380424 0.602161 1.000000
v -0.380424 0.494514 -1.000000
v -0.380424 0.602161 -1.000000
v -0.934823 0.599406 0.809762
v -0.934823 0.599406 -0.809762
v -0.445601 0.599406 0.809762
v -0.445601 0.599406 -0.809762
v -0.807991 0.599406 0.440672
v 0.811533 0.599406 0.440672
v -0.807991 0.599406 0.929894
v 0.811533 0.599406 0.929894
v -0.998229 0.602161 0.375495
v -0.998229 0.494514 0.375495
v 1.001771 0.602161 0.375495
v 1.001771 0.494514 0.375495
v -0.998229 0.869179 0.995071
v -0.998229 0.494514 0.995071
v 1.001771 0.869179 0.995071
v 1.001771 0.494514 0.995071
v -1.000000 0.494514 -0.333333
v -1.000000 0.494514 0.333333
v -0.586949 0.494514 -1.000000
v -0.793475 0.494514 -1.000000
v -0.380424 0.494514 0.333333
v -0.380424 0.494514 -0.333333
v -0.793475 0.494514 1.000000
v -0.586949 0.494514 1.000000
v -0.793475 0.494514 -0.333333
v -0.793475 0.494514 0.333333
v -0.586949 0.494514 -0.333333
v -0.586949 0.494514 0.333333
v -0.793475 0.023824 -0.333333
v -0.793475 0.023824 0.333333
v -0.586949 0.023824 -0.333333
v -0.586949 0.023824 0.333333
v -0.331562 0.494514 0.995071
v 0.335104 0.494514 0.995071
v -0.998229 0.494514 0.582020
v -0.998229 0.494514 0.788546
v 0.335104 0.494514 0.375495
v -0.331562 0.494514 0.375495
v 1.001771 0.494514 0.788546
v 1.001771 0.494514 0.582020
v -0.331562 0.494514 0.788546
v 0.335104 0.494514 0.788546
v -0.331562 0.494514 0.582020
v 0.335104 0.494514 0.582020
v -0.331562 0.023824 0.788546
v 0.335104 0.023824 0.788546
v -0.331562 0.023824 0.582020
v 0.335104 0.023824 0.582020
vt 0.188398 0.776320
vt 0.188398 0.794342
vt 0.079715 0.812365
vt 0.152352 0.812912
vt 0.170375 0.812912
vt 0.188398 0.866980
vt 0.025099 0.830752
vt 0.025099 0.794525
vt 0.079168 0.758297
vt 0.115760 0.866980
vt 0.097737 0.866980
vt 0.133783 0.812912
vt 0.134330 0.703682
vt 0.188398 0.757750
vt 0.188398 0.703682
vt 0.133783 0.703682
vt 0.025099 0.757750
vt 0.133783 0.757750
vt 0.116000 0.783112
vt 0.247632 0.922764
vt 0.116001 0.922764
vt 0.116000 0.783112
vt 0.247632 0.922764
vt 0.116001 0.922764
vt 0.133783 0.703682
vt 0.025099 0.757750
vt 0.133783 0.757750
vt 0.134330 0.703682
vt 0.188398 0.757750
vt 0.188398 0.703682
vt 0.115760 0.866980
vt 0.097737 0.866980
vt 0.133783 0.812912
vt 0.025099 0.830752
vt 0.025099 0.794525
vt 0.079168 0.758297
vt 0.152352 0.812912
vt 0.170375 0.812912
vt 0.188398 0.866980
vt 0.188398 0.776320
vt 0.188398 0.794342
vt 0.079715 0.812365
vt 0.025099 0.867527
vt 0.079168 0.921595
vt 0.079168 0.867527
vt 0.188945 0.703682
vt 0.243013 0.757750
vt 0.243013 0.703682
vt 0.188945 0.758297
vt 0.243013 0.812365
vt 0.243013 0.758297
vt 0.079714 0.867527
vt 0.133783 0.921595
vt 0.133783 0.867527
vt 0.134330 0.867527
vt 0.188398 0.921595
vt 0.188398 0.867527
vt 0.188945 0.812912
vt 0.243013 0.866980
vt 0.243013 0.812912
vt 0.188945 0.867527
vt 0.243013 0.921595
vt 0.243013 0.867527
vt 0.243560 0.703682
vt 0.297628 0.757750
vt 0.297628 0.703682
vt 0.156227 0.728846
vt 0.099933 0.919152
vt 0.099933 0.728846
vt 0.025099 0.922142
vt 0.079168 0.976211
vt 0.079168 0.922142
vt 0.243560 0.758297
vt 0.297628 0.812365
vt 0.297628 0.758297
vt 0.079714 0.922142
vt 0.133783 0.976211
vt 0.133783 0.922142
vt 0.025099 0.867527
vt 0.079168 0.921595
vt 0.079168 0.867527
vt 0.188945 0.703682
vt 0.243013 0.757750
vt 0.243013 0.703682
vt 0.188945 0.758297
vt 0.243013 0.812365
vt 0.243013 0.758297
vt 0.079714 0.867527
vt 0.133783 0.921595
vt 0.133783 0.867527
vt 0.134330 0.867527
vt 0.188398 0.921595
vt 0.188398 0.867527
vt 0.188945 0.812912
vt 0.243013 0.866980
vt 0.243013 0.812912
vt 0.188945 0.867527
vt 0.243013 0.921595
vt 0.243013 0.867527
vt 0.243560 0.703682
vt 0.297628 0.757750
vt 0.297628 0.703682
vt 0.156227 0.728846
vt 0.099933 0.919152
vt 0.099933 0.728846
vt 0.025099 0.922142
vt 0.079168 0.976211
vt 0.079168 0.922142
vt 0.243560 0.758297
vt 0.297628 0.812365
vt 0.297628 0.758297
vt 0.079714 0.922142
vt 0.133783 0.976211
vt 0.133783 0.922142
vt 0.188398 0.812365
vt 0.079714 0.758297
vt 0.188398 0.758297
vt 0.188398 0.812912
vt 0.134330 0.828447
vt 0.134330 0.812912
vt 0.025099 0.758297
vt 0.079168 0.866980
vt 0.025099 0.866980
vt 0.079714 0.866980
vt 0.079714 0.851446
vt 0.133783 0.866980
vt 0.134330 0.757750
vt 0.025099 0.703682
vt 0.247632 0.783112
vt 0.247632 0.783112
vt 0.025099 0.703682
vt 0.134330 0.757750
vt 0.079714 0.866980
vt 0.079714 0.851446
vt 0.133783 0.866980
vt 0.025099 0.758297
vt 0.079168 0.866980
vt 0.025099 0.866980
vt 0.188398 0.812912
vt 0.134330 0.828447
vt 0.134330 0.812912
vt 0.188398 0.812365
vt 0.079714 0.758297
vt 0.188398 0.758297
vt 0.025099 0.921595
vt 0.188945 0.757750
vt 0.188945 0.812365
vt 0.079714 0.921595
vt 0.134330 0.921595
vt 0.188945 0.866980
vt 0.188945 0.921595
vt 0.243560 0.757750
vt 0.156227 0.919152
vt 0.025099 0.976211
vt 0.243560 0.812365
vt 0.079714 0.976211
vt 0.025099 0.921595
vt 0.188945 0.757750
vt 0.188945 0.812365
vt 0.079714 0.921595
vt 0.134330 0.921595
vt 0.188945 0.866980
vt 0.188945 0.921595
vt 0.243560 0.757750
vt 0.156227 0.919152
vt 0.025099 0.976211
vt 0.243560 0.812365
vt 0.079714 0.976211
vn -1.0000 0.0000 0.0000
vn 0.0000 0.0000 -1.0000
vn 1.0000 -0.0000 0.0000
vn 0.0000 0.0000 1.0000
vn 0.0000 -1.0000 0.0000
vn 0.3958 0.9183 0.0000
vn 0.0000 0.9183 -0.3958
usemtl None
s off
f 25/1/1 26/2/1 2/3/1
f 27/4/2 28/5/2 4/6/2
f 29/7/3 30/8/3 8/9/3
f 31/10/4 32/11/4 2/12/4
f 29/13/5 32/14/5 36/15/5
f 4/16/6 6/17/6 8/18/6
f 12/19/5 9/20/5 10/21/5
f 13/22/5 16/23/5 15/24/5
f 21/25/7 19/26/7 17/27/7
f 45/28/5 48/29/5 52/30/5
f 47/31/3 48/32/3 23/33/3
f 45/34/2 46/35/2 17/36/2
f 43/37/1 44/38/1 21/39/1
f 41/40/4 42/41/4 23/42/4
f 34/43/5 1/44/5 26/45/5
f 36/46/5 31/47/5 34/48/5
f 28/49/5 25/50/5 3/51/5
f 33/52/5 26/53/5 25/54/5
f 27/55/5 33/56/5 28/57/5
f 35/58/2 37/59/2 33/60/2
f 7/61/5 35/62/5 27/63/5
f 30/64/5 36/65/5 35/66/5
f 39/67/5 38/68/5 37/69/5
f 33/70/1 38/71/1 34/72/1
f 34/73/4 40/74/4 36/75/4
f 36/76/3 39/77/3 35/78/3
f 50/79/5 24/80/5 42/81/5
f 52/82/5 47/83/5 50/84/5
f 44/85/5 41/86/5 22/87/5
f 49/88/5 42/89/5 41/90/5
f 43/91/5 49/92/5 44/93/5
f 51/94/1 53/95/1 49/96/1
f 18/97/5 51/98/5 43/99/5
f 46/100/5 52/101/5 51/102/5
f 55/103/5 54/104/5 53/105/5
f 49/106/4 54/107/4 50/108/4
f 50/109/3 56/110/3 52/111/3
f 52/112/2 55/113/2 51/114/2
f 26/2/1 1/115/1 2/3/1
f 2/3/1 4/116/1 25/1/1
f 4/116/1 3/117/1 25/1/1
f 28/5/2 3/118/2 4/6/2
f 4/6/2 8/119/2 27/4/2
f 8/119/2 7/120/2 27/4/2
f 30/8/3 7/121/3 8/9/3
f 8/9/3 6/122/3 29/7/3
f 6/122/3 5/123/3 29/7/3
f 32/11/4 5/124/4 6/125/4
f 6/125/4 2/12/4 32/11/4
f 2/12/4 1/126/4 31/10/4
f 29/13/5 5/127/5 32/14/5
f 4/16/6 2/128/6 6/17/6
f 12/19/5 11/129/5 9/20/5
f 13/22/5 14/130/5 16/23/5
f 21/25/7 23/131/7 19/26/7
f 45/28/5 20/132/5 48/29/5
f 48/32/3 20/133/3 19/134/3
f 19/134/3 23/33/3 48/32/3
f 23/33/3 24/135/3 47/31/3
f 46/35/2 18/136/2 17/36/2
f 17/36/2 19/137/2 45/34/2
f 19/137/2 20/138/2 45/34/2
f 44/38/1 22/139/1 21/39/1
f 21/39/1 17/140/1 43/37/1
f 17/140/1 18/141/1 43/37/1
f 42/41/4 24/142/4 23/42/4
f 23/42/4 21/143/4 41/40/4
f 21/143/4 22/144/4 41/40/4
f 34/43/5 31/145/5 1/44/5
f 36/46/5 32/146/5 31/47/5
f 28/49/5 33/147/5 25/50/5
f 33/52/5 34/148/5 26/53/5
f 27/55/5 35/149/5 33/56/5
f 35/58/2 39/150/2 37/59/2
f 7/61/5 30/151/5 35/62/5
f 30/64/5 29/152/5 36/65/5
f 39/67/5 40/153/5 38/68/5
f 33/70/1 37/154/1 38/71/1
f 34/73/4 38/155/4 40/74/4
f 36/76/3 40/156/3 39/77/3
f 50/79/5 47/157/5 24/80/5
f 52/82/5 48/158/5 47/83/5
f 44/85/5 49/159/5 41/86/5
f 49/88/5 50/160/5 42/89/5
f 43/91/5 51/161/5 49/92/5
f 51/94/1 55/162/1 53/95/1
f 18/97/5 46/163/5 51/98/5
f 46/100/5 45/164/5 52/101/5
f 55/103/5 56/165/5 54/104/5
f 49/106/4 53/166/4 54/107/4
f 50/109/3 54/167/3 56/110/3
f 52/112/2 56/168/2 55/113/2
