# 3ds Max Wavefront OBJ Exporter v0.97b - (c)2007 guruware
# File Created: 23.04.2016 16:18:17

#
# object Box001
#

v  -1.4090 0.0000 0.3810
v  -1.4090 0.0000 -0.3067
v  0.1020 0.0000 -0.3067
v  0.1020 0.0000 0.3810
v  -1.4090 0.2500 0.3810
v  0.1020 0.2500 0.3810
v  0.1020 0.2500 -0.3067
v  -1.4090 0.2500 -0.3067
v  0.0940 0.0000 0.8493
v  0.0940 0.0000 -0.7554
v  1.2402 0.0000 0.0469
v  0.0940 0.2500 0.8493
v  1.2402 0.2500 0.0469
v  0.0940 0.2500 -0.7554
# 14 vertices

vt 0.0000 0.0000 0.0000
vt 1.0000 0.0000 0.0000
vt 0.0000 1.0000 0.0000
vt 1.0000 1.0000 0.0000
vt 0.0000 0.0000 0.0000
vt 1.0000 0.0000 0.0000
vt 0.0000 1.0000 0.0000
vt 1.0000 1.0000 0.0000
vt 0.0000 0.0000 0.0000
vt 1.0000 0.0000 0.0000
vt 0.0000 1.0000 0.0000
vt 1.0000 1.0000 0.0000
vt 1.0000 0.0000 0.0000
vt 1.0000 1.0000 0.0000
vt 0.0000 0.5000 0.0000
vt 0.0000 0.0000 0.0000
vt 1.0000 0.5000 0.0000
vt 0.0000 1.0000 0.0000
vt 0.0000 0.0000 0.0000
vt 1.0000 0.0000 0.0000
vt 0.0000 1.0000 0.0000
vt 1.0000 1.0000 0.0000
vt 0.0000 0.0000 0.0000
vt 1.0000 0.0000 0.0000
vt 0.0000 1.0000 0.0000
vt 1.0000 1.0000 0.0000
vt 0.0000 0.0000 0.0000
vt 1.0000 0.0000 0.0000
vt 0.0000 1.0000 0.0000
vt 1.0000 1.0000 0.0000
# 30 texture coords

g Box001
f 1/10 2/12 3/11 4/9 
f 5/9 6/10 7/12 8/11 
f 1/5 4/6 6/8 5/7 
f 4/1 3/2 7/4 6/3 
f 3/5 2/6 8/8 7/7 
f 2/1 1/2 5/4 8/3 
f 9/13 10/14 11/15 
f 12/16 13/17 14/18 
f 9/19 11/20 13/22 12/21 
f 11/23 10/24 14/26 13/25 
f 10/27 9/28 12/30 14/29 
# 9 polygons - 2 triangles

