# 3ds Max Wavefront OBJ Exporter v0.97b - (c)2007 guruware
# File Created: 12.06.2015 11:54:59

mtllib Room Dreadnought Corridor.mtl

#
# object Box001
#

v  -5.9969 0.0000 1.5000
v  -5.9969 0.0000 -1.5000
v  4.5031 0.0000 -1.5000
v  4.5031 0.0000 1.5000
v  -5.9969 0.2500 1.5000
v  4.5031 0.2500 1.5000
v  4.5031 0.2500 -1.5000
v  -5.9969 0.2500 -1.5000
# 8 vertices

vn 0.0000 -1.0000 -0.0000
vn 0.0000 1.0000 -0.0000
vn 0.0000 0.0000 1.0000
vn 1.0000 0.0000 -0.0000
vn 0.0000 0.0000 -1.0000
vn -1.0000 0.0000 -0.0000
# 6 vertex normals

vt 0.9960 0.7287 0.0000
vt 0.9960 0.7350 0.0000
vt 0.9897 0.7350 0.0000
vt 0.9897 0.7287 0.0000
vt 0.0020 0.0023 0.0000
vt 0.9831 0.0023 0.0000
vt 0.9831 1.0023 0.0000
vt 0.0020 1.0023 0.0000
vt 0.0000 0.0000 0.0000
vt 0.9811 0.0000 0.0000
vt 0.9811 1.0000 0.0000
vt 0.0000 1.0000 0.0000
# 12 texture coords

g Box001
usemtl Material__25
s 2
f 1/1/1 2/2/1 3/3/1 4/4/1 
s 4
f 5/5/2 6/6/2 7/7/2 8/8/2 
s 8
f 1/4/3 4/1/3 6/2/3 5/3/3 
s 16
f 4/4/4 3/1/4 7/2/4 6/3/4 
s 32
f 3/4/5 2/1/5 8/2/5 7/3/5 
s 64
f 2/9/6 1/10/6 5/11/6 8/12/6 
# 6 polygons

