# 3ds Max Wavefront OBJ Exporter v0.97b - (c)2007 guruware
# File Created: 17.06.2015 22:26:26

#
# object Cylinder001
#

v  0.0062 0.0000 0.0047
v  1.8447 0.0000 -0.9594
v  2.2614 0.0000 -0.5083
v  2.4062 0.0000 0.0047
v  0.4229 0.0000 -1.4725
v  1.2062 0.0000 -1.2943
v  -1.1938 0.0000 -1.2943
v  -0.4106 0.0000 -1.4725
v  -2.2491 0.0000 -0.5083
v  -1.8323 0.0000 -0.9594
v  -2.2491 0.0000 0.5178
v  -2.3938 0.0000 0.0047
v  -1.1938 0.0000 1.3038
v  -1.8323 0.0000 0.9689
v  0.4229 0.0000 1.4820
v  -0.4106 0.0000 1.4820
v  1.8447 0.0000 0.9689
v  1.2062 0.0000 1.3038
v  2.2614 0.0000 0.5178
v  2.2614 0.0410 -0.5083
v  2.4062 0.0410 0.0047
v  1.8447 0.0410 -0.9594
v  1.2062 0.0410 -1.2943
v  0.4229 0.0410 -1.4725
v  -0.4106 0.0410 -1.4725
v  -1.1938 0.0410 -1.2943
v  -1.8323 0.0410 -0.9594
v  -2.2491 0.0410 -0.5083
v  -2.3938 0.0410 0.0047
v  -2.2491 0.0410 0.5178
v  -1.8323 0.0410 0.9689
v  -1.1938 0.0410 1.3038
v  -0.4106 0.0410 1.4820
v  0.4229 0.0410 1.4820
v  1.2062 0.0410 1.3038
v  1.8447 0.0410 0.9689
v  2.2614 0.0410 0.5178
v  2.2614 0.0819 -0.5083
v  2.4062 0.0819 0.0047
v  1.8447 0.0819 -0.9594
v  1.2062 0.0819 -1.2943
v  0.4229 0.0819 -1.4725
v  -0.4106 0.0819 -1.4725
v  -1.1938 0.0819 -1.2943
v  -1.8323 0.0819 -0.9594
v  -2.2491 0.0819 -0.5083
v  -2.3938 0.0819 0.0047
v  -2.2491 0.0819 0.5178
v  -1.8323 0.0819 0.9689
v  -1.1938 0.0819 1.3038
v  -0.4106 0.0819 1.4820
v  0.4229 0.0819 1.4820
v  1.2062 0.0819 1.3038
v  1.8447 0.0819 0.9689
v  2.2614 0.0819 0.5178
v  2.2614 0.1229 -0.5083
v  2.4062 0.1229 0.0047
v  1.8447 0.1229 -0.9594
v  1.2062 0.1229 -1.2943
v  0.4229 0.1229 -1.4725
v  -0.4106 0.1229 -1.4725
v  -1.1938 0.1229 -1.2943
v  -1.8323 0.1229 -0.9594
v  -2.2491 0.1229 -0.5083
v  -2.3938 0.1229 0.0047
v  -2.2491 0.1229 0.5178
v  -1.8323 0.1229 0.9689
v  -1.1938 0.1229 1.3038
v  -0.4106 0.1229 1.4820
v  0.4229 0.1229 1.4820
v  1.2062 0.1229 1.3038
v  1.8447 0.1229 0.9689
v  2.2614 0.1229 0.5178
v  2.2614 0.1639 -0.5083
v  2.4062 0.1639 0.0047
v  1.8447 0.1639 -0.9594
v  1.2062 0.1639 -1.2943
v  0.4229 0.1639 -1.4725
v  -0.4106 0.1639 -1.4725
v  -1.1938 0.1639 -1.2943
v  -1.8323 0.1639 -0.9594
v  -2.2491 0.1639 -0.5083
v  -2.3938 0.1639 0.0047
v  -2.2491 0.1639 0.5178
v  -1.8323 0.1639 0.9689
v  -1.1938 0.1639 1.3038
v  -0.4106 0.1639 1.4820
v  0.4229 0.1639 1.4820
v  1.2062 0.1639 1.3038
v  1.8447 0.1639 0.9689
v  2.2614 0.1639 0.5178
v  2.2614 0.2048 -0.5083
v  2.4062 0.2048 0.0047
v  1.8447 0.2048 -0.9594
v  1.2062 0.2048 -1.2943
v  0.4229 0.2048 -1.4725
v  -0.4106 0.2048 -1.4725
v  -1.1938 0.2048 -1.2943
v  -1.8323 0.2048 -0.9594
v  -2.2491 0.2048 -0.5083
v  -2.3938 0.2048 0.0047
v  -2.2491 0.2048 0.5178
v  -1.8323 0.2048 0.9689
v  -1.1938 0.2048 1.3038
v  -0.4106 0.2048 1.4820
v  0.4229 0.2048 1.4820
v  1.2062 0.2048 1.3038
v  1.8447 0.2048 0.9689
v  2.2614 0.2048 0.5178
v  0.0062 0.2048 0.0047
# 110 vertices

vn 0.0000 -1.0000 -0.0000
vn 1.0000 0.0000 0.0000
vn 0.9397 0.0000 -0.3420
vn 0.7660 0.0000 -0.6428
vn 0.5000 0.0000 -0.8660
vn 0.1736 0.0000 -0.9848
vn -0.1736 0.0000 -0.9848
vn -0.5000 0.0000 -0.8660
vn -0.7660 0.0000 -0.6428
vn -0.9397 0.0000 -0.3420
vn -1.0000 0.0000 -0.0000
vn -0.9397 0.0000 0.3420
vn -0.7660 0.0000 0.6428
vn -0.5000 0.0000 0.8660
vn -0.1736 0.0000 0.9848
vn 0.1736 0.0000 0.9848
vn 0.5000 0.0000 0.8660
vn 0.7660 0.0000 0.6428
vn 0.9397 0.0000 0.3420
vn 0.0000 1.0000 -0.0000
# 20 vertex normals

vt 0.7433 0.5223 0.0000
vt 0.5531 0.8335 0.0000
vt 0.5125 0.6828 0.0000
vt 0.4999 0.5223 0.0000
vt 0.6898 0.9929 0.0000
vt 0.6195 0.9371 0.0000
vt 0.8687 0.9353 0.0000
vt 0.7965 0.9930 0.0000
vt 0.9720 0.6828 0.0000
vt 0.9318 0.8303 0.0000
vt 0.9720 0.3619 0.0000
vt 0.9867 0.5223 0.0000
vt 0.8653 0.1206 0.0000
vt 0.9314 0.2197 0.0000
vt 0.6894 0.0571 0.0000
vt 0.7862 0.0626 0.0000
vt 0.5528 0.2156 0.0000
vt 0.6192 0.1129 0.0000
vt 0.5146 0.3619 0.0000
vt 0.5140 0.0563 0.0000
vt 0.5035 0.0563 0.0000
vt 0.5035 0.0696 0.0000
vt 0.5140 0.0696 0.0000
vt 0.4919 0.0563 0.0000
vt 0.4919 0.0696 0.0000
vt 0.4806 0.0563 0.0000
vt 0.4806 0.0696 0.0000
vt 0.4710 0.0563 0.0000
vt 0.4710 0.0696 0.0000
vt 0.4643 0.0563 0.0000
vt 0.4643 0.0696 0.0000
vt 0.4611 0.0563 0.0000
vt 0.4611 0.0696 0.0000
vt 0.4620 0.0563 0.0000
vt 0.4620 0.0696 0.0000
vt 0.4668 0.0563 0.0000
vt 0.4668 0.0696 0.0000
vt 0.4749 0.0563 0.0000
vt 0.4749 0.0696 0.0000
vt 0.4854 0.0563 0.0000
vt 0.4854 0.0696 0.0000
vt 0.4970 0.0563 0.0000
vt 0.4970 0.0696 0.0000
vt 0.5083 0.0563 0.0000
vt 0.5083 0.0696 0.0000
vt 0.5179 0.0563 0.0000
vt 0.5179 0.0696 0.0000
vt 0.5247 0.0563 0.0000
vt 0.5247 0.0696 0.0000
vt 0.5278 0.0563 0.0000
vt 0.5278 0.0696 0.0000
vt 0.5270 0.0563 0.0000
vt 0.5270 0.0696 0.0000
vt 0.5222 0.0563 0.0000
vt 0.5222 0.0696 0.0000
vt 0.5035 0.0830 0.0000
vt 0.5140 0.0830 0.0000
vt 0.4919 0.0830 0.0000
vt 0.4806 0.0830 0.0000
vt 0.4710 0.0830 0.0000
vt 0.4643 0.0830 0.0000
vt 0.4611 0.0830 0.0000
vt 0.4620 0.0830 0.0000
vt 0.4668 0.0830 0.0000
vt 0.4749 0.0830 0.0000
vt 0.4854 0.0830 0.0000
vt 0.4970 0.0830 0.0000
vt 0.5083 0.0830 0.0000
vt 0.5179 0.0830 0.0000
vt 0.5247 0.0830 0.0000
vt 0.5278 0.0830 0.0000
vt 0.5270 0.0830 0.0000
vt 0.5222 0.0830 0.0000
vt 0.5035 0.0963 0.0000
vt 0.5140 0.0963 0.0000
vt 0.4919 0.0963 0.0000
vt 0.4806 0.0963 0.0000
vt 0.4710 0.0963 0.0000
vt 0.4643 0.0963 0.0000
vt 0.4611 0.0963 0.0000
vt 0.4620 0.0963 0.0000
vt 0.4668 0.0963 0.0000
vt 0.4749 0.0963 0.0000
vt 0.4854 0.0963 0.0000
vt 0.4970 0.0963 0.0000
vt 0.5083 0.0963 0.0000
vt 0.5179 0.0963 0.0000
vt 0.5247 0.0963 0.0000
vt 0.5278 0.0963 0.0000
vt 0.5270 0.0963 0.0000
vt 0.5222 0.0963 0.0000
vt 0.5035 0.1097 0.0000
vt 0.5140 0.1097 0.0000
vt 0.4919 0.1097 0.0000
vt 0.4806 0.1097 0.0000
vt 0.4710 0.1097 0.0000
vt 0.4643 0.1097 0.0000
vt 0.4611 0.1097 0.0000
vt 0.4620 0.1097 0.0000
vt 0.4668 0.1097 0.0000
vt 0.4749 0.1097 0.0000
vt 0.4854 0.1097 0.0000
vt 0.4970 0.1097 0.0000
vt 0.5083 0.1097 0.0000
vt 0.5179 0.1097 0.0000
vt 0.5247 0.1097 0.0000
vt 0.5278 0.1097 0.0000
vt 0.5270 0.1097 0.0000
vt 0.5222 0.1097 0.0000
vt 0.5035 0.1230 0.0000
vt 0.5140 0.1230 0.0000
vt 0.4919 0.1230 0.0000
vt 0.4806 0.1230 0.0000
vt 0.4710 0.1230 0.0000
vt 0.4643 0.1230 0.0000
vt 0.4611 0.1230 0.0000
vt 0.4620 0.1230 0.0000
vt 0.4668 0.1230 0.0000
vt 0.4749 0.1230 0.0000
vt 0.4854 0.1230 0.0000
vt 0.4970 0.1230 0.0000
vt 0.5083 0.1230 0.0000
vt 0.5179 0.1230 0.0000
vt 0.5247 0.1230 0.0000
vt 0.5278 0.1230 0.0000
vt 0.5270 0.1230 0.0000
vt 0.5222 0.1230 0.0000
vt 0.7433 0.5276 1.0000
vt 0.5146 0.6881 1.0000
vt 0.4999 0.5276 1.0000
vt 0.5125 0.3672 1.0000
vt 0.5531 0.2165 1.0000
vt 0.6195 0.1128 1.0000
vt 0.6990 0.0571 1.0000
vt 0.7856 0.0656 1.0000
vt 0.8650 0.1213 1.0000
vt 0.9318 0.2197 1.0000
vt 0.9720 0.3672 1.0000
vt 0.9867 0.5276 1.0000
vt 0.9720 0.6881 1.0000
vt 0.9314 0.8303 1.0000
vt 0.8671 0.9361 1.0000
vt 0.7968 0.9929 1.0000
vt 0.6894 0.9929 1.0000
vt 0.6216 0.9340 1.0000
vt 0.5568 0.8292 1.0000
# 146 texture coords

g Cylinder001
s 1
f 1/1/1 2/2/1 3/3/1 4/4/1 
f 1/1/1 5/5/1 6/6/1 2/2/1 
f 1/1/1 7/7/1 8/8/1 5/5/1 
f 1/1/1 9/9/1 10/10/1 7/7/1 
f 1/1/1 11/11/1 12/12/1 9/9/1 
f 1/1/1 13/13/1 14/14/1 11/11/1 
f 1/1/1 15/15/1 16/16/1 13/13/1 
f 1/1/1 17/17/1 18/18/1 15/15/1 
f 1/1/1 4/4/1 19/19/1 17/17/1 
s 8
f 4/20/2 3/21/3 20/22/3 21/23/2 
f 3/21/3 2/24/4 22/25/4 20/22/3 
f 2/24/4 6/26/5 23/27/5 22/25/4 
f 6/26/5 5/28/6 24/29/6 23/27/5 
f 5/28/6 8/30/7 25/31/7 24/29/6 
f 8/30/7 7/32/8 26/33/8 25/31/7 
f 7/32/8 10/34/9 27/35/9 26/33/8 
f 10/34/9 9/36/10 28/37/10 27/35/9 
f 9/36/10 12/38/11 29/39/11 28/37/10 
f 12/38/11 11/40/12 30/41/12 29/39/11 
f 11/40/12 14/42/13 31/43/13 30/41/12 
f 14/42/13 13/44/14 32/45/14 31/43/13 
f 13/44/14 16/46/15 33/47/15 32/45/14 
f 16/46/15 15/48/16 34/49/16 33/47/15 
f 15/48/16 18/50/17 35/51/17 34/49/16 
f 18/50/17 17/52/18 36/53/18 35/51/17 
f 17/52/18 19/54/19 37/55/19 36/53/18 
f 19/54/19 4/20/2 21/23/2 37/55/19 
f 21/23/2 20/22/3 38/56/3 39/57/2 
f 20/22/3 22/25/4 40/58/4 38/56/3 
f 22/25/4 23/27/5 41/59/5 40/58/4 
f 23/27/5 24/29/6 42/60/6 41/59/5 
f 24/29/6 25/31/7 43/61/7 42/60/6 
f 25/31/7 26/33/8 44/62/8 43/61/7 
f 26/33/8 27/35/9 45/63/9 44/62/8 
f 27/35/9 28/37/10 46/64/10 45/63/9 
f 28/37/10 29/39/11 47/65/11 46/64/10 
f 29/39/11 30/41/12 48/66/12 47/65/11 
f 30/41/12 31/43/13 49/67/13 48/66/12 
f 31/43/13 32/45/14 50/68/14 49/67/13 
f 32/45/14 33/47/15 51/69/15 50/68/14 
f 33/47/15 34/49/16 52/70/16 51/69/15 
f 34/49/16 35/51/17 53/71/17 52/70/16 
f 35/51/17 36/53/18 54/72/18 53/71/17 
f 36/53/18 37/55/19 55/73/19 54/72/18 
f 37/55/19 21/23/2 39/57/2 55/73/19 
f 39/57/2 38/56/3 56/74/3 57/75/2 
f 38/56/3 40/58/4 58/76/4 56/74/3 
f 40/58/4 41/59/5 59/77/5 58/76/4 
f 41/59/5 42/60/6 60/78/6 59/77/5 
f 42/60/6 43/61/7 61/79/7 60/78/6 
f 43/61/7 44/62/8 62/80/8 61/79/7 
f 44/62/8 45/63/9 63/81/9 62/80/8 
f 45/63/9 46/64/10 64/82/10 63/81/9 
f 46/64/10 47/65/11 65/83/11 64/82/10 
f 47/65/11 48/66/12 66/84/12 65/83/11 
f 48/66/12 49/67/13 67/85/13 66/84/12 
f 49/67/13 50/68/14 68/86/14 67/85/13 
f 50/68/14 51/69/15 69/87/15 68/86/14 
f 51/69/15 52/70/16 70/88/16 69/87/15 
f 52/70/16 53/71/17 71/89/17 70/88/16 
f 53/71/17 54/72/18 72/90/18 71/89/17 
f 54/72/18 55/73/19 73/91/19 72/90/18 
f 55/73/19 39/57/2 57/75/2 73/91/19 
f 57/75/2 56/74/3 74/92/3 75/93/2 
f 56/74/3 58/76/4 76/94/4 74/92/3 
f 58/76/4 59/77/5 77/95/5 76/94/4 
f 59/77/5 60/78/6 78/96/6 77/95/5 
f 60/78/6 61/79/7 79/97/7 78/96/6 
f 61/79/7 62/80/8 80/98/8 79/97/7 
f 62/80/8 63/81/9 81/99/9 80/98/8 
f 63/81/9 64/82/10 82/100/10 81/99/9 
f 64/82/10 65/83/11 83/101/11 82/100/10 
f 65/83/11 66/84/12 84/102/12 83/101/11 
f 66/84/12 67/85/13 85/103/13 84/102/12 
f 67/85/13 68/86/14 86/104/14 85/103/13 
f 68/86/14 69/87/15 87/105/15 86/104/14 
f 69/87/15 70/88/16 88/106/16 87/105/15 
f 70/88/16 71/89/17 89/107/17 88/106/16 
f 71/89/17 72/90/18 90/108/18 89/107/17 
f 72/90/18 73/91/19 91/109/19 90/108/18 
f 73/91/19 57/75/2 75/93/2 91/109/19 
f 75/93/2 74/92/3 92/110/3 93/111/2 
f 74/92/3 76/94/4 94/112/4 92/110/3 
f 76/94/4 77/95/5 95/113/5 94/112/4 
f 77/95/5 78/96/6 96/114/6 95/113/5 
f 78/96/6 79/97/7 97/115/7 96/114/6 
f 79/97/7 80/98/8 98/116/8 97/115/7 
f 80/98/8 81/99/9 99/117/9 98/116/8 
f 81/99/9 82/100/10 100/118/10 99/117/9 
f 82/100/10 83/101/11 101/119/11 100/118/10 
f 83/101/11 84/102/12 102/120/12 101/119/11 
f 84/102/12 85/103/13 103/121/13 102/120/12 
f 85/103/13 86/104/14 104/122/14 103/121/13 
f 86/104/14 87/105/15 105/123/15 104/122/14 
f 87/105/15 88/106/16 106/124/16 105/123/15 
f 88/106/16 89/107/17 107/125/17 106/124/16 
f 89/107/17 90/108/18 108/126/18 107/125/17 
f 90/108/18 91/109/19 109/127/19 108/126/18 
f 91/109/19 75/93/2 93/111/2 109/127/19 
s 1
f 110/128/20 109/129/20 93/130/20 92/131/20 
f 110/128/20 92/131/20 94/132/20 95/133/20 
f 110/128/20 95/133/20 96/134/20 97/135/20 
f 110/128/20 97/135/20 98/136/20 99/137/20 
f 110/128/20 99/137/20 100/138/20 101/139/20 
f 110/128/20 101/139/20 102/140/20 103/141/20 
f 110/128/20 103/141/20 104/142/20 105/143/20 
f 110/128/20 105/143/20 106/144/20 107/145/20 
f 110/128/20 107/145/20 108/146/20 109/129/20 
# 108 polygons

