# Blender v2.78 (sub 0) OBJ File: ''
# www.blender.org
mtllib Box KV.mtl
o Cube.001
v 1.016720 0.002728 -1.490271
v 1.016720 0.002728 1.480132
v -0.954342 0.002728 1.480131
v -0.954341 0.002728 -1.490271
v 1.016721 0.638508 -1.490270
v -0.954342 0.638508 -1.490271
v -0.954342 0.638508 1.480131
v 1.016720 0.638508 1.480132
vt 0.5168 0.9839
vt 0.5161 0.3747
vt 0.9996 0.3752
vt 0.9994 0.9857
vt 0.4982 0.9845
vt 0.0129 0.9846
vt 0.0110 0.3752
vt 0.4979 0.3771
vt 0.8895 0.0189
vt 0.8838 0.1719
vt 0.0168 0.1727
vt 0.0179 0.0184
vt 0.4951 0.1990
vt 0.4958 0.3543
vt 0.0135 0.3544
vt 0.0138 0.1981
vt 0.8878 0.0172
vt 0.8881 0.1753
vt 0.0149 0.1753
vt 0.0146 0.0167
vt 0.0133 0.3522
vt 0.0134 0.1966
vt 0.4948 0.1966
vt 0.4971 0.3522
vn 0.0000 -1.0000 -0.0000
vn -0.0000 1.0000 0.0000
vn 1.0000 -0.0000 0.0000
vn -0.0000 0.0000 1.0000
vn -1.0000 -0.0000 -0.0000
vn 0.0000 0.0000 -1.0000
usemtl Material.001
s 1
f 1/1/1 2/2/1 3/3/1 4/4/1
f 5/5/2 6/6/2 7/7/2 8/8/2
f 1/9/3 5/10/3 8/11/3 2/12/3
f 2/13/4 8/14/4 7/15/4 3/16/4
f 3/17/5 7/18/5 6/19/5 4/20/5
f 5/21/6 1/22/6 4/23/6 6/24/6
