# 3ds Max Wavefront OBJ Exporter v0.97b - (c)2007 guruware
# File Created: 12.06.2015 11:58:34

mtllib Room Dreadnought.mtl

#
# object Box002
#

v  -6.0000 0.0000 4.5000
v  -6.0000 0.0000 -4.5000
v  6.0000 0.0000 -4.5000
v  6.0000 0.0000 4.5000
v  -6.0000 0.2500 4.5000
v  6.0000 0.2500 4.5000
v  6.0000 0.2500 -4.5000
v  -6.0000 0.2500 -4.5000
# 8 vertices

vn 0.0000 -1.0000 -0.0000
vn 0.0000 1.0000 -0.0000
vn 0.0000 0.0000 1.0000
vn 1.0000 0.0000 -0.0000
vn 0.0000 0.0000 -1.0000
vn -1.0000 0.0000 -0.0000
# 6 vertex normals

vt 0.6827 0.4589 0.0000
vt 0.6827 0.4633 0.0000
vt 0.6783 0.4633 0.0000
vt 0.6783 0.4589 0.0000
vt 0.0000 0.0000 0.0000
vt 1.0000 0.0000 0.0000
vt 1.0000 1.0000 0.0000
vt 0.0000 1.0000 0.0000
# 8 texture coords

g Box002
usemtl Material__25
s 2
f 1/1/1 2/2/1 3/3/1 4/4/1 
s 4
f 5/5/2 6/6/2 7/7/2 8/8/2 
s 8
f 1/4/3 4/1/3 6/2/3 5/3/3 
s 16
f 4/4/4 3/1/4 7/2/4 6/3/4 
s 32
f 3/4/5 2/1/5 8/2/5 7/3/5 
s 64
f 2/4/6 1/1/6 5/2/6 8/3/6 
# 6 polygons

