# 3ds Max Wavefront OBJ Exporter v0.97b - (c)2007 guruware
# File Created: 11.06.2015 18:35:05

mtllib Room Reactor.mtl

#
# object Box001
#

v  -9.0000 0.0000 9.0000
v  -9.0000 0.0000 -9.0000
v  9.0000 0.0000 -9.0000
v  9.0000 0.0000 9.0000
v  -9.0000 0.2500 9.0000
v  9.0000 0.2500 9.0000
v  9.0000 0.2500 -9.0000
v  -9.0000 0.2500 -9.0000
v  1.3198 0.2500 8.9947
v  1.3198 0.2500 6.0774
v  1.5221 0.2500 6.0774
v  1.5221 0.2500 8.9947
v  1.3198 2.0500 8.9947
v  1.5221 2.0500 8.9947
v  1.5221 2.0500 6.0774
v  1.3198 2.0500 6.0774
v  2.9208 0.2500 -1.5277
v  2.9208 0.2500 -4.5674
v  3.1231 0.2500 -4.5674
v  3.1231 0.2500 -1.5277
v  2.9208 2.0500 -1.5277
v  3.1231 2.0500 -1.5277
v  3.1231 2.0500 -4.5674
v  2.9208 2.0500 -4.5674
v  4.5285 0.2500 -1.4372
v  1.4888 0.2500 -1.4372
v  1.4888 0.2500 -1.6395
v  4.5285 0.2500 -1.6395
v  4.5285 2.0500 -1.4372
v  4.5285 2.0500 -1.6395
v  1.4888 2.0500 -1.6395
v  1.4888 2.0500 -1.4372
v  -1.5537 0.2500 -1.4578
v  -4.5934 0.2500 -1.4578
v  -4.5934 0.2500 -1.6601
v  -1.5537 0.2500 -1.6601
v  -1.5537 2.0500 -1.4578
v  -1.5537 2.0500 -1.6601
v  -4.5934 2.0500 -1.6601
v  -4.5934 2.0500 -1.4578
v  -1.6702 0.2500 8.9947
v  -1.6702 0.2500 6.0774
v  -1.4679 0.2500 6.0774
v  -1.4679 0.2500 8.9947
v  -1.6702 2.0500 8.9947
v  -1.4679 2.0500 8.9947
v  -1.4679 2.0500 6.0774
v  -1.6702 2.0500 6.0774
v  -8.9969 0.2500 -1.6601
v  -7.5950 0.2500 -1.6601
v  -7.5950 0.2500 -1.4578
v  -8.9969 0.2500 -1.4578
v  -8.9969 2.0500 -1.6601
v  -8.9969 2.0500 -1.4578
v  -7.5950 2.0500 -1.4578
v  -7.5950 2.0500 -1.6601
v  2.9801 0.2500 -7.5898
v  2.9801 0.2500 -8.9917
v  3.1824 0.2500 -8.9917
v  3.1824 0.2500 -7.5898
v  2.9801 2.0500 -7.5898
v  3.1824 2.0500 -7.5898
v  3.1824 2.0500 -8.9917
v  2.9801 2.0500 -8.9917
v  7.5004 0.2500 -1.5880
v  8.9981 0.2500 -1.5880
v  8.9981 0.2500 -1.3857
v  7.5004 0.2500 -1.3857
v  7.5004 2.0500 -1.5880
v  7.5004 2.0500 -1.3857
v  8.9981 2.0500 -1.3857
v  8.9981 2.0500 -1.5880
v  1.3774 0.2500 3.0988
v  1.3774 0.2500 1.6194
v  1.5797 0.2500 1.6194
v  1.5797 0.2500 3.0988
v  1.3774 2.0500 3.0988
v  1.5797 2.0500 3.0988
v  1.5797 2.0500 1.6194
v  1.3774 2.0500 1.6194
v  -1.6467 0.2500 3.0333
v  -1.6467 0.2500 1.5539
v  -1.4444 0.2500 1.5539
v  -1.4444 0.2500 3.0333
v  -1.6467 2.0500 3.0333
v  -1.4444 2.0500 3.0333
v  -1.4444 2.0500 1.5539
v  -1.6467 2.0500 1.5539
v  -3.2412 0.2500 -1.6390
v  -3.2412 0.2500 -8.9908
v  -3.0389 0.2500 -8.9908
v  -3.0389 0.2500 -1.6390
v  -3.2412 2.0500 -1.6390
v  -3.0389 2.0500 -1.6390
v  -3.0389 2.0500 -8.9908
v  -3.2412 2.0500 -8.9908
v  -1.4476 0.2500 1.5542
v  -9.0036 0.2500 1.5542
v  -9.0036 0.2500 1.3519
v  -1.4476 0.2500 1.3519
v  -1.4476 2.0500 1.5542
v  -1.4476 2.0500 1.3519
v  -9.0036 2.0500 1.3519
v  -9.0036 2.0500 1.5542
v  8.9935 0.2500 1.6424
v  1.3791 0.2500 1.6424
v  1.3791 0.2500 1.4401
v  8.9935 0.2500 1.4401
v  8.9935 2.0500 1.6424
v  8.9935 2.0500 1.4401
v  1.3791 2.0500 1.4401
v  1.3791 2.0500 1.6424
# 112 vertices

vn 0.0000 -1.0000 -0.0000
vn 0.0000 1.0000 -0.0000
vn 0.0000 0.0000 1.0000
vn 1.0000 0.0000 -0.0000
vn 0.0000 0.0000 -1.0000
vn -1.0000 0.0000 -0.0000
vn -0.0000 0.0000 -1.0000
# 7 vertex normals

vt 0.7088 0.6663 0.0000
vt 0.7088 0.6963 0.0000
vt 0.6939 0.6963 0.0000
vt 0.6939 0.6663 0.0000
vt 0.0000 0.0000 0.0000
vt 0.4985 0.0000 0.0000
vt 0.4985 1.0000 0.0000
vt 0.0000 1.0000 0.0000
vt 0.7063 0.9478 0.0000
vt 0.6929 0.9478 0.0000
vt 0.6929 0.8882 0.0000
vt 0.7063 0.8882 0.0000
vt 0.9512 0.8099 0.0000
vt 0.9355 0.8099 0.0000
vt 0.9355 0.7398 0.0000
vt 0.9512 0.7398 0.0000
vt 0.9944 0.7586 0.0000
vt 0.9944 0.9987 0.0000
vt 0.9081 0.9987 0.0000
vt 0.9081 0.7586 0.0000
vt 0.9510 0.8103 0.0000
vt 0.9352 0.8103 0.0000
vt 0.9352 0.7387 0.0000
vt 0.9510 0.7387 0.0000
vt 0.8574 0.8099 0.0000
vt 0.8417 0.8099 0.0000
vt 0.8417 0.7398 0.0000
vt 0.8574 0.7398 0.0000
vt 0.9006 0.7586 0.0000
vt 0.9006 0.9987 0.0000
vt 0.8143 0.9987 0.0000
vt 0.8143 0.7586 0.0000
vt 0.8572 0.8103 0.0000
vt 0.8414 0.8103 0.0000
vt 0.8414 0.7387 0.0000
vt 0.8572 0.7387 0.0000
vt 0.9016 0.5934 0.0000
vt 0.9016 0.8335 0.0000
vt 0.8153 0.8335 0.0000
vt 0.8153 0.5934 0.0000
vt 0.9006 0.5934 0.0000
vt 0.9006 0.9977 0.0000
vt 0.8143 0.9977 0.0000
vt 0.8143 0.5934 0.0000
vt 0.8053 0.7574 0.0000
vt 0.8053 0.9975 0.0000
vt 0.7227 0.9975 0.0000
vt 0.7227 0.7574 0.0000
vt 0.6936 0.8941 0.0000
vt 0.7070 0.8941 0.0000
vt 0.7070 0.9537 0.0000
vt 0.6936 0.9537 0.0000
vt 0.7453 0.7386 0.0000
vt 0.7603 0.7386 0.0000
vt 0.7603 0.8087 0.0000
vt 0.7453 0.8087 0.0000
vt 0.7222 0.9975 0.0000
vt 0.7222 0.8520 0.0000
vt 0.8047 0.8520 0.0000
vt 0.8047 0.9975 0.0000
vt 0.7455 0.7321 0.0000
vt 0.7632 0.7321 0.0000
vt 0.7632 0.8146 0.0000
vt 0.7455 0.8146 0.0000
vt 0.9006 0.5945 0.0000
vt 0.9006 0.7399 0.0000
vt 0.8143 0.7399 0.0000
vt 0.8143 0.5945 0.0000
vt 0.9948 0.6358 0.0000
vt 0.9948 0.7812 0.0000
vt 0.9085 0.7812 0.0000
vt 0.9085 0.6358 0.0000
vt 0.9944 0.6323 0.0000
vt 0.9081 0.6323 0.0000
vt 0.8051 0.6311 0.0000
vt 0.8051 0.9975 0.0000
vt 0.7226 0.9975 0.0000
vt 0.7226 0.6311 0.0000
vt 0.7060 0.8062 0.0000
vt 0.6961 0.8062 0.0000
vt 0.6961 0.7579 0.0000
vt 0.7060 0.7579 0.0000
vt 0.5917 0.8380 0.0000
vt 0.5917 0.8566 0.0000
vt 0.5056 0.8566 0.0000
vt 0.5056 0.8380 0.0000
vt 0.6861 0.5789 0.0000
vt 0.6861 0.9988 0.0000
vt 0.5996 0.9988 0.0000
vt 0.5996 0.5789 0.0000
vt 0.9002 0.5964 0.0000
vt 0.9002 0.9956 0.0000
vt 0.8151 0.9956 0.0000
vt 0.8151 0.5964 0.0000
vt 0.7060 0.8797 0.0000
vt 0.6945 0.8797 0.0000
vt 0.6945 0.7407 0.0000
vt 0.7060 0.7407 0.0000
vt 0.7060 0.7406 0.0000
vt 0.7060 0.8806 0.0000
vt 0.6946 0.8806 0.0000
vt 0.6946 0.7406 0.0000
vt 0.9003 0.5943 0.0000
vt 0.9003 0.9973 0.0000
vt 0.8151 0.9973 0.0000
vt 0.8151 0.5943 0.0000
vt 0.7229 0.9975 0.0000
vt 0.7229 0.6311 0.0000
# 108 texture coords

g Box001
usemtl Material__25
s 2
f 1/1/1 2/2/1 3/3/1 4/4/1 
s 4
f 5/5/2 6/6/2 7/7/2 8/8/2 
s 8
f 1/4/3 4/1/3 6/2/3 5/3/3 
s 16
f 4/4/4 3/1/4 7/2/4 6/3/4 
s 32
f 3/4/5 2/1/5 8/2/5 7/3/5 
s 64
f 2/4/6 1/1/6 5/2/6 8/3/6 
s 2
f 9/9/1 10/10/1 11/11/1 12/12/1 
s 4
f 13/12/2 14/9/2 15/10/2 16/11/2 
s 8
f 9/13/3 12/14/3 14/15/3 13/16/3 
s 16
f 12/17/4 11/18/4 15/19/4 14/20/4 
s 32
f 11/21/5 10/22/5 16/23/5 15/24/5 
s 64
f 10/17/6 9/18/6 13/19/6 16/20/6 
s 2
f 17/9/1 18/10/1 19/11/1 20/12/1 
s 4
f 21/12/2 22/9/2 23/10/2 24/11/2 
s 8
f 17/25/3 20/26/3 22/27/3 21/28/3 
s 16
f 20/29/4 19/30/4 23/31/4 22/32/4 
s 32
f 19/33/5 18/34/5 24/35/5 23/36/5 
s 64
f 18/37/6 17/38/6 21/39/6 24/40/6 
s 2
f 25/9/1 26/10/1 27/11/1 28/12/1 
s 4
f 29/12/2 30/9/2 31/10/2 32/11/2 
s 8
f 25/25/4 28/26/4 30/27/4 29/28/4 
s 16
f 28/41/5 27/42/5 31/43/5 30/44/5 
s 32
f 27/33/6 26/34/6 32/35/6 31/36/6 
s 64
f 26/45/3 25/46/3 29/47/3 32/48/3 
s 2
f 33/9/1 34/10/1 35/11/1 36/12/1 
s 4
f 37/12/2 38/9/2 39/10/2 40/11/2 
s 8
f 33/13/4 36/14/4 38/15/4 37/16/4 
s 16
f 36/17/5 35/18/5 39/19/5 38/20/5 
s 32
f 35/21/6 34/22/6 40/23/6 39/24/6 
s 64
f 34/17/3 33/18/3 37/19/3 40/20/3 
s 2
f 41/9/1 42/10/1 43/11/1 44/12/1 
s 4
f 45/12/2 46/9/2 47/10/2 48/11/2 
s 8
f 41/25/3 44/26/3 46/27/3 45/28/3 
s 16
f 44/29/4 43/30/4 47/31/4 46/32/4 
s 32
f 43/33/5 42/34/5 48/35/5 47/36/5 
s 64
f 42/45/6 41/46/6 45/47/6 48/48/6 
s 2
f 49/49/1 50/50/1 51/51/1 52/52/1 
s 4
f 53/52/2 54/49/2 55/50/2 56/51/2 
s 8
f 56/53/4 55/54/4 51/55/4 50/56/4 
s 16
f 53/57/5 56/58/5 50/59/5 49/60/5 
s 32
f 54/61/6 53/62/6 49/63/6 52/64/6 
s 64
f 55/57/3 54/58/3 52/59/3 51/60/3 
s 2
f 57/51/1 58/52/1 59/49/1 60/50/1 
s 4
f 61/50/2 62/51/2 63/52/2 64/49/2 
s 8
f 57/55/3 60/56/3 62/53/3 61/54/3 
s 16
f 60/59/4 59/60/4 63/57/4 62/58/4 
s 32
f 59/63/5 58/64/5 64/61/5 63/62/5 
s 64
f 58/59/6 57/60/6 61/57/6 64/58/6 
s 2
f 65/49/1 66/50/1 67/51/1 68/52/1 
s 4
f 69/52/2 70/49/2 71/50/2 72/51/2 
s 8
f 72/53/4 71/54/4 67/55/4 66/56/4 
s 16
f 69/57/5 72/58/5 66/59/5 65/60/5 
s 32
f 70/61/6 69/62/6 65/63/6 68/64/6 
s 64
f 71/57/3 70/58/3 68/59/3 67/60/3 
s 2
f 73/51/1 74/52/1 75/49/1 76/50/1 
s 4
f 77/50/2 78/51/2 79/52/2 80/49/2 
s 8
f 73/55/3 76/56/3 78/53/3 77/54/3 
s 16
f 76/59/4 75/60/4 79/57/4 78/58/4 
s 32
f 75/63/5 74/64/5 80/61/5 79/62/5 
s 64
f 74/59/6 73/60/6 77/57/6 80/58/6 
s 2
f 81/51/1 82/52/1 83/49/1 84/50/1 
s 4
f 85/50/2 86/51/2 87/52/2 88/49/2 
s 8
f 81/55/3 84/56/3 86/53/3 85/54/3 
s 16
f 84/65/4 83/66/4 87/67/4 86/68/4 
s 32
f 83/63/5 82/64/5 88/61/5 87/62/5 
s 64
f 82/69/6 81/70/6 85/71/6 88/72/6 
s 2
f 89/9/1 90/10/1 91/11/1 92/12/1 
s 4
f 93/12/2 94/9/2 95/10/2 96/11/2 
s 8
f 89/13/3 92/14/3 94/15/3 93/16/3 
s 16
f 92/73/4 91/18/4 95/19/4 94/74/4 
s 32
f 91/21/5 90/22/5 96/23/5 95/24/5 
s 64
f 90/75/6 89/76/6 93/77/6 96/78/6 
s 2
f 97/79/1 98/80/1 99/81/1 100/82/1 
s 4
f 101/82/2 102/79/2 103/80/2 104/81/2 
s 8
f 97/83/4 100/84/4 102/85/4 101/86/4 
s 16
f 100/87/7 99/88/7 103/89/7 102/90/7 
s 32
f 99/83/6 98/84/6 104/85/6 103/86/6 
s 64
f 98/91/3 97/92/3 101/93/3 104/94/3 
s 2
f 105/95/1 106/96/1 107/97/1 108/98/1 
s 4
f 109/98/2 110/95/2 111/96/2 112/97/2 
s 8
f 105/99/4 108/100/4 110/101/4 109/102/4 
s 16
f 108/103/7 107/104/7 111/105/7 110/106/7 
s 32
f 107/99/6 106/100/6 112/101/6 111/102/6 
s 64
f 106/75/3 105/76/3 109/107/3 112/108/3 
# 84 polygons

