# 3ds Max Wavefront OBJ Exporter v0.97b - (c)2007 guruware
# File Created: 12.06.2015 12:02:21

mtllib Room Machine.mtl

#
# object Box001
#

v  -9.0000 0.0000 8.9998
v  -9.0000 0.0000 -9.0002
v  9.0000 0.0000 -9.0002
v  9.0000 0.0000 8.9998
v  -9.0000 0.2500 8.9998
v  9.0000 0.2500 8.9998
v  9.0000 0.2500 -9.0002
v  -9.0000 0.2500 -9.0002
v  1.4313 0.2492 4.5333
v  1.4313 0.2492 1.4030
v  1.5868 0.2492 1.4030
v  1.5868 0.2492 4.5333
v  1.4313 2.0492 4.5333
v  1.5868 2.0492 4.5333
v  1.5868 2.0492 1.4030
v  1.4313 2.0492 1.4030
v  4.5575 0.2492 1.5609
v  1.4272 0.2492 1.5609
v  1.4272 0.2492 1.4054
v  4.5575 0.2492 1.4054
v  4.5575 2.0492 1.5609
v  4.5575 2.0492 1.4054
v  1.4272 2.0492 1.4054
v  1.4272 2.0492 1.5609
v  -4.6284 0.2492 4.5073
v  -4.6284 0.2492 1.3769
v  -4.4729 0.2492 1.3769
v  -4.4729 0.2492 4.5073
v  -4.6284 2.0492 4.5073
v  -4.4729 2.0492 4.5073
v  -4.4729 2.0492 1.3769
v  -4.6284 2.0492 1.3769
v  -1.5529 0.2492 -1.4785
v  -1.5529 0.2492 -4.6089
v  -1.3974 0.2492 -4.6089
v  -1.3974 0.2492 -1.4785
v  -1.5529 2.0492 -1.4785
v  -1.3974 2.0492 -1.4785
v  -1.3974 2.0492 -4.6089
v  -1.5529 2.0492 -4.6089
v  4.5808 0.2492 -4.4824
v  1.4505 0.2492 -4.4824
v  1.4505 0.2492 -4.6378
v  4.5808 0.2492 -4.6378
v  4.5808 2.0492 -4.4824
v  4.5808 2.0492 -4.6378
v  1.4505 2.0492 -4.6378
v  1.4505 2.0492 -4.4824
v  -0.0138 0.2492 1.4054
v  1.5382 0.2492 1.4054
v  1.5382 0.2492 1.5609
v  -0.0138 0.2492 1.5609
v  -0.0138 2.0492 1.4054
v  -0.0138 2.0492 1.5609
v  1.5382 2.0492 1.5609
v  1.5382 2.0492 1.4054
v  1.5913 0.2492 -0.0652
v  1.5913 0.2492 1.4867
v  1.4359 0.2492 1.4867
v  1.4359 0.2492 -0.0652
v  1.5913 2.0492 -0.0652
v  1.4359 2.0492 -0.0652
v  1.4359 2.0492 1.4867
v  1.5913 2.0492 1.4867
v  1.6107 0.2492 -4.5894
v  1.6107 0.2492 -3.0375
v  1.4552 0.2492 -3.0375
v  1.4552 0.2492 -4.5894
v  1.6107 2.0492 -4.5894
v  1.4552 2.0492 -4.5894
v  1.4552 2.0492 -3.0375
v  1.6107 2.0492 -3.0375
v  8.9447 0.2492 -4.4639
v  7.5602 0.2492 -4.4639
v  7.5602 0.2492 -4.6194
v  8.9447 0.2492 -4.6194
v  8.9447 2.0492 -4.4639
v  8.9447 2.0492 -4.6194
v  7.5602 2.0492 -4.6194
v  7.5602 2.0492 -4.4639
v  8.9447 0.2492 1.5926
v  7.5602 0.2492 1.5926
v  7.5602 0.2492 1.4372
v  8.9447 0.2492 1.4372
v  8.9447 2.0492 1.5926
v  8.9447 2.0492 1.4372
v  7.5602 2.0492 1.4372
v  7.5602 2.0492 1.5926
v  -3.0039 0.2492 1.5225
v  -4.5559 0.2492 1.5225
v  -4.5559 0.2492 1.3671
v  -3.0039 0.2492 1.3671
v  -3.0039 2.0492 1.5225
v  -3.0039 2.0492 1.3671
v  -4.5559 2.0492 1.3671
v  -4.5559 2.0492 1.5225
v  -4.5002 0.2492 7.4381
v  -4.5002 0.2492 8.9901
v  -4.6557 0.2492 8.9901
v  -4.6557 0.2492 7.4381
v  -4.5002 2.0492 7.4381
v  -4.6557 2.0492 7.4381
v  -4.6557 2.0492 8.9901
v  -4.5002 2.0492 8.9901
v  1.5484 0.2492 7.4459
v  1.5484 0.2492 8.9978
v  1.3929 0.2492 8.9978
v  1.3929 0.2492 7.4459
v  1.5484 2.0492 7.4459
v  1.3929 2.0492 7.4459
v  1.3929 2.0492 8.9978
v  1.5484 2.0492 8.9978
v  1.4852 0.2492 -7.6685
v  1.4852 0.2492 -8.8485
v  1.6406 0.2492 -8.8485
v  1.6406 0.2492 -7.6685
v  1.4852 2.0492 -7.6685
v  1.6406 2.0492 -7.6685
v  1.6406 2.0492 -8.8485
v  1.4852 2.0492 -8.8485
v  -1.5339 0.2492 -7.5822
v  -1.5339 0.2492 -8.8467
v  -1.3784 0.2492 -8.8467
v  -1.3784 0.2492 -7.5822
v  -1.5339 2.0492 -7.5822
v  -1.3784 2.0492 -7.5822
v  -1.3784 2.0492 -8.8467
v  -1.5339 2.0492 -8.8467
v  -4.5630 0.2492 1.5271
v  -8.9877 0.2492 1.5271
v  -8.9877 0.2492 1.3717
v  -4.5630 0.2492 1.3717
v  -4.5630 2.0492 1.5271
v  -4.5630 2.0492 1.3717
v  -8.9877 2.0492 1.3717
v  -8.9877 2.0492 1.5271
v  -1.5314 0.2492 -1.4839
v  -9.0013 0.2492 -1.4839
v  -9.0013 0.2492 -1.6393
v  -1.5314 0.2492 -1.6393
v  -1.5314 2.0492 -1.4839
v  -1.5314 2.0492 -1.6393
v  -9.0013 2.0492 -1.6393
v  -9.0013 2.0492 -1.4839
# 144 vertices

vn 0.0000 -1.0000 -0.0000
vn 0.0000 1.0000 -0.0000
vn 0.0000 0.0000 1.0000
vn 1.0000 0.0000 -0.0000
vn 0.0000 0.0000 -1.0000
vn -1.0000 0.0000 -0.0000
vn -0.0000 0.0000 -1.0000
# 7 vertex normals

vt 0.7093 0.6150 0.0000
vt 0.7093 0.6481 0.0000
vt 0.6927 0.6481 0.0000
vt 0.6927 0.6150 0.0000
vt 0.0000 0.0000 0.0000
vt 0.4992 0.0000 0.0000
vt 0.4992 1.0000 0.0000
vt 0.0000 1.0000 0.0000
vt 0.7095 0.9872 0.0000
vt 0.6906 0.9872 0.0000
vt 0.6906 0.9046 0.0000
vt 0.7095 0.9046 0.0000
vt 0.9515 0.8107 0.0000
vt 0.9362 0.8107 0.0000
vt 0.9362 0.7410 0.0000
vt 0.9515 0.7410 0.0000
vt 0.9936 0.7597 0.0000
vt 0.9936 0.9984 0.0000
vt 0.9095 0.9984 0.0000
vt 0.9095 0.7597 0.0000
vt 0.9513 0.8111 0.0000
vt 0.9359 0.8111 0.0000
vt 0.9359 0.7399 0.0000
vt 0.9513 0.7399 0.0000
vt 0.7084 0.8929 0.0000
vt 0.6923 0.8929 0.0000
vt 0.6923 0.7002 0.0000
vt 0.7084 0.7002 0.0000
vt 0.7084 0.7000 0.0000
vt 0.7084 0.8941 0.0000
vt 0.6924 0.8941 0.0000
vt 0.6924 0.7000 0.0000
vt 0.9940 0.6341 0.0000
vt 0.9940 0.9971 0.0000
vt 0.9092 0.9971 0.0000
vt 0.9092 0.6341 0.0000
vt 0.9011 0.5967 0.0000
vt 0.9011 0.9984 0.0000
vt 0.8144 0.9984 0.0000
vt 0.8144 0.5967 0.0000
vt 0.7084 0.7909 0.0000
vt 0.6944 0.7909 0.0000
vt 0.6944 0.7240 0.0000
vt 0.7084 0.7240 0.0000
vt 0.7082 0.6537 0.0000
vt 0.7082 0.8494 0.0000
vt 0.6927 0.8494 0.0000
vt 0.6927 0.6537 0.0000
vt 0.6865 0.7909 0.0000
vt 0.6865 0.9986 0.0000
vt 0.5993 0.9986 0.0000
vt 0.5993 0.7909 0.0000
vt 0.8052 0.6358 0.0000
vt 0.8052 0.9954 0.0000
vt 0.7217 0.9954 0.0000
vt 0.7217 0.6358 0.0000
vt 0.7215 0.8751 0.0000
vt 0.7215 0.8599 0.0000
vt 0.8044 0.8599 0.0000
vt 0.8044 0.8751 0.0000
vt 0.8051 0.7597 0.0000
vt 0.8051 0.9984 0.0000
vt 0.7218 0.9984 0.0000
vt 0.7218 0.7597 0.0000
vt 0.7213 0.8747 0.0000
vt 0.7213 0.8593 0.0000
vt 0.8049 0.8593 0.0000
vt 0.8049 0.8747 0.0000
vt 0.9016 0.5963 0.0000
vt 0.9016 0.8350 0.0000
vt 0.8146 0.8350 0.0000
vt 0.8146 0.5963 0.0000
vt 0.9016 0.7438 0.0000
vt 0.9016 0.7754 0.0000
vt 0.8147 0.7754 0.0000
vt 0.8147 0.7438 0.0000
vt 0.9015 0.7597 0.0000
vt 0.9015 0.9984 0.0000
vt 0.8145 0.9984 0.0000
vt 0.8145 0.7597 0.0000
vt 0.8577 0.8111 0.0000
vt 0.8418 0.8111 0.0000
vt 0.8418 0.7399 0.0000
vt 0.8577 0.7399 0.0000
vt 0.9016 0.5962 0.0000
vt 0.9016 0.8349 0.0000
vt 0.8146 0.8349 0.0000
vt 0.8146 0.5962 0.0000
vt 0.6915 0.9128 0.0000
vt 0.7104 0.9128 0.0000
vt 0.7104 0.9954 0.0000
vt 0.6915 0.9954 0.0000
vt 0.7447 0.7410 0.0000
vt 0.7598 0.7410 0.0000
vt 0.7598 0.8107 0.0000
vt 0.7447 0.8107 0.0000
vt 0.7214 0.9984 0.0000
vt 0.7214 0.8538 0.0000
vt 0.8047 0.8538 0.0000
vt 0.8047 0.9984 0.0000
vt 0.7449 0.7345 0.0000
vt 0.7627 0.7345 0.0000
vt 0.7627 0.8165 0.0000
vt 0.7449 0.8165 0.0000
vt 0.5935 0.7658 0.0000
vt 0.5935 0.9105 0.0000
vt 0.5092 0.9105 0.0000
vt 0.5092 0.7658 0.0000
vt 0.7228 0.9973 0.0000
vt 0.7228 0.8526 0.0000
vt 0.8061 0.8526 0.0000
vt 0.8061 0.9973 0.0000
vt 0.6924 0.9126 0.0000
vt 0.7113 0.9126 0.0000
vt 0.7113 0.9952 0.0000
vt 0.6924 0.9952 0.0000
vt 0.7226 0.9984 0.0000
vt 0.7226 0.8538 0.0000
vt 0.8059 0.8538 0.0000
vt 0.8059 0.9984 0.0000
vt 0.8048 0.8572 0.0000
vt 0.8048 0.8935 0.0000
vt 0.7213 0.8935 0.0000
vt 0.7213 0.8572 0.0000
vt 0.8050 0.7780 0.0000
vt 0.8050 0.8452 0.0000
vt 0.7217 0.8452 0.0000
vt 0.7217 0.7780 0.0000
vt 0.8059 0.6341 0.0000
vt 0.8059 0.9971 0.0000
vt 0.7219 0.9971 0.0000
vt 0.7219 0.6341 0.0000
vt 0.6865 0.5809 0.0000
vt 0.5993 0.5809 0.0000
vt 0.9939 0.6358 0.0000
vt 0.9939 0.9954 0.0000
vt 0.9096 0.9954 0.0000
vt 0.9096 0.6358 0.0000
# 138 texture coords

g Box001
usemtl Material__25
s 2
f 1/1/1 2/2/1 3/3/1 4/4/1 
s 4
f 5/5/2 6/6/2 7/7/2 8/8/2 
s 8
f 1/4/3 4/1/3 6/2/3 5/3/3 
s 16
f 4/4/4 3/1/4 7/2/4 6/3/4 
s 32
f 3/4/5 2/1/5 8/2/5 7/3/5 
s 64
f 2/4/6 1/1/6 5/2/6 8/3/6 
s 2
f 9/9/1 10/10/1 11/11/1 12/12/1 
s 4
f 13/12/2 14/9/2 15/10/2 16/11/2 
s 8
f 9/13/3 12/14/3 14/15/3 13/16/3 
s 16
f 12/17/4 11/18/4 15/19/4 14/20/4 
s 32
f 11/21/5 10/22/5 16/23/5 15/24/5 
s 64
f 10/17/6 9/18/6 13/19/6 16/20/6 
s 2
f 17/25/1 18/26/1 19/27/1 20/28/1 
s 4
f 21/28/2 22/25/2 23/26/2 24/27/2 
s 8
f 17/29/4 20/30/4 22/31/4 21/32/4 
s 16
f 20/33/7 19/34/7 23/35/7 22/36/7 
s 32
f 19/29/6 18/30/6 24/31/6 23/32/6 
s 64
f 18/37/3 17/38/3 21/39/3 24/40/3 
s 2
f 25/41/1 26/42/1 27/43/1 28/44/1 
s 4
f 29/44/2 30/41/2 31/42/2 32/43/2 
s 8
f 25/45/3 28/46/3 30/47/3 29/48/3 
s 16
f 28/49/4 27/50/4 31/51/4 30/52/4 
s 32
f 27/45/5 26/46/5 32/47/5 31/48/5 
s 64
f 26/53/6 25/54/6 29/55/6 32/56/6 
s 2
f 33/9/1 34/10/1 35/11/1 36/12/1 
s 4
f 37/12/2 38/9/2 39/10/2 40/11/2 
s 8
f 33/57/3 36/58/3 38/59/3 37/60/3 
s 16
f 36/61/4 35/62/4 39/63/4 38/64/4 
s 32
f 35/65/5 34/66/5 40/67/5 39/68/5 
s 64
f 34/69/6 33/70/6 37/71/6 40/72/6 
s 2
f 41/9/1 42/10/1 43/11/1 44/12/1 
s 4
f 45/12/2 46/9/2 47/10/2 48/11/2 
s 8
f 41/73/4 44/74/4 46/75/4 45/76/4 
s 16
f 44/77/5 43/78/5 47/79/5 46/80/5 
s 32
f 43/81/6 42/82/6 48/83/6 47/84/6 
s 64
f 42/85/3 41/86/3 45/87/3 48/88/3 
s 2
f 49/89/1 50/90/1 51/91/1 52/92/1 
s 4
f 53/92/2 54/89/2 55/90/2 56/91/2 
s 8
f 56/93/4 55/94/4 51/95/4 50/96/4 
s 16
f 53/97/7 56/98/7 50/99/7 49/100/7 
s 32
f 54/101/6 53/102/6 49/103/6 52/104/6 
s 64
f 55/97/3 54/98/3 52/99/3 51/100/3 
s 2
f 57/89/1 58/90/1 59/91/1 60/92/1 
s 4
f 61/92/2 62/89/2 63/90/2 64/91/2 
s 8
f 64/93/3 63/94/3 59/95/3 58/96/3 
s 16
f 61/97/4 64/98/4 58/99/4 57/100/4 
s 32
f 62/101/5 61/102/5 57/103/5 60/104/5 
s 64
f 63/97/6 62/98/6 60/99/6 59/100/6 
s 2
f 65/89/1 66/90/1 67/91/1 68/92/1 
s 4
f 69/92/2 70/89/2 71/90/2 72/91/2 
s 8
f 72/93/3 71/94/3 67/95/3 66/96/3 
s 16
f 69/97/4 72/98/4 66/99/4 65/100/4 
s 32
f 70/101/5 69/102/5 65/103/5 68/104/5 
s 64
f 71/97/6 70/98/6 68/99/6 67/100/6 
s 2
f 73/91/1 74/92/1 75/89/1 76/90/1 
s 4
f 77/90/2 78/91/2 79/92/2 80/89/2 
s 8
f 73/95/4 76/96/4 78/93/4 77/94/4 
s 16
f 76/99/5 75/100/5 79/97/5 78/98/5 
s 32
f 75/103/6 74/104/6 80/101/6 79/102/6 
s 64
f 74/99/3 73/100/3 77/97/3 80/98/3 
s 2
f 81/91/1 82/92/1 83/89/1 84/90/1 
s 4
f 85/90/2 86/91/2 87/92/2 88/89/2 
s 8
f 81/95/4 84/96/4 86/93/4 85/94/4 
s 16
f 84/99/7 83/100/7 87/97/7 86/98/7 
s 32
f 83/103/6 82/104/6 88/101/6 87/102/6 
s 64
f 82/99/3 81/100/3 85/97/3 88/98/3 
s 2
f 89/91/1 90/92/1 91/89/1 92/90/1 
s 4
f 93/90/2 94/91/2 95/92/2 96/89/2 
s 8
f 89/95/4 92/96/4 94/93/4 93/94/4 
s 16
f 92/99/7 91/100/7 95/97/7 94/98/7 
s 32
f 91/103/6 90/104/6 96/101/6 95/102/6 
s 64
f 90/105/3 89/106/3 93/107/3 96/108/3 
s 2
f 97/89/1 98/90/1 99/91/1 100/92/1 
s 4
f 101/92/2 102/89/2 103/90/2 104/91/2 
s 8
f 104/93/3 103/94/3 99/95/3 98/96/3 
s 16
f 101/109/4 104/110/4 98/111/4 97/112/4 
s 32
f 102/101/5 101/102/5 97/103/5 100/104/5 
s 64
f 103/109/6 102/110/6 100/111/6 99/112/6 
s 2
f 105/113/1 106/114/1 107/115/1 108/116/1 
s 4
f 109/116/2 110/113/2 111/114/2 112/115/2 
s 8
f 112/93/3 111/94/3 107/95/3 106/96/3 
s 16
f 109/117/4 112/118/4 106/119/4 105/120/4 
s 32
f 110/101/5 109/102/5 105/103/5 108/104/5 
s 64
f 111/117/6 110/118/6 108/119/6 107/120/6 
s 2
f 113/91/1 114/92/1 115/89/1 116/90/1 
s 4
f 117/90/2 118/91/2 119/92/2 120/89/2 
s 8
f 113/95/3 116/96/3 118/93/3 117/94/3 
s 16
f 116/99/4 115/100/4 119/97/4 118/98/4 
s 32
f 115/103/5 114/104/5 120/101/5 119/102/5 
s 64
f 114/99/6 113/100/6 117/97/6 120/98/6 
s 2
f 121/91/1 122/92/1 123/89/1 124/90/1 
s 4
f 125/90/2 126/91/2 127/92/2 128/89/2 
s 8
f 121/121/3 124/122/3 126/123/3 125/124/3 
s 16
f 124/125/4 123/126/4 127/127/4 126/128/4 
s 32
f 123/121/5 122/122/5 128/123/5 127/124/5 
s 64
f 122/125/6 121/126/6 125/127/6 128/128/6 
s 2
f 129/25/1 130/26/1 131/27/1 132/28/1 
s 4
f 133/28/2 134/25/2 135/26/2 136/27/2 
s 8
f 129/29/4 132/30/4 134/31/4 133/32/4 
s 16
f 132/129/7 131/130/7 135/131/7 134/132/7 
s 32
f 131/29/6 130/30/6 136/31/6 135/32/6 
s 64
f 130/37/3 129/38/3 133/39/3 136/40/3 
s 2
f 137/41/1 138/42/1 139/43/1 140/44/1 
s 4
f 141/44/2 142/41/2 143/42/2 144/43/2 
s 8
f 137/45/4 140/46/4 142/47/4 141/48/4 
s 16
f 140/133/5 139/50/5 143/51/5 142/134/5 
s 32
f 139/45/6 138/46/6 144/47/6 143/48/6 
s 64
f 138/135/3 137/136/3 141/137/3 144/138/3 
# 108 polygons

