# Blender v2.78 (sub 0) OBJ File: ''
# www.blender.org
mtllib device.mtl
o Mesh_0093
v -0.261633 0.882409 -0.581928
v -0.261633 0.812645 -0.517489
v -0.161008 0.869511 -0.507619
v -0.303313 0.825543 -0.591799
v -0.161008 0.895307 -0.656238
v -0.161008 0.905964 -0.577840
v -0.261633 0.838441 -0.666108
v -0.161008 0.843784 -0.696888
v -0.060384 0.882409 -0.581928
v -0.060384 0.838441 -0.666108
v -0.018704 0.825543 -0.591799
v -0.060384 0.812645 -0.517489
v -0.161008 0.807302 -0.486709
v -0.388164 0.801328 -0.087436
v -0.388164 0.801328 0.362370
v -0.388164 0.631682 0.362370
v -0.388164 0.631682 -0.087436
v -0.631464 0.801328 -0.087436
v -0.631464 0.631682 -0.087436
v -0.631464 0.631682 0.362370
v -0.631464 0.801328 0.362370
v -0.631464 0.631682 -0.087436
v -0.388164 0.631682 -0.087436
v -0.388164 0.631682 0.362370
v -0.631464 0.631682 0.362370
v 0.350036 0.810552 -0.450600
v 0.350036 0.868558 -0.742569
v -0.369709 0.868558 -0.742569
v -0.369709 0.698912 -0.742569
v -0.369709 0.698912 -0.450600
v -0.369709 0.810552 -0.450600
v -0.369709 0.868558 -0.742569
v 0.053448 0.882409 -0.581928
v 0.154073 0.869511 -0.507619
v 0.154073 0.905964 -0.577840
v 0.053448 0.812645 -0.517489
v 0.154073 0.807302 -0.486709
v 0.011768 0.825543 -0.591799
v 0.154073 0.895307 -0.656238
v 0.053448 0.838441 -0.666108
v 0.154073 0.843784 -0.696888
v 0.254698 0.882409 -0.581928
v 0.254698 0.838441 -0.666108
v 0.296378 0.825543 -0.591799
v 0.254698 0.812645 -0.517489
v -1.119560 0.877880 1.305170
v -1.119000 0.552156 1.305170
v 1.149500 0.552201 1.310490
v -0.009942 0.681734 0.169567
v -1.119560 0.877880 1.305170
v 1.151760 0.877710 1.310500
v -0.014851 0.480585 0.172805
v -0.009942 0.681734 0.169567
v 1.151760 0.877710 1.310500
v 1.151760 0.877710 1.310500
v 1.155420 0.552204 1.312530
v -0.014851 0.480585 0.172805
v -1.119000 0.552156 1.305170
v -1.119560 0.877880 1.305170
v -0.009942 0.681734 0.169567
v -0.009942 0.681734 0.169567
v -0.014851 0.480585 0.172805
v -1.119000 0.552156 1.305170
v 0.353000 0.801328 0.374916
v 0.348885 0.801328 -0.074871
v 0.348885 0.631682 -0.074872
v 0.353000 0.631682 0.374916
v 0.596291 0.801328 0.372690
v 0.596291 0.631682 0.372690
v 0.592176 0.631682 -0.077097
v 0.592176 0.801328 -0.077097
v 0.596291 0.631682 0.372690
v 0.353000 0.631682 0.374916
v 0.348885 0.631682 -0.074872
v 0.592176 0.631682 -0.077097
v 0.596291 0.801328 0.372690
v 0.353000 0.801328 0.374916
v 0.353000 0.631682 0.374916
v 0.596291 0.631682 0.372690
v 0.592176 0.801328 -0.077097
v 0.348885 0.801328 -0.074871
v 0.353000 0.801328 0.374916
v 0.596291 0.801328 0.372690
v 0.592176 0.631682 -0.077097
v 0.348885 0.631682 -0.074872
v 0.348885 0.801328 -0.074871
v 0.592176 0.801328 -0.077097
v 1.146720 0.552156 -1.056200
v -0.000045 0.480585 0.079051
v -1.135190 0.552205 -1.057740
v -1.119000 0.552156 1.305170
v -0.014851 0.480585 0.172805
v 1.155420 0.552204 1.312530
v 1.183760 0.552157 1.238770
v 0.049912 0.480585 0.128054
v 1.185340 0.552205 -0.991524
v -0.631464 0.801328 -0.087436
v -0.388164 0.801328 -0.087436
v -0.388164 0.631682 -0.087436
v -0.631464 0.631682 -0.087436
v -0.631464 0.801328 0.362370
v -0.388164 0.801328 0.362370
v -0.388164 0.801328 -0.087436
v -0.631464 0.801328 -0.087436
v -0.631464 0.631682 0.362370
v -0.388164 0.631682 0.362370
v -0.388164 0.801328 0.362370
v -0.631464 0.801328 0.362370
v -1.129260 0.552201 -1.055710
v -1.131520 0.877710 -1.055710
v 1.147280 0.877880 -1.056190
v 1.146720 0.552156 -1.056200
v -0.004946 0.681734 0.082302
v 1.147280 0.877880 -1.056190
v -1.131520 0.877710 -1.055710
v -0.000045 0.480585 0.079051
v -0.004946 0.681734 0.082302
v -1.131520 0.877710 -1.055710
v -1.131520 0.877710 -1.055710
v -1.135190 0.552205 -1.057740
v -0.000045 0.480585 0.079051
v 1.146720 0.552156 -1.056200
v 1.147280 0.877880 -1.056190
v -0.004946 0.681734 0.082302
v -0.004946 0.681734 0.082302
v -0.000045 0.480585 0.079051
v 1.146720 0.552156 -1.056200
v 1.185280 0.552202 -0.991161
v 1.185280 0.877710 -0.991300
v 1.183760 0.877880 1.239330
v 1.183760 0.552157 1.238770
v 0.046662 0.681735 0.123153
v 1.183760 0.877880 1.239330
v 1.185280 0.877710 -0.991300
v 0.049912 0.480585 0.128054
v 0.046662 0.681735 0.123153
v 1.185280 0.877710 -0.991300
v 1.185280 0.877710 -0.991300
v 1.185340 0.552205 -0.991524
v 0.049912 0.480585 0.128054
v 1.183760 0.552157 1.238770
v 1.183760 0.877880 1.239330
v 0.046662 0.681735 0.123153
v 0.046662 0.681735 0.123153
v 0.049912 0.480585 0.128054
v 1.183760 0.552157 1.238770
v 1.151760 0.877710 1.310500
v 0.447650 0.831814 0.155905
v 0.447650 0.032217 0.155905
v 0.310820 0.032217 -0.187404
v 0.310820 0.831814 0.499215
v 0.447650 0.831814 0.155905
v -0.485999 0.831814 0.155906
v -0.019519 0.831814 0.641418
v -0.349858 0.831814 0.499215
v -0.019519 0.831814 -0.329607
v -0.349858 0.831814 -0.187403
v 0.310820 0.831814 -0.187403
v -0.992908 0.575485 1.176380
v 1.006040 0.575485 1.176380
v 1.006040 0.807467 1.176380
v -0.992908 0.807467 1.176380
v -0.992909 0.575485 -0.920402
v -0.992909 0.807467 -0.920402
v 1.006040 0.807467 -0.920402
v 1.006040 0.575485 -0.920402
v -0.992908 0.575485 1.176380
v -0.992909 0.575485 -0.920402
v 1.006040 0.575485 -0.920402
v 1.006040 0.575485 1.176380
v 1.069590 0.575485 1.129280
v 1.069590 0.575485 -0.873311
v 1.069590 0.807467 -0.873311
v 1.069590 0.807467 1.129280
v -1.049290 0.807467 -0.879014
v -1.049290 0.807467 1.134990
v -0.067515 0.656520 0.120028
v -0.011691 0.654012 0.074148
v 1.006040 0.807467 -0.920402
v -0.992909 0.807467 -0.920402
v -1.049290 0.807467 1.134990
v -1.049290 0.807467 -0.879014
v -1.049290 0.575485 -0.879014
v -1.049290 0.575485 1.134990
v -0.012326 0.655898 0.156731
v -0.992908 0.807467 1.176380
v 1.006040 0.807467 1.176380
v 0.447650 0.032217 0.155905
v 0.310820 0.032217 0.499214
v -0.486554 0.032217 0.155905
v -0.019519 0.032217 0.641418
v -0.349858 0.032217 0.499214
v -0.349858 0.032217 -0.187404
v -0.019519 0.032217 -0.329607
v 0.310820 0.032217 -0.187404
v 0.310820 0.831814 0.499215
v 0.310820 0.032217 0.499214
v -0.019519 0.831814 0.641418
v -0.019519 0.032217 0.641418
v -0.019519 0.831814 0.641418
v -0.349858 0.831814 0.499215
v -0.019519 0.032217 0.641418
v -0.349858 0.032217 0.499214
v -0.485999 0.831814 0.155906
v -0.486554 0.032217 0.155905
v -0.349858 0.831814 -0.187403
v -0.349858 0.032217 -0.187404
v -0.019519 0.831814 -0.329607
v -0.019519 0.032217 -0.329607
v -0.019519 0.831814 -0.329607
v 0.310820 0.831814 -0.187403
v -0.019519 0.032217 -0.329607
v -0.011702 0.637973 0.117583
v 0.045621 0.653365 0.121049
v 1.069590 0.807467 -0.873311
v -1.189580 0.552202 1.281060
v -1.189580 0.877710 1.281090
v -1.201290 0.877880 -1.036080
v -1.201290 0.552157 -1.035520
v -0.063038 0.681735 0.116381
v -1.201290 0.877880 -1.036080
v -1.189580 0.877710 1.281090
v -0.066287 0.480585 0.111479
v -0.063038 0.681735 0.116381
v -1.189580 0.877710 1.281090
v -1.189580 0.877710 1.281090
v -1.189650 0.552205 1.281130
v -0.066287 0.480585 0.111479
v -1.201290 0.552157 -1.035520
v -1.201290 0.877880 -1.036080
v -0.063038 0.681735 0.116381
v -0.063038 0.681735 0.116381
v -0.066287 0.480585 0.111479
v -1.201290 0.552157 -1.035520
v -1.189650 0.552205 1.281130
v -1.201290 0.552157 -1.035520
v -0.066287 0.480585 0.111479
v 0.350036 0.810552 -0.450600
v -0.369709 0.810552 -0.450600
v -0.369709 0.698912 -0.450600
v 0.350036 0.698912 -0.450600
v 0.350036 0.868558 -0.742569
v 0.350036 0.698912 -0.742569
v -0.369709 0.698912 -0.742569
v -0.369709 0.868558 -0.742569
v 0.350036 0.698912 -0.742569
v 0.350036 0.698912 -0.450600
v -0.369709 0.698912 -0.450600
v -0.369709 0.698912 -0.742569
v 0.350036 0.868558 -0.742569
v 0.350036 0.810552 -0.450600
v 0.350036 0.698912 -0.450600
v 0.350036 0.698912 -0.742569
v -0.369709 0.810552 -0.450600
v -1.049290 0.575485 1.134990
v -1.049290 0.807467 1.134990
v -0.992909 0.807467 -0.920402
v -0.992909 0.575485 -0.920402
v -1.049290 0.575485 -0.879014
v -1.049290 0.575485 1.134990
v 1.006040 0.807467 1.176380
v 1.006040 0.575485 1.176380
v 1.069590 0.575485 -0.873311
v 1.069590 0.807467 -0.873311
v 1.069590 0.575485 1.129280
v 1.069590 0.575485 -0.873311
v 1.069590 0.807467 1.129280
vt 0.3431 0.9114
vt 0.3667 0.9114
vt 0.3667 0.9448
vt 0.3431 0.8975
vt 0.3196 0.9448
vt 0.3431 0.9448
vt 0.3196 0.9114
vt 0.3098 0.9448
vt 0.3431 0.9782
vt 0.3196 0.9782
vt 0.3431 0.9921
vt 0.3667 0.9782
vt 0.3764 0.9448
vt 0.1362 0.9431
vt 0.0438 0.9431
vt 0.0438 0.9091
vt 0.1362 0.9091
vt 0.1362 0.9431
vt 0.1362 0.9091
vt 0.0438 0.9091
vt 0.0438 0.9431
vt 0.1357 0.9445
vt 0.1357 0.9933
vt 0.0433 0.9933
vt 0.0433 0.9445
vt 0.4221 0.7130
vt 0.3624 0.7130
vt 0.3624 0.8647
vt 0.4157 0.8979
vt 0.3581 0.8870
vt 0.3623 0.8651
vt 0.4222 0.8647
vt 0.3431 0.9114
vt 0.3667 0.9448
vt 0.3431 0.9448
vt 0.3667 0.9114
vt 0.3764 0.9448
vt 0.3431 0.8975
vt 0.3196 0.9448
vt 0.3196 0.9114
vt 0.3098 0.9448
vt 0.3431 0.9782
vt 0.3196 0.9782
vt 0.3431 0.9921
vt 0.3667 0.9782
vt 0.5011 0.8872
vt 0.4511 0.8872
vt 0.4510 0.5370
vt 0.6717 0.7141
vt 0.5011 0.8872
vt 0.5001 0.5378
vt 0.6952 0.7326
vt 0.6696 0.7199
vt 0.5011 0.8872
vt 0.5011 0.8872
vt 0.5374 0.9202
vt 0.6952 0.7326
vt 0.5374 0.9202
vt 0.5011 0.8872
vt 0.6716 0.7139
vt 0.6716 0.7139
vt 0.6952 0.7326
vt 0.5374 0.9202
vt 0.2690 0.9443
vt 0.1766 0.9443
vt 0.1766 0.9103
vt 0.2690 0.9103
vt 0.2690 0.9443
vt 0.2690 0.9103
vt 0.1766 0.9103
vt 0.1766 0.9443
vt 0.2684 0.9457
vt 0.2684 0.9945
vt 0.1760 0.9945
vt 0.1760 0.9457
vt 0.1744 0.9946
vt 0.1744 0.9459
vt 0.1444 0.9459
vt 0.1444 0.9946
vt 0.1760 0.9457
vt 0.1760 0.9945
vt 0.2684 0.9945
vt 0.2684 0.9457
vt 0.1444 0.9946
vt 0.1444 0.9459
vt 0.1744 0.9459
vt 0.1744 0.9946
vt 0.9446 0.8660
vt 0.7721 0.6914
vt 0.9456 0.5152
vt 0.4992 0.8884
vt 0.6741 0.7138
vt 0.4998 0.5387
vt 0.5785 0.5108
vt 0.7485 0.6776
vt 0.9192 0.5100
vt 0.0416 0.9934
vt 0.0416 0.9447
vt 0.0116 0.9447
vt 0.0116 0.9934
vt 0.0433 0.9445
vt 0.0433 0.9933
vt 0.1357 0.9933
vt 0.1357 0.9445
vt 0.0116 0.9934
vt 0.0116 0.9447
vt 0.0416 0.9447
vt 0.0416 0.9934
vt 0.9929 0.5147
vt 0.9438 0.5155
vt 0.9428 0.8648
vt 0.9928 0.8648
vt 0.7722 0.6917
vt 0.9428 0.8648
vt 0.9438 0.5155
vt 0.7486 0.7102
vt 0.7723 0.6916
vt 0.9428 0.8648
vt 0.9428 0.8648
vt 0.9065 0.8978
vt 0.7486 0.7102
vt 0.9065 0.8978
vt 0.9428 0.8648
vt 0.7723 0.6916
vt 0.7723 0.6916
vt 0.7486 0.7102
vt 0.9065 0.8978
vt 0.9189 0.4613
vt 0.9192 0.5100
vt 0.5785 0.5108
vt 0.5769 0.4614
vt 0.7485 0.6776
vt 0.5785 0.5108
vt 0.9192 0.5100
vt 0.7386 0.7056
vt 0.7485 0.6776
vt 0.5785 0.5108
vt 0.5785 0.5108
vt 0.5439 0.5477
vt 0.7386 0.7056
vt 0.5439 0.5477
vt 0.5785 0.5108
vt 0.7485 0.6776
vt 0.7485 0.6776
vt 0.7386 0.7056
vt 0.5439 0.5477
vt 0.5001 0.5378
vt 0.8735 0.0027
vt 0.8735 0.1363
vt 0.8138 0.1363
vt 0.6800 0.1484
vt 0.6245 0.1713
vt 0.6245 0.0146
vt 0.7030 0.0929
vt 0.6800 0.0374
vt 0.5461 0.0929
vt 0.5691 0.0374
vt 0.5691 0.1484
vt 0.3089 0.9038
vt 0.0037 0.9038
vt 0.0037 0.8673
vt 0.3089 0.8673
vt 0.0037 0.9038
vt 0.0037 0.8673
vt 0.3089 0.8673
vt 0.3089 0.9038
vt 0.0155 0.8437
vt 0.0155 0.5548
vt 0.3029 0.5548
vt 0.3029 0.8437
vt 0.3089 0.9038
vt 0.0037 0.9038
vt 0.0037 0.8673
vt 0.3089 0.8673
vt 0.0074 0.5605
vt 0.0074 0.8380
vt 0.1486 0.6981
vt 0.1566 0.6918
vt 0.3029 0.5548
vt 0.0155 0.5548
vt 0.0037 0.8673
vt 0.3089 0.8673
vt 0.3089 0.9038
vt 0.0037 0.9038
vt 0.1565 0.7032
vt 0.0155 0.8437
vt 0.3029 0.8437
vt 0.6245 0.1713
vt 0.6800 0.1484
vt 0.6245 0.0145
vt 0.7030 0.0929
vt 0.6800 0.0374
vt 0.5691 0.0374
vt 0.5461 0.0929
vt 0.5691 0.1484
vt 0.9332 0.0027
vt 0.9332 0.1363
vt 0.9928 0.0027
vt 0.9928 0.1363
vt 0.7530 0.0026
vt 0.8127 0.0026
vt 0.7530 0.1363
vt 0.8127 0.1363
vt 0.8724 0.0026
vt 0.8724 0.1363
vt 0.9320 0.0026
vt 0.9320 0.1363
vt 0.9917 0.0026
vt 0.9917 0.1363
vt 0.7542 0.0027
vt 0.8138 0.0027
vt 0.7542 0.1363
vt 0.1566 0.6978
vt 0.1648 0.6983
vt 0.3121 0.5613
vt 0.9351 0.9950
vt 0.9343 0.9459
vt 0.5849 0.9449
vt 0.5849 0.9949
vt 0.7580 0.7744
vt 0.5849 0.9449
vt 0.9343 0.9459
vt 0.7395 0.7508
vt 0.7582 0.7745
vt 0.5849 0.9449
vt 0.5849 0.9449
vt 0.5519 0.9087
vt 0.7395 0.7508
vt 0.5519 0.9087
vt 0.5849 0.9449
vt 0.7582 0.7745
vt 0.7582 0.7745
vt 0.7395 0.7508
vt 0.5519 0.9087
vt 0.9343 0.9459
vt 0.5849 0.9449
vt 0.7580 0.7744
vt 0.4217 0.7130
vt 0.4217 0.8648
vt 0.4474 0.8648
vt 0.4474 0.7130
vt 0.3622 0.7132
vt 0.3174 0.7132
vt 0.3174 0.8650
vt 0.3622 0.8650
vt 0.3624 0.7130
vt 0.4221 0.7130
vt 0.4221 0.8647
vt 0.3624 0.8647
vt 0.4222 0.8647
vt 0.3623 0.8651
vt 0.3581 0.8870
vt 0.4157 0.8979
vt 0.4221 0.8647
vt 0.3145 0.9038
vt 0.3145 0.8674
vt 0.3145 0.8674
vt 0.3145 0.9038
vt 0.0074 0.5605
vt 0.0074 0.8380
vt 0.3145 0.8674
vt 0.3145 0.9038
vt 0.3145 0.9038
vt 0.3145 0.8674
vt 0.3121 0.8372
vt 0.3121 0.5613
vt 0.3121 0.8372
vn -0.5324 0.8340 0.1448
vn -0.4941 0.4814 0.7239
vn 0.0000 0.6611 0.7503
vn -0.8107 0.5768 0.1001
vn 0.0000 0.8752 -0.4837
vn 0.0000 0.9853 0.1710
vn -0.4941 0.6972 -0.5193
vn 0.0000 0.6194 -0.7851
vn 0.5324 0.8340 0.1448
vn 0.4941 0.6972 -0.5193
vn 0.8107 0.5768 0.1001
vn 0.4941 0.4814 0.7239
vn 0.0000 0.3186 0.9479
vn 1.0000 -0.0000 0.0000
vn -1.0000 0.0000 0.0000
vn 0.0000 -1.0000 -0.0000
vn 0.0000 0.9808 0.1949
vn -0.0023 -0.0000 1.0000
vn 0.0005 0.9855 -0.1698
vn 0.7029 -0.0286 -0.7107
vn 0.6976 0.0034 -0.7165
vn -0.7153 -0.0012 -0.6988
vn -0.7158 0.0062 -0.6983
vn -1.0000 -0.0000 0.0091
vn 1.0000 0.0000 -0.0091
vn 0.0091 0.0000 1.0000
vn 0.0000 1.0000 0.0000
vn -0.0091 0.0000 -1.0000
vn 0.0000 -0.9980 -0.0629
vn -0.0002 -0.9980 0.0629
vn 0.0630 -0.9980 0.0000
vn 0.0000 0.0000 -1.0000
vn 0.0000 0.0000 1.0000
vn -0.0002 0.0000 -1.0000
vn -0.0000 0.9855 0.1697
vn -0.7128 -0.0287 0.7007
vn -0.7075 0.0036 0.7067
vn 0.7030 -0.0012 0.7112
vn 0.7033 0.0056 0.7108
vn 1.0000 0.0000 0.0007
vn -0.1698 0.9855 -0.0002
vn -0.6967 -0.0287 -0.7168
vn -0.7021 0.0004 -0.7120
vn -0.7004 -0.0012 0.7137
vn -0.7000 0.0061 0.7142
vn 0.8077 0.5797 -0.1073
vn 0.8077 -0.5797 0.1073
vn 0.6551 -0.5815 -0.4824
vn 0.6551 0.5815 0.4823
vn -0.4207 0.9055 0.0558
vn 0.1153 0.5835 0.8039
vn -0.5791 0.3366 0.7425
vn -0.1153 0.5835 -0.8039
vn -0.7586 0.3368 -0.5577
vn 0.5000 0.5815 -0.6418
vn -0.1203 -0.8127 0.5701
vn 0.3408 -0.5723 0.7459
vn 0.1195 0.8533 0.5075
vn -0.2427 0.8466 0.4736
vn -0.2755 -0.4656 -0.8410
vn -0.2236 0.8986 -0.3776
vn 0.2099 0.7610 -0.6138
vn 0.1343 -0.9034 -0.4073
vn -0.1202 -0.8127 0.5701
vn -0.2755 -0.4657 -0.8410
vn 0.1345 -0.9033 -0.4073
vn 0.7693 -0.5928 0.2382
vn 0.7567 -0.3454 -0.5550
vn 0.7488 0.6234 -0.2251
vn 0.6206 0.6223 0.4770
vn -0.4414 0.7784 -0.4463
vn -0.7479 0.6240 0.2265
vn 0.2122 0.9769 -0.0253
vn -0.0023 0.9594 0.2822
vn -0.2236 0.8986 -0.3775
vn -0.4414 0.7784 -0.4464
vn -0.7687 -0.5932 -0.2391
vn -0.7548 -0.3458 0.5574
vn -0.0059 0.9450 -0.3272
vn 0.1195 0.8534 0.5075
vn 0.5000 -0.5815 0.6418
vn -0.4208 -0.9055 -0.0556
vn -0.1153 -0.5835 0.8039
vn -0.7587 -0.3364 0.5578
vn -0.5789 -0.3365 -0.7427
vn 0.1153 -0.5835 -0.8039
vn 0.6551 -0.5815 -0.4823
vn 0.6552 0.5815 0.4822
vn -0.7587 0.3367 -0.5577
vn -0.5788 -0.3366 -0.7427
vn 0.0182 0.9998 -0.0036
vn -0.1601 0.9871 0.0019
vn -1.0000 0.0000 0.0051
vn 0.1706 0.9853 -0.0008
vn 0.7161 -0.0286 0.6974
vn 0.7212 -0.0001 0.6927
vn 0.7114 -0.0012 -0.7028
vn 0.7110 0.0057 -0.7032
vn -0.0633 -0.9980 0.0003
vn -0.7548 -0.3457 0.5574
vn -0.7549 -0.3457 0.5574
vn 0.1194 0.8533 0.5075
vn 0.3407 -0.5723 0.7459
vn 0.7693 -0.5928 0.2381
vn 0.6206 0.6223 0.4771
usemtl Tex_0038_0.dds.001
s 1
f 1/1/1 2/2/2 3/3/3
f 4/4/4 2/2/2 1/1/1
f 5/5/5 1/1/1 6/6/6
f 7/7/7 4/4/4 1/1/1
f 5/5/5 7/7/7 1/1/1
f 8/8/8 7/7/7 5/5/5
f 9/9/9 5/5/5 6/6/6
f 10/10/10 8/8/8 5/5/5
f 9/9/9 10/10/10 5/5/5
f 11/11/11 10/10/10 9/9/9
f 3/3/3 9/9/9 6/6/6
f 12/12/12 11/11/11 9/9/9
f 3/3/3 12/12/12 9/9/9
f 13/13/13 12/12/12 3/3/3
f 14/14/14 15/15/14 16/16/14
f 16/16/14 17/17/14 14/14/14
f 18/18/15 19/19/15 20/20/15
f 20/20/15 21/21/15 18/18/15
f 22/22/16 23/23/16 24/24/16
f 24/24/16 25/25/16 22/22/16
f 26/26/17 27/27/17 28/28/17
f 29/29/15 30/30/15 31/31/15
f 31/31/15 32/32/15 29/29/15
f 33/33/1 34/34/3 35/35/6
f 36/36/2 37/37/13 34/34/3
f 33/33/1 36/36/2 34/34/3
f 38/38/4 36/36/2 33/33/1
f 39/39/5 33/33/1 35/35/6
f 40/40/7 38/38/4 33/33/1
f 39/39/5 40/40/7 33/33/1
f 41/41/8 40/40/7 39/39/5
f 42/42/9 39/39/5 35/35/6
f 43/43/10 41/41/8 39/39/5
f 42/42/9 43/43/10 39/39/5
f 44/44/11 43/43/10 42/42/9
f 34/34/3 42/42/9 35/35/6
f 45/45/12 44/44/11 42/42/9
f 34/34/3 45/45/12 42/42/9
f 37/37/13 45/45/12 34/34/3
f 1/1/1 3/3/3 6/6/6
f 2/2/2 13/13/13 3/3/3
f 46/46/18 47/47/18 48/48/18
f 49/49/19 50/50/19 51/51/19
f 52/52/20 53/53/20 54/54/20
f 55/55/21 56/56/21 57/57/21
f 58/58/22 59/59/22 60/60/22
f 61/61/23 62/62/23 63/63/23
f 64/64/24 65/65/24 66/66/24
f 66/66/24 67/67/24 64/64/24
f 68/68/25 69/69/25 70/70/25
f 70/70/25 71/71/25 68/68/25
f 72/72/16 73/73/16 74/74/16
f 74/74/16 75/75/16 72/72/16
f 76/76/26 77/77/26 78/78/26
f 78/78/26 79/79/26 76/76/26
f 80/80/27 81/81/27 82/82/27
f 82/82/27 83/83/27 80/80/27
f 84/84/28 85/85/28 86/86/28
f 86/86/28 87/87/28 84/84/28
f 88/88/29 89/89/29 90/90/29
f 91/91/30 92/92/30 93/93/30
f 94/94/31 95/95/31 96/96/31
f 97/97/32 98/98/32 99/99/32
f 99/99/32 100/100/32 97/97/32
f 101/101/27 102/102/27 103/103/27
f 103/103/27 104/104/27 101/101/27
f 105/105/33 106/106/33 107/107/33
f 107/107/33 108/108/33 105/105/33
f 109/109/34 110/110/34 111/111/34
f 111/111/34 112/112/34 109/109/34
f 113/113/35 114/114/35 115/115/35
f 116/116/36 117/117/36 118/118/36
f 119/119/37 120/120/37 121/121/37
f 122/122/38 123/123/38 124/124/38
f 125/125/39 126/126/39 127/127/39
f 128/128/40 129/129/40 130/130/40
f 130/130/40 131/131/40 128/128/40
f 132/132/41 133/133/41 134/134/41
f 135/135/42 136/136/42 137/137/42
f 138/138/43 139/139/43 140/140/43
f 141/141/44 142/142/44 143/143/44
f 144/144/45 145/145/45 146/146/45
f 48/48/18 147/147/18 46/46/18
f 148/148/46 149/149/47 150/150/48
f 151/151/49 152/152/46 153/153/50
f 154/154/51 151/151/49 153/153/50
f 155/155/52 154/154/51 153/153/50
f 156/156/53 157/157/54 153/153/50
f 158/158/55 156/156/53 153/153/50
f 152/152/46 158/158/55 153/153/50
f 159/159/56 160/160/57 161/161/58
f 161/161/58 162/162/59 159/159/56
f 163/163/60 164/164/61 165/165/62
f 165/165/62 166/166/63 163/163/60
f 167/167/64 168/168/65 169/169/66
f 169/169/66 170/170/57 167/167/64
f 171/171/67 172/172/68 173/173/69
f 173/173/69 174/174/70 171/171/67
f 175/175/71 176/176/72 177/177/73
f 178/178/74 179/179/62 180/180/75
f 181/181/72 182/182/76 183/183/77
f 183/183/77 184/184/78 181/181/72
f 185/185/79 186/186/59 187/187/80
f 188/188/47 189/189/81 190/190/82
f 189/189/81 191/191/83 190/190/82
f 191/191/83 192/192/84 190/190/82
f 193/193/85 194/194/86 190/190/82
f 194/194/86 195/195/87 190/190/82
f 195/195/87 188/188/47 190/190/82
f 148/148/46 196/196/88 149/149/47
f 196/196/88 197/197/81 149/149/47
f 196/196/88 198/198/51 197/197/81
f 198/198/51 199/199/83 197/197/81
f 200/200/51 201/201/52 202/202/83
f 201/201/52 203/203/84 202/202/83
f 201/201/52 204/204/50 203/203/84
f 204/204/50 205/205/82 203/203/84
f 204/204/50 206/206/89 205/205/82
f 206/206/89 207/207/90 205/205/82
f 206/206/89 208/208/53 207/207/90
f 208/208/53 209/209/86 207/207/90
f 210/210/53 211/211/55 212/212/86
f 211/211/55 150/150/48 212/212/86
f 211/211/55 148/148/46 150/150/48
f 178/178/74 180/180/75 213/213/91
f 214/214/92 215/215/69 179/179/62
f 213/213/91 214/214/92 179/179/62
f 178/178/74 213/213/91 179/179/62
f 216/216/93 217/217/93 218/218/93
f 218/218/93 219/219/93 216/216/93
f 220/220/94 221/221/94 222/222/94
f 223/223/95 224/224/95 225/225/95
f 226/226/96 227/227/96 228/228/96
f 229/229/97 230/230/97 231/231/97
f 232/232/98 233/233/98 234/234/98
f 235/235/99 236/236/99 237/237/99
f 238/238/33 239/239/33 240/240/33
f 240/240/33 241/241/33 238/238/33
f 242/242/32 243/243/32 244/244/32
f 244/244/32 245/245/32 242/242/32
f 246/246/16 247/247/16 248/248/16
f 248/248/16 249/249/16 246/246/16
f 250/250/14 251/251/14 252/252/14
f 252/252/14 253/253/14 250/250/14
f 28/28/17 254/254/17 26/26/17
f 255/255/100 159/159/56 162/162/59
f 162/162/59 256/256/72 255/255/100
f 182/182/76 257/257/75 258/258/60
f 258/258/60 183/183/77 182/182/76
f 259/259/77 168/168/65 167/167/64
f 167/167/64 260/260/101 259/259/77
f 174/174/70 261/261/102 262/262/103
f 262/262/103 171/171/67 174/174/70
f 263/263/68 166/166/63 165/165/62
f 165/165/62 264/264/69 263/263/68
f 265/265/104 170/170/57 169/169/66
f 169/169/66 266/266/68 265/265/104
f 267/267/105 215/215/69 214/214/92
f 213/213/91 185/185/79 187/187/80
f 214/214/92 213/213/91 187/187/80
f 267/267/105 214/214/92 187/187/80
f 177/177/73 176/176/72 186/186/59
f 213/213/91 177/177/73 186/186/59
f 185/185/79 213/213/91 186/186/59
f 175/175/71 177/177/73 213/213/91
f 180/180/75 175/175/71 213/213/91
o Mesh_0092
v -0.134869 0.225489 -1.737930
v -0.015965 0.292003 -1.716060
v -0.015951 0.200261 -1.812100
v -0.103826 0.064474 -1.827800
v -0.102906 0.108071 -1.769340
v 0.114658 0.334295 -1.578710
v 0.041301 0.340586 -1.456730
v 0.152732 0.295533 -1.517280
v -0.016003 0.376321 -1.536470
v -0.081277 0.340544 -1.456780
v -0.150519 0.335629 -1.579970
v -0.185544 0.295357 -1.517510
v 0.066828 0.109884 -1.766870
v -0.102906 0.108071 -1.769340
v -0.103826 0.064474 -1.827800
v 0.065188 0.064989 -1.827110
v 0.066828 0.109884 -1.766870
v -0.103826 0.064474 -1.827800
v -0.170065 0.153959 -1.707540
v -0.102906 0.108071 -1.769340
v 0.066828 0.109884 -1.766870
v 0.132499 0.148502 -1.714880
v -0.170065 0.153959 -1.707540
v 0.066828 0.109884 -1.766870
v -0.178572 0.219807 -1.619050
v -0.170065 0.153959 -1.707540
v 0.132499 0.148502 -1.714880
v 0.142796 0.219799 -1.619060
v -0.178572 0.219807 -1.619050
v 0.132499 0.148502 -1.714880
v -0.185544 0.295357 -1.517510
v -0.178572 0.219807 -1.619050
v 0.142796 0.219799 -1.619060
v 0.152732 0.295533 -1.517280
v -0.185544 0.295357 -1.517510
v 0.142796 0.219799 -1.619060
v 0.041301 0.340586 -1.456730
v -0.081277 0.340544 -1.456780
v -0.185544 0.295357 -1.517510
v 0.152732 0.295533 -1.517280
v 0.041301 0.340586 -1.456730
v -0.185544 0.295357 -1.517510
v -1.493180 0.373359 0.988741
v -1.479550 0.373359 -0.823783
v -1.850890 -0.010164 0.985704
v 0.066828 0.109884 -1.766870
v 0.065188 0.064989 -1.827110
v 0.094550 0.225930 -1.736750
v 0.132499 0.148502 -1.714880
v -0.170065 0.153959 -1.707540
v -0.178572 0.219807 -1.619050
v 0.142796 0.219799 -1.619060
v -0.914619 0.006558 1.352980
v -0.919723 -0.010164 1.954220
v -0.914619 0.370838 1.352980
v 0.895837 0.373359 1.610130
v 0.897904 0.370838 1.366600
v -0.916686 0.373359 1.596510
v -0.914619 0.370838 1.352980
v -0.916686 0.373359 1.596510
v 0.897904 0.370838 1.366600
v 0.892800 -0.010164 1.967850
v 0.897904 0.005854 1.366600
v 0.895837 0.373359 1.610130
v 0.897904 0.370838 1.366600
v 1.474030 0.373359 0.988740
v 1.831740 -0.010164 0.985703
v 1.460400 0.373359 -0.823783
v 1.818120 -0.010164 -0.826820
v 1.216870 0.006559 -0.821715
v 1.230500 0.005855 0.990808
v 1.216870 0.370838 -0.821716
v 1.230500 0.370838 0.990808
v 1.818120 -0.010164 -0.826820
v 1.831740 -0.010164 0.985703
v 1.216870 0.006559 -0.821715
v 1.230500 0.005855 0.990808
v 1.460400 0.373359 -0.823783
v 1.818120 -0.010164 -0.826820
v 1.216870 0.370838 -0.821716
v 1.216870 0.006559 -0.821715
v 1.474030 0.373359 0.988740
v 1.460400 0.373359 -0.823783
v 1.230500 0.370838 0.990808
v 1.216870 0.370838 -0.821716
v 1.230500 0.370838 0.990808
v 1.460400 0.373359 -0.823783
v 1.831740 -0.010164 0.985703
v 1.474030 0.373359 0.988740
v 1.230500 0.005855 0.990808
v 1.230500 0.370838 0.990808
v -1.837270 -0.010164 -0.826819
v -1.236020 0.006558 -0.821715
v -1.236020 0.370838 -0.821716
v -1.249640 0.005854 0.990808
v -1.249640 0.370838 0.990808
v -1.837270 -0.010164 -0.826819
v -1.236020 0.006558 -0.821715
v -1.850890 -0.010164 0.985704
v -1.249640 0.005854 0.990808
v -1.479550 0.373359 -0.823783
v -1.236020 0.370838 -0.821716
v -1.837270 -0.010164 -0.826819
v -1.236020 0.006558 -0.821715
v -1.493180 0.373359 0.988741
v -1.249640 0.370838 0.990808
v -1.479550 0.373359 -0.823783
v -1.236020 0.370838 -0.821716
v -1.479550 0.373359 -0.823783
v -1.249640 0.370838 0.990808
v -1.850890 -0.010164 0.985704
v -1.249640 0.005854 0.990808
v -1.493180 0.373359 0.988741
v -1.249640 0.370838 0.990808
v 0.895837 0.373359 1.610130
v -0.916686 0.373359 1.596510
v 0.892800 -0.010164 1.967850
v -0.919723 -0.010164 1.954220
v -0.914619 0.006558 1.352980
v -0.914619 0.370838 1.352980
v 0.897904 0.005854 1.366600
v 0.897904 0.370838 1.366600
v -0.919723 -0.010164 1.954220
v -0.914619 0.006558 1.352980
v 0.892800 -0.010164 1.967850
v 0.897904 0.005854 1.366600
v -0.916686 0.373359 1.596510
v -1.430640 0.340851 1.549670
v -1.430640 0.340851 -1.304970
v -1.765250 0.004359 -1.318800
v -1.765250 0.004358 1.588060
v -1.281360 0.350429 1.399060
v -1.430640 0.340851 1.549670
v 1.398700 0.340851 1.549670
v 1.398700 0.340851 1.549670
v 1.249420 0.350429 1.399060
v -1.281360 0.350429 1.399060
v -1.281360 0.350429 -1.154350
v -1.430640 0.340851 -1.304970
v -1.430640 0.340851 1.549670
v -1.430640 0.340851 1.549670
v -1.281360 0.350429 1.399060
v -1.281360 0.350429 -1.154350
v 1.249420 0.350429 -1.154350
v 1.398700 0.340851 -1.304970
v -1.430640 0.340851 -1.304970
v -1.430640 0.340851 -1.304970
v -1.281360 0.350429 -1.154350
v 1.249420 0.350429 -1.154350
v 1.249420 0.350429 1.399060
v 1.398700 0.340851 1.549670
v 1.398700 0.340851 -1.304970
v 1.398700 0.340851 -1.304970
v 1.249420 0.350429 -1.154350
v 1.249420 0.350429 1.399060
v -1.281360 0.057062 1.399060
v -1.281360 0.350429 1.399060
v 1.249420 0.350429 1.399060
v 1.249420 0.057062 1.399060
v -1.281360 0.057062 -1.154350
v -1.281360 0.350429 -1.154350
v -1.281360 0.350429 1.399060
v -1.281360 0.350429 1.399060
v -1.281360 0.057062 1.399060
v -1.281360 0.057062 -1.154350
v 1.249420 0.057062 -1.154350
v 1.249420 0.350429 -1.154350
v -1.281360 0.350429 -1.154350
v -1.281360 0.057062 -1.154350
v 1.249420 0.057062 1.399060
v 1.249420 0.350429 1.399060
v 1.249420 0.350429 -1.154350
v -1.424880 0.004358 1.859360
v 1.392940 0.004358 1.859360
v 1.398700 0.340851 1.549670
v -1.430640 0.340851 1.549670
v -1.424880 0.004359 -1.639210
v -1.430640 0.340851 -1.304970
v 1.398700 0.340851 -1.304970
v 1.392940 0.004359 -1.639210
v -1.424880 0.004359 -1.639210
v 1.392940 0.004359 -1.639210
v 1.733310 0.004359 -1.318800
v -1.765250 0.004359 -1.318800
v 1.398700 0.340851 -1.304970
v 1.733310 0.004359 -1.318800
v 1.392940 0.004359 -1.639210
v -1.424880 0.004359 -1.639210
v -1.424880 0.004358 1.859360
v -1.765250 0.004358 1.588060
v 1.733310 0.004358 1.588060
v 1.392940 0.004358 1.859360
v 1.398700 0.340851 1.549670
v 1.392940 0.004358 1.859360
v 1.733310 0.004358 1.588060
v -1.281360 0.057062 -1.154350
v -1.281360 0.057062 1.399060
v 1.249420 0.057062 1.399060
v 1.249420 0.057062 1.399060
v 1.249420 0.057062 -1.154350
v -1.281360 0.057062 -1.154350
v -1.424880 0.004358 1.859360
v -0.461317 -0.008131 -1.750130
v -0.929273 -0.008131 -1.750260
v -0.929408 0.390981 -1.375050
v -0.929500 -0.008131 -1.112710
v -0.019966 -0.007879 -1.114310
v -0.023248 0.388112 -1.112460
v -0.929500 0.388112 -1.112470
v -0.929273 -0.008131 -1.750260
v -0.461317 -0.008131 -1.750130
v -0.019966 -0.007879 -1.114310
v -0.929500 -0.008131 -1.112710
v -0.017726 0.390915 -1.375060
v 0.224377 0.390915 -1.375060
v 0.269564 -0.007290 -1.891720
v 0.068573 -0.007290 -1.995990
v 0.883051 0.390981 -1.375050
v 0.224377 0.390915 -1.375060
v -0.023248 0.388112 -1.112460
v -0.023248 0.388112 -1.112460
v 0.882897 0.388112 -1.112450
v 0.883051 0.390981 -1.375050
v -0.306189 -0.007290 -1.902580
v -0.461317 -0.008131 -1.750130
v -0.268183 0.390915 -1.375060
v -0.306189 -0.007290 -1.902580
v -0.121378 -0.007290 -1.998160
v -0.019966 -0.007879 -1.114310
v -0.019966 -0.007879 -1.114310
v -0.461317 -0.008131 -1.750130
v -0.306189 -0.007290 -1.902580
v -0.121378 -0.007290 -1.998160
v 0.068573 -0.007290 -1.995990
v -0.019966 -0.007879 -1.114310
v 0.269564 -0.007290 -1.891720
v 0.224377 0.390915 -1.375060
v 0.423423 -0.008131 -1.749880
v -0.121378 -0.007290 -1.998160
v -0.019966 -0.007879 -1.114310
v 0.068573 -0.007290 -1.995990
v 0.269564 -0.007290 -1.891720
v 0.269564 -0.007290 -1.891720
v 0.423423 -0.008131 -1.749880
v -0.019966 -0.007879 -1.114310
v 1.249420 0.350429 -1.154350
v 1.249420 0.057062 -1.154350
v 1.249420 0.057062 1.399060
v 0.883051 0.390981 -1.375050
v 0.883276 -0.008131 -1.749750
v 0.423423 -0.008131 -1.749880
v 0.882897 -0.008131 -1.112210
v 0.882897 0.388112 -1.112450
v 0.423423 -0.008131 -1.749880
v 0.883276 -0.008131 -1.749750
v 0.882897 -0.008131 -1.112210
v -0.929500 0.388112 -1.112470
v -0.929408 0.390981 -1.375050
v -0.929273 -0.008131 -1.750260
v -0.929500 -0.008131 -1.112710
v -0.268183 0.390915 -1.375060
v -0.929408 0.390981 -1.375050
v -0.929500 0.388112 -1.112470
v -0.929500 0.388112 -1.112470
v -0.023248 0.388112 -1.112460
v -0.268183 0.390915 -1.375060
v 0.882897 -0.008131 -1.112210
v 0.883276 -0.008131 -1.749750
v 0.883051 0.390981 -1.375050
v 0.882897 0.388112 -1.112450
v -0.268183 0.390915 -1.375060
v -0.306189 -0.007290 -1.902580
v -0.023248 0.388112 -1.112460
v 0.224377 0.390915 -1.375060
v -0.017726 0.390915 -1.375060
v -0.023248 0.388112 -1.112460
v -0.017726 0.390915 -1.375060
v -0.268183 0.390915 -1.375060
vt 0.3570 0.6438
vt 0.3852 0.6345
vt 0.3848 0.6637
vt 0.3654 0.6788
vt 0.3656 0.6625
vt 0.4158 0.5973
vt 0.3975 0.5707
vt 0.4233 0.5909
vt 0.3848 0.5847
vt 0.3703 0.5707
vt 0.3530 0.5975
vt 0.3447 0.5909
vt 0.4031 0.6618
vt 0.3656 0.6625
vt 0.3654 0.6788
vt 0.4028 0.6786
vt 0.4031 0.6618
vt 0.3654 0.6788
vt 0.3483 0.6438
vt 0.3656 0.6625
vt 0.4031 0.6618
vt 0.4186 0.6459
vt 0.3483 0.6438
vt 0.4031 0.6618
vt 0.3463 0.6192
vt 0.3483 0.6438
vt 0.4186 0.6459
vt 0.4210 0.6192
vt 0.3463 0.6192
vt 0.4186 0.6459
vt 0.3447 0.5909
vt 0.3463 0.6192
vt 0.4210 0.6192
vt 0.4233 0.5909
vt 0.3447 0.5909
vt 0.4210 0.6192
vt 0.3975 0.5707
vt 0.3703 0.5707
vt 0.3447 0.5909
vt 0.4233 0.5909
vt 0.3975 0.5707
vt 0.3447 0.5909
vt 0.7044 0.4505
vt 0.7044 0.1943
vt 0.7785 0.4505
vt 0.4031 0.6618
vt 0.4028 0.6786
vt 0.4108 0.6435
vt 0.4186 0.6459
vt 0.3483 0.6438
vt 0.3463 0.6192
vt 0.4210 0.6192
vt 0.7208 0.1320
vt 0.7786 0.1947
vt 0.6820 0.1677
vt 0.7044 0.4505
vt 0.6704 0.4512
vt 0.7044 0.1943
vt 0.6704 0.1951
vt 0.7044 0.1943
vt 0.6704 0.4512
vt 0.7786 0.1947
vt 0.7208 0.1320
vt 0.7051 0.1934
vt 0.6820 0.1677
vt 0.7044 0.4505
vt 0.7785 0.4505
vt 0.7044 0.1943
vt 0.7785 0.1943
vt 0.6197 0.1951
vt 0.6197 0.4512
vt 0.6704 0.1951
vt 0.6704 0.4512
vt 0.5352 0.1941
vt 0.5352 0.4502
vt 0.6185 0.1941
vt 0.6185 0.4502
vt 0.7051 0.1934
vt 0.7786 0.1947
vt 0.6820 0.1677
vt 0.7208 0.1320
vt 0.7044 0.4505
vt 0.7044 0.1943
vt 0.6704 0.4512
vt 0.6704 0.1951
vt 0.6704 0.4512
vt 0.7044 0.1943
vt 0.7786 0.1947
vt 0.7051 0.1934
vt 0.7208 0.1320
vt 0.6820 0.1677
vt 0.7785 0.1943
vt 0.6197 0.1951
vt 0.6704 0.1951
vt 0.6197 0.4512
vt 0.6704 0.4512
vt 0.5352 0.1941
vt 0.6185 0.1941
vt 0.5352 0.4502
vt 0.6185 0.4502
vt 0.7051 0.1934
vt 0.6820 0.1677
vt 0.7786 0.1947
vt 0.7208 0.1320
vt 0.7044 0.4505
vt 0.6704 0.4512
vt 0.7044 0.1943
vt 0.6704 0.1951
vt 0.7044 0.1943
vt 0.6704 0.4512
vt 0.7786 0.1947
vt 0.7208 0.1320
vt 0.7051 0.1934
vt 0.6820 0.1677
vt 0.7044 0.4505
vt 0.7044 0.1943
vt 0.7785 0.4505
vt 0.7785 0.1943
vt 0.6197 0.1951
vt 0.6704 0.1951
vt 0.6197 0.4512
vt 0.6704 0.4512
vt 0.5352 0.1941
vt 0.6185 0.1941
vt 0.5352 0.4502
vt 0.6185 0.4502
vt 0.7051 0.1934
vt 0.0685 0.4754
vt 0.0685 0.0706
vt 0.0060 0.0548
vt 0.0060 0.4909
vt 0.0897 0.4540
vt 0.0685 0.4754
vt 0.4698 0.4754
vt 0.4698 0.4754
vt 0.4486 0.4540
vt 0.0897 0.4540
vt 0.0897 0.0919
vt 0.0685 0.0706
vt 0.0685 0.4754
vt 0.0685 0.4754
vt 0.0897 0.4540
vt 0.0897 0.0919
vt 0.4486 0.0919
vt 0.4698 0.0706
vt 0.0685 0.0706
vt 0.0685 0.0706
vt 0.0897 0.0919
vt 0.4486 0.0919
vt 0.4486 0.4540
vt 0.4698 0.4754
vt 0.4698 0.0706
vt 0.4698 0.0706
vt 0.4486 0.0919
vt 0.4486 0.4540
vt 0.4483 0.3713
vt 0.4493 0.4354
vt 0.0907 0.4354
vt 0.0904 0.3713
vt 0.4483 0.3713
vt 0.4493 0.4354
vt 0.0907 0.4354
vt 0.0907 0.4354
vt 0.0904 0.3713
vt 0.4483 0.3713
vt 0.4483 0.3713
vt 0.4493 0.4354
vt 0.0907 0.4354
vt 0.0904 0.3713
vt 0.4483 0.3713
vt 0.4493 0.4354
vt 0.0907 0.4354
vt 0.0571 0.5257
vt 0.4905 0.5252
vt 0.4698 0.4754
vt 0.0685 0.4754
vt 0.0529 0.0020
vt 0.0685 0.0706
vt 0.4698 0.0706
vt 0.4873 0.0012
vt 0.1316 0.0643
vt 0.4002 0.0643
vt 0.4327 0.0941
vt 0.0992 0.0941
vt 0.4698 0.0706
vt 0.5325 0.0503
vt 0.4873 0.0012
vt 0.0529 0.0020
vt 0.1316 0.3896
vt 0.0992 0.3644
vt 0.4327 0.3644
vt 0.4002 0.3896
vt 0.4698 0.4754
vt 0.4905 0.5252
vt 0.5321 0.4909
vt 0.1261 0.0954
vt 0.1261 0.3653
vt 0.3960 0.3653
vt 0.3960 0.3653
vt 0.3960 0.0954
vt 0.1261 0.0954
vt 0.0571 0.5257
vt 0.9516 0.3374
vt 0.9516 0.4050
vt 0.8828 0.4050
vt 0.7820 0.4052
vt 0.7818 0.2741
vt 0.8422 0.2741
vt 0.8423 0.4052
vt 0.9526 0.4053
vt 0.9526 0.3377
vt 0.8437 0.2740
vt 0.8434 0.4053
vt 0.8828 0.2733
vt 0.8828 0.2384
vt 0.9775 0.2319
vt 0.9972 0.2609
vt 0.8828 0.1433
vt 0.8828 0.2384
vt 0.8422 0.2741
vt 0.8422 0.2741
vt 0.8422 0.1433
vt 0.8828 0.1433
vt 0.9795 0.3150
vt 0.9516 0.3374
vt 0.8828 0.3095
vt 0.9787 0.3153
vt 0.9951 0.2886
vt 0.8437 0.2740
vt 0.8437 0.2740
vt 0.9526 0.3377
vt 0.9787 0.3153
vt 0.9951 0.2886
vt 0.9947 0.2612
vt 0.8437 0.2740
vt 0.9775 0.2319
vt 0.8828 0.2384
vt 0.9515 0.2096
vt 0.9970 0.2883
vt 0.8437 0.2740
vt 0.9947 0.2612
vt 0.9768 0.2322
vt 0.9768 0.2322
vt 0.9525 0.2099
vt 0.8437 0.2740
vt 0.0907 0.4354
vt 0.0904 0.3713
vt 0.4483 0.3713
vt 0.8828 0.1433
vt 0.9515 0.1432
vt 0.9515 0.2096
vt 0.7817 0.1435
vt 0.8422 0.1433
vt 0.9525 0.2099
vt 0.9525 0.1435
vt 0.8434 0.1436
vt 0.8433 0.4065
vt 0.8804 0.4061
vt 0.9333 0.4577
vt 0.8434 0.4577
vt 0.8828 0.3095
vt 0.8828 0.4050
vt 0.8423 0.4052
vt 0.8423 0.4052
vt 0.8422 0.2741
vt 0.8828 0.3095
vt 0.8433 0.4577
vt 0.9332 0.4577
vt 0.8804 0.4061
vt 0.8433 0.4065
vt 0.8828 0.3095
vt 0.9795 0.3150
vt 0.8422 0.2741
vt 0.8828 0.2384
vt 0.8828 0.2733
vt 0.8422 0.2741
vt 0.8828 0.2733
vt 0.8828 0.3095
vn -0.6573 0.4040 -0.6362
vn 0.0109 0.8188 -0.5740
vn 0.0134 0.4927 -0.8701
vn -0.4420 0.3800 -0.8125
vn -0.6819 0.2239 -0.6963
vn 0.5842 0.7759 -0.2380
vn 0.2815 0.9183 0.2783
vn 0.7525 0.6565 -0.0521
vn 0.0079 0.9996 -0.0265
vn -0.2865 0.9171 0.2773
vn -0.5891 0.7750 -0.2286
vn -0.7745 0.6320 -0.0268
vn -0.0001 -0.8016 0.5978
vn 0.0000 -0.8018 0.5976
vn -0.0001 -0.8029 0.5961
vn -0.0000 -0.8028 0.5963
vn 0.0000 -0.8023 0.5970
vn -0.0000 -0.8023 0.5969
vn -0.7313 0.6821 -0.0055
vn -0.7312 0.6821 -0.0055
vn 0.6672 0.2287 -0.7089
vn 0.4521 0.3617 -0.8153
vn 0.6437 0.4126 -0.6446
vn 0.7726 0.2093 -0.5994
vn -0.8176 0.1685 -0.5505
vn -0.8969 0.3162 -0.3091
vn 0.8789 0.3348 -0.3399
vn -1.0000 0.0000 -0.0085
vn 0.0001 0.9999 -0.0104
vn 1.0000 -0.0000 0.0085
vn 0.7313 0.6821 -0.0055
vn 0.7312 0.6821 -0.0055
vn -1.0000 0.0000 0.0075
vn -0.0278 -0.9996 0.0002
vn -0.0272 -0.9996 0.0000
vn -0.0266 -0.9996 -0.0002
vn -0.0085 0.0000 -1.0000
vn -0.0104 0.9999 0.0001
vn 0.0085 0.0000 1.0000
vn 1.0000 0.0000 0.0075
vn 0.0278 -0.9996 0.0002
vn 0.0270 -0.9996 -0.0001
vn 0.0269 -0.9996 -0.0001
vn 0.0266 -0.9996 -0.0002
vn 0.0085 -0.0000 -1.0000
vn 0.0104 0.9999 0.0001
vn -0.0085 -0.0000 1.0000
vn -0.0055 0.6821 0.7312
vn -0.0055 0.6821 0.7313
vn 0.0075 0.0000 -1.0000
vn 0.0002 -0.9996 -0.0278
vn -0.0001 -0.9996 -0.0270
vn 0.0000 -0.9996 -0.0272
vn -0.0002 -0.9996 -0.0266
vn -0.6781 0.6999 0.2245
vn -0.6672 0.6763 -0.3123
vn -0.6895 0.6941 -0.2069
vn -0.6474 0.6825 0.3392
vn 0.0000 0.9980 0.0635
vn -0.0640 0.9979 0.0000
vn 0.0000 0.9980 -0.0635
vn 0.0640 0.9979 0.0000
vn 0.0000 0.0000 -1.0000
vn 1.0000 0.0000 0.0000
vn 0.0000 0.0000 1.0000
vn -1.0000 0.0000 0.0000
vn 0.0000 0.6772 0.7358
vn 0.0000 0.7047 -0.7095
vn 0.0000 -1.0000 -0.0000
vn 0.6895 0.6941 -0.2069
vn 0.6672 0.6763 -0.3122
vn 0.5585 0.5797 -0.5933
vn -0.5585 0.5797 -0.5933
vn 0.6474 0.6825 0.3392
vn 0.5085 0.5784 0.6379
vn 0.6781 0.6999 0.2245
vn 0.0000 1.0000 0.0000
vn -0.5085 0.5784 0.6379
vn 0.0001 0.6849 -0.7286
vn 0.0002 0.6850 -0.7286
vn 0.0009 -0.0026 1.0000
vn -0.0002 -0.0030 1.0000
vn 0.0006 -0.0036 1.0000
vn -0.0000 -0.0006 1.0000
vn 0.0002 -1.0000 0.0002
vn 0.0000 -1.0000 0.0004
vn -0.0001 -1.0000 0.0002
vn 0.0003 -1.0000 -0.0000
vn 0.0664 0.8325 -0.5500
vn -0.0000 0.7407 -0.6718
vn 0.1300 0.8190 -0.5589
vn 0.1328 0.8426 -0.5219
vn -0.0001 0.9999 0.0106
vn -0.0000 0.9999 0.0109
vn -0.4955 0.7101 -0.5003
vn -0.0003 -1.0000 -0.0006
vn 0.0035 -1.0000 -0.0020
vn 0.0000 -1.0000 -0.0007
vn 0.4748 0.7167 -0.5108
vn -0.0960 0.8279 -0.5526
vn 0.0003 -1.0000 -0.0006
vn -0.0035 -1.0000 -0.0021
vn 0.0001 0.6845 -0.7290
vn 0.0002 0.6845 -0.7291
vn -0.0000 0.7407 -0.6719
vn -0.0023 0.0006 1.0000
vn -0.0012 -0.0021 1.0000
vn -0.0002 -1.0000 0.0001
vn -0.0003 -1.0000 0.0002
vn -1.0000 -0.0000 -0.0004
vn 0.0001 0.9999 0.0109
vn -0.0000 0.9999 0.0107
vn 1.0000 0.0000 0.0006
vn -0.0985 0.7788 -0.6194
vn -0.2911 0.7735 -0.5629
vn -0.0985 0.7788 -0.6195
usemtl Tex_0038_0.dds
s 1
f 268/268/106 269/269/107 270/270/108
f 270/270/108 271/271/109 272/272/110
f 273/273/111 274/274/112 275/275/113
f 274/274/112 273/273/111 276/276/114
f 277/277/115 278/278/116 279/279/117
f 278/278/116 277/277/115 276/276/114
f 280/280/118 281/281/118 282/282/118
f 283/283/119 284/284/119 285/285/119
f 286/286/120 287/287/120 288/288/120
f 289/289/121 290/290/121 291/291/121
f 292/292/122 293/293/122 294/294/122
f 295/295/122 296/296/122 297/297/122
f 298/298/123 299/299/123 300/300/123
f 301/301/122 302/302/122 303/303/122
f 304/304/123 305/305/123 306/306/123
f 307/307/122 308/308/122 309/309/122
f 310/310/124 311/311/125 312/312/124
f 274/274/112 276/276/114 277/277/115
f 270/270/108 313/313/126 314/314/127
f 315/315/128 316/316/129 313/313/126
f 313/313/126 270/270/108 315/315/128
f 268/268/106 317/317/130 318/318/131
f 272/272/110 317/317/130 268/268/106
f 268/268/106 270/270/108 272/272/110
f 314/314/127 271/271/109 270/270/108
f 319/319/132 315/315/128 273/273/111
f 273/273/111 275/275/113 319/319/132
f 315/315/128 319/319/132 316/316/129
f 318/318/131 279/279/117 278/278/116
f 278/278/116 268/268/106 318/318/131
f 269/269/107 276/276/114 273/273/111
f 269/269/107 278/278/116 276/276/114
f 268/268/106 278/278/116 269/269/107
f 273/273/111 315/315/128 269/269/107
f 269/269/107 315/315/128 270/270/108
f 320/320/133 321/321/133 322/322/133
f 323/323/134 324/324/134 325/325/134
f 326/326/134 327/327/134 328/328/134
f 329/329/135 330/330/135 331/331/135
f 332/332/135 331/331/135 330/330/135
f 333/333/136 334/334/136 335/335/137
f 336/336/137 335/335/137 334/334/136
f 337/337/138 338/338/138 339/339/138
f 340/340/138 339/339/138 338/338/138
f 341/341/139 342/342/140 343/343/140
f 344/344/141 343/343/140 342/342/140
f 345/345/142 346/346/142 347/347/142
f 348/348/142 347/347/142 346/346/142
f 349/349/143 350/350/143 351/351/143
f 352/352/143 353/353/143 354/354/143
f 355/355/144 356/356/144 357/357/144
f 358/358/144 357/357/144 356/356/144
f 359/359/125 312/312/124 311/311/125
f 360/360/145 361/361/145 362/362/145
f 363/363/145 362/362/145 361/361/145
f 364/364/146 365/365/147 366/366/148
f 367/367/149 366/366/148 365/365/147
f 368/368/150 369/369/150 370/370/150
f 371/371/150 370/370/150 369/369/150
f 372/372/151 373/373/151 374/374/151
f 375/375/151 376/376/151 377/377/151
f 378/378/152 379/379/152 380/380/152
f 381/381/152 380/380/152 379/379/152
f 382/382/153 383/383/154 384/384/153
f 385/385/154 384/384/153 383/383/154
f 386/386/155 387/387/155 388/388/155
f 389/389/155 388/388/155 387/387/155
f 390/390/156 391/391/157 392/392/158
f 393/393/159 392/392/158 391/391/157
f 394/394/133 322/322/133 321/321/133
f 395/395/160 396/396/161 397/397/162
f 397/397/162 398/398/163 395/395/160
f 399/399/164 400/400/164 401/401/164
f 402/402/164 403/403/164 404/404/164
f 405/405/165 406/406/165 407/407/165
f 408/408/165 409/409/165 410/410/165
f 411/411/166 412/412/166 413/413/166
f 414/414/166 415/415/166 416/416/166
f 417/417/167 418/418/167 419/419/167
f 420/420/167 421/421/167 422/422/167
f 423/423/168 424/424/168 425/425/168
f 425/425/168 426/426/168 423/423/168
f 427/427/169 428/428/169 429/429/169
f 430/430/169 431/431/169 432/432/169
f 433/433/170 434/434/170 435/435/170
f 435/435/170 436/436/170 433/433/170
f 437/437/171 438/438/171 439/439/171
f 440/440/172 441/441/172 442/442/172
f 442/442/172 443/443/172 440/440/172
f 444/444/173 445/445/173 446/446/173
f 446/446/173 447/447/173 444/444/173
f 448/448/174 449/449/174 450/450/174
f 450/450/174 451/451/174 448/448/174
f 452/452/175 453/453/176 454/454/177
f 397/397/162 396/396/161 455/455/178
f 456/456/174 457/457/174 458/458/174
f 458/458/174 459/459/174 456/456/174
f 460/460/179 461/461/180 462/462/181
f 463/463/182 464/464/182 465/465/182
f 466/466/182 467/467/182 468/468/182
f 398/398/163 469/469/183 395/395/160
f 457/457/174 451/451/174 450/450/174
f 450/450/174 458/458/174 457/457/174
f 462/462/181 453/453/176 452/452/175
f 452/452/175 460/460/179 462/462/181
f 470/470/184 471/471/185 472/472/184
f 473/473/186 474/474/187 475/475/188
f 475/475/188 476/476/189 473/473/186
f 477/477/190 478/478/191 479/479/192
f 479/479/192 480/480/193 477/477/190
f 481/481/194 482/482/195 483/483/196
f 483/483/196 484/484/197 481/481/194
f 485/485/198 486/486/198 487/487/198
f 488/488/199 489/489/199 490/490/199
f 491/491/200 492/492/200 493/493/200
f 494/494/201 495/495/201 496/496/201
f 497/497/202 498/498/202 499/499/202
f 500/500/203 501/501/203 502/502/203
f 503/503/204 504/504/204 505/505/204
f 484/484/197 506/506/205 481/481/194
f 507/507/206 508/508/206 509/509/206
f 510/510/207 511/511/207 512/512/207
f 513/513/171 514/514/171 515/515/171
f 516/516/208 517/517/209 518/518/208
f 518/518/208 482/482/210 516/516/208
f 474/474/187 519/519/211 520/520/212
f 520/520/212 475/475/188 474/474/187
f 521/521/213 522/522/174 523/523/213
f 523/523/213 479/479/214 521/521/213
f 524/524/215 525/525/215 526/526/215
f 526/526/215 527/527/215 524/524/215
f 528/528/216 529/529/216 530/530/216
f 531/531/217 532/532/217 533/533/217
f 534/534/218 535/535/218 536/536/218
f 536/536/218 537/537/218 534/534/218
f 538/538/219 481/481/194 506/506/205
f 506/506/205 539/539/220 538/538/219
f 540/540/217 541/541/217 542/542/217
f 543/543/217 544/544/217 545/545/217
f 472/472/184 538/538/221 470/470/184
