<!doctype html>
<html lang="en">
	<head>
		<meta charset="utf-8">
		<title>	Paste.ee - 40mm
</title>
		<meta name="viewport" content="width=device-width, initial-scale=1.0">
		<meta name="description" content="A free, easy to use Pastebin.">
		<meta name="author" content="Paste.ee">

			<meta property="og:site_name" content="Paste.ee" />
	<meta property="og:title" content="View Paste 3UCK0" />
	<meta property="og:type" content="website" />
	<meta property="og:url" content="https://paste.ee/p/3UCK0" />
	<meta property="og:image" content="https://paste.ee/img/icon.png" />
	<meta property="og:description" content="Paste.ee - View Paste 3UCK0" />

		
		<link media="all" type="text/css" rel="stylesheet" href="https://paste.ee/build/css/app-a3004abf.css">


		
		<!--[if lt IE 9]>
		  <script src="https://paste.ee/js/html5shiv/html5shiv.min.js"></script>

		  <script src="https://paste.ee/js/respond.js/respond.min.js"></script>

		<![endif]-->
	</head>
	<body>
		<div class="navbar navbar-default navbar-static-top" role="navigation">
			<div class="container">
				<div class="navbar-header">
					<button type="button" class="navbar-toggle" data-toggle="collapse" data-target=".navbar-collapse">
						<span class="sr-only">Toggle navigation</span>
						<span class="icon-bar"></span>
						<span class="icon-bar"></span>
						<span class="icon-bar"></span>
					</button>
					<a class="navbar-brand" href="https://paste.ee">Paste.ee</a>
				</div>
				<div class="navbar-collapse collapse">
					<ul class="nav navbar-nav">
						<li><a href="https://paste.ee">Home</a></li>
						<li><a href="https://paste.ee/about">About</a></li>
						<li><a href="https://paste.ee/wiki">Wiki</a></li>
						<li><a href="https://paste.ee/contact">Contact</a></li>
					</ul>
					<ul class="nav navbar-nav navbar-right">
						<li class="dropdown">
							<a href="#" class="dropdown-toggle" data-toggle="dropdown">Not logged in <b class="caret"></b></a>
							<ul class="dropdown-menu">
								<li><a href="https://paste.ee/register"><span class="fa fa-user fa-fw"></span>&nbsp;Register</a></li>
								<li class="divider"></li>
								<li><a href="https://paste.ee/login"><span class="fa fa-sign-in fa-fw"></span>&nbsp;Login</a></li>
							</ul>
						</li>
					</ul>
				</div><!--/.nav-collapse -->
			</div>
		</div>		<div class="container">
			
				<div class="row">
		<noscript>
			<div class="alert alert-danger">Paste.ee uses Javascript for highlighting and various other features. While the site will still function, you won't have any of the cool features we have.</div>
		</noscript>
		<div class="row">
			<div class="col-sm-6 paste-info">
								Description: 40mm<br />
												Submitted by Dongoloid
								 on April 14, 2017
															</div>
		<br />
		</div>
		<div class="row">
			<div class="col-sm-12">
				<a id="download" href="https://paste.ee/d/3UCK0" data-paste="3UCK0"><i class="fa fa-download fa-fw"></i> Download</a>
				- <a id="report" href="#" data-paste="3UCK0"><span class="fa fa-ban fa-fw"></span> Report</a>
			</div>
		</div>
					<div id="section0" class="row">
	<div class="col-sm-12 section-container" data-sectionid="0" data-syntax="text" data-name="New Paste 1">
		<div class="row">
			<div class="col-sm-8">
				<h3>
					<a id="s0" href="#section0" class="section-title">New Paste 1</a> (Text)
				</h3>
			</div>
			<div class="col-sm-4 text-right-sm">
				<h3>
					<a href="#" class="copy-button"><i class="fa fa-clipboard fa-fw"></i></a>
					<a class="download" href="https://paste.ee/d/3UCK0/0" data-paste="3UCK0"><i class="fa fa-download fa-fw"></i></a>
					<a class="raw" href="https://paste.ee/r/3UCK0/0" data-paste="3UCK0"><i class="fa fa-file-text fa-fw"></i></a>
					<a class="embed" href="https://paste.ee/e/3UCK0/0"><i class="fa fa-plug fa-fw"></i></a>
				</h3>
			</div>
		</div>
		<div class="section-content">
			<div class="line-numbers">
				<a href="#" id="s0l1">1</a><a href="#" id="s0l2">2</a><a href="#" id="s0l3">3</a><a href="#" id="s0l4">4</a><a href="#" id="s0l5">5</a><a href="#" id="s0l6">6</a><a href="#" id="s0l7">7</a><a href="#" id="s0l8">8</a><a href="#" id="s0l9">9</a><a href="#" id="s0l10">10</a><a href="#" id="s0l11">11</a><a href="#" id="s0l12">12</a><a href="#" id="s0l13">13</a><a href="#" id="s0l14">14</a><a href="#" id="s0l15">15</a><a href="#" id="s0l16">16</a><a href="#" id="s0l17">17</a><a href="#" id="s0l18">18</a><a href="#" id="s0l19">19</a><a href="#" id="s0l20">20</a><a href="#" id="s0l21">21</a><a href="#" id="s0l22">22</a><a href="#" id="s0l23">23</a><a href="#" id="s0l24">24</a><a href="#" id="s0l25">25</a><a href="#" id="s0l26">26</a><a href="#" id="s0l27">27</a><a href="#" id="s0l28">28</a><a href="#" id="s0l29">29</a><a href="#" id="s0l30">30</a><a href="#" id="s0l31">31</a><a href="#" id="s0l32">32</a><a href="#" id="s0l33">33</a><a href="#" id="s0l34">34</a><a href="#" id="s0l35">35</a><a href="#" id="s0l36">36</a><a href="#" id="s0l37">37</a><a href="#" id="s0l38">38</a><a href="#" id="s0l39">39</a><a href="#" id="s0l40">40</a><a href="#" id="s0l41">41</a><a href="#" id="s0l42">42</a><a href="#" id="s0l43">43</a><a href="#" id="s0l44">44</a><a href="#" id="s0l45">45</a><a href="#" id="s0l46">46</a><a href="#" id="s0l47">47</a><a href="#" id="s0l48">48</a><a href="#" id="s0l49">49</a><a href="#" id="s0l50">50</a><a href="#" id="s0l51">51</a><a href="#" id="s0l52">52</a><a href="#" id="s0l53">53</a><a href="#" id="s0l54">54</a><a href="#" id="s0l55">55</a><a href="#" id="s0l56">56</a><a href="#" id="s0l57">57</a><a href="#" id="s0l58">58</a><a href="#" id="s0l59">59</a><a href="#" id="s0l60">60</a><a href="#" id="s0l61">61</a><a href="#" id="s0l62">62</a><a href="#" id="s0l63">63</a><a href="#" id="s0l64">64</a><a href="#" id="s0l65">65</a><a href="#" id="s0l66">66</a><a href="#" id="s0l67">67</a><a href="#" id="s0l68">68</a><a href="#" id="s0l69">69</a><a href="#" id="s0l70">70</a><a href="#" id="s0l71">71</a><a href="#" id="s0l72">72</a><a href="#" id="s0l73">73</a><a href="#" id="s0l74">74</a><a href="#" id="s0l75">75</a><a href="#" id="s0l76">76</a><a href="#" id="s0l77">77</a><a href="#" id="s0l78">78</a><a href="#" id="s0l79">79</a><a href="#" id="s0l80">80</a><a href="#" id="s0l81">81</a><a href="#" id="s0l82">82</a><a href="#" id="s0l83">83</a><a href="#" id="s0l84">84</a><a href="#" id="s0l85">85</a><a href="#" id="s0l86">86</a><a href="#" id="s0l87">87</a><a href="#" id="s0l88">88</a><a href="#" id="s0l89">89</a><a href="#" id="s0l90">90</a><a href="#" id="s0l91">91</a><a href="#" id="s0l92">92</a><a href="#" id="s0l93">93</a><a href="#" id="s0l94">94</a><a href="#" id="s0l95">95</a><a href="#" id="s0l96">96</a><a href="#" id="s0l97">97</a><a href="#" id="s0l98">98</a><a href="#" id="s0l99">99</a><a href="#" id="s0l100">100</a><a href="#" id="s0l101">101</a><a href="#" id="s0l102">102</a><a href="#" id="s0l103">103</a><a href="#" id="s0l104">104</a><a href="#" id="s0l105">105</a><a href="#" id="s0l106">106</a><a href="#" id="s0l107">107</a><a href="#" id="s0l108">108</a><a href="#" id="s0l109">109</a><a href="#" id="s0l110">110</a><a href="#" id="s0l111">111</a><a href="#" id="s0l112">112</a><a href="#" id="s0l113">113</a><a href="#" id="s0l114">114</a><a href="#" id="s0l115">115</a><a href="#" id="s0l116">116</a><a href="#" id="s0l117">117</a><a href="#" id="s0l118">118</a><a href="#" id="s0l119">119</a><a href="#" id="s0l120">120</a><a href="#" id="s0l121">121</a><a href="#" id="s0l122">122</a><a href="#" id="s0l123">123</a><a href="#" id="s0l124">124</a><a href="#" id="s0l125">125</a><a href="#" id="s0l126">126</a><a href="#" id="s0l127">127</a><a href="#" id="s0l128">128</a><a href="#" id="s0l129">129</a><a href="#" id="s0l130">130</a><a href="#" id="s0l131">131</a><a href="#" id="s0l132">132</a><a href="#" id="s0l133">133</a><a href="#" id="s0l134">134</a><a href="#" id="s0l135">135</a><a href="#" id="s0l136">136</a><a href="#" id="s0l137">137</a><a href="#" id="s0l138">138</a><a href="#" id="s0l139">139</a><a href="#" id="s0l140">140</a><a href="#" id="s0l141">141</a><a href="#" id="s0l142">142</a><a href="#" id="s0l143">143</a><a href="#" id="s0l144">144</a><a href="#" id="s0l145">145</a><a href="#" id="s0l146">146</a><a href="#" id="s0l147">147</a><a href="#" id="s0l148">148</a><a href="#" id="s0l149">149</a><a href="#" id="s0l150">150</a><a href="#" id="s0l151">151</a><a href="#" id="s0l152">152</a><a href="#" id="s0l153">153</a><a href="#" id="s0l154">154</a><a href="#" id="s0l155">155</a><a href="#" id="s0l156">156</a><a href="#" id="s0l157">157</a><a href="#" id="s0l158">158</a><a href="#" id="s0l159">159</a><a href="#" id="s0l160">160</a><a href="#" id="s0l161">161</a><a href="#" id="s0l162">162</a><a href="#" id="s0l163">163</a><a href="#" id="s0l164">164</a><a href="#" id="s0l165">165</a><a href="#" id="s0l166">166</a><a href="#" id="s0l167">167</a><a href="#" id="s0l168">168</a><a href="#" id="s0l169">169</a><a href="#" id="s0l170">170</a><a href="#" id="s0l171">171</a><a href="#" id="s0l172">172</a><a href="#" id="s0l173">173</a><a href="#" id="s0l174">174</a><a href="#" id="s0l175">175</a><a href="#" id="s0l176">176</a><a href="#" id="s0l177">177</a><a href="#" id="s0l178">178</a><a href="#" id="s0l179">179</a><a href="#" id="s0l180">180</a><a href="#" id="s0l181">181</a><a href="#" id="s0l182">182</a><a href="#" id="s0l183">183</a><a href="#" id="s0l184">184</a><a href="#" id="s0l185">185</a><a href="#" id="s0l186">186</a><a href="#" id="s0l187">187</a><a href="#" id="s0l188">188</a><a href="#" id="s0l189">189</a><a href="#" id="s0l190">190</a><a href="#" id="s0l191">191</a><a href="#" id="s0l192">192</a><a href="#" id="s0l193">193</a><a href="#" id="s0l194">194</a><a href="#" id="s0l195">195</a><a href="#" id="s0l196">196</a><a href="#" id="s0l197">197</a><a href="#" id="s0l198">198</a><a href="#" id="s0l199">199</a><a href="#" id="s0l200">200</a><a href="#" id="s0l201">201</a><a href="#" id="s0l202">202</a><a href="#" id="s0l203">203</a><a href="#" id="s0l204">204</a><a href="#" id="s0l205">205</a><a href="#" id="s0l206">206</a><a href="#" id="s0l207">207</a><a href="#" id="s0l208">208</a><a href="#" id="s0l209">209</a><a href="#" id="s0l210">210</a><a href="#" id="s0l211">211</a><a href="#" id="s0l212">212</a><a href="#" id="s0l213">213</a><a href="#" id="s0l214">214</a><a href="#" id="s0l215">215</a><a href="#" id="s0l216">216</a><a href="#" id="s0l217">217</a><a href="#" id="s0l218">218</a><a href="#" id="s0l219">219</a><a href="#" id="s0l220">220</a><a href="#" id="s0l221">221</a><a href="#" id="s0l222">222</a><a href="#" id="s0l223">223</a><a href="#" id="s0l224">224</a><a href="#" id="s0l225">225</a><a href="#" id="s0l226">226</a><a href="#" id="s0l227">227</a><a href="#" id="s0l228">228</a><a href="#" id="s0l229">229</a><a href="#" id="s0l230">230</a><a href="#" id="s0l231">231</a><a href="#" id="s0l232">232</a><a href="#" id="s0l233">233</a><a href="#" id="s0l234">234</a><a href="#" id="s0l235">235</a><a href="#" id="s0l236">236</a><a href="#" id="s0l237">237</a><a href="#" id="s0l238">238</a><a href="#" id="s0l239">239</a><a href="#" id="s0l240">240</a><a href="#" id="s0l241">241</a><a href="#" id="s0l242">242</a><a href="#" id="s0l243">243</a><a href="#" id="s0l244">244</a><a href="#" id="s0l245">245</a><a href="#" id="s0l246">246</a><a href="#" id="s0l247">247</a><a href="#" id="s0l248">248</a><a href="#" id="s0l249">249</a><a href="#" id="s0l250">250</a><a href="#" id="s0l251">251</a><a href="#" id="s0l252">252</a><a href="#" id="s0l253">253</a><a href="#" id="s0l254">254</a><a href="#" id="s0l255">255</a><a href="#" id="s0l256">256</a><a href="#" id="s0l257">257</a><a href="#" id="s0l258">258</a><a href="#" id="s0l259">259</a><a href="#" id="s0l260">260</a><a href="#" id="s0l261">261</a><a href="#" id="s0l262">262</a><a href="#" id="s0l263">263</a><a href="#" id="s0l264">264</a><a href="#" id="s0l265">265</a><a href="#" id="s0l266">266</a><a href="#" id="s0l267">267</a><a href="#" id="s0l268">268</a><a href="#" id="s0l269">269</a><a href="#" id="s0l270">270</a><a href="#" id="s0l271">271</a><a href="#" id="s0l272">272</a><a href="#" id="s0l273">273</a><a href="#" id="s0l274">274</a><a href="#" id="s0l275">275</a><a href="#" id="s0l276">276</a><a href="#" id="s0l277">277</a><a href="#" id="s0l278">278</a><a href="#" id="s0l279">279</a><a href="#" id="s0l280">280</a><a href="#" id="s0l281">281</a><a href="#" id="s0l282">282</a><a href="#" id="s0l283">283</a><a href="#" id="s0l284">284</a><a href="#" id="s0l285">285</a><a href="#" id="s0l286">286</a><a href="#" id="s0l287">287</a><a href="#" id="s0l288">288</a><a href="#" id="s0l289">289</a><a href="#" id="s0l290">290</a><a href="#" id="s0l291">291</a><a href="#" id="s0l292">292</a><a href="#" id="s0l293">293</a><a href="#" id="s0l294">294</a><a href="#" id="s0l295">295</a><a href="#" id="s0l296">296</a><a href="#" id="s0l297">297</a><a href="#" id="s0l298">298</a><a href="#" id="s0l299">299</a><a href="#" id="s0l300">300</a><a href="#" id="s0l301">301</a><a href="#" id="s0l302">302</a><a href="#" id="s0l303">303</a><a href="#" id="s0l304">304</a><a href="#" id="s0l305">305</a><a href="#" id="s0l306">306</a><a href="#" id="s0l307">307</a><a href="#" id="s0l308">308</a><a href="#" id="s0l309">309</a><a href="#" id="s0l310">310</a><a href="#" id="s0l311">311</a><a href="#" id="s0l312">312</a><a href="#" id="s0l313">313</a><a href="#" id="s0l314">314</a><a href="#" id="s0l315">315</a><a href="#" id="s0l316">316</a><a href="#" id="s0l317">317</a><a href="#" id="s0l318">318</a><a href="#" id="s0l319">319</a><a href="#" id="s0l320">320</a><a href="#" id="s0l321">321</a><a href="#" id="s0l322">322</a><a href="#" id="s0l323">323</a><a href="#" id="s0l324">324</a><a href="#" id="s0l325">325</a><a href="#" id="s0l326">326</a><a href="#" id="s0l327">327</a><a href="#" id="s0l328">328</a><a href="#" id="s0l329">329</a><a href="#" id="s0l330">330</a><a href="#" id="s0l331">331</a><a href="#" id="s0l332">332</a><a href="#" id="s0l333">333</a><a href="#" id="s0l334">334</a><a href="#" id="s0l335">335</a><a href="#" id="s0l336">336</a><a href="#" id="s0l337">337</a><a href="#" id="s0l338">338</a><a href="#" id="s0l339">339</a><a href="#" id="s0l340">340</a><a href="#" id="s0l341">341</a><a href="#" id="s0l342">342</a><a href="#" id="s0l343">343</a><a href="#" id="s0l344">344</a><a href="#" id="s0l345">345</a><a href="#" id="s0l346">346</a><a href="#" id="s0l347">347</a><a href="#" id="s0l348">348</a><a href="#" id="s0l349">349</a><a href="#" id="s0l350">350</a><a href="#" id="s0l351">351</a><a href="#" id="s0l352">352</a><a href="#" id="s0l353">353</a><a href="#" id="s0l354">354</a><a href="#" id="s0l355">355</a><a href="#" id="s0l356">356</a><a href="#" id="s0l357">357</a><a href="#" id="s0l358">358</a><a href="#" id="s0l359">359</a><a href="#" id="s0l360">360</a><a href="#" id="s0l361">361</a><a href="#" id="s0l362">362</a><a href="#" id="s0l363">363</a><a href="#" id="s0l364">364</a><a href="#" id="s0l365">365</a><a href="#" id="s0l366">366</a><a href="#" id="s0l367">367</a><a href="#" id="s0l368">368</a><a href="#" id="s0l369">369</a><a href="#" id="s0l370">370</a><a href="#" id="s0l371">371</a><a href="#" id="s0l372">372</a><a href="#" id="s0l373">373</a><a href="#" id="s0l374">374</a><a href="#" id="s0l375">375</a><a href="#" id="s0l376">376</a><a href="#" id="s0l377">377</a><a href="#" id="s0l378">378</a><a href="#" id="s0l379">379</a><a href="#" id="s0l380">380</a><a href="#" id="s0l381">381</a><a href="#" id="s0l382">382</a><a href="#" id="s0l383">383</a><a href="#" id="s0l384">384</a><a href="#" id="s0l385">385</a><a href="#" id="s0l386">386</a><a href="#" id="s0l387">387</a><a href="#" id="s0l388">388</a><a href="#" id="s0l389">389</a><a href="#" id="s0l390">390</a><a href="#" id="s0l391">391</a><a href="#" id="s0l392">392</a><a href="#" id="s0l393">393</a><a href="#" id="s0l394">394</a><a href="#" id="s0l395">395</a><a href="#" id="s0l396">396</a><a href="#" id="s0l397">397</a><a href="#" id="s0l398">398</a><a href="#" id="s0l399">399</a><a href="#" id="s0l400">400</a><a href="#" id="s0l401">401</a><a href="#" id="s0l402">402</a><a href="#" id="s0l403">403</a><a href="#" id="s0l404">404</a><a href="#" id="s0l405">405</a><a href="#" id="s0l406">406</a><a href="#" id="s0l407">407</a><a href="#" id="s0l408">408</a><a href="#" id="s0l409">409</a><a href="#" id="s0l410">410</a><a href="#" id="s0l411">411</a><a href="#" id="s0l412">412</a><a href="#" id="s0l413">413</a><a href="#" id="s0l414">414</a><a href="#" id="s0l415">415</a><a href="#" id="s0l416">416</a><a href="#" id="s0l417">417</a><a href="#" id="s0l418">418</a><a href="#" id="s0l419">419</a><a href="#" id="s0l420">420</a><a href="#" id="s0l421">421</a><a href="#" id="s0l422">422</a><a href="#" id="s0l423">423</a><a href="#" id="s0l424">424</a><a href="#" id="s0l425">425</a><a href="#" id="s0l426">426</a><a href="#" id="s0l427">427</a><a href="#" id="s0l428">428</a><a href="#" id="s0l429">429</a><a href="#" id="s0l430">430</a><a href="#" id="s0l431">431</a><a href="#" id="s0l432">432</a><a href="#" id="s0l433">433</a><a href="#" id="s0l434">434</a><a href="#" id="s0l435">435</a><a href="#" id="s0l436">436</a><a href="#" id="s0l437">437</a><a href="#" id="s0l438">438</a><a href="#" id="s0l439">439</a><a href="#" id="s0l440">440</a><a href="#" id="s0l441">441</a><a href="#" id="s0l442">442</a><a href="#" id="s0l443">443</a><a href="#" id="s0l444">444</a><a href="#" id="s0l445">445</a><a href="#" id="s0l446">446</a><a href="#" id="s0l447">447</a><a href="#" id="s0l448">448</a><a href="#" id="s0l449">449</a><a href="#" id="s0l450">450</a><a href="#" id="s0l451">451</a><a href="#" id="s0l452">452</a><a href="#" id="s0l453">453</a><a href="#" id="s0l454">454</a><a href="#" id="s0l455">455</a><a href="#" id="s0l456">456</a><a href="#" id="s0l457">457</a><a href="#" id="s0l458">458</a><a href="#" id="s0l459">459</a><a href="#" id="s0l460">460</a><a href="#" id="s0l461">461</a><a href="#" id="s0l462">462</a><a href="#" id="s0l463">463</a><a href="#" id="s0l464">464</a><a href="#" id="s0l465">465</a><a href="#" id="s0l466">466</a><a href="#" id="s0l467">467</a><a href="#" id="s0l468">468</a><a href="#" id="s0l469">469</a><a href="#" id="s0l470">470</a><a href="#" id="s0l471">471</a><a href="#" id="s0l472">472</a><a href="#" id="s0l473">473</a><a href="#" id="s0l474">474</a><a href="#" id="s0l475">475</a><a href="#" id="s0l476">476</a><a href="#" id="s0l477">477</a><a href="#" id="s0l478">478</a><a href="#" id="s0l479">479</a><a href="#" id="s0l480">480</a><a href="#" id="s0l481">481</a><a href="#" id="s0l482">482</a><a href="#" id="s0l483">483</a><a href="#" id="s0l484">484</a><a href="#" id="s0l485">485</a><a href="#" id="s0l486">486</a><a href="#" id="s0l487">487</a><a href="#" id="s0l488">488</a><a href="#" id="s0l489">489</a><a href="#" id="s0l490">490</a><a href="#" id="s0l491">491</a><a href="#" id="s0l492">492</a><a href="#" id="s0l493">493</a><a href="#" id="s0l494">494</a><a href="#" id="s0l495">495</a><a href="#" id="s0l496">496</a>
			</div>
			<div id="section-content-1403634">
                <pre class="editor no-highlight"><code># Blender v2.75 (sub 0) OBJ File: &#039;&#039;
# www.blender.org
mtllib 40mm.mtl
o 40mm_Cylinder.003
v 0.035276 -0.024318 -0.787408
v 0.188891 -0.024318 -0.772277
v 0.336602 -0.024318 -0.727463
v 0.472733 -0.024318 -0.654691
v 0.592053 -0.024318 -0.556755
v 0.689977 -0.024318 -0.437420
v 0.762740 -0.024318 -0.301271
v 0.807548 -0.024318 -0.153542
v 0.822678 -0.024318 0.000092
v 0.807548 -0.024318 0.153725
v 0.762740 -0.024318 0.301455
v 0.689977 -0.024318 0.437603
v 0.592053 -0.024318 0.556938
v 0.472733 -0.024318 0.654874
v 0.336602 -0.024318 0.727647
v 0.188890 -0.024318 0.772460
v 0.035276 -0.024318 0.787592
v -0.118339 -0.024318 0.772460
v -0.266050 -0.024318 0.727647
v -0.402181 -0.024318 0.654874
v -0.521501 -0.024318 0.556938
v -0.619425 -0.024318 0.437603
v -0.692188 -0.024318 0.301454
v -0.736996 -0.024318 0.153725
v -0.752125 -0.024318 0.000091
v -0.736996 -0.024318 -0.153543
v -0.692188 -0.024318 -0.301272
v -0.619424 -0.024318 -0.437421
v -0.521500 -0.024318 -0.556755
v -0.402180 -0.024318 -0.654691
v -0.266048 -0.024318 -0.727464
v -0.118337 -0.024318 -0.772277
v 0.035276 -0.024318 0.000092
v 0.035276 0.138446 0.000092
v 0.035276 0.138446 -0.730206
v 0.035276 0.128037 -0.740472
v 0.179735 0.128037 -0.726242
v 0.177732 0.138446 -0.716173
v 0.318642 0.128037 -0.684100
v 0.314714 0.138446 -0.674615
v 0.446660 0.128037 -0.615664
v 0.440957 0.138446 -0.607129
v 0.558868 0.128037 -0.523566
v 0.551610 0.138446 -0.516307
v 0.650955 0.128037 -0.411343
v 0.642421 0.138446 -0.405640
v 0.719382 0.128037 -0.283310
v 0.709899 0.138446 -0.279381
v 0.761519 0.128037 -0.144385
v 0.751452 0.138446 -0.142382
v 0.775747 0.128037 0.000092
v 0.765483 0.138446 0.000092
v 0.761519 0.128037 0.144569
v 0.751452 0.138446 0.142566
v 0.719382 0.128037 0.283493
v 0.709899 0.138446 0.279564
v 0.650955 0.128037 0.411527
v 0.642421 0.138446 0.405823
v 0.558868 0.128037 0.523749
v 0.551610 0.138446 0.516490
v 0.446660 0.128037 0.615848
v 0.440957 0.138446 0.607312
v 0.318642 0.128037 0.684284
v 0.314714 0.138446 0.674799
v 0.179735 0.128037 0.726426
v 0.177732 0.138446 0.716357
v 0.035276 0.128037 0.740656
v 0.035276 0.138446 0.730389
v -0.109183 0.128037 0.726426
v -0.107180 0.138446 0.716357
v -0.248090 0.128037 0.684283
v -0.244162 0.138446 0.674799
v -0.376108 0.128037 0.615848
v -0.370405 0.138446 0.607312
v -0.488316 0.128037 0.523749
v -0.481058 0.138446 0.516490
v -0.580403 0.128037 0.411527
v -0.571868 0.138446 0.405823
v -0.648830 0.128037 0.283493
v -0.639347 0.138446 0.279564
v -0.690967 0.128037 0.144568
v -0.680900 0.138446 0.142565
v -0.705195 0.128037 0.000091
v -0.694930 0.138446 0.000091
v -0.690967 0.128037 -0.144386
v -0.680899 0.138446 -0.142383
v -0.648830 0.128037 -0.283310
v -0.639346 0.138446 -0.279382
v -0.580403 0.128037 -0.411344
v -0.571868 0.138446 -0.405641
v -0.488315 0.128037 -0.523567
v -0.481057 0.138446 -0.516307
v -0.376107 0.128037 -0.615665
v -0.370404 0.138446 -0.607129
v -0.248089 0.128037 -0.684100
v -0.244161 0.138446 -0.674616
v -0.109181 0.128037 -0.726242
v -0.107179 0.138446 -0.716174
vt 0.547062 0.437407
vt 0.585521 0.429755
vt 0.605127 0.628844
vt 0.510834 0.452416
vt 0.478230 0.474204
vt 0.450503 0.501936
vt 0.428718 0.534544
vt 0.413712 0.570777
vt 0.406062 0.609240
vt 0.406062 0.648458
vt 0.413712 0.686921
vt 0.428717 0.723153
vt 0.450503 0.755760
vt 0.478230 0.783490
vt 0.510834 0.805277
vt 0.547061 0.820284
vt 0.585520 0.827934
vt 0.624733 0.827933
vt 0.663192 0.820281
vt 0.699419 0.805273
vt 0.732023 0.783484
vt 0.759750 0.755753
vt 0.781536 0.723144
vt 0.796542 0.686912
vt 0.804191 0.648448
vt 0.804191 0.609231
vt 0.796542 0.570767
vt 0.781536 0.534536
vt 0.759750 0.501928
vt 0.732023 0.474198
vt 0.699419 0.452411
vt 0.624733 0.429754
vt 0.663192 0.437404
vt 0.430495 0.316478
vt 0.414312 0.277412
vt 0.620745 0.214804
vt 0.810995 0.316487
vt 0.787501 0.351644
vt 0.641890 0.000147
vt 0.683366 0.008397
vt 0.519055 0.405028
vt 0.483893 0.381536
vt 0.519054 0.024575
vt 0.558124 0.008395
vt 0.641890 0.429462
vt 0.599601 0.429461
vt 0.835429 0.235951
vt 0.827179 0.277422
vt 0.430495 0.113121
vt 0.453989 0.077964
vt 0.810995 0.113130
vt 0.827179 0.152196
vt 0.406062 0.235941
vt 0.406062 0.193657
vt 0.757598 0.381542
vt 0.722436 0.405033
vt 0.722436 0.024580
vt 0.757598 0.048072
vt 0.453990 0.351636
vt 0.599601 0.000146
vt 0.558125 0.421211
vt 0.483892 0.048066
vt 0.835429 0.193667
vt 0.683366 0.421214
vt 0.414312 0.152186
vt 0.787501 0.077972
vt 0.001869 0.457387
vt 0.045172 0.460845
vt 0.043422 0.500001
vt 0.000146 0.500000
vt 0.043942 0.707850
vt 0.084000 0.690300
vt 0.101449 0.725537
vt 0.062929 0.746395
vt 0.393906 0.000146
vt 0.404949 0.042559
vt 0.366742 0.053254
vt 0.353166 0.012020
vt 0.007148 0.414992
vt 0.050111 0.422046
vt 0.274527 0.045352
vt 0.294706 0.084003
vt 0.260836 0.103754
vt 0.237473 0.066860
vt 0.001869 0.542613
vt 0.045172 0.539156
vt 0.050111 0.577955
vt 0.007148 0.585008
vt 0.110307 0.818321
vt 0.144965 0.790981
vt 0.170464 0.820883
vt 0.138505 0.851002
vt 0.169225 0.118856
vt 0.198479 0.151461
vt 0.170464 0.179117
vt 0.138505 0.148998
vt 0.202289 0.908584
vt 0.228683 0.873713
vt 0.260836 0.896246
vt 0.237472 0.933140
vt 0.085090 0.216712
vt 0.121822 0.240780
vt 0.101449 0.274464
vt 0.062930 0.253605
vt 0.015962 0.626873
vt 0.058255 0.616248
vt 0.069573 0.653784
vt 0.028252 0.667916
vt 0.313190 0.972964
vt 0.330061 0.932852
vt 0.366742 0.946746
vt 0.353166 0.987980
vt 0.028252 0.332084
vt 0.069573 0.346216
vt 0.058255 0.383752
vt 0.015962 0.373128
vt 0.330061 0.067148
vt 0.313190 0.027036
vt 0.121822 0.759221
vt 0.085090 0.783288
vt 0.228684 0.126287
vt 0.202289 0.091416
vt 0.198479 0.848539
vt 0.169224 0.881143
vt 0.144965 0.209019
vt 0.110307 0.181679
vt 0.294705 0.915997
vt 0.274527 0.954648
vt 0.084000 0.309700
vt 0.043942 0.292151
vt 0.404949 0.957441
vt 0.393906 0.999854
vt 0.047427 0.500001
vt 0.049129 0.538818
vt 0.054025 0.577290
vt 0.062104 0.615260
vt 0.073332 0.652477
vt 0.087642 0.688682
vt 0.104948 0.723616
vt 0.125145 0.757012
vt 0.148072 0.788530
vt 0.173386 0.818166
vt 0.201160 0.845584
vt 0.231105 0.870548
vt 0.262983 0.892895
vt 0.296564 0.912483
vt 0.331621 0.929195
vt 0.367987 0.942947
vt 0.405769 0.953472
vt 0.405769 0.046528
vt 0.367987 0.057053
vt 0.331621 0.070805
vt 0.296564 0.087517
vt 0.262983 0.107105
vt 0.231106 0.129452
vt 0.201161 0.154416
vt 0.173386 0.181834
vt 0.148072 0.211470
vt 0.125145 0.242988
vt 0.104948 0.276384
vt 0.087643 0.311318
vt 0.073333 0.347523
vt 0.062105 0.384741
vt 0.054025 0.422710
vt 0.049129 0.461184
vn 0.000000 1.000000 -0.000000
vn 0.000000 -1.000000 0.000000
vn -0.160200 -0.571100 -0.805100
vn -0.168200 0.506500 -0.845600
vn 0.000000 0.506500 -0.862200
vn 0.000000 -0.571100 -0.820900
vn 0.682500 -0.571100 -0.456000
vn 0.716900 0.506500 -0.479000
vn 0.796600 0.506500 -0.329900
vn 0.758400 -0.571100 -0.314100
vn 0.000000 -0.571100 0.820900
vn 0.000000 0.506500 0.862200
vn -0.168200 0.506500 0.845600
vn -0.160200 -0.571100 0.805100
vn -0.314200 -0.571100 -0.758400
vn -0.330000 0.506500 -0.796600
vn -0.456100 -0.571100 0.682500
vn -0.479000 0.506500 0.716800
vn -0.609700 0.506500 0.609600
vn -0.580500 -0.571100 0.580400
vn 0.160200 -0.571100 -0.805100
vn 0.168200 0.506500 -0.845600
vn 0.330000 0.506500 -0.796600
vn 0.314200 -0.571100 -0.758400
vn 0.820900 -0.571100 0.000000
vn 0.862200 0.506500 0.000000
vn 0.845600 0.506500 0.168200
vn 0.805100 -0.571100 0.160100
vn -0.758400 -0.571100 0.314100
vn -0.796600 0.506500 0.329900
vn -0.845600 0.506500 0.168200
vn -0.805100 -0.571100 0.160100
vn 0.682500 -0.571100 0.456000
vn 0.716900 0.506500 0.479000
vn 0.609700 0.506500 0.609600
vn 0.580500 -0.571100 0.580400
vn -0.805100 -0.571100 -0.160100
vn -0.845600 0.506500 -0.168200
vn -0.796600 0.506500 -0.329900
vn -0.758400 -0.571100 -0.314100
vn 0.456100 -0.571100 -0.682500
vn 0.479000 0.506500 -0.716800
vn 0.609700 0.506500 -0.609600
vn 0.580500 -0.571100 -0.580400
vn 0.314200 -0.571100 0.758400
vn 0.330000 0.506500 0.796600
vn 0.168200 0.506500 0.845600
vn 0.160200 -0.571100 0.805100
vn -0.580500 -0.571100 -0.580400
vn -0.609700 0.506500 -0.609600
vn -0.479000 0.506500 -0.716800
vn -0.456100 -0.571100 -0.682500
vn -0.330000 0.506500 0.796600
vn -0.314200 -0.571100 0.758400
vn 0.845600 0.506500 -0.168200
vn 0.805100 -0.571100 -0.160100
vn -0.716900 0.506500 0.479000
vn -0.682500 -0.571100 0.456000
vn 0.796600 0.506500 0.329900
vn 0.758400 -0.571100 0.314100
vn -0.862200 0.506500 0.000000
vn -0.820900 -0.571100 0.000000
vn 0.479000 0.506500 0.716800
vn 0.456100 -0.571100 0.682500
vn -0.716900 0.506500 -0.479000
vn -0.682500 -0.571100 -0.456000
vn 0.000000 0.913800 -0.406000
vn 0.079200 0.913800 -0.398200
vn 0.155400 0.913800 -0.375100
vn 0.225600 0.913800 -0.337600
vn 0.287100 0.913800 -0.287100
vn 0.337600 0.913800 -0.225600
vn 0.375100 0.913800 -0.155400
vn 0.398200 0.913800 -0.079200
vn 0.406000 0.913800 0.000000
vn 0.398200 0.913800 0.079200
vn 0.375100 0.913800 0.155400
vn 0.337600 0.913800 0.225600
vn 0.287100 0.913800 0.287100
vn 0.225600 0.913800 0.337600
vn 0.155400 0.913800 0.375100
vn 0.079200 0.913800 0.398200
vn 0.000000 0.913800 0.406000
vn -0.079200 0.913800 0.398200
vn -0.155400 0.913800 0.375100
vn -0.225600 0.913800 0.337600
vn -0.287100 0.913800 0.287100
vn -0.337600 0.913800 0.225600
vn -0.375100 0.913800 0.155400
vn -0.398200 0.913800 0.079200
vn -0.406000 0.913800 0.000000
vn -0.398200 0.913800 -0.079200
vn -0.375100 0.913800 -0.155400
vn -0.337600 0.913800 -0.225600
vn -0.287100 0.913800 -0.287100
vn -0.225600 0.913800 -0.337600
vn -0.155400 0.913800 -0.375100
vn -0.079200 0.913800 -0.398200
usemtl BaseMaterial.004
s off
f 40/1/1 38/2/1 34/3/1
f 42/4/1 40/1/1 34/3/1
f 44/5/1 42/4/1 34/3/1
f 46/6/1 44/5/1 34/3/1
f 48/7/1 46/6/1 34/3/1
f 50/8/1 48/7/1 34/3/1
f 52/9/1 50/8/1 34/3/1
f 54/10/1 52/9/1 34/3/1
f 56/11/1 54/10/1 34/3/1
f 58/12/1 56/11/1 34/3/1
f 60/13/1 58/12/1 34/3/1
f 62/14/1 60/13/1 34/3/1
f 64/15/1 62/14/1 34/3/1
f 66/16/1 64/15/1 34/3/1
f 68/17/1 66/16/1 34/3/1
f 70/18/1 68/17/1 34/3/1
f 72/19/1 70/18/1 34/3/1
f 74/20/1 72/19/1 34/3/1
f 76/21/1 74/20/1 34/3/1
f 78/22/1 76/21/1 34/3/1
f 80/23/1 78/22/1 34/3/1
f 82/24/1 80/23/1 34/3/1
f 84/25/1 82/24/1 34/3/1
f 86/26/1 84/25/1 34/3/1
f 88/27/1 86/26/1 34/3/1
f 90/28/1 88/27/1 34/3/1
f 92/29/1 90/28/1 34/3/1
f 94/30/1 92/29/1 34/3/1
f 96/31/1 94/30/1 34/3/1
f 35/32/1 98/33/1 34/3/1
f 98/33/1 96/31/1 34/3/1
f 38/2/1 35/32/1 34/3/1
f 14/34/2 15/35/2 33/36/2
f 3/37/2 4/38/2 33/36/2
f 25/39/2 26/40/2 33/36/2
f 11/41/2 12/42/2 33/36/2
f 22/43/2 23/44/2 33/36/2
f 8/45/2 9/46/2 33/36/2
f 1/47/2 2/48/2 33/36/2
f 19/49/2 20/50/2 33/36/2
f 30/51/2 31/52/2 33/36/2
f 16/53/2 17/54/2 33/36/2
f 5/55/2 6/56/2 33/36/2
f 27/57/2 28/58/2 33/36/2
f 13/59/2 14/34/2 33/36/2
f 2/48/2 3/37/2 33/36/2
f 24/60/2 25/39/2 33/36/2
f 10/61/2 11/41/2 33/36/2
f 21/62/2 22/43/2 33/36/2
f 32/63/2 1/47/2 33/36/2
f 7/64/2 8/45/2 33/36/2
f 18/65/2 19/49/2 33/36/2
f 29/66/2 30/51/2 33/36/2
f 15/35/2 16/53/2 33/36/2
f 4/38/2 5/55/2 33/36/2
f 26/40/2 27/57/2 33/36/2
f 12/42/2 13/59/2 33/36/2
f 23/44/2 24/60/2 33/36/2
f 9/46/2 10/61/2 33/36/2
f 20/50/2 21/62/2 33/36/2
f 31/52/2 32/63/2 33/36/2
f 6/56/2 7/64/2 33/36/2
f 17/54/2 18/65/2 33/36/2
f 28/58/2 29/66/2 33/36/2
s 1
f 32/67/3 97/68/4 36/69/5 1/70/6
f 6/71/7 45/72/8 47/73/9 7/74/10
f 17/75/11 67/76/12 69/77/13 18/78/14
f 31/79/15 95/80/16 97/68/4 32/67/3
f 20/81/17 73/82/18 75/83/19 21/84/20
f 2/85/21 37/86/22 39/87/23 3/88/24
f 9/89/25 51/90/26 53/91/27 10/92/28
f 23/93/29 79/94/30 81/95/31 24/96/32
f 12/97/33 57/98/34 59/99/35 13/100/36
f 26/101/37 85/102/38 87/103/39 27/104/40
f 4/105/41 41/106/42 43/107/43 5/108/44
f 15/109/45 63/110/46 65/111/47 16/112/48
f 29/113/49 91/114/50 93/115/51 30/116/52
f 18/78/14 69/77/13 71/117/53 19/118/54
f 7/74/10 47/73/9 49/119/55 8/120/56
f 21/84/20 75/83/19 77/121/57 22/122/58
f 10/92/28 53/91/27 55/123/59 11/124/60
f 24/96/32 81/95/31 83/125/61 25/126/62
f 13/100/36 59/99/35 61/127/63 14/128/64
f 27/104/40 87/103/39 89/129/65 28/130/66
f 5/108/44 43/107/43 45/72/8 6/71/7
f 16/112/48 65/111/47 67/131/12 17/132/11
f 30/116/52 93/115/51 95/80/16 31/79/15
f 19/118/54 71/117/53 73/82/18 20/81/17
f 8/120/56 49/119/55 51/90/26 9/89/25
f 22/122/58 77/121/57 79/94/30 23/93/29
f 11/124/60 55/123/59 57/98/34 12/97/33
f 28/130/66 89/129/65 91/114/50 29/113/49
f 14/128/64 61/127/63 63/110/46 15/109/45
f 3/88/24 39/87/23 41/106/42 4/105/41
f 25/126/62 83/125/61 85/102/38 26/101/37
f 37/86/22 36/69/5 35/133/67 38/134/68
f 39/87/23 37/86/22 38/134/68 40/135/69
f 41/106/42 39/87/23 40/135/69 42/136/70
f 43/107/43 41/106/42 42/136/70 44/137/71
f 45/72/8 43/107/43 44/137/71 46/138/72
f 47/73/9 45/72/8 46/138/72 48/139/73
f 49/119/55 47/73/9 48/139/73 50/140/74
f 51/90/26 49/119/55 50/140/74 52/141/75
f 53/91/27 51/90/26 52/141/75 54/142/76
f 55/123/59 53/91/27 54/142/76 56/143/77
f 57/98/34 55/123/59 56/143/77 58/144/78
f 59/99/35 57/98/34 58/144/78 60/145/79
f 61/127/63 59/99/35 60/145/79 62/146/80
f 63/110/46 61/127/63 62/146/80 64/147/81
f 65/111/47 63/110/46 64/147/81 66/148/82
f 67/131/12 65/111/47 66/148/82 68/149/83
f 69/77/13 67/76/12 68/150/83 70/151/84
f 71/117/53 69/77/13 70/151/84 72/152/85
f 73/82/18 71/117/53 72/152/85 74/153/86
f 75/83/19 73/82/18 74/153/86 76/154/87
f 77/121/57 75/83/19 76/154/87 78/155/88
f 79/94/30 77/121/57 78/155/88 80/156/89
f 81/95/31 79/94/30 80/156/89 82/157/90
f 83/125/61 81/95/31 82/157/90 84/158/91
f 85/102/38 83/125/61 84/158/91 86/159/92
f 87/103/39 85/102/38 86/159/92 88/160/93
f 89/129/65 87/103/39 88/160/93 90/161/94
f 91/114/50 89/129/65 90/161/94 92/162/95
f 93/115/51 91/114/50 92/162/95 94/163/96
f 95/80/16 93/115/51 94/163/96 96/164/97
f 97/68/4 95/80/16 96/164/97 98/165/98
f 36/69/5 97/68/4 98/165/98 35/133/67
f 1/70/6 36/69/5 37/86/22 2/85/21</code></pre>
			</div>
		</div>
	</div>
</div>			</div>
<script type="text/javascript">window.workerPath = '/build/js/worker-af63c6d7.js';</script>
			<hr>
			<footer class="footer">
				<div class="row">
					<div class="col-sm-4 text-center-xs text-left-sm">
						&copy; 2018 Paste.ee
					</div>
					<div class="col-sm-4 text-center-xs">
					</div>
					<div class="col-sm-4 text-center-xs text-right-sm">
						<a href="#">Back to top</a> - <a href="https://paste.ee/wiki/AUP">AUP</a>
					</div>
				</div>
			</footer>
		</div> <!-- /container -->

		<script src="https://paste.ee/build/js/app-b3cbd5b2.js"></script>


			</body>
</html>