# 3ds Max Wavefront OBJ Exporter v0.97b - (c)2007 guruware
# File Created: 12.06.2015 20:19:11

mtllib Airlock.mtl

#
# object Plane002
#

v  0.0317 1.2641 -0.4204
v  0.0317 1.2637 0.4357
v  0.0317 1.0733 0.6069
v  0.0317 0.2221 -0.6002
v  0.0317 0.2200 0.6048
v  0.0317 0.0344 0.4249
v  0.0317 0.0357 -0.4162
v  0.0317 1.0781 -0.5960
v  -0.0308 1.2637 0.4357
v  -0.0308 1.2641 -0.4204
v  -0.0308 0.2221 -0.6002
v  -0.0308 1.0733 0.6069
v  -0.0308 0.2200 0.6048
v  -0.0308 0.0344 0.4249
v  -0.0308 0.0357 -0.4162
v  -0.0308 1.0781 -0.5960
# 16 vertices

vn 1.0000 -0.0000 -0.0000
vn -1.0000 0.0000 0.0000
vn -0.0000 -0.6784 -0.7347
vn -0.0000 0.0046 -1.0000
vn -0.0000 0.6621 -0.7494
vn 0.0000 1.0000 0.0005
vn 0.0000 0.6440 0.7650
vn 0.0000 -0.0024 1.0000
vn 0.0000 -0.6716 0.7409
vn -0.0000 -1.0000 -0.0017
# 10 vertex normals

vt 0.8450 1.0000 1.0000
vt 0.1515 0.9996 1.0000
vt 0.0060 0.8432 1.0000
vt 0.9939 0.1580 1.0000
vt 0.0084 0.1628 1.0000
vt 0.1586 0.0060 1.0000
vt 0.8454 0.0099 1.0000
vt 0.9883 0.8469 1.0000
vt 0.1542 0.9958 0.0000
vt 0.8412 1.0001 0.0000
vt 0.9939 0.1629 0.0000
vt 0.0060 0.8478 0.0000
vt 0.0115 0.1592 0.0000
vt 0.1551 0.0059 0.0000
vt 0.8488 0.0067 0.0000
vt 0.9915 0.8430 0.0000
vt 0.3195 0.5794 0.0000
vt 0.3195 0.5791 0.0000
vt 0.3207 0.5791 0.0000
vt 0.3207 0.5794 0.0000
vt 0.3237 0.5791 0.0000
vt 0.3237 0.5794 0.0000
vt 0.3162 0.5856 0.0000
vt 0.3173 0.5856 0.0000
vt 0.3173 0.5859 0.0000
vt 0.3162 0.5859 0.0000
vt 0.3237 0.5784 0.0000
vt 0.3237 0.5787 0.0000
vt 0.3199 0.5787 0.0000
vt 0.3199 0.5784 0.0000
vt 0.3184 0.5797 0.0000
vt 0.3184 0.5800 0.0000
vt 0.3175 0.5800 0.0000
vt 0.3175 0.5797 0.0000
vt 0.3237 0.5800 0.0000
vt 0.3237 0.5797 0.0000
vt 0.3196 0.5797 0.0000
vt 0.3196 0.5800 0.0000
vt 0.3187 0.5797 0.0000
vt 0.3187 0.5800 0.0000
vt 0.3195 0.5784 0.0000
vt 0.3195 0.5787 0.0000
vt 0.3157 0.5787 0.0000
vt 0.3157 0.5784 0.0000
# 44 texture coords

g Plane002
usemtl Material__25
s off
f 1/1/1 2/2/1 3/3/1 4/4/1 
f 3/3/1 5/5/1 6/6/1 4/4/1 
f 6/6/1 7/7/1 4/4/1 
f 8/8/1 1/1/1 4/4/1 
f 9/9/2 10/10/2 11/11/2 12/12/2 
f 13/13/2 12/12/2 11/11/2 14/14/2 
f 15/15/2 14/14/2 11/11/2 
f 10/10/2 16/16/2 11/11/2 
f 7/17/3 15/18/3 11/19/3 4/20/3 
f 16/21/4 8/22/4 4/20/4 11/19/4 
f 16/23/5 10/24/5 1/25/5 8/26/5 
f 9/27/6 2/28/6 1/29/6 10/30/6 
f 12/31/7 3/32/7 2/33/7 9/34/7 
f 3/35/8 12/36/8 13/37/8 5/38/8 
f 5/38/9 13/37/9 14/39/9 6/40/9 
f 15/41/10 7/42/10 6/43/10 14/44/10 
# 12 polygons - 4 triangles

#
# object Door1
#

v  0.0747 -0.0009 -0.6034
v  0.0747 -0.0009 0.5966
v  -0.0753 -0.0009 0.5966
v  -0.0753 -0.0009 -0.6034
v  0.0747 0.0741 -0.6034
v  -0.0753 0.0741 -0.6034
v  -0.0753 0.0741 0.5966
v  0.0747 0.0741 0.5966
v  0.0332 0.0026 0.4959
v  0.0332 0.0043 -0.4804
v  -0.0398 0.0043 -0.4804
v  -0.0398 0.0026 0.4959
# 12 vertices

vn 0.0000 -1.0000 -0.0000
vn 0.0000 1.0000 -0.0000
vn 0.0000 0.0000 1.0000
vn 1.0000 0.0000 -0.0000
vn 0.0000 0.0000 -1.0000
vn -1.0000 0.0000 -0.0000
vn 0.0000 1.0000 0.0017
# 7 vertex normals

vt 0.6782 0.4339 0.0000
vt 0.6782 0.4314 0.0000
vt 0.6807 0.4314 0.0000
vt 0.6807 0.4339 0.0000
vt 0.6726 0.4351 0.0000
vt 0.6860 0.4350 0.0000
vt 0.6860 0.4350 1.0000
vt 0.6726 0.4351 1.0000
# 8 texture coords

g Door1
usemtl Material__25
s 2
f 17/45/11 18/46/11 19/47/11 20/48/11 
s 4
f 21/48/12 22/45/12 23/46/12 24/47/12 
s 8
f 24/48/13 23/45/13 19/46/13 18/47/13 
s 16
f 21/48/14 24/45/14 18/46/14 17/47/14 
s 32
f 22/48/15 21/45/15 17/46/15 20/47/15 
s 64
f 23/48/16 22/45/16 20/46/16 19/47/16 
s off
f 25/49/17 26/50/17 27/51/17 
f 27/51/17 28/52/17 25/49/17 
# 6 polygons - 2 triangles

