# 3ds Max Wavefront OBJ Exporter v0.97b - (c)2007 guruware
# File Created: 12.06.2015 12:07:14

mtllib Room Eldar.mtl

#
# object Box001
#

v  -4.4822 0.0000 4.4962
v  -4.4822 0.0000 -4.5038
v  6.0178 0.0000 -4.5038
v  6.0178 0.0000 4.4962
v  -4.4822 0.2500 4.4962
v  6.0178 0.2500 4.4962
v  6.0178 0.2500 -4.5038
v  -4.4822 0.2500 -4.5038
v  2.9470 0.2500 4.5006
v  2.9470 0.2500 -1.5471
v  3.1706 0.2500 -1.5471
v  3.1706 0.2500 4.5006
v  2.9470 2.0500 4.5006
v  3.1706 2.0500 4.5006
v  3.1706 2.0500 -1.5471
v  2.9470 2.0500 -1.5471
v  -0.0952 0.2500 1.5455
v  -0.0952 0.2500 -4.5022
v  0.1284 0.2500 -4.5022
v  0.1284 0.2500 1.5455
v  -0.0952 2.0500 1.5455
v  0.1284 2.0500 1.5455
v  0.1284 2.0500 -4.5022
v  -0.0952 2.0500 -4.5022
v  -4.4891 0.2500 1.5455
v  -4.4891 0.2500 -4.5022
v  -4.3252 0.2500 -4.5022
v  -4.3252 0.2500 1.5455
v  -4.4891 2.0500 1.5455
v  -4.3252 2.0500 1.5455
v  -4.3252 2.0500 -4.5022
v  -4.4891 2.0500 -4.5022
v  -0.0618 0.2500 -4.3367
v  -4.3255 0.2500 -4.3367
v  -4.3255 0.2500 -4.5006
v  -0.0618 0.2500 -4.5006
v  -0.0618 2.0500 -4.3367
v  -0.0618 2.0500 -4.5006
v  -4.3255 2.0500 -4.5006
v  -4.3255 2.0500 -4.3367
v  5.8503 0.2500 4.4947
v  5.8503 0.2500 -1.5530
v  6.0142 0.2500 -1.5530
v  6.0142 0.2500 4.4947
v  5.8503 2.0500 4.4947
v  6.0142 2.0500 4.4947
v  6.0142 2.0500 -1.5530
v  5.8503 2.0500 -1.5530
v  2.9860 0.2500 4.5038
v  -4.4796 0.2500 4.5038
v  -4.4796 0.2500 4.3399
v  2.9860 0.2500 4.3399
v  2.9860 2.0500 4.5038
v  2.9860 2.0500 4.3399
v  -4.4796 2.0500 4.3399
v  -4.4796 2.0500 4.5038
v  5.8681 0.2500 4.4974
v  3.1395 0.2500 4.4974
v  3.1395 0.2500 4.3335
v  5.8681 0.2500 4.3335
v  5.8681 2.0500 4.4974
v  5.8681 2.0500 4.3335
v  3.1395 2.0500 4.3335
v  3.1395 2.0500 4.4974
v  6.0185 0.2500 -4.3367
v  0.0918 0.2500 -4.3367
v  0.0918 0.2500 -4.5006
v  6.0185 0.2500 -4.5006
v  6.0185 2.0500 -4.3367
v  6.0185 2.0500 -4.5006
v  0.0918 2.0500 -4.5006
v  0.0918 2.0500 -4.3367
v  -2.9083 0.2500 1.5959
v  -4.4895 0.2500 1.5959
v  -4.4895 0.2500 1.4319
v  -2.9083 0.2500 1.4319
v  -2.9083 2.0500 1.5959
v  -2.9083 2.0500 1.4319
v  -4.4895 2.0500 1.4319
v  -4.4895 2.0500 1.5959
# 80 vertices

vn 0.0000 -1.0000 -0.0000
vn 0.0000 1.0000 -0.0000
vn 0.0000 0.0000 1.0000
vn 1.0000 0.0000 -0.0000
vn 0.0000 0.0000 -1.0000
vn -1.0000 0.0000 -0.0000
vn -0.0000 0.0000 -1.0000
# 7 vertex normals

vt 0.7052 0.5516 0.0000
vt 0.7052 0.5680 0.0000
vt 0.6970 0.5680 0.0000
vt 0.6970 0.5516 0.0000
vt 0.0000 0.0000 0.0000
vt 0.4999 0.0000 0.0000
vt 0.4999 1.0000 0.0000
vt 0.0000 1.0000 0.0000
vt 0.7079 0.9643 0.0000
vt 0.6921 0.9643 0.0000
vt 0.6921 0.7351 0.0000
vt 0.7079 0.7351 0.0000
vt 0.7203 0.8564 0.0000
vt 0.7203 0.8362 0.0000
vt 0.8058 0.8362 0.0000
vt 0.8058 0.8564 0.0000
vt 0.9971 0.5622 0.0000
vt 0.9971 0.9938 0.0000
vt 0.9117 0.9938 0.0000
vt 0.9117 0.5622 0.0000
vt 0.9012 0.5177 0.0000
vt 0.9012 0.9403 0.0000
vt 0.8157 0.9403 0.0000
vt 0.8157 0.5177 0.0000
vt 0.7093 0.7486 0.0000
vt 0.6956 0.7486 0.0000
vt 0.6956 0.6691 0.0000
vt 0.7093 0.6691 0.0000
vt 0.9015 0.6992 0.0000
vt 0.9015 0.7270 0.0000
vt 0.8162 0.7270 0.0000
vt 0.8162 0.6992 0.0000
vt 0.5894 0.5151 0.0000
vt 0.5894 0.8941 0.0000
vt 0.5045 0.8930 0.0000
vt 0.5044 0.5151 0.0000
vt 0.8061 0.6992 0.0000
vt 0.8061 0.7270 0.0000
vt 0.7209 0.7270 0.0000
vt 0.7209 0.6992 0.0000
vt 0.9019 0.5185 0.0000
vt 0.9019 0.8384 0.0000
vt 0.8160 0.8384 0.0000
vt 0.8160 0.5185 0.0000
vt 0.7098 0.9821 0.0000
vt 0.6912 0.9821 0.0000
vt 0.6912 0.8838 0.0000
vt 0.7098 0.8838 0.0000
vt 0.9540 0.7721 0.0000
vt 0.9384 0.7721 0.0000
vt 0.9384 0.6893 0.0000
vt 0.9540 0.6893 0.0000
vt 0.9970 0.5621 0.0000
vt 0.9970 0.9954 0.0000
vt 0.9112 0.9954 0.0000
vt 0.9112 0.5621 0.0000
vt 0.9538 0.7727 0.0000
vt 0.9381 0.7727 0.0000
vt 0.9381 0.6880 0.0000
vt 0.9538 0.6880 0.0000
vt 0.8062 0.5621 0.0000
vt 0.8062 0.9954 0.0000
vt 0.7204 0.9954 0.0000
vt 0.7204 0.5621 0.0000
vt 0.9970 0.7115 0.0000
vt 0.9112 0.7115 0.0000
vt 0.8063 0.5621 0.0000
vt 0.8063 0.9954 0.0000
vt 0.7205 0.9954 0.0000
vt 0.7205 0.5621 0.0000
vt 0.9972 0.5621 0.0000
vt 0.9972 0.9954 0.0000
vt 0.9114 0.9954 0.0000
vt 0.9114 0.5621 0.0000
vt 0.7091 0.5855 0.0000
vt 0.7091 0.8182 0.0000
vt 0.6939 0.8182 0.0000
vt 0.6939 0.5855 0.0000
vt 0.6850 0.4990 0.0000
vt 0.6850 0.9956 0.0000
vt 0.5991 0.9956 0.0000
vt 0.5991 0.4990 0.0000
vt 0.8066 0.5642 0.0000
vt 0.8066 0.9918 0.0000
vt 0.7207 0.9918 0.0000
vt 0.7207 0.5642 0.0000
vt 0.7093 0.8699 0.0000
vt 0.6935 0.8699 0.0000
vt 0.6935 0.6408 0.0000
vt 0.7093 0.6408 0.0000
vt 0.7093 0.6405 0.0000
vt 0.7093 0.8713 0.0000
vt 0.6935 0.8713 0.0000
vt 0.6935 0.6405 0.0000
vt 0.8070 0.5622 0.0000
vt 0.8070 0.9938 0.0000
vt 0.7205 0.9938 0.0000
vt 0.7205 0.5622 0.0000
vt 0.9012 0.9954 0.0000
vt 0.8157 0.9954 0.0000
vt 0.7107 0.9919 0.0000
vt 0.6921 0.9919 0.0000
vt 0.6921 0.8936 0.0000
vt 0.7107 0.8936 0.0000
vt 0.7596 0.7721 0.0000
vt 0.7440 0.7721 0.0000
vt 0.7440 0.6893 0.0000
vt 0.7596 0.6893 0.0000
vt 0.8058 0.8234 0.0000
vt 0.8058 0.9954 0.0000
vt 0.7200 0.9954 0.0000
vt 0.7200 0.8234 0.0000
vt 0.7626 0.7791 0.0000
vt 0.7442 0.7791 0.0000
vt 0.7442 0.6816 0.0000
vt 0.7626 0.6816 0.0000
# 116 texture coords

g Box001
usemtl Material__25
s 2
f 1/1/1 2/2/1 3/3/1 4/4/1 
s 4
f 5/5/2 6/6/2 7/7/2 8/8/2 
s 8
f 1/4/3 4/1/3 6/2/3 5/3/3 
s 16
f 4/4/4 3/1/4 7/2/4 6/3/4 
s 32
f 3/4/5 2/1/5 8/2/5 7/3/5 
s 64
f 2/4/6 1/1/6 5/2/6 8/3/6 
s 2
f 9/9/1 10/10/1 11/11/1 12/12/1 
s 4
f 13/12/2 14/9/2 15/10/2 16/11/2 
s 8
f 9/13/3 12/14/3 14/15/3 13/16/3 
s 16
f 12/17/4 11/18/4 15/19/4 14/20/4 
s 32
f 11/13/5 10/14/5 16/15/5 15/16/5 
s 64
f 10/21/6 9/22/6 13/23/6 16/24/6 
s 2
f 17/25/1 18/26/1 19/27/1 20/28/1 
s 4
f 21/28/2 22/25/2 23/26/2 24/27/2 
s 8
f 17/29/3 20/30/3 22/31/3 21/32/3 
s 16
f 20/33/4 19/34/4 23/35/4 22/36/4 
s 32
f 19/37/5 18/38/5 24/39/5 23/40/5 
s 64
f 18/41/6 17/42/6 21/43/6 24/44/6 
s 2
f 25/45/1 26/46/1 27/47/1 28/48/1 
s 4
f 29/48/2 30/45/2 31/46/2 32/47/2 
s 8
f 25/49/3 28/50/3 30/51/3 29/52/3 
s 16
f 28/53/4 27/54/4 31/55/4 30/56/4 
s 32
f 27/57/5 26/58/5 32/59/5 31/60/5 
s 64
f 26/61/6 25/62/6 29/63/6 32/64/6 
s 2
f 33/45/1 34/46/1 35/47/1 36/48/1 
s 4
f 37/48/2 38/45/2 39/46/2 40/47/2 
s 8
f 33/49/4 36/50/4 38/51/4 37/52/4 
s 16
f 36/65/5 35/54/5 39/55/5 38/66/5 
s 32
f 35/57/6 34/58/6 40/59/6 39/60/6 
s 64
f 34/65/3 33/54/3 37/55/3 40/66/3 
s 2
f 41/45/1 42/46/1 43/47/1 44/48/1 
s 4
f 45/48/2 46/45/2 47/46/2 48/47/2 
s 8
f 41/49/3 44/50/3 46/51/3 45/52/3 
s 16
f 44/67/4 43/68/4 47/69/4 46/70/4 
s 32
f 43/57/5 42/58/5 48/59/5 47/60/5 
s 64
f 42/71/6 41/72/6 45/73/6 48/74/6 
s 2
f 49/25/1 50/26/1 51/27/1 52/28/1 
s 4
f 53/28/2 54/25/2 55/26/2 56/27/2 
s 8
f 49/75/4 52/76/4 54/77/4 53/78/4 
s 16
f 52/79/5 51/80/5 55/81/5 54/82/5 
s 32
f 51/75/6 50/76/6 56/77/6 55/78/6 
s 64
f 50/83/3 49/84/3 53/85/3 56/86/3 
s 2
f 57/45/1 58/46/1 59/47/1 60/48/1 
s 4
f 61/48/2 62/45/2 63/46/2 64/47/2 
s 8
f 57/49/4 60/50/4 62/51/4 61/52/4 
s 16
f 60/65/5 59/54/5 63/55/5 62/66/5 
s 32
f 59/57/6 58/58/6 64/59/6 63/60/6 
s 64
f 58/65/3 57/54/3 61/55/3 64/66/3 
s 2
f 65/87/1 66/88/1 67/89/1 68/90/1 
s 4
f 69/90/2 70/87/2 71/88/2 72/89/2 
s 8
f 65/91/4 68/92/4 70/93/4 69/94/4 
s 16
f 68/95/5 67/96/5 71/97/5 70/98/5 
s 32
f 67/91/6 66/92/6 72/93/6 71/94/6 
s 64
f 66/21/3 65/99/3 69/100/3 72/24/3 
s 2
f 73/101/1 74/102/1 75/103/1 76/104/1 
s 4
f 77/104/2 78/101/2 79/102/2 80/103/2 
s 8
f 73/105/4 76/106/4 78/107/4 77/108/4 
s 16
f 76/109/7 75/110/7 79/111/7 78/112/7 
s 32
f 75/113/6 74/114/6 80/115/6 79/116/6 
s 64
f 74/109/3 73/110/3 77/111/3 80/112/3 
# 60 polygons

