# 3ds Max Wavefront OBJ Exporter v0.97b - (c)2007 guruware
# File Created: 09.01.2016 01:05:38

#
# object Cylinder001
#

v  -0.0138 0.0001 0.0034
v  0.9168 0.0001 0.0010
v  0.9173 0.0001 -0.3584
v  0.9170 0.0001 -0.7239
v  0.6432 0.0001 -1.0086
v  0.2038 0.0001 -1.0099
v  -0.2304 0.0001 -1.0099
v  -0.6562 0.0001 -1.0092
v  -0.9305 0.0001 -0.7276
v  -0.9348 0.0001 -0.3231
v  -0.9349 0.0001 0.0034
v  -0.8849 0.0001 0.3375
v  -0.7723 0.0001 0.6313
v  -0.5090 0.0001 0.8493
v  -0.1860 0.0001 0.9653
v  0.1578 0.0001 0.9653
v  0.4808 0.0001 0.8493
v  0.7441 0.0001 0.6313
v  0.8651 0.0001 0.3196
v  0.9168 0.1479 0.0010
v  0.9173 0.1479 -0.3584
v  0.9170 0.1479 -0.7239
v  0.6432 0.1479 -1.0086
v  0.2038 0.1479 -1.0099
v  -0.2304 0.1479 -1.0099
v  -0.6562 0.1479 -1.0092
v  -0.9305 0.1479 -0.7276
v  -0.9348 0.1479 -0.3231
v  -0.9349 0.1479 0.0034
v  -0.8849 0.1479 0.3375
v  -0.7723 0.1479 0.6313
v  -0.5090 0.1479 0.8493
v  -0.1860 0.1479 0.9653
v  0.1578 0.1479 0.9653
v  0.4808 0.1479 0.8493
v  0.7441 0.1479 0.6313
v  0.8651 0.1479 0.3196
v  -0.0138 0.1479 0.0034
# 38 vertices

vt 0.4950 0.5001 0.0000
vt 0.0423 0.5012 0.0000
vt 0.0420 0.6730 0.0000
vt 0.0421 0.8477 0.0000
vt 0.1753 0.9838 0.0000
vt 0.3891 0.9844 0.0000
vt 0.6004 0.9844 0.0000
vt 0.8075 0.9841 0.0000
vt 0.9410 0.8495 0.0000
vt 0.9430 0.6561 0.0000
vt 0.9431 0.5001 0.0000
vt 0.9188 0.3404 0.0000
vt 0.8640 0.1999 0.0000
vt 0.7359 0.0957 0.0000
vt 0.5788 0.0403 0.0000
vt 0.4115 0.0403 0.0000
vt 0.2544 0.0957 0.0000
vt 0.1262 0.1999 0.0000
vt 0.0674 0.3489 0.0000
vt 0.9428 0.5012 1.0000
vt 0.9431 0.6730 1.0000
vt 0.9429 0.8477 1.0000
vt 0.8098 0.9838 1.0000
vt 0.5960 0.9844 1.0000
vt 0.3847 0.9844 1.0000
vt 0.1776 0.9841 1.0000
vt 0.0441 0.8495 1.0000
vt 0.0420 0.6561 1.0000
vt 0.0420 0.5001 1.0000
vt 0.0663 0.3404 1.0000
vt 0.1211 0.1999 1.0000
vt 0.2492 0.0957 1.0000
vt 0.4063 0.0403 1.0000
vt 0.5736 0.0403 1.0000
vt 0.7307 0.0957 1.0000
vt 0.8588 0.1999 1.0000
vt 0.9177 0.3489 1.0000
vt 0.4901 0.5001 1.0000
vt 0.9165 0.7912 0.0000
vt 0.9170 0.7912 0.0000
vt 0.9165 0.7934 0.0000
vt 0.9156 0.7912 0.0000
vt 0.9156 0.7934 0.0000
vt 0.9145 0.7912 0.0000
vt 0.9145 0.7934 0.0000
vt 0.9164 0.7912 0.0000
vt 0.9164 0.7934 0.0000
vt 0.9153 0.7912 0.0000
vt 0.9153 0.7934 0.0000
vt 0.9171 0.7934 0.0000
vt 0.9162 0.7934 0.0000
vt 0.9162 0.7912 0.0000
vt 0.9171 0.7934 0.0000
vt 0.9171 0.7912 0.0000
vt 0.9170 0.7934 0.0000
vt 0.9157 0.7912 0.0000
vt 0.9157 0.7934 0.0000
vt 0.9149 0.7934 0.0000
vt 0.9149 0.7912 0.0000
vt 0.9134 0.7912 0.0000
vt 0.9134 0.7934 0.0000
vt 0.9123 0.7912 0.0000
vt 0.9123 0.7934 0.0000
vt 0.9171 0.7912 0.0000
vt 0.9145 0.7934 0.0000
vt 0.9145 0.7912 0.0000
vt 0.9136 0.7912 0.0000
vt 0.9136 0.7934 0.0000
vt 0.9154 0.7912 0.0000
vt 0.9154 0.7934 0.0000
vt 0.9146 0.7912 0.0000
vt 0.9146 0.7934 0.0000
vt 0.9139 0.7912 0.0000
vt 0.9139 0.7934 0.0000
vt 0.9130 0.7912 0.0000
vt 0.9130 0.7934 0.0000
vt 0.9123 0.7912 0.0000
vt 0.9123 0.7934 0.0000
vt 0.9129 0.7934 0.0000
vt 0.9129 0.7912 0.0000
vt 0.9123 0.7912 0.0000
vt 0.9123 0.7934 0.0000
# 82 texture coords

g Cylinder001
f 1/1 4/4 3/3 2/2 
f 1/1 6/6 5/5 4/4 
f 1/1 8/8 7/7 6/6 
f 1/1 10/10 9/9 8/8 
f 1/1 12/12 11/11 10/10 
f 1/1 14/14 13/13 12/12 
f 1/1 16/16 15/15 14/14 
f 1/1 18/18 17/17 16/16 
f 1/1 2/2 19/19 18/18 
f 38/38 37/37 20/20 21/21 
f 38/38 21/21 22/22 23/23 
f 38/38 23/23 24/24 25/25 
f 38/38 25/25 26/26 27/27 
f 38/38 27/27 28/28 29/29 
f 38/38 29/29 30/30 31/31 
f 38/38 31/31 32/32 33/33 
f 38/38 33/33 34/34 35/35 
f 38/38 35/35 36/36 37/37 
f 15/51 33/52 32/54 14/53 
f 33/52 15/51 16/70 34/69 
f 34/69 16/70 17/72 35/71 
f 36/39 35/40 17/55 18/41 
f 37/56 36/39 18/41 19/57 
f 2/58 20/59 37/56 19/57 
f 20/59 2/58 3/74 21/73 
f 21/73 3/74 4/76 22/75 
f 23/77 22/75 4/76 5/78 
f 23/42 5/43 6/45 24/44 
f 25/60 24/44 6/45 7/61 
f 26/62 25/60 7/61 8/63 
f 27/46 9/47 10/49 28/48 
f 8/50 9/47 27/46 26/64 
f 11/65 29/66 28/48 10/49 
f 29/66 11/65 12/68 30/67 
f 12/68 13/79 31/80 30/67 
f 31/80 13/79 14/82 32/81 
# 36 polygons

