# This file uses centimeters as units for non-parametric coordinates.

mtllib Config_4.mtl
g default
v 1.000000 0.220886 -0.999999
v 0.999999 0.220886 1.000000
v 0.833334 0.220886 -1.000000
v 0.833333 0.220886 1.000000
v 0.999999 2.220886 1.000000
v 1.000000 2.220886 -0.999999
v 0.833334 2.220886 -1.000000
v 0.833333 2.220886 1.000000
vt 0.302870 0.962021
vt 0.302870 0.753248
vt 0.511644 0.753248
vt 0.511644 0.962021
vt 0.511986 0.510727
vt 0.511986 0.719501
vt 0.303213 0.719501
vt 0.303213 0.510727
vt 0.510709 0.969987
vt 0.510709 0.987385
vt 0.301935 0.987385
vt 0.301935 0.969987
vt 0.510550 0.745088
vt 0.301776 0.745088
vt 0.301776 0.727690
vt 0.510550 0.727691
vt 0.521087 0.964509
vt 0.521087 0.755735
vt 0.538484 0.755735
vt 0.538484 0.964509
vt 0.276457 0.962817
vt 0.276457 0.754043
vt 0.293855 0.754043
vt 0.293855 0.962817
vn -0.000006 0.000000 1.000000
vn -0.000006 0.000000 1.000000
vn -0.000006 0.000000 1.000000
vn -0.000006 0.000000 1.000000
vn -1.000000 0.000000 -0.000001
vn -1.000000 0.000000 -0.000001
vn -1.000000 0.000000 -0.000001
vn -1.000000 0.000000 -0.000001
vn 0.000000 1.000000 -0.000000
vn 0.000000 1.000000 -0.000000
vn 0.000000 1.000000 -0.000000
vn 0.000000 1.000000 -0.000000
vn 1.000000 0.000000 0.000001
vn 1.000000 0.000000 0.000001
vn 1.000000 0.000000 0.000001
vn 1.000000 0.000000 0.000001
vn 0.000006 0.000000 -1.000000
vn 0.000006 0.000000 -1.000000
vn 0.000006 0.000000 -1.000000
vn 0.000006 0.000000 -1.000000
vn 0.000000 -1.000000 0.000000
vn 0.000000 -1.000000 0.000000
vn 0.000000 -1.000000 0.000000
vn 0.000000 -1.000000 0.000000
s off
g wall2 Config4
usemtl initialShadingGroup
f 8/17/1 4/18/2 2/19/3 5/20/4
f 7/1/5 3/2/6 4/3/7 8/4/8
f 8/9/9 5/10/10 6/11/11 7/12/12
f 5/5/13 2/6/14 1/7/15 6/8/16
f 6/21/17 1/22/18 3/23/19 7/24/20
f 4/13/21 3/14/22 1/15/23 2/16/24
g default
v 1.000000 0.020886 -1.000000
v 1.000000 0.020886 1.000000
v -1.000000 0.020886 1.000000
v -1.000000 0.020886 -1.000000
v -1.000000 0.220886 -1.000000
v 1.000000 0.220886 -0.999999
v -1.000000 0.220886 1.000000
v 0.999999 0.220886 1.000000
vt 0.242144 0.494139
vt 0.033370 0.494139
vt 0.033370 0.473262
vt 0.242144 0.473262
vt 0.035608 0.228272
vt 0.244382 0.228272
vt 0.244381 0.249150
vt 0.035608 0.249149
vt 0.035613 0.219065
vt 0.035613 0.010291
vt 0.244387 0.010292
vt 0.244387 0.219065
vt 0.034829 0.257257
vt 0.243604 0.257257
vt 0.243604 0.466031
vt 0.034829 0.466031
vt 0.026817 0.256273
vt 0.026817 0.465047
vt 0.005939 0.465047
vt 0.005939 0.256273
vt 0.272939 0.465496
vt 0.252062 0.465496
vt 0.252062 0.256722
vt 0.272939 0.256722
vn 0.000000 -1.000000 0.000000
vn 0.000000 -1.000000 0.000000
vn 0.000000 -1.000000 0.000000
vn 0.000000 -1.000000 0.000000
vn 0.000000 0.000000 -1.000000
vn 0.000000 0.000000 -1.000000
vn 0.000000 0.000000 -1.000000
vn 0.000000 0.000000 -1.000000
vn 0.000000 1.000000 0.000000
vn 0.000000 1.000000 0.000000
vn 0.000000 1.000000 0.000000
vn 0.000000 1.000000 0.000000
vn 1.000000 0.000000 0.000000
vn 1.000000 0.000000 0.000000
vn 1.000000 0.000000 0.000000
vn 1.000000 0.000000 0.000000
vn 0.000000 0.000000 1.000000
vn 0.000000 0.000000 1.000000
vn 0.000000 0.000000 1.000000
vn 0.000000 0.000000 1.000000
vn -1.000000 0.000000 0.000000
vn -1.000000 0.000000 0.000000
vn -1.000000 0.000000 0.000000
vn -1.000000 0.000000 0.000000
s off
g Config4 floor
usemtl initialShadingGroup
f 12/33/25 9/34/26 10/35/27 11/36/28
f 13/41/29 14/42/30 9/43/31 12/44/32
f 13/37/33 15/38/34 16/39/35 14/40/36
f 10/25/37 9/26/38 14/27/39 16/28/40
f 10/45/41 16/46/42 15/47/43 11/48/44
f 12/29/45 11/30/46 15/31/47 13/32/48
