# This file uses centimeters as units for non-parametric coordinates.

mtllib Floor_Only.mtl
g default
v 1.000000 0.020886 -1.000000
v 1.000000 0.020886 1.000000
v -1.000000 0.020886 1.000000
v -1.000000 0.020886 -1.000000
v -1.000000 0.220886 -1.000000
v 1.000000 0.220886 -0.999999
v -1.000000 0.220886 1.000000
v 0.999999 0.220886 1.000000
vt 0.242144 0.494139
vt 0.033370 0.494139
vt 0.033370 0.473262
vt 0.242144 0.473262
vt 0.035608 0.228272
vt 0.244382 0.228272
vt 0.244381 0.249150
vt 0.035608 0.249149
vt 0.035613 0.219065
vt 0.035613 0.010291
vt 0.244387 0.010292
vt 0.244387 0.219065
vt 0.034829 0.257257
vt 0.243604 0.257257
vt 0.243604 0.466031
vt 0.034829 0.466031
vt 0.026817 0.256273
vt 0.026817 0.465047
vt 0.005939 0.465047
vt 0.005939 0.256273
vt 0.272939 0.465496
vt 0.252062 0.465496
vt 0.252062 0.256722
vt 0.272939 0.256722
vn 0.000000 -1.000000 0.000000
vn 0.000000 -1.000000 0.000000
vn 0.000000 -1.000000 0.000000
vn 0.000000 -1.000000 0.000000
vn 0.000000 0.000000 -1.000000
vn 0.000000 0.000000 -1.000000
vn 0.000000 0.000000 -1.000000
vn 0.000000 0.000000 -1.000000
vn 0.000000 1.000000 0.000000
vn 0.000000 1.000000 0.000000
vn 0.000000 1.000000 0.000000
vn 0.000000 1.000000 0.000000
vn 1.000000 0.000000 0.000000
vn 1.000000 0.000000 0.000000
vn 1.000000 0.000000 0.000000
vn 1.000000 0.000000 0.000000
vn 0.000000 0.000000 1.000000
vn 0.000000 0.000000 1.000000
vn 0.000000 0.000000 1.000000
vn 0.000000 0.000000 1.000000
vn -1.000000 0.000000 0.000000
vn -1.000000 0.000000 0.000000
vn -1.000000 0.000000 0.000000
vn -1.000000 0.000000 0.000000
s off
g floor Floor_Only
usemtl initialShadingGroup
f 4/9/1 1/10/2 2/11/3 3/12/4
f 5/17/5 6/18/6 1/19/7 4/20/8
f 5/13/9 7/14/10 8/15/11 6/16/12
f 2/1/13 1/2/14 6/3/15 8/4/16
f 2/21/17 8/22/18 7/23/19 3/24/20
f 4/5/21 3/6/22 7/7/23 5/8/24
